<mxfile host="Electron" modified="2024-01-22T09:38:36.911Z" agent="Mozilla/5.0 (Windows NT 10.0; Win64; x64) AppleWebKit/537.36 (KHTML, like Gecko) draw.io/21.2.8 Chrome/112.0.5615.165 Electron/24.2.0 Safari/537.36" etag="k6RMP-YF9b2vry0oSbGW" version="21.2.8" type="device">
  <diagram name="Page-1" id="2XWkQP5S-hDbL94sL5Vg">
    <mxGraphModel dx="1418" dy="820" grid="1" gridSize="10" guides="1" tooltips="1" connect="1" arrows="1" fold="1" page="1" pageScale="1" pageWidth="3300" pageHeight="4681" background="#999999" math="0" shadow="0">
      <root>
        <mxCell id="0" />
        <mxCell id="1" parent="0" />
        <mxCell id="RHCFxmJjhwdRAFU584P4-1" value="" style="shape=image;verticalLabelPosition=bottom;labelBackgroundColor=default;verticalAlign=top;aspect=fixed;imageAspect=0;image=data:image/png,iVBORw0KGgoAAAANSUhEUgAAAysAAAJLCAYAAADn1AmyAAAAAXNSR0IArs4c6QAAAARnQU1BAACxjwv8YQUAAAAJcEhZcwAADsMAAA7DAcdvqGQAAH9USURBVHhe7d0PcFRlnuj9H8JcJmTXATqRECU0owbClf93Ru5Eg7DovA6XIdcxFHnrvVO6M+xqagq41lKFW/rqlL5j3uKuxVBb0Vmcxdpbb5ECxzeRl5nalRVB4+A4ARxc/kRdQhgDSpqgd0Ne3ivyPs85z+mc7j6n/5zuJCfJ91PV1aef7qfPvz6nz+88/8bNX7DwugySioqodHV1mlcAAAAAkL0bzDMAAAAAhArBCgAAAIBQIlgBAAAAEEoEKwAAAABCiWAFAAAAQCgRrAAAAAAIJYIVAAAAAKFEsAIAAAAglAhWAAAAAIQSwQoAAACAUCJYAQAAABBKBCsAAAAAQolgBQAAAEAoEawAAAAACCWCFQAAAAChRLACAAAAIJQIVgAAAACEEsEKAAAAgFAiWAEAAAAQSgQrAAAAAEKJYAUAAABAKBGsAAAAAAglghUAAAAAoUSwAgAAACCUCFYAAAAAhBLBCgAAAIBQIlgBAAAAEEoEKwAAAABCiWAFAAAAQCgRrAAAAAAIJYIVAAAAAKFEsAIAAAAglMbNX7DwupkuuIqKqHR1dZpXQBAlUlP3LaldPEvKp5skOSNND/1GDplXAAAAGJ0IVvJUUjtBbrvNvPB1XT75h2ty7jPzElmr2dggDYvMiziCFQAAgLGAamAIsRK5ucyeat+xW9Y91GQeBCoAAABjASUrBTVOZvz5eLl5KiUphVEi9c+tlTVyRLY8flioUAgAADC2ULICAAAAIJQoWSmo7EpW7HYu1+Wj//aVFNXeIDffNk6lXpdLv74mHSfUd6SkWdkS3aQ+950bZKr6XJFJ6r+kPn/4Kzl3wn+XTpo7Xm5fqvJMNQke+t+9Ju+/lfQdPvP75P+5Jj2DWIJktVkpo2QFAABgLKJkZRjdrAMbKyjRxsnUpTeoQCUp7XvjpcS8sulgZrws/aH9OSdw0IqmjpOb1ecr55qEJCUq3/zvpQ9UvEy6239+t/1wgiy421neQTJ9ilSYSQAAAIwdBCvDRgcNugTmSzn8367JJ5dU0lRdopKUpgMWd/Ax1y510aUaH/3DNfU5/Vn78x+9a5eGpAY4ytzxcpsVBKnv//VAvj/8+ivptz6gS3rstIRSFZVv/p2mlOfda/IH8xk773Urb9GdKsi6yfo0AAAAUDAEK8Oo/92vTFWx6xL70A4Q3Gn9VrCS5IQKGFQw8/7f6+pX7qpa16XnLRWwfGS/KkoKHiZF7GddrcxdTezKia/kfRV0pARFlnEyY6ldamJVR1NBzBXrle2KWpZ43tmFLl0pkWjd/VKruy0+3ytddiIAAADGEIKVYdQfcwcbNnfaFY/3tStOG5GbxknJ3Buksna8LPjz8bL0r5wxX8ZJUUrRSmZFkaSAQ33/VF1l7NJX8kevdjOaCnZ0TFV0+ziZZKfkZ+ZSef7lBml+ea00rpol5efPSOuLtFcBAAAYiwhWRqBJOkD58wlWO5LbvmcavU9NX7JxJWY/W1XE3KUuKiCp/J6dNyV4KjFtVKbeIPNVIKSDodTHeMmxCUxOutXjE3sSAAAAYwzBykij25DoAMUq8bDbkei2K38w7VecamApTjhVxOxG8fFgQwU8VrDx0TX/0pOhdPawPGYN/Lhbmvb1Svn0WdLwyFKJmrcBAAAwdhCsjChOKYhpJP/3djsS3XblSkL7FT/2Z+wG9Q7TcL4lsT2KpcduQK8DGadRve/j779KzZ+XHjm0Z5c0HVWT9AYGAAAwJhGsjESXrkvMcyyVxK6FE1i9gYnV09j7CYFGasP5OBUAXdINUm6jty8AAAAMPYKVkWjqDXL73e4G7WpaBSO6kf3NVgP7VHZvYCqYyanXruty7rAOisbJzT8cL5V6nglByzgpuVvN9688ukoGAAAA8sQI9nmyR6M3L3zpsVMGRrR38lz69Zfx0en1wIt6PJNs0zzpsVc+FLktKY/lphtkwQ9v8C95UfxGwE87T03l0yPZ+43YH1yJ1D+3VtYII9gDAACMRZSsjDBX3rpmD8boHoNFBwumDUuP6fUrxWfqMx+lj0v9RsDX8zysgi2dP6G9iw5udHsXNd/CByoAAAAY6yhZGRPGyQxdRUy+UoGFX0P4cVJSa7dr6VcBSMIo9sOGkhUAAICxjJKVscAM7tj/oU9Deot6z2cQymE3fbHUVdMqBgAAYKwhWBlDiu68QSrnpo40P0kFMzNqnXYp1+WTUJSqaD3y2yO91tSS9Wul2RrZXj/ulxorFQAAAKMZ1cDGiKw6Ahi0hvL5idbdLxsWz5Ly6SZBzkjTQ7+RQ+YVAAAARieClTFk0twb5Jal46yG9O5ewZxewPTYLYUd2BEAAAAIjmAFAAAAQCjRZgUAAABAKBGs5EGXHAEAAAAYHAQrAAAAAEKJYAUAAABAKBGsAAAAAAglghUAAAAAoUSwAgAAACCUCFYAAAAAhBLBCgAAAIBQIlgBAAAAEErj5i9YeN1MF5weNLGrq9O8Gn1G+/qNVNGZlfIfa5fImkVTRI7ul3U/7zDv+ItWL5W6/7RYlkw3CdIr7fvaZc+eDmEPAwAADA+ClTwQrIRLzcYGaVhkXjiyCFaidfXSuEoFNl7OH5Etjx8mYAEAABgG46eVlT1tpgvuG9+YLJ9/ftm8Gn1G+/oVzMylsnnL92XDf/mWfOdrZ+QfT1wxbxTWuAufS8dH/yrvHVGPC1PkW5VFIhf+VV55N2Y+4UEt2//+F9+UP7VKUvbK9p8dlJda3pNXjn4us+Z8U8qnT5eVMz9P/x0AAAAYFLRZQRplsmnxk/J+9ZOyvdQkJXDeb5BNxSbJQ03tQPWq8lX3Sv1Me7rQOs92yKE28+jOLojUy1aunrv3vS5b9/QMlKCo79r6+H5p19OLlgzaMgMAAMAfwQrSuCDbjrTIQTW1rDI1IKmqeEAeLlJBwrlXZVufSRxRKuVOq9rYGWlRgUqqDtmzr1c9T5FbbrFTAAAAMHQIVpDBcdnQcVo9R+Th2Sukyk4UKV4hjTMiIv1tsqXrgkn0dqjliLSft6d1Ccaus/b0sJs5VawCn6MfyyErwRY1z1qnKaGZXl5iPQMAAGDoEKwgs4u75QndZKOoWhorytREmWyaXa0u6mOy8/QbctL6UBpnD8vWx5tk3UNN8phnCcYwuWWKXQWs+5L9Wipl88sN0qgez9eZ4OSPvdKtnsrLp9qvAQAAMGQIVpCVvafs6mDRGQ/I9jl29a+DHU0jtPqXj+pbZYmZJDgBAAAYfgQryNJx2XCsTTolIssiEZFYi2y4aN4a4eKBSdt70mpVV+uV9t9nHpsFAAAAg4tgBVmriswZaM8xqXSg/cpIZap4DeiRXVZ1tV2ytc0kpVQVAwAAwFAhWEF2StdKs25QH2uRJ87FXO1XRrCzl8QqSFl0q9RYCami5ZOt5/PdIWprAwAAMEYQrCAL82R75Wz1fFqeOHVc9na9Kjv7dfuV9T7jryTRg0I+1yDN7obrodAh7x7Vz7Ok1nO5KqXOGtn+jLzrlLQAAABgyBCsIKPVc2plmXo+2LFb9lopF2Tbad1+RY+/slZWW2n+hmpQyCB0t8pWb1+r1qpAqnKgmtvMShVgrbQb3Cd1bQwAAIChMW7+goXXzXTBVVREpasrPib4qDPa189Sulbe16UqsRZZcOq4SbRVVTTEq4Ylv+dWs7FBGqzBF7VeaX1qV8HHWkmcRxpH98u6nyc2no/W1UujVYLi4fwR2fL44YGR7QEAADBkKFmBv+IV0uqq/pXsZFeTPf5KpFZa07RfCe2gkEbnnl2yZYdeRj1avaNX2vftJ1ABAAAYRpSs5GFMlKwAAAAAw4SSFQAAAAChRLACAAAAIJQIVgAAAACEEsEKAAAAgFAiWAEAAAAQSgQrAAAAAEKJYAUAAABAKBGsAAAAAAglghUAAAAAoUSwAgAAACCUCFYAAAAAhBLBCgAAAIBQIlgBAAAAEEoEKwAAAABCiWAFAAAAQCiNm79g4XUzXXAVFVHp6uo0r0af0b5+I0ulbH55pSwxrzydPyJbHj8sXnssWr1U6v7TYlky3SRIr7Tva5c9ezo8Pw8AAIDBR8kKxrxoXb00rncHKtoUWbJqpTQ+t1SiJgUAAABDi5KVPFCykqWZS2XzI3Yw0L1vtzy2p8e8UUimZCVN6YkntWzP/3SxlFslKa/LHrVsVt6Z6vseUd+nA5ij+2Xdzzt0KgAAAIYQJSvwtXrOk/J+9ZOyvdQkeCqTTYv159bKapOSrKZ2oNSifNW9Uj/Tni6omVPFmsWFSzlV29LLVq6eu1WgstUJVLSzHbL18f3SrqcXLRmcZQYAAEBaBCvwtfdcm3XxvmzGCqmyk1IVz5XlReo5dlL22ikjSKXcuUg/n5EWz9KeDtmzr1c9T5FbbrFTAAAAMHQIVuCv7w15Kaaei6rlUZ/SldUzqiUqMdl57rhJSXWo5Yi0n7endQnGrrP2dEHdMsUuIekWqdlYL80vN5hHvTy/canUeJWMOKUxRz+WQ1aCzd1GpbP7svU8vbzEegYAAMDQIVhBWvHSlcg8OyHBPLk3op76T8k/9tkpns4elq2PN8m6h5oGqb3KgPJVK6Vh0RTzSlNBzKLF0vDTBtlcbZIc8QDnkv3aavfSII3q8XydCU7+2Csq/pHy8qn2awAAAAwZghWk13dCDvSr58jdsqnYToorrZJl6qmz54SctFOGT9t70nr0jLTu2C1bVFCkAyPr8dT+eKnOkvX3S4096a361njXxwQnAAAAw49gBRlckG3nTqvniCyPlNlJljLZNGO2ej4tL3VdsJOGVY/s+vlvZFebq5G8ZjWU3y2tVsAyS+5MLl1R4oGJDnisz/VK++/p/QsAAGC4Eawgs4uHZGe/SHRGzUCPXyOqYX2P/PaIbiif1PbEVPEaoAIeq7raLtnaZpJSqooBAABgqBCsIAsX5B97dEv72XKvaWhfFZmTsWF96J29JFZByqJbfauHRcsnW8/nuwe3rQ0AAABSEawgKye73pKD6tnuxrhMvlsSydyw3qEHhXzO7p0r3nC9oEqkvq4yzUjzlVK3ym50nxh0dMi7R/XzLKn1XC4n3xl51ylpAQAAwJAhWEGWjssL52IiRXPkuxV2FbBsG9YP9qCQ0bp7Zc2qldL43P1SX12SELREq3WgtNJuOH/+iOxJCjp0t8pWb1+r1qpAyhXw6BHsnXxJXRsDAABgaIybv2DhdTNdcBUVUenqymU88ZFltK9fqnmyvbrW6gFMN6x/om13Vu1VajY2SIM1+KLWK61P7Sr4WCvRunppNKUnns6fkabHf+MZdKTNqwKcLY8fzmlUfAAAABTG+GllZU+b6YL7xjcmy+ef24PqjUajff1SfSYTipfJiklqMva2/Neez+zkDM5eGC+z5kyX8j/Vg0Lulb9554p5p3Aun/hAXjn6uXxt8hS5cXqRqFnZzvdKe/Ne2b7zD/K+SUqm8/7+4niZUv51tYy61wBN5dvXJtu3v0+gAgAAMEwoWcnD2CtZEVk950l5NhKTnceaZFs27VUAAACAgGizguwVr5AfZzNiPQAAAFAABCvISlXpCmldWG01QD947o3hH7EeAAAAox7BCvwVqwCl+kl5Xz2aK+1ApTPWIhsu2m8DAAAAg4lgBf4muboB7o/JwY4dsubUCB4EEgAAACMKDezzMBYb2AMAAABDhZIVAAAAAKFEsAIAAAAglAhWAAAAAIQSwQoAAACAUCJYAQAAABBKBCsAAAAAQolgBQAAAEAoEawAAAAACCWCFQyRMtm0+El5v/pJaa2YZ9Jy5XxHg2wqNkl5KfT3AQAAoJAIVjA0iufK8iJ7MjqjSlbbk4PABCCLV0iVSQEAAMDIRLCCodF3Qg7025Od507KXnsSAURnVkr9xnppfrlBmjdWmtT0otVLZfNz6vM6j/Wol811lRI17/sJmg8AAKAQCFYwRC7ItiPPyIK2Z2RN13GThlzUbLQDhsafrpQ1i6aY1MyidfXSuH6xLJluEixTZMmqldL43FLfwCNoPgAAgEIhWMEoUyrfNNXNhszMgdKH5+tKTGLhdbXsl6Yd5rGv16RmoJZtwyod2PRK+77dsuWhJlmnH0/tl/bzKnn6Ymn0Kp0Jmg8AAKCAxs1fsPC6mS64ioqodHV1mlejz2hev9VznpRnIyIHO56RDRdNolZcZrUFOdl3wX5t2J+Pyc5jTbKtT7cbWS8P+wQNned2yJquxPyJ1DxKa6RxxmyJmu/ojLXJS+feEJnhno/9npSulVbXZ9OKtciCU07JjrOcA8u9es4D8uNIJF5qoOe75dQbctK89qJLPBoWmRfq4r71qV2y66x5OViq75fm9bNEju6XdT/vMImpnGXrVgHHY3t6TKqjUja/vFKWeCxz0HwAAACFRMkKPH10JWY9zywqs55t6uJ+9nppXrheWisS02+dpJ76T8k/OgFEYHYA0VyZGHxEI9Xy7MIG+bGej4esApV0Js2T7Wq+z7oCFU3Pt3nENtavlDutIOqMtKQEHFqH7LFKaKbILbfYKbag+QAAAAqLYAWeTvbbF6nRSaXWs8Xdo5dX+pWLpgRioH2K+7HunB0ApbN6jlMiE5ODHTsG8h5rkYP9KpDwCkou7nbNR31Op/W3ybp4musRL1Vxi8jDlbWyTJewuOfZcdp+u6haHnWtbrJDLUfsqlFK977Xw1PSMHOqWM1Njn4sh6wEmzsY6+y+bD1PL3dVXwuaDwAAoMAIVuDt4kn7ol8FJfFShUkl6oL1tBzUMUdKurqAVcFKXopXyI8jesKulrXh4kBVsZN9x2XDkR2y0/QoVnD9p+WJtibZ5p6nCoKeMPFVYglTkrOHZevjdpuO1CpTw+iWKVKunrq7L9mvrepbDdLoblvzx17pVk/l5VPt11rQfAAAAAVGsAIfF+VfdWBQVCK32QmyOjJbXdT3yOu6iljRHPmuGUixSn1GO9ufrh1KFkzQI7G3BtqjDAkVHJ3e7dmdslMdblSovlWWmMmcgoyg+QAAAPJEsAIfF+TjK/p5ttxrVYEy7VKuXJS9VhWxiHzTtB+5bZIuDjktr+dZsOIEPXmX0CBBPMBoe09arepqvdL+e/9G+Y6g+QAAAAqFYAW+EhvZ210CW4HElR7RfaDZ6fPkXh2rqADmI/WEEDFVtQb0yC6rutou2dpmklKqfClB8wEAABQYwQp8nYydsoISqzF9aZUsU9NWVS8zGn20ZK5UFZfKTP3heOP6/CU03g/KVX1tzDp7SawCkUW3So2VkCpaPtl6Pt/tamsTNB8AAECBEazAX99FsTq2UsHDaquKllPVy1QR0wFBoRrXK05wJJEqWW2lJFGBUfYDPpbIraZNzaAbokEhc9ch7x7Vz7Ok1nO5KqXOGvjxjLzrlJhYguYDAAAoLIIVpDHQyP5e3S7FVdVrb0x366vSTe9dB2J5Nq7XTImNbifz7OK1stoVbFTpgR8X1lqlO+kdl9et2msReXj2ioTv0ANari5N06tXQDW1i2WJ1devSPmqe6XeKmoKB92tstVr16q1KpCqHOh+eGalCrD0wI5KUhfFWtB8AAAAhcQI9nkY7eunOSPZW9yjvxevUMFDtbmI1d3+evem5VZV0SDNMyLpR7BP+N4k/afl4JXZsix5BPtk6b4jYVmTR7C3EhNks8xDMYJ94jzS8BjRPlpXL41WSYiH80dky+OH7RKtJEHzAQAAFAolK0jLLkGxHYy5BlR0qohphWxc3/eGrDnWIjtj7i6DY3LwXIusO7JbXsimK2HzHQf7Ez/bqYKdnR2HMgZVuQrtoJBG555dsmWHXkY96ryjV9r37U8bcATNBwAAUCiUrORhLJSsAAAAAMOFkhUAAAAAoUSwAgAAACCUCFYAAAAAhBLBCgAAAIBQIlgBAAAAEEoEKwAAAABCiWAFAAAAQCgRrAAAAAAIJYIVAAAAAKFEsAIAAAAglAhWAAAAAIQSwQoAAACAUCJYAQAAABBKBCtIo0w2LX5S3q9ukE3FJmnIOcvwpLRWzDNphRKG9QMAAIAfghWEW/FcWV5kT0ZnVMlqezJETMCzeIVUmRQAAAAUBsEKwq3vhBzotyc7z52UvfYkAojOrJT6jfXS/HKDNG+sNKnpRauXyubn1Od1HutRL5vrKiVq3vcTNB8AAIAbwQpC7oJsO/KMLGh7RtZ0HTdpyEXNRjtgaPzpSlmzaIpJzSxaVy+N6xfLkukmwTJFlqxaKY3PLfUNPILmAwAASEawAuSlVL5pqqnlbOZA6cPzdSUmsfC6WvZL0w7z2NdrUjNQy7ZhlQ5seqV9327Z8lCTrNOPp/ZL+3mVPH2xNHqVzgTNBwAA4GHc/AULr5vpgquoiEpXV6d5NfqM9vWz22Osl4eLYrLzWJNs6yuT1XMekB9HIvG7452xNtly6g05aV6nKJ4nm2bcLcvdefpPy0und8vePpMQ58zPvEzSeW6HrOm6YF55qypdK40zZks0TQAx8D0B10/NozXDPOJiLbLglHeJkC7xaFhkXqiL+9andsmus+blYKm+X5rXzxI5ul/W/bzDJKZylq1bBRyP7ekxqY5K2fzySlniscxB8wEAAHihZAXZmTRPtqsL+2ddF/JaNFItzT6Ny6sqGuT9hbXycHKeotny7ELdu1eZSSmM1XMapLkyyyAiWY7rF2geI0al3GkFUWekJSXg0Dpkj1VCM0VuucVOsQXNBwAA4I1gBVmIyMOVtbJMl0B07LDaj+jHuo7T9ttF1fJoqT0ZV7pWmmdE1ERMDp5rkXUmj5NPl0dFZzyQ1GXwQPsU92PduZh5Pw01Px1o6PklLmObNS+R0/KESUstnclx/S7ujn9mQVuLHNRp/W0J6xh/+JSqaIdajthVo5Tufa+Hp6Rh5lSxmpsc/VgOWQk2dxDX2X3Zep5e7qq+FjQfAACAD4IVZKdfX+w3ybaLAxf6J9VF+xMmjphZ5C4lKZNNM2ZbUwc7mmRD1/GEalQ63xorEIjI8khhSleqiuyLXz2/xGV8w8xrttybHFC55bR+BXL2sGx93G7TkVplahjdMkXK1VN39yX7tVV9q0Ea3W1r/tgr3eqpvHyq/VoLmg8AAMAHwQqyEJOduo2JeeX20RWPUg9nbJT+Nnnhop2U4uJJq0QiWjJ3yMYn8Q84cly/sab6VlliJnMKMoLmAwAAMAhWUHiTSuyqP0XV0lxtjz6f+qiVZdaHC+Nkv10ysaxyrax2Vy0rnifbK+1SnrP9ydW/kE48wGh7T1qt6mq90v57/0b5jqD5AAAAkhGsYHSIV9myG+/Hg6KFJiiKtfiX8iCRqao1oEd2WdXVdsnWNpOUUuVLCZoPAADAB8EKCu9Kj92oXXfb69Xo3P04kqbb45zZVbYSO5M2DfxPJbabKbiiErnNTI54Zy+JVSCy6FapsRJSRcsnW8/nu11tbYLmAwAA8EGwgsLrOyEH+tVz5O6k3r4GkdUbmMjOY8/ImoSAKLWB/+AokVtzXdchGhQydx3y7lH9PEtqPZerUuqsgR/PyLtOiYklaD4AAABvBCsYBBdk2zm7t6+HFzbI9op5UpVwIV8mqyvWSmv1WlltUvJl9wYWkW8WqHex7B2X160CHbWus1cktZdR61nqvzw1tYtlidXXr0j5qnulfqY9HQa6W2Wr165Va1UgVTnQ/fDMShVg6YEdlaQuirWg+QAAALwwgn0ext4I9ibZRQ/8qMdT8Rpd3nnPV/9pqxcur+91SzePuOIV0rqwOmFMj2R65PwD5w65uifOb/3i0s5bd4ns3dPYUIxgnziPNDxGtI/W1UujVRLi4fwR2fL44aQqd7ag+QAAAJJRsoJBc7KrSRYca5GdsVjixWm/aUdyJHOgkrW+E/KSmk86euT8hyvXy/Z0460E0feGrFHreVCtl5sOjnZ2HPIMVLTQDgppdO7ZJVt26GXUo847eqV93/60AUfQfAAAAMkoWcnD6C9ZGSlMCYm0qQDIr8F+mayes95q15K2lAQAAAChQckKRj4zCGVnz4k0DekvMMAjAADACEOwglEjOuMB2V5aljIiflXxPNk0x2k/c1peolQFAABgRKAaWB6oBhYeq+c8aVXxSivLBv0AAAAIB0pWMCrsPfWMrOtosxq5J4ePdkP3HYVt0A8AAIBBR8lKHihZAQAAAAYPJSsAAAAAQolgBQAAAEAoEawAAAAACCWCFQAAAAChRLACAAAAIJQIVgAAAACEEsEKAAAAgFAiWAEAAAAQSuOnlZU9baYL7hvfmCyff37ZvBp9Rvv6ZW++PPjEo1L77ydIx+//VbIfJD5ovpFj2vKfyMb/7XsyrfdNOfGZSUxyx9qfyI//8/dkbtklaf+XT03q6DHa129YTJsv96yqk++q7frdmnvkbvWYWzZB/vgvo/M4KqwyuefRv5L/9X8pk95DH4jPYYkcZHOey2Qsnif4fwCyQ8kK8jZteY1USo+88+p+yeVUmimfPpH/9RNPy4PzTMKIUyZVc0rUc4/0+P2BT1sp1ZX6MyKRyE0yzZoaRUb7+g0HtU3/cv0D8h21XSMmSYtU3iU/enSd3GFejyX2uSLbdb9JSvSGi/XIRTsBeSotzXCey2RMnif4f8jtuMVYRrCC/KiTaW21Opl2HJI3c4pUMuXL4kQees5F0Sk56bdtPv1ATsf0RI90nPogp2BvRBjt6zfkyuSeB+6ygpRYx6vyy2eflp+Zxy9bT6lt/KZ8YH9wDDHnimyDj2k32UFe7DN+jwVRZp/n9Lk66AYdk+eJsf7/kONxizGNYAV5uWOZvnA6Ja/t/oNJyU7mfFmcyMMuq4uiC/LmC/pi82/llQMXTNpoMtrXb4hNu0Nm6x+VClR+oY4d9+/q0+PNY3QbO+eK7IKPaXPnWMdlx8nczlnwEf9NnsgjUB6D54kx//+Q23GLsY1gBcHNWyffr1TnmrYc7+Zmk2803P28ya6mE7s4YouGEDJcaHuYN1fU6STrbZJ3lSUk4jwXzFjfbjketxjbxs1fsPC6mS64ioqodHV1mlejz2hfv/R0I9VH5DvytvzyhVzaqmSZTwU0f71mjgpoXpRf5HJHaVqZ3LHsQauerxXsaLFT8s7bb8qbx9N9j8q3NjFfrONtaTu4Xz64SS9Libyz4289qqz557s49yfyo+oS6Wh9Wl45bt4065Uilmk7mu0We1V+ZpVGqfkuv0eqq+2LV01XC2pJuts+IOj65SjQ+rnW7aDIPctqrPYY1n57tVnelPmpaTnsh6D7L9N2mabWtfYutf2djLqqRtsheeuA3z4IYr48+GiNVEb0BXY6p+S1Z5tTgn9dJ/xH1TKwDtPU9z3g+j61PV9T2/OD5AXO6TgqxP7LRbbbREveLmZZI056rsfRYO/35OVzqOWcd5N6/kw+SNj+upOSB6RSLbN9XjACngeD/F7sPEnnuThnfVRW97l8tJ8H4/znV9j/B1vg410J+ruepuZRpY7v2Unr2LI7eXnzOW6NIfld+x2DSay2g3dJJPnYw6CgZAXBzLvH+gPqeDvzCTRBlvmmldgnkViP/wkomT7Z/uX6R+T77hOZFpkj31nziPzl8jKTkESfdJ5IzacbLH9//U/kwSr95+FRHzttvnVyt9Xm5pSccv2BO+uVLJapPrKpamHdhXPm6/qD1iKVD0it1zpmWE7f9Qsg2PqZ6gAyVx40Dcctar/NXqb3aWLad5bNt6cdg7T//LeL/tN9Wn6kLioG/ti1EqmsfkB+9OjKwjWE1SWMWf25e4uXIqh10H/Yf622ZcLFgl7+pPXL/TjKc//lKpdtklIf3ql6otJzPY6Gcr8nU+fN7695QL5/1x0J87A7KUm8Ox34PKgE+b34l1Tp7WUHKh2tiTedRvt50JJhfgX9fzCC7L/gv2sdiKkgwBzfyev4oyd+Ivck/FjzOW5V9iH7XV+Qk6d61HOJlPge0CqgsdoOqoCGQGVIULKSh7FbsqJObvpuXpZ3ewZkmy/LOxtu6kTm3JFKvLNWpk5O98iP1B+aPlml3jUzy6Qn1XK99ur++F0n606TPoHrFynLHDRfErPc3nclXcznYuokLuokG7HuBL2p5qkvAPSfhj6Jq8mUuzwDyxm/gxhkOYPKZv30n7q+Q6Wn1fL/Uu87k8+SnJawjvnvv9y2i5PP3HU8oZbLeXPafPUHpv64VcaM+zMQM++s95U5jnQp5tsl1sWIdWwcdJZZ/W7mSeKdetd2z/o4ymv/5SvHbWKWVV8MDRxHA3dUMx9Hg73fvc59TpqaTFhP1/510oLsv7gAv5f4siWdq+O/CbW9Wl9R2yTDTSez3KPnPDgwv9zOS0my3S6WIPsv6O/a9Zs0+/gt9b12VjUfp7TLd/1yPG7NdtCG5Hft/M78anZkeh8FR8kKcjZYXRUPcN39tBMyUCc+cyLTJ9XEhsfqBHqgWX7ZZt8pmT038e7LHWvNH4r+c1MnTecPRdMNln/Resp+kdR2Jpt8VicuGdrc2HfSvO5KJnLuuFl3ptQJ8mcv6Ass5yR5QT44+LY9vyTOcuqT8y92+69ftnfucpXV+pm629Yft7PvPusx28+VZrjreOe7/3LdLnY+dYGk/hRf0dUj3G9++gd581V7P0RK/O/yBZZzOy6nxGOOujjS1U3UH6velvHM6neTfOES5DjKY//lLcdt4rT5STyO7PcyH0fDtd91aYK6IOywL9BLTXK8lCH+Gw1+HrTl+ntRvBrXuwIVffGYMVBRRtt5MJvzkn18FOb/wZb7/gv6u562/MGB4Fk3/lffO5BVzUf91n6x41UrSPNcv5yO22H4XR8/IR3qKVKqq14mM8uj1r2FQGXIEKwgN+qPaHC6KnbJ9QLEVIXQdzn87j59esL+c0g4+ahlqrYy2hdU6SQ0Aswyn3UuT3th5nTdmLnHM7sYW5+s09/JSZifazn1nah0cqlul73s1s+5AEmoGmgugN1pzufiy1qA/Zfbdpkvc3Q+9af3/fVPW2MApTycEobBkGuDXOc4Uhd2sdbMF41Bj6PA+68QnPnk1LhefV5f9GR7HA3zfrd6TlTH0KmkOzd2j4o9cvqEvR6Bz4OOHH8vlqTfpC41sLeF311uL6PsPDgM/w+WnPdf0N/1fLlb/5frICddqYgKdtxBWoIcjtth+V3LZ9JjfWHq2DbO8mSqyo7CIlhBTgavq2KXHC/KnPqozp92tpy7rOnupnnd2co+n/pM2j8/pwQpU1DmjGOg6zd7f198mVzzC7p+hZPd+sXrE7uW4Q6n/rgrzf7cQB3vwd9/SdvF9F4zXJxtkvXv3DmO0vzJuwU9joLuv0Lwmo8/93FkJaTwOo6Gd7/bF5T6t5oYq5gLTdfNn6D7Ly7H34vmPs/ptgC6io2dkEuX86PrPJj9/BKXM1W228XIdf8F/V07F/95dFWdy3E7HL9rXdpiBytzpCqh3Y1z0/XVHL4LhUCwguzNG8Suil2yO5E7shyQzCMAynwSNHe2kr47+3wZLsyy7rrR+dPyrxbnLFPqxWHu61cwWa2fc3fPvQxe+9R8zrUNBn//JeZzfpf6rrwzEKPfo/D1mLP8nbvkFtwEPY6C77/85bpNgh1HQ7vfzUWSYd/FPSVt6ns/7dFVXYyUYyvo/huQczCsONsrctfTonu20tWsXtNVciJ3yd3z7M9kNMrOg9nPr1D/D7Zc91/g33Wa31B2cjluh+d3rX1wUlcNLJGSeGFNGY3qhxHBCrKkDtS71EGvi9Jz+kPOPZ99si/kHVizDEp2AZAj85+jt+zy2X8WiX+snsyflv8dtlwv2gynvnlBLyAHZLV+nnfpzPZLqAdvPpftXUZLwP2XYbsMSruEjHJdl4C/ibQ8jqNB3X+ZeMwnnYzLkH6bDf1+Nxe1CeuneygaOKe+ldM5Mt15MMjvxQlU1YWiyqvvXOu2AB8cOGTV96+8K7ve0Ub7eTBVdsdy1tvFEvx4H/rfdY7HbUaF/l0bpt1dfPuYnkxzvlmLgiBYQVacBnW51tPMPV+ud2CdO5FzZI7PnTx3Y8DUP3f3nRM33bOMaSTp+ecYNN+A+F3ADBsmfgfM9w5buj8/n0aHVk8vpj5yQS8gB2S1fl53xMxFSUKa752z4Psv1+3i3NmOzEnsPtZt2ryyrC7QcpbzxX52F0QDAh5Hee+/PDjbJEtO9Zxcj6Nh2+/WxVGPvHMwaXlvSm5Yr+V7Hsz196LEt79un+K++/4HeSuH0pXReR4cuv8HW+77L/Dv2rmIr75H7rBTUqnt6ns85HTcDsPv2vHpB3JazdvePgM3CGhUPzwIVpAF06Au53qaAfLlfFHmFNeKVK75iTyoTq5x+o9I9wNvNQZM7YXs4kX7ZF25Zp3c4TqzTpu30hofwOoCU0m+wAqaL5Fzx2eOVLv6h582b37Cd2rxPy2/r3MuDpPqSDvbJVKt+6DX36v+eMw2sca+MP8Y2VYzyE126+dcgLjviGWbFnQ/BN4upocYfRGmxx5ImKfzW1vzSPbVX3KQ+UI7yRAdR/nsv4KprJF7XMtr7wu1f8xrR9DjaLj2+xxdfcWj7UeJStdVUXTVMLeg50FLgN9LPABteyWlIf2nWZeujL7z4FD/P1iC7L+gv2tzEa+X7fuP6nV0/9Z0MGaPY+I9VpFLlsftkP+u40ygFCmRqpxvuqLQGGclD2NlnBWr4aR79NcsBcpn+i/PRNezdQdAd6x9Ov4nkErf+fNahvkDfeEnUxcJr50qke97Ln/QfIns7WNfxLklrluZ9zgGLs73JG8TzW+7WGMNXFR/NgH2a7ayWT97+RL3j53mXl+/bRB8PwTeLhl+n1b//bvdXWsWhtd2Ssssp1U1J4c7gX7bxZY6//z2X76c7zUvkxTyOBrK/e7eBwnL4l4GNT+vsWpy3X9xAX4vabeX4ryf6TuzOU+MrPPgUP4/GAGP98C/62musZU86O2aOoK9I5fj1jaUv2u3hH3gc8xhaFCygvTivV8MYlfFLs4d2PRS7659sPtp+aXuu96642PE9EBXr1r9wHsvwx/klR2vyjt6/AKHztP6ovzyhWZTbOxVDB80X6JPD7wir7m/Q+XRy5tYlJ25GDvdHUd7u7xtjdGgB1LrUH8ir+1QJ+7dH0hJARuVesm8fl71iU1awvr6bYPg+yHwdjneLD9T8+xQedz0n/NruirMIAQq3tspvaAlGbkdR/nuv3xdkDdfeDFx/ysxfUGo9kXiBU9+x9Hw7Hf/dnt+pQDBzoPBfi+ZSjqc0pW01YWU0XceHMr/B1vgksugv+tP98svnn3RWj73T00HY+/obqV9AxUtl+PWNpS/azenS2R9LNKofnhRspKHsVCyknqXNDtB82GomLt/sbezG0F4zGC7AGMHxzvSMCVIegDSICUzKBxKVuBv3tB0VYyhFx9oK81YAGMR2wUYOzje4WuaCmR1VTca1YcCwQp8lAXs/SJoPhSUviP0xE/kweVJvbIkNEpMbaQ76rFdgLGD4x3ZcnUUoDtD0J0vVEqPeDbcx5CjGlgeRvP6pWusmE7QfCgwU3xtNSnwlKZR4mjGdgHGDo53ZMW70T/XMeFBsJKHsdBmBSOZ7kbyQamutLsYtehGiacOyVsHBqNB8EjBdgHGDo53ZJIYrOjG/m2vNssH/DhCg2AlDwQrAAAAwOChzQoAAACAUCJYAQAAABBKBCsAAAAAQolgBQAAAEAoEawAAAAACCWCFQAAAAChRLACAAAAIJQIVgAAAACEEoNC5oFBITGWRG8vlrpFE2XJ5PEmRaT78lV57+gV2fXhlyYl2QSpXztF1kxWnz32hTz2u6sm3SVSLM//YJKUm5dxl6/Ilt19whEGAMDYRckKMKrpYKFUmv9CPdYWS9Skyu032mnqsfl2k5aO+nzj8kkJgYpWPnmirJmVmJYgMlG+pQIVrXzhRKmxJ0cwZ3tOlfqISUKcDmg3r50a/23p7bT52xMHfne+zHZ1/0bHtAIdtwAwChCsAGPF5S89SimuyR8vmUlfE2Xz8onWlC4d2fJ3F2Wd8/hVrzS1X7Pe8xS7Ku9dtie7j12VQ/ZkolifPOb+zr/7QtrNWxg5au6b6hHQjpclC1Wgu/bGURCoDpPAxy0AjA4EKwDSi0yQ6fr58hXZ/ruriRdOsS/lkHr4+1J27baDEM8qYBgVot+eKg1RHaRck/ZjvQMB7a9U4KmD1ckTpYFSEwBAAAQrwHCZuVQ2P9cgzS83yPN1JSax0L6UT0zJRoJL16TbTI55EV11ya5a8/y3J5hEZG+i1C20S1PaD1ySrb9zlQTErsrW3aakbPIkqfOtujRebjHVBaFx3AKAgwb2eRg7DezLZHVFjfy4ZLZEi0ySxKQz9pZsOXdcTvaZJA9VpSvk0RnVsiw53ymVz6TEFa+Q1oXVEu1vk3VH3kh9Xy3HpsXr5eGimOw81iTbkuZbVaEu/GfIwHvF82TTjLtleSQSv6PbGWvxnrf67qrSGmmcUaLW0WmMkGZZHV7z6D8tL53eLXvTbBetZmODNCwyL6RXWp/aJbvOmpcFVHNfqTSohes+1iuPqQtJS7xR+1Vp+rsvUqpnRb99o2xYODG10Xuyzi9k3T85JSYDjem9JMw/rYmy+S9ulCW5NLCPTJT6JcXyrej4+DLrxv8t/6zWLWYSfDjbx3ZNWn91SXb55nHWMdPnfARdTp986To30KUdjQtlYDm9vkPtv+1q/9nb2KybONt9gto2N0ptwuevqM8n7RPdjkJXE0y3v5zPuH8vKu35Reo3lk2QkvA7Cypx/fT2qPuz4oFqa5evSfvRL2RryvYMuF1compdN2RY1+TjI8hxCwCjESUryGCebFcBwrMz3IGKpi7OI7XSvLBBtleUmTQ3HVg8Kc2V7kBFM/mqG2RTsUkaBDpweX9hrTzsCiI0PZ0aJNnr2Fyp19Hdajr9svrOo2i2PLvwSWn13C5Dr0tdhGnne10XYbEv5bx+Vu91WQnJJsQvxMJOX5Q3/+BGWeO6eNR04/+GH4SntCTYcqoL5fv8861ZPiWrhta+81aPlAtsdfFeoS7kN6sLdF21K+Hz0UnSmFSdKzrFXu7uzqQqgm5OiUA0sZOFrAKVQlPrV6fb16jtkdC+Rk0vUduz+T67fVaKHLeLw27Lk2VQ5hLsuAWA0YeSlTyMhZIVu7RCXcD3n5YnEkoLnJKI2SI9O2RN1wWTbovnk5gc7HhVNlw07+uSiNnqAt8KYNR3tqnvtN5QClKyEpGDsdOyLKKWy1rmQ2qZnWVTy1x8IakkSAUq1bWyTE+qz+88d0i2OcuqPm+VKKl1PNvxjFoHk6yVrpX3VXBjrd+5t+SFroHSlyr1XqMOfNR7XssZp6uBPbJYlkxXF3r7dstje3rMGwVm7mq3H7goWz80aSl3i9Nw7uYG7ErYvsM/fnBKVpw79lZbiT7Z42pTY93N1heJmUpLdDWwP9MNw1Pvbqcy2y3XkpWgy2ny2aUvV1ztgyZIzbdvlAar+pVf6Zi93dtVELFEBQmivqMp6TuikS+lMz4/Z93MS708B76Il9zo5dQX3Zr7t+SUACT+vpKZfeq7LwKUpuUscf10aUhLe58p0XJvz+R1CbZdLK79npinWO3zDCUkJm/g4xYARglKVpCVzh590W9eWNRF/8XdsubIMymBig46Gk2goi/W44GK1ndcth3ZITv79YvZ8uNBKH3QgUrnuR2y4IgOrtzLlhyo6ADnbhOo6ABptytQ0S7I3i61jsd2JAYqOmjSQZpysEOtnytQ0azt0nFaTUVkeSTN+p09LFsfb5J1DzUNXqAS59N70GWvnoZGCnXhtsi5SNRtJRLv7Hd++IU8dkBXHRov37o1TelKrE+2xjsBcC7kCymP5VTvbfmVWq7dupqYe9m+lEO/uyRN1hdNkJvdBYJJdKCig7B1Ht8xEKgk0YHN36mgwlUlSi+nPT+R6aY0xZq3dRGfqXcq9b5XG4xhYgWl/+QEKpq9Pbccs0szlsyy91eKrLeLzSl10vs9MU+f2ecT5c60JWOj8bgFgNwQrCCtk7FT1p9idMYDsr1inlRlU3VrUoldHSL2lk+pwgXZdk5fzKvvLZkrVdZUAcVaUgMoT2Xy3RITVJ32KskxEgIepXiuLNclQyrAeSEhiHG5eFIOqqdBWb9cqYupdfoCK+HC1PTSlXc7gGEUMWO4XL4ie/zu6H941WrcXa4u2L2q6AyJPJczHlBEJkiNHsfkvqnyvBnLxG5rM15umWp9wlunHozTHaRkck1adRsa88rNqZo0sl2T9z723h6dH1+1q6tNnuDxexmc7ZIc4MSN1uMWAHJEsIL0+t6QNcfa5GB/RJbN0G1UnpT3q9VjsW6r4h28VBXZPVt1XvG7kleu9Nh3BtVnb7MSCiftfBOUyjet6mg98rFfVS0vTjBWVC3Nelt4PkzVMgyeqabdwORJ0mgGykt96KpHwyzP5bQHWlSf+cEUadDjmOj2Eu62Fhl0D2qA4fRalSFgGmm9fen2KWYyH52mvcmS5TdKjbv0S7d9MVXHEtqkAABSEKwgMxWwbDjyjCw4tkOeOHdaBS4x6SwaCF5a56igxXwUQAFZ7SHs9jS6ClL7sS+k6Ve9skU9dLU1p/rRcHJKFXxLCDRnrB4d3PhVPRuN4lXE7E4U4sGpbtyvkzu/8C9tAwBYCFaQvT67DceGI02ypk0HLy0qcBGrx6xGj7Yn0UmlZsqDUzrR3yMfWQnDqURuzaVnMqdUKNYiC/R2SPfw7CgABeH0MKW7tXUGIfR7DGdj5MDL6dx9142z7TYnur2LbnfSmdD2ZHg5pQfpqtpFb9UdCCidavmtFB8FKtEIzCkFK2hvW3Ywlzg+iu5o4QvZEu82GgDgh2AFaVWVpik16TsuG5y2J67AxGnnIpG7fbonHmig3tlzYuBivu+iWMOM+FQNq6p4wPQiVijH5XXrLm9EHp69wn89i8sS3+s7IQd0BwG+65elIRkUcgTLdOEauyrv6SpI0WKpT9PAPKPBHhQy3+W8fFV+62qcPWCC3GymhpVpb+M/6KNr0MgzmdpapO8swFOA/eddZW2gI4S03TDn4vYbrXZFrbqThITANLWjBQCAN4IV+NO9elXa44xYVb3URbtblR6fxOq+VwUd7nYifW/IS04QoMdhKXXl010XW90P6xen5aWEhvAX5V9NL2HPuquWqflumuN0hVxYe8+12RcMuv3J4rWyyb2suqvj0rXSunC9NKvlGeB0EGDWL6Xtju7yWOWrXiurTYqXmlq722KtfNW9Uj/TnobTc9REqf226259ZGJivX/d2Pio3YvWmh9Mlc36swnv293RPv8XNyaM7ZGsZompZqWUL7wxv8DHU57LqYKADe7toD6vu8t9Xndh61eUMaSuyh6nF63lev1cjdOtcUlMlad0HQyo73jXOhDVNvqz4qT2HbpjAf8gJPf9p8dTMfvBpOjlHOie+Kq0FKhXOLs3sPFyS7re6AAAaTHOSh7GxDgrKSPQe/AcF8UZE8W8TOEzBkl8/JJUujvilyatl2cj6cdZ0Z/LrjcwwxnfxbxMlX5+vvS4Lad3+46zMlQj2OdtyMdZGciTwmMkc9/POi5ftXpx8hsTJdgI9ualr9TxM4IsZ9o8uhtdtTMaFiaPxWHLfbs76+a/DdJ9px78UA+W6Ekvq+462bz05PzOzMtEqdvTkf3+G9h33SoY9h6k0St/Htsl7TrZ9Bg67x29ktC1MQBgACUrSOvkRbtx/boO3SNY4r90p74Y79jhM4DjBdkWz2eSLDHpjLXIujafwRIv7lZ5TqvvNq81PbjjMXs8l4+ueF6F5Ef3eNZmdx6QMN8My3qyq8lqt7Mzpj5n0ixqOx08p/LpcVt8AhXtUMsRabeGo1YXLPteD2egMkw6rTEvTDeyDn0xfya1Zyv92XW/+kJaO03bEMdl0y5AXSR7X7zaDrVfkXarJEftB/X5dJ/NR5DltLbDAbUdzPJZ9HYwbVgO9Zq0EDj0Tx7Lqi7+u1WAqdctbaCixfrkMbV92pN6L9MX860Hrvjmz33/XZP3/vliyrLqQSKb0gaqAcSuSova3+mUT54oa5ZPkc1px1sBgLGLkpU8jIWSFQDIVbxEyKMkbPhkLiEpLDO/tKPNT5Ca+6ZYJUO5lDwCwFhCyQoAoKA6f9dnN7qP3ijP3+dubzOGmMFA0zfW/3KUDLQJAIOHYAUAUGBXZauuZqWmylXAMjAY5tRB6MAg3HSj/823p46IH9WN+u9z2iQVrlE/AIw2BCsAgML78AurDYpuozMmxfqkxSpS0b2PTXEFbPaj8Qc3yhrdIYFuk6O2U8Y2PQAwRtFmJQ+0WQGAkWKo26zYorcXS92iiTJ9shlw0nB6AdNj6PAvAgD+CFbyQLACAAAADB6qgQEAAAAIJYKVPFCqAgAAAAweghUAAAAAoUSwAgAAACCUCFYAAAAAhBLBCgAAAIBQIlgBAAAAEEoEKwAAAABCiUEh81SzsUEaFpkX0ivd5y9Ly4u/kUNnTRIAAACAQChZKagpUj59ljT89H6pMSkAAAAAgqFkpZBmVkr9IytlzfReaX1ql+yidAUAAAAIjJKVQjrbIb890mteAAAAAMgHwUqBdXZfNlMAAAAA8kGwUmDR8slmCgAAAEA+CFYGxWX5hPYqAAAAQF4IVgAAAACEEsHKoJglDc8tlZqZ5iUAAACAnNF1ccGVSM3Ge6V20RQpNynd+3bLY3t6zCsAAAAA2aBkZZA4gQoAAACAYChZKbTq+6V5/SyR82ek6cX35NBZSlQAAACAIChZKTC76+JeaX3xNwQqAAAAQB4IVgYFXRcDAAAA+SJYGRST5WZ6AgMAAADyQrACAAAAIJQIVgqss/uymQIAAACQD4KVArMb2AMAAADIF8FKIc2slLpVU8wLAAAAAPlgnJU81WxskIZF5oXj/BHZ8vhhGWtj9wMAAACFRMlKQfVK99Ej0vQigQoAAACQL0pWAAAAAIQSJSsAAAAAQolgBQAAAEAoEawAAAAACCWCFQAAAAChRLACAAAAIJQIVgAAAACEEsEKAAAAgFAiWAEAAAAQSgQrAAAAAEKJYAUAAABAKBGsAAAAAAglghUAAAAAoUSwAgAAACCUCFYAAAAAhBLBCgAAAIBQIlgBAAAAEEoEKwAAAABCiWAFAAAAQCgRrAAAAAAIJYIVAAAAAKFEsAIAAAAglAhWAAAAAIQSwQoAAACAUCJYAQAAABBKBCsAAAAAQolgBQAAAEAoEawAAAAACCWCFQAAAAChRLACAAAAIJQIVgAAAACEEsEKAAAAgFAiWAEAAAAQSgQrAAAAAEKJYAUAAABAKBGsAAAAAAglghUAAAAAoUSwAgAAACCUCFYAAAAAhBLBCgAAAIBQIlgBAAAAEErj5i9YeN1MF1xFRVS6ujrNKyCIEqmp+5bULp4l5dNNkpyRpod+I4fMKwAAAIxOBCt5KqmdILfdZl74ui6f/MM1OfeZeYms1WxskIZF5kUcwQoAAMBYQDUwhFiJ3FxmT7Xv2C3rHmoyDwIVAACAsYCSlYIaJzP+fLzcPJWSlMIokfrn1soaOSJbHj8sVCgEAAAYWyhZAQAAABBKlKwUVHYlK3Y7l+vy0X/7Sopqb5CbbxunUq/LpV9fk44T6jtS0qxsiW5Sn/vODTJVfa7IJPVfUp8//JWcO+G/SyfNHS+3L1V5ppoED/3vXpP330r6Dp/5ffL/XJOeQSxBstqslFGyAgAAMBZRsjKMbtaBjRWUaONk6tIbVKCSlPa98VJiXtl0MDNelv7Q/pwTOGhFU8fJzerzlXNNQpISlW/+99IHKl4m3e0/v9t+OEEW3O0s7yCZPkUqzCQAAADGDoKVYaODBl0C86Uc/m/X5JNLKmmqLlFJStMBizv4mGuXuuhSjY/+4Zr6nP6s/fmP3rVLQ1IDHGXueLnNCoLU9/96IN8ffv2V9Fsf0CU9dlpCqYrKN/9OU8rz7jX5g/mMnfe6lbfoThVk3WR9GgAAACgYgpVh1P/uV6aq2HWJfWgHCO60fitYSXJCBQwqmHn/73X1K3dVrevS85YKWD6yXxUlBQ+TIvazrlbmriZ25cRX8r4KOlKCIss4mbHULjWxqqOpIOaK9cp2RS1LPO/sQpeulEi07n6p1d0Wn++VLjsRAAAAYwjByjDqj7mDDZs77YrH+9oVp43ITeOkZO4NUlk7Xhb8+XhZ+lfOmC/jpCilaCWzokhSwKG+f6quMnbpK/mjV7sZTQU7OqYqun2cTLJT8jNzqTz/coM0v7xWGlfNkvLzZ6T1RdqrAAAAjEUEKyPQJB2g/PkEqx3Jbd8zjd6npi/ZuBKzn60qYu5SFxWQVH7PzpsSPJWYNipTb5D5KhDSwVDqY7zk2AQmJ93q8Yk9CQAAgDGGYGWk0W1IdIBilXjY7Uh025U/mPYrTjWwFCecKmJ2o/h4sKECHivY+Oiaf+nJUDp7WB6zBn7cLU37eqV8+ixpeGSpRM3bAAAAGDsIVkYUpxTENJL/e7sdiW67ciWh/Yof+zN2g3qHaTjfktgexdJjN6DXgYzTqN738fdfpebPS48c2rNLmo6qSXoDAwAAGJMIVkaiS9cl5jmWSmLXwgms3sDE6mns/YRAI7XhfJwKgC7pBim30dsXAAAAhh7Bykg09Qa5/W53g3Y1rYIR3cj+ZquBfSq7NzAVzOTUa9d1OXdYB0Xj5OYfjpdKPc+EoGWclNyt5vtXHl0lAwAAAHliBPs82aPRmxe+9NgpAyPaO3ku/frL+Oj0euBFPZ5Jtmme9NgrH4rclpTHctMNsuCHN/iXvCh+I+Cnnaem8umR7P1G7A+uROqfWytrhBHsAQAAxiJKVkaYK29dswdjdI/BooMF04alx/T6leIz9ZmP0selfiPg63keVsGWzp/Q3kUHN7q9i5pv4QMVAAAAjHWUrIwJ42SGriImX6nAwq8h/DgpqbXbtfSrACRhFPthQ8kKAADAWEbJylhgBnfs/9CnIb1FveczCOWwm75Y6qppFQMAADDWEKyMIUV33iCVc1NHmp+kgpkZtU67lOvySShKVbQe+e2RXmtqyfq10myNbK8f90uNlQoAAIDRjGpgY0RWHQEMWkP5/ETr7pcNi2dJ+XSTIGek6aHfyCHzCgAAAKMTwcoYMmnuDXLL0nFWQ3p3r2BOL2B67JbCDuwIAAAABEewAgAAACCUaLMCAAAAIJQIVvKgS44AAAAADA6CFQAAAAChRLACAAAAIJQIVgAAAACEEsEKAAAAgFAiWAEAAAAQSgQrAAAAAEKJYAUAAABAKBGsAAAAAAilcfMXLLxupgtOD5rY1dVpXo0+o339RqrozEr5j7VLZM2iKSJH98u6n3eYd7xUyuaXV8oS88rT+SOy5fHD4rWno9VLpe4/LZYl002C9Er7vnbZs6fD8/MAAADIHiUrGDVqNjZI88sN0vjTlXagMsiidfXSuN4dqGhTZMmqldL43FKJmhQAAAAEQ8lKHihZydLMpbL5EfuivnvfbnlsT495o7B0iUrFLeZF+RJpWJVDyUqa0hNPap2e/+liKbdKUl6XPWqdrLxqGTY/or5PBzAZ5w0AAIB0KFlBGmWyafGT8n71k7K91CQlcN5vkE3FJslDTe1A6UP5qnulfqY9XWidZzvkUJt5dF82qRnMnCrWol24lFO1Lb1O5eq5WwUqW51ARVPLsPXx/dKupxctGbR1BQAAGAsIVpDGBdl2pEUOqqlllakBSVXFA/JwkQoSzr0q2/pM4phQKXcu0s9npMWzlKhD9uzrVc9T5BanpAcAAAA5I1hBBsdlQ8dp9RyRh2evkCo7UaR4hTTOiIj0t8mWrgsm0duhliPSft6e1iURu87a06FwyxS7hKRbt3mpt9q82I96eX7jUqnxKhlxSmOOfiyHrASbu41KpynZmV5eYj0DAAAgdwQryOzibnkipp6LqqWxokxNlMmm2dXq4jwmO0+/ISetD6Vx9rBsfbxJ1j3UNGjtVfJVvmqlNCQ0yldBzKLF0vDTBtlcbZIc8QDnkv3aavfSII3q8XydCU7+2Csq/pHy8qn2awAAAOSMYAVZ2XvKrg4WnfGAbJ9jV/862NE08qt/tb0nrUfPSOuO3bJFBVM6oLIeT+2PlwYtWX+/1NiT3qpvjXd9THACAABQOAQryNJx2XCsTTolIssiEZFYi2y4aN4a0Xpk189/I7vaXI3kNauh/G5ptQKWWXJncumKEg9MdMBjfa5X2n9P718AAACFQrCCrFVF5gy0y5hUOtB+ZdTqkd8e0Q3lk9qemCpeA1TAY1Vz2yVb20xSSlUxAAAA5IpgBdkpXSvNukF9rEWeOBdztV8Zg85eEqsgZdGtvtXDouWTrefz3eFsowMAADASEKwgC/Nke+Vs9Xxanjh1XPZ2vSo7+3X7lfU+468k0YNCPmf3shVvgB4KJVJfV5lmpPlKqdMDSyqJQUeHvHtUP8+SWs/1cfKdkXedkhYAAADkjGAFGa2eUyvL1PPBjt2y10q5INtO6/YrevyVtbLaSvM3VINC5ipad6+sWbVSGp+7X+qrSxKClmi1DrBW2g3nzx+RPUlBh+6O2erta9VaFYC5Ah49gr2TL6lrYwAAAORm3PwFC6+b6YKrqIhKV1cu44KPLKN9/Syla+V9XaoSa5EFp46bRFtVRUO8aljye241GxukwRpEUeuV1qd2FXyslcR5pHF0v6z7+UAj+GhdvTSa0hNP589I0+O/8Qw60uZVAc6Wxw/nNCo+AAAAElGyAn/FK6TVVf0r2cmuJnv8lUittKZpvxLmQSE79+yyuiluPZrUaP58r7Tr7ox9AhVN592yQ6+b3QjfpvLt20+gAgAAUACUrORhTJSsAAAAAMOEkhUAAAAAoUSwAgAAACCUCFYAAAAAhBLBCgAAAIBQIlgBAAAAEEoEKwAAAABCiWAFAAAAQCgRrAAAAAAIJYIVAAAAAKFEsAIAAAAglAhWAAAAAIQSwQoAAACAUCJYAQAAABBKBCsAAAAAQolgBQAAAEAojZu/YOF1M11wFRVR6erqNK9Gn9G+fiNLpWx+eaUsMa88nT8iWx4/LF57LFq9VOr+02JZMt0kSK+072uXPXs6PD8PAACAwUfJCsa8aF29NK53ByraFFmyaqU0PrdUoiYFAAAAQ4uSlTxQspKlmUtl8yN2MNC9b7c8tqfHvFFIpmQlTemJJ7Vsz/90sZRbJSmvyx61bFbemer7HlHfpwOYo/tl3c87dCoAAACGECUr8LV6zpPyfvWTsr3UJHgqk02L9efWymqTkqymdqDUonzVvVI/054uqJlTxZrFhUs5VdvSy1aunrtVoLLVCVS0sx2y9fH90q6nFy0ZnGUGAABAWgQr8LX3XJt18b5sxgqpspNSFc+V5UXqOXZS9topI0il3LlIP5+RFs/Sng7Zs69XPU+RW26xUwAAADB0CFbgr+8NeSmmnouq5VGf0pXVM6olKjHZee64SUl1qOWItJ+3p3UJxq6z9nRB3TLFLiHpFqnZWC/NLzeYR708v3Gp1HiVjDilMUc/lkNWgs3dRqWz+7L1PL28xHoGAADA0CFYQVrx0pXIPDshwTy5N6Ke+k/JP/bZKZ7OHpatjzfJuoeaBqm9yoDyVSulYdEU80pTQcyixdLw0wbZXG2SHPEA55L92mr30iCN6vF8nQlO/tgrKv6R8vKp9msAAAAMGYIVpNd3Qg70q+fI3bKp2E6KK62SZeqps+eEnLRThk/be9J69Iy07tgtW1RQpAMj6/HU/nipzpL190uNPemt+tZ418cEJwAAAMOPYAUZXJBt506r54gsj5TZSZYy2TRjtno+LS91XbCThlWP7Pr5b2RXm6uRvGY1lN8trVbAMkvuTC5dUeKBiQ54rM/1Svvv6f0LAABguBGsILOLh2Rnv0h0Rs1Aj18jqmF9j/z2iG4on9T2xFTxGqACHqu62i7Z2maSUqqKAQAAYKgQrCALF+Qfe3RL+9lyr2loXxWZk7FhfeidvSRWQcqiW32rh0XLJ1vP57sHt60NAAAAUhGsICsnu96Sg+rZ7sa4TL5bEsncsN6hB4V8zu6dK95wvaBKpL6uMs1I85VSt8pudJ8YdHTIu0f18yyp9VwuJ98ZedcpaQEAAMCQIVhBlo7LC+diIkVz5LsVdhWwbBvWD/agkNG6e2XNqpXS+Nz9Ul9dkhC0RKt1oLTSbjh//ojsSQo6dLfKVm9fq9aqQMoV8OgR7J18SV0bAwAAYGiMm79g4XUzXXAVFVHp6splPPGRZbSvX6p5sr261uoBTDesf6Jtd1btVWo2NkiDNfii1iutT+0q+Fgr0bp6aTSlJ57On5Gmx3/jGXSkzasCnC2PH85pVHwAAAAUxvhpZWVPm+mC+8Y3Jsvnn9uD6o1Go339Un0mE4qXyYpJajL2tvzXns/s5AzOXhgvs+ZMl/I/1YNC7pW/eeeKeadwLp/4QF45+rl8bfIUuXF6kahZ2c73SnvzXtm+8w/yvklKpvP+/uJ4mVL+dbWMutcATeXb1ybbt79PoAIAADBMKFnJw9grWRFZPedJeTYSk53HmmRbNu1VAAAAgIBos4LsFa+QH2czYj0AAABQAAQryEpV6QppXVhtNUA/eO6N4R+xHgAAAKMewQr8FasApfpJeV89mivtQKUz1iIbLtpvAwAAAIOJYAX+Jrm6Ae6PycGOHbLm1AgeBBIAAAAjCg3s8zAWG9gDAAAAQ4WSFQAAAAChRLACAAAAIJQIVgAAAACEEsEKAAAAgFAiWAEAAAAQSgQrAAAAAEKJYAUAAABAKBGsAAAAAAglghUMkTLZtPhJeb/6SWmtmGfScuV8R4NsKjZJeSn09wEAAKCQCFYwNIrnyvIiezI6o0pW25ODwAQgi1dIlUkBAADAyESwgqHRd0IO9NuTnedOyl57EgFEZ1ZK/cZ6aX65QZo3VprU9KLVS2Xzc+rzOo/1qJfNdZUSNe/7CZoPAACgEAhWMEQuyLYjz8iCtmdkTddxk4Zc1Gy0A4bGn66UNYummNTMonX10rh+sSyZbhIsU2TJqpXS+NxS38AjaD4AAIBCIVjBKFMq3zTVzYbMzIHSh+frSkxi4XW17JemHeaxr9ekZqCWbcMqHdj0Svu+3bLloSZZpx9P7Zf28yp5+mJp9CqdCZoPAACggMbNX7DwupkuuIqKqHR1dZpXo89oXr/Vc56UZyMiBzuekQ0XTaJWXGa1BTnZd8F+bdifj8nOY02yrU+3G1kvD/sEDZ3ndsiarsT8idQ8SmukccZsiZrv6Iy1yUvn3hCZ4Z6P/Z6UrpVW12fTirXIglNOyY6znAPLvXrOA/LjSCReaqDnu+XUG3LSvPaiSzwaFpkX6uK+9aldsuuseTlYqu+X5vWzRI7ul3U/7zCJqZxl61YBx2N7ekyqo1I2v7xSlngsc9B8AAAAhUTJCjx9dCVmPc8sKrOeberifvZ6aV64XlorEtNvnaSe+k/JPzoBRGB2ANFcmRh8RCPV8uzCBvmxno+HrAKVdCbNk+1qvs+6AhVNz7d5xDbWr5Q7rSDqjLSkBBxah+yxSmimyC232Cm2oPkAAAAKi2AFnk722xep0Uml1rPF3aOXV/qVi6YEYqB9ivux7pwdAKWzeo5TIhOTgx07BvIea5GD/SqQ8ApKLu52zUd9Tqf1t8m6eJrrES9VcYvIw5W1skyXsLjn2XHafruoWh51rW6yQy1H7KpRSve+18NT0jBzqljNTY5+LIesBJs7GOvsvmw9Ty93VV8Lmg8AAKDACFbg7eJJ+6JfBSXxUoVJJeqC9bQc1DFHSrq6gFXBSl6KV8iPI3rCrpa14eJAVbGTfcdlw5EdstP0KFZw/aflibYm2eaepwqCnjDxVWIJU5Kzh2Xr43abjtQqU8PolilSrp66uy/Zr63qWw3S6G5b88de6VZP5eVT7dda0HwAAAAFRrACHxflX3VgUFQit9kJsjoyW13U98jruopY0Rz5rhlIsUp9Rjvbn64dShZM0COxtwbaowwJFRyd3u3ZnbJTHW5UqL5VlpjJnIKMoPkAAADyRLACHxfk4yv6ebbca1WBMu1SrlyUvVYVsYh807QfuW2SLg45La/nWbDiBD15l9AgQTzAaHtPWq3qar3S/nv/RvmOoPkAAAAKhWAFvhIb2dtdAluBxJUe0X2g2enz5F4dq6gA5iP1hBAxVbUG9Mguq7raLtnaZpJSqnwpQfMBAAAUGMEKfJ2MnbKCEqsxfWmVLFPTVlUvMxp9tGSuVBWXykz94Xjj+vwlNN4PylV9bcw6e0msApFFt0qNlZAqWj7Zej7f7WprEzQfAABAgRGswF/fRbE6tlLBw2qripZT1ctUEdMBQaEa1ytOcCSRKlltpSRRgVH2Az6WyK2mTc2gG6JBIXPXIe8e1c+zpNZzuSqlzhr48Yy865SYWILmAwAAKCyCFaQx0Mj+Xt0uxVXVa29Md+ur0k3vXQdieTau10yJjW4n8+zitbLaFWxU6YEfF9ZapTvpHZfXrdprEXl49oqE79ADWq4uTdOrV0A1tYtlidXXr0j5qnul3ipqCgfdrbLVa9eqtSqQqhzofnhmpQqw9MCOSlIXxVrQfAAAAIXECPZ5GO3rpzkj2Vvco78Xr1DBQ7W5iNXd/nr3puVWVdEgzTMi6UewT/jeJP2n5eCV2bIseQT7ZOm+I2FZk0ewtxITZLPMQzGCfeI80vAY0T5aVy+NVkmIh/NHZMvjh+0SrSRB8wEAABQKJStIyy5BsR2MuQZUdKqIaYVsXN/3hqw51iI7Y+4ug2Ny8FyLrDuyW17Ipith8x0H+xM/26mCnZ0dhzIGVbkK7aCQRueeXbJlh15GPeq8o1fa9+1PG3AEzQcAAFAolKzkYSyUrAAAAADDhZIVAAAAAKFEsAIAAAAglAhWAAAAAIQSwQoAAACAUCJYAQAAABBKBCsAAAAAQolgBQAAAEAoEawAAAAACCWCFQAAAAChRLACAAAAIJQIVgAAAACEEsEKAAAAgFAiWAEAAAAQSgQrSKNMNi1+Ut6vbpBNxSZpyDnL8KS0VswzaYUShvUDAACAH4IVhFvxXFleZE9GZ1TJansyREzAs3iFVJkUAAAAFAbBCsKt74Qc6LcnO8+dlL32JAKIzqyU+o310vxygzRvrDSp6UWrl8rm59TndR7rUS+b6yolat73EzQfAACAG8EKQu6CbDvyjCxoe0bWdB03achFzUY7YGj86UpZs2iKSc0sWlcvjesXy5LpJsEyRZasWimNzy31DTyC5gMAAEhGsALkpVS+aaqp5WzmQOnD83UlJrHwulr2S9MO89jXa1IzUMu2YZUObHqlfd9u2fJQk6zTj6f2S/t5lTx9sTR6lc4EzQcAAOBh3PwFC6+b6YKrqIhKV1eneTX6jPb1s9tjrJeHi2Ky81iTbOsrk9VzHpAfRyLxu+OdsTbZcuoNOWlepyieJ5tm3C3L3Xn6T8tLp3fL3j6TEOfMz7xM0nluh6zpumBeeasqXSuNM2ZLNE0AMfA9AddPzaM1wzziYi2y4JR3iZAu8WhYZF6oi/vWp3bJrrPm5WCpvl+a188SObpf1v28wySmcpatWwUcj+3pMamOStn88kpZ4rHMQfMBAAB4oWQF2Zk0T7arC/tnXRfyWjRSLc0+jcurKhrk/YW18nBynqLZ8uxC3btXmUkpjNVzGqS5MssgIlmO6xdoHiNGpdxpBVFnpCUl4NA6ZI9VQjNFbrnFTrEFzQcAAOCNYAVZiMjDlbWyTJdAdOyw2o/ox7qO0/bbRdXyaKk9GVe6VppnRNRETA6ea5F1Jo+TT5dHRWc8kNRl8ED7FPdj3bmYeT8NNT8daOj5JS5jmzUvkdPyhElLLZ3Jcf0u7o5/ZkFbixzUaf1tCesYf/iUqmiHWo7YVaOU7n2vh6ekYeZUsZqbHP1YDlkJNncQ19l92XqeXu6qvhY0HwAAgA+CFWSnX1/sN8m2iwMX+ifVRfsTJo6YWeQuJSmTTTNmW1MHO5pkQ9fxhGpUOt8aKxCIyPJIYUpXqorsi189v8RlfMPMa7bcmxxQueW0fgVy9rBsfdxu05FaZWoY3TJFytVTd/cl+7VVfatBGt1ta/7YK93qqbx8qv1aC5oPAADAB8EKshCTnbqNiXnl9tEVj1IPZ2yU/jZ54aKdlOLiSatEIloyd8jGJ/EPOHJcv7Gm+lZZYiZzCjKC5gMAADAIVlB4k0rsqj9F1dJcbY8+n/qolWXWhwvjZL9dMrGscq2sdlctK54n2yvtUp6z/cnVv5BOPMBoe09arepqvdL+e/9G+Y6g+QAAAJIRrGB0iFfZshvvx4OihSYoirX4l/IgkamqNaBHdlnV1XbJ1jaTlFLlSwmaDwAAwAfBCgrvSo/dqF132+vV6Nz9OJKm2+Oc2VW2EjuTNg38TyW2mym4ohK5zUyOeGcviVUgsuhWqbESUkXLJ1vP57tdbW2C5gMAAPBBsILC6zshB/rVc+TupN6+BpHVG5jIzmPPyJqEgCi1gf/gKJFbc13XIRoUMncd8u5R/TxLaj2Xq1LqrIEfz8i7TomJJWg+AAAAbwQrGAQXZNs5u7evhxc2yPaKeVKVcCFfJqsr1kpr9VpZbVLyZfcGFpFvFqh3sewdl9etAh21rrNXJLWXUetZ6r88NbWLZYnV169I+ap7pX6mPR0Gultlq9euVWtVIFU50P3wzEoVYOmBHZWkLoq1oPkAAAC8MIJ9HsbeCPYm2UUP/KjHU/EaXd55z1f/aasXLq/vdUs3j7jiFdK6sDphTI9keuT8A+cOubonzm/94tLOW3eJ7N3T2FCMYJ84jzQ8RrSP1tVLo1US4uH8Edny+OGkKne2oPkAAACSUbKCQXOyq0kWHGuRnbFY4sVpv2lHciRzoJK1vhPykppPOnrk/Icr18v2dOOtBNH3hqxR63lQrZebDo52dhzyDFS00A4KaXTu2SVbduhl1KPOO3qlfd/+tAFH0HwAAADJKFnJw+gvWRkpTAmJtKkAyK/BfpmsnrPeateStpQEAAAAoUHJCkY+MwhlZ8+JNA3pLzDAIwAAwAhDsIJRIzrjAdleWpYyIn5V8TzZNMdpP3NaXqJUBQAAYESgGlgeqAYWHqvnPGlV8Uorywb9AAAACAdKVjAq7D31jKzraLMauSeHj3ZD9x2FbdAPAACAQUfJSh4oWQEAAAAGDyUrAAAAAEKJYAUAAABAKBGsAAAAAAglghUAAAAAoUSwAgAAACCUCFYAAAAAhBLBCgAAAIBQIlgBAAAAEEoMCpkHBoV0zJcHn3hAKmNvyy9f2C+fmtTMguYbOaYt/4n8qLpEOlqflleOm8Qkd6z9iXy/skRiHa/KL3b/waSOHqN9/YbFtPlyz7Iama22a8QkxTrelpbdo/M4KqwyuefRR+Q7kVPy2rPN8oFJBUIrwPGe9Xl33jr56zVzzIsB6f6zgKFGyQryNm15jVRKj7zzam4XSpny6Qv9v37iaXlwnkkYccqkak6Jeu6Rns/slBTTVkq1+kPRIpGbZJo1NYqM9vUbDmqb/uX6B+Q7rgsXLVJ5l/zo0XVyh3k9ltjnimzX/SYp0Rsu1iMX7QQgvIIc7zmcd6eV2J9LdEpOEaggRAhWkB91UqytVie7jkPyZk6RSqZ8WVzoh55zUXRKTvptm08/kNMxPdEjHac+GH13xUf7+g25MrnngbusixZ9x/SXzz4tPzOPX7aeUtv4zTFYUmDOFdkGH9Nusi/6Yp/xe0TIBTzeczjvfnrgb+Pf+bNnX5R3dD4CeYQMwQrycscyfSI9Ja/lWL0nc74sLvTDLquLogvy5gv6T+Jv5ZUDF0zaaDLa12+ITbtDZusflana4f5dfXq8eYxuY+dckV3wMW3uHOu47DhJlUSEXODjPeh5N7djCRgqBCsIbt46+X6lOq+15Xg3N5t8o+Hu5012sX3s4ogtGkLIcKHtYd5cUaeTrLdJaelIL7HFWDHkx3uOxxIwVGhgn4ex3cDeNFKVXBvHZ5nPNPqLtb0ov8jlztC0Mrlj2YNWfV0r2NFip+Sdt9+UN4+n+x6Vb21iPt2Ase3gfvngJr0sJfLOjr/1qLLmn+/iXI/G9T6NGSVjJwNmu8VelZ9ZpVFqvsvvkepq+89M09UEWpLuvg0Iun45CrR+rnU7KFZDUl0/29pvrzbLm2I3Lk1Iy2E/BN1/mbbLNLWutXep7e9k1FUu2g7JWwf89kEQ8+XBR2ukMqIvsNPxbiyu23L8qFoG1mGa+r4HXN+ntudrant+kLzAOR1Hhdh/uch2m2jJ28Usa7xxfa7H0VDtd1vg/acEWc5p81bK3SrPwLbtUdvjlH08pFu5XM+7VjuMuySitrV9PkuWvJ8S5bVd1GercmysroX6eA903k2Vsl2zMJTHA8YuSlYQzLx71B+JSMfb2Z8ILVnmcxr9xXqyD1T0SfMv1z9i9YASP29qkTnynTWPyF8uLzMJSfQf5xOp+XQDxu+v/4k8WKX/BHqkJ3mB0+ZbJ3dbbW4SGyp6N2bU/60Z2nOY6gBWKY0zX9cFlhapfEBqvdYxw3L6rl8AwdbPVD2QufKgaUhqUftt9jK9TxPTvrNsvj3tGKT9579d9AXF0/IjdXEw8AetlUhl9QPyo0dXFq4jAV3CmNVFubd4KYJaB30h8tdqWyZcCOnlT1q/3I+jPPdfrnLZJil1751qLio91+NoKPe7EWT/BV5Otd9/tOaupAtl9RtwjqN53ufPQOfdjKXOrv1kJyQItl30jQl1MW5+j+5l1ev4oyd+Ivd4bpjwH++B/1eSuLdrZkN/PGDsomQlD2O3ZEWdpAa1q+L0d9U8qT9M585S4p3RMvVndo/8SF2Q6JNw6h0js0x6Ui3Xa68O3EG07hjpE7F+kbLMQfMlMcudsZtI87mY+vMW9WcWse4cvqnmqYM5/SesLxbUZMqdyoHljJcYBFnOoLJZP33RqO+y6mm1/L/U+87ksySnJaxj/vsvt+3i5DN3D0+o5XLe1N2LPqAuhFTGwen208w7631ljiNdivl2iXVRYR0bB51lVr+beSIfuO98u7Z71sdRXvsvXzluE7Os+iJ44Dhy7sBncxwN5X4PsP8CL6dzzlX5Wl9R7znfqfb7vHvM8eBx/gzye1HsO/hpunR3flOev5Ug28VZPz1tr+Nb6n1nWeOlayP6eHcx+yW35TLz89zmyYZzu2AsomQFORusrooHpL+rlkqdOM0fpj45JjZEVH9IB5rll23q4kRKZPbcxLt8d6zVJ1xFn6DVH4JzwarpBoy/aD1lv0hqO5NNPqszlgxtbuw7Yj0Z6887d86su25tL6p56gss58/4gnxw8G17fkmc5dR/5r/Y7b9+ud6By1ZW62fuslqBgbPvPusx28+VZrjvxua7/3LdLnY+dYGrLr5e0dUc3G9++gd581V7P0RKvO9C5yXndlxOicccdbGpLwxftI+NeGb1u0m+0A1yHOWx//KW4zZx2gAkHkf2e5mPo6He77nuvwIspwre9EX8ALXf9fHw7IvWd6bc6Al43s3YbihtyUvu22Xa8gftQEX/HnWj83igoqnPq2X9xY5XrZsd7lUcWcf7gGz/VxKY+WVzfA7rdsGYRLCC3EwbrK6KXXK9ALGCIPVxdfHhdxfn0xN28BApvclO0NQyVVsZ7QuqdBIaHGaZL/OJ3+lyNXOPZ/afu74oSN+GJ2F+ruXUdzzTyaW6XfayWz8nEEuoGmguVtxpzufiy1qA/Zfbdpkvc3Q+dZH0/fVPW2MApTycEobBkLHqTBLnOFIX5rFW+wItnaDHUeD9VwjOfHJqXK8+ry+usz2Ohmu/57j/8lvOC9Jj7di7pHbtfJmWUn9HXdAnHcOBz7vqvGDfjPI/L9xhVcH0+a0E2C536/8efXGdroRCXWQnruMIO97jsv9fSeDML+PxOczbBWMSwQpyMnhdFbvkeJJ27tKdPpHpJJvIucuarlTB6w5V9vkynfidEqRMQZn5c1fb75TPH3N8mVzzC7p+hZPd+nndZbUvVhLT7M8NtAEa/P2XtF1MTznDxdkmWf/OneMozcWkW9DjKOj+KwSv+fhzH0dWQgqv42jY9nuO+y/f5fxg94vyWkeP1WbnR9ZF6E/kweUqcDHvJwv6e4l3x+t7XnD2k89+zXW7OMFNx4nsqhQ7RtrxHpft/0oie35ZHJ/DvF0wNhGsIHvzBrGrYpfsLvQdrj+2dGdmjwAo85+ta2BK13dnny/Did+c9DPfFXb+fPyrxXldMAZdv4LJav2cu3TuZfDap+Zzrm0w+PsvMZ/zu9R35QcGUfN+5NSDXVay/J275HaxE/Q4Cr7/8pfrNgl2HA3Xfs/1YjX/5bygApa/lZ/tUEFLmy4RMQ2lraAluTpP0N+L4pWWwNlP3iUDOV/EZ5yft5F2vMdl/b/iZuaXxfE5vNsFYxXBCrJUJvfcpf4kdNWZnE5AueezLxgKeQfWLIOSXQDkyHxx4y27fPZJP/HCyJNzJyubO5G5/LHF73AW8gJyQFbr53nX02w/d5rzuZzuFgbcfxm2y/DUw851XfK42PHlcRwN6v7LxGM+6WRchvTbbGj3e/D9l/dyfmracOgLzh2vSkdMBy0P+vSUlY73ede52PU7F09Le74bjN91eiPjeB+Q9f9KAmd+2R+ftEfBUCJYQVacBoqZuhxOlnu+XO/AmrrWMkfmzLMSUrgbV76VEgCVSIm7OnWc7hlINyJUPE/gQfMNiN/FzbBh4neyfO+UpftjS23carF6bDH1inP4g8pFVuvnddfTXKxkdzc2+P7Ldbt82qMbC6s/6Tl3+FaNmTavbHC668z5Yj/Xi52Ax1He+y8PzjbJklPFK9fjaHj2e+4Xq8GXc748qNupmFcJPv2DvPK27mwi+TgLft71Kr1yWL2EmUb73r+V3LeL09lDpPoeucNOSaWO++T1H1nH+4Bs/1cSeB2zPoZ1u2DMIlhBFkwDxY5Xs6sjHBcgX4CT9Acn7Z6bKtckjQWgLzx1v/pW48rUXsguXrRPupVr1skdrjOrHhjtwUdNF6ZK8gk8aL5Ezh3COVLtqmIxbd78hO/U0v25W5w/mqQ2GM52iVTrsQ7096o/ELNNrLEvrPmnu3jLR3br53WXNdu0oPsh8HY5fkI69HPkLmsMgYR5Or+1NY/I3T4Xb/nIfKGdZIiOo3z2X8FU1sg9ruW194XaP+a1I+hxNCz7PcjFasDltBrK63Yqj9r73ZVNvakCGVM6kizoeddWYo23E5+Xno8es0Pl6eiwj2vP30qQ7fLpB3LaBFbff1SfK9zLqm9q2OO0pIytM5KO97js/1e86AAk/jm9bdz71TGM2wVjF+Os5GGsjLNi3e3KcVRbLVA+V7/96ej6su4A6I61T8cvTlOpP0zPZVB/kFZf8R5ip+S1UyXyfc/lD5ovkb197Is4t8R1KzPjA6jv9Rlzxvme5G2i+W0Xa2yRi+rPO8B+zVY262cvX+L+sdPc6+u3DYLvh8DbJcPvM3GsicLx2k5pmeXUjZBzqTfut11sqfPPb//ly/le8zJJIY+jId/vAfdf0OX0O1bjVL7kLqi1XH8vFt9ltD9/cq5elvTHX87bZZprLCAPviPYD/V+N3I+3l2y+19J5nMujb3tPcbLMG0XjF2UrCA9dZIf9K6KXZw7sOml3h39YPfT8ks9tol1B82I6QGr1J/ss34n/D/IKztelXfMnTyLztP6ojpBN5tqBl7F6UHzJfr0wCtW7zsD7OVNrKqWudpDujvG9nZ527pbqQeU7FB/yq/t0OMSfCAlg9m4Xsm8fl71z01awvr6bYPg+yHwdjnebOrxu9dLzdbK/3TSWBOF4rWd0gtakpHbcZTv/svXBXnzhRcT978S04Gq2heJF2b5HUdDvd8Dl0QFXM5PD+iG9faxlLDr1fdYx5NPvkDnXbWMXucF5/PpqjEF3i6f7rfHiklaP31T4x3dHbxXoKKNkOPdLbv/lWT6XKrOh66No4+jd9726TFxWLYLxjJKVvIwFkpWUu+SZidoPgwVcyfN787ZmMV2AQAgTChZgb95Q9NVMYZefEC3NGONjEVsFwAAwoVgBT7KhqyrYgwCXUfba1C3hMavp6RtrO0jtgsAACMK1cDyMJrXL21j0zSC5kOBZWhQqusxB2m8OeKxXQAAGFEIVvIwFtqsYCTT3XI+KNWV9hgXFt349dQheevAWG4AyXYBAGCkIFjJA8EKAAAAMHhoswIAAAAglAhWAAAAAIQSwQoAAACAUCJYAQAAABBKBCsAAAAAQolgBQAAAEAoEawAAAAACCWCFQAAAAChRLACAAkmyua/KJXmtcUSNSn+Jkj9WvVZ9fnnvz3RpKEwctkPAIDRimAFGNUGLqYTLvpuv9FOU4/Nt5s02G6fKEvUU3fnVem0U/xFJsq3JtuT5QsnSo09iUJIux+c3/VUqY+YJMRFby+WzWunxo9xvZ02q2A66+CbANHg/AmEAcEKMFZc/tLjou+a/PGSmYSlZpYuIbkm7338pZ2QTuyqvHfZnuw+dlUO2ZMogJz2A+Jq7psqjcsnyZLJ402KNl6WLLxRGtfeSEAdFOdPYNgQrABA3ES5U98+7eyTXTE7Jb0vZdfui7Lu7y7KY7+7atKQv1z3A7Tot6dKQ1QHKdek/VivbFG/S/3bXPerL6RdB9WTJ0oDpSYARhiCFWC4zFwqm59rkOaXG+T5uhKTWGhfyifmzn+CS9ek20yOGhFd9cWumvH8tyeYxNxEv11sVT1qP0PgMZzYD0FMlLqFdmlK+4FLsvV3rpKA2FXZulsFLHp68iSp8626NF5uMdUaoY2h8ycQYuPmL1h43UwXXEVFVLq6Mtb6HrFG+/oNKJPVFTXy45LZEi0ySRKTzthbsuXccTnZZ5I8VJWukEdnVMuy5HynVD6TEle8QloXVku0v03WHXkj9X21HJsWr5eHi2Ky81iTbEuab1WFuvCfIQPvFc+TTTPuluWRSPxOYmesxXve6rurSmukcUaJWkenEnyaZXV4zaP/tLx0erfsTbNdtJqNDdKwyLyQXml9apfsOmteFlDNfaXSoBau+1ivPKYuYCzqwv75H0yScrkqTX/3hU/1pQkSvX2SbFg0UcrNBUx35xVpae+TrlunSuNCkdZfXUq5863v7ia8F5ko9UuK5VvR8Wp+tu7OL2T7P3m3RbDnOUHN06nGoi4MOvt8Pj/AWU/bNc9lS0/XT58iayb7bRPnffMyScL2dbGXS3/nFbn5vhtljXPnW19Qfqi+MyXNypbIaxtevirvHb0iuz70ryYVvf3GhP3nxXO5febX8s9qu/hu0wlS8+1JUht1z8/su3a177LeF5n2g+Z8Jsh+VgKtnxJgP+R+PJh1kyuyZXefSlPbVf1GahM+f0V9Xr/nottRLJ8octnJ58H5jJrfOjU/J+35DL+ROHe+wBLXT2+Puj9TwalzvF9Wx8HRL9RxkLw9A24XlyDHQ/DzJ4BCoWQFGcyT7SpAeHaGO1DR1MV5pFaaFzbI9ooyk+amA4snpbnSHahoJl91g2wqNkmDQAcu7y+slYddQYSmp1ODJHsdmyv1Orpb66ZfVt95FM2WZxc+Ka2e22Xodak/f+18r+vPP/alnNfP6r0uKyGZfWHQqC5s3H/s5dFJ0vCDqbLBvcJp6Au15h/YF+POBYWmp1MuKNRFy+b4PJ1ARVN5ozdK42A3plbztxrLdw5G25MJUqsvtNR2sI2XJYuKVaCSlLY8uU2B2g/3+WzDyRNlzfIpvg187bYLWV6EuvjuM12F6Ad+pVb2vmtYmDw/s+/Ub2ZztqVdg7ofgq5f8P3gltPxoI6BCnNM6KpdCZ9Xx2FjUnWu6BR7udN2DOGUCKiA0v07y/U3UhBq/er0b1Rtj4T2NWp6idqezff59K6X43ZxBD0egp0/ARTS+GllZU+b6YL7xjcmy+efe5Whjg6jff20qooH5a8ik0T6T8sT//KC/NePD8mL5/SjQw7+v38i/2HSDJl85Yg0f/5vJoetquKH8n/ofBKTgx3/l6w59Ws736Ve+fo35siir02SRWVl8sm5f5EOO4vIv5sl9WUVMvnLc/LK+TPSY5IH/Iksnb5E5e2XYxfek8P/0yQbpd/4ljz4jYh88bUy+auyGWaZ/2+1zGbeepn7/1V6EvKpQOXbtbLsa2pSfX7nmf9bHnKWVX3+k3F/It/8xgy54YtD8psrdg5L6Vr552+qeej1O/dPsuWDPfKMleeQ2i5l8h8iJRL9RlS+fil1OR1nL4yXWXOmS/mfqguMfXvlb95xz6BwLk/6mjw4a4Kc77wi78Qbg46TmbcWyRz5n7L/X/6nJP+Ka+6LyH+xYi19t/9zeez1f5NX2q/I7zvHyZTyiTJ7sr7PcV1On+yXD/r15wZMvrlIVpaNl75JE+SHc9SGvXxVmvb9D/mbt+3veKX9/5PfX1bzTMinLj7+i7po+bqaVJ9v/e3/kKfNPPXnPxt/g9xc9jW54VP3OiQ6e3mczCr/mpSr7+g+9rn8zUdfmXeyE533p/Kfy65L6z//W8o62b6SD/5FL0/i4/fjv67W9wb5Hxf+X/nHT1LnOfPWYnXxfYP86dd1KUBMnn77/5Ov6W0/+WvqkZT29Qnqt+Zax9v/RJ5Y9DXr7v1/T9qGn43/d/ItNd9ytW8/a78qCYVyt98o/6fKZ5Uwqf3nbMvffzFO5s76mvypdUe4V/5GpSUss8r34n+087Uf+zfZ/toX8pKznl9MUHknSHnZv5OvdSbu9+i3vyE/jKrfhLWv1fe+7Wwfta+/uEHmTlHzvOy9fZJl3g/aDTLv3+vt5f0b9BVw/QLvByX348FZtwnyrbnq4lr/bhL24QRZqeYlX/+aTHH9Vub/+z+xgryOk//me4xI/w0yf4n6TnX8dzvreOmqWQ79uCaz9Pu6dOYfLse3TfzxsX3hnp+B9StXx4UuDfnv/3zZ/GYGtqduXzPLfSwE3C6WoMeDEuT8CaCwKFlBVjp7DiVVa7ogJy/uljVHnpE1XRdMmlG8Qhpn6FvgdnWtDRdd7/cdl21HdshO6495tvx4EEoflkVmS+e5HbLgiK6K5V42tcwpVcfulmV6wqp6tlu2uZdVfX5vl1rHYzvUOpgkS5lsmjHbmjrYodavK7GamLVdOk6rqYgsj6RZv7OHZevjTbLuoSZ5bE9qaFZYPr3WXPbo4SZSLLXWrUl9Ia2rJQ3cUeyM9dl137P4d14SnWhVnVinPn8o5rorKWqeSVVtnDYKdhWWL5Kq1Hwph373hTz2q17vKlIOa9mcxu7u/Nkw9f3VheRvc61SlKXuY2q9rO/+Un7baV/0udM868Z/+IVs+ZVaH49teOh3l6TJ2nkT5OakEifnLruuVubelp0f9sljB3Q1nolyZ0pJwASpX2TfzbbbPCTeoe9Uy2LnHS/futWr9EHf1b+SVI1K7WudT+2X7PbJYO6HPNYv4H5wy+V4iNOBzd8l78MvzPxEppv9bM3bKjHI1DuVej9EV9ZW1ap/6nP9ZuztueWYfXwssXqE85D1drEFOx7ccjh/Aig4ghWkdTJ2yjoZR2c8INsr5klVNlW3JpXYxfCxt1LaldguyLZz+mJefW/JXKmypgoo1pIaQHkqk++WmKDqtFcbGSMh4FGK58pyXbVNBTgvJAQxLhdPykH1NCjrlyv1J75O/7EnXURavVh51T+faqpW+PbEpP64zVRaneriL6sL1AnyH6O6GogKjv7Zv765rnoxaHIZWyWghGokhjvNqW6SLH4hG5kgNXr8jPumyvNmDA27jc54uWWq9YmcJF/QxatfqYBxj19Q+OFVq5F2ubrwdle16fz4qlW9qHzhjfZ4HkGr6w3mfshj/bS890PWx4NDHw/e7SH8fisji3+31M7vSSZP8KjSNTjbJeV4cOR6/gRQcAQrSK/vDVlzrE0O9kdk2QzdRuVJeb9aPRbrtirewUtVkd2zVecVvyt55UqPfTGiPnublVA4aeeboFS+abWn6ZGPMzSGT+AEY0XV0qy3heej1i6xGYHidd/zvCDKPr/TA9GX8olncDT4wjymhz3AX6k0/2CKNOjxM3Q9fXcdfw+dJgiy2sC4Awdd1183sFZSgicnSJ08SRrNgHepjxvtErBksT557FdXpP2yGc/jB+bz6mI+l+BlUPdDPuunBNkPbvkeT+k5JXOZAtcR1tuXbp9iJvMR6HgAEBoEK8hMBSwbjjwjC47tkCfOnVaBS0w6iwaCl9Y5KmgxHwVGnhCP6XG7uvC3BvhT05evSvuxL6TpV72yRT10dTen2kuKeJUYu9F4/GJcN2bWyZ1f+JcuBOVUw1PL1nRMLau6OO/WjaVN8PL8fZlGUB+F+2EIOaUKviUEWmSCTLcmhu/GwLAYjuMBQMEQrCB7fXYbjg1HmmRNmw5eWlTgIlaPWY0ebU+ik0rNlAendKK/Rz6yEoZTidyaS89kTqlQrEUW6O2Q7uHZBfPIkMtd48JIX+d/sIR3TA/nrq9uFGy3ddDtLHR7h86sqsTZF6+J40HohuVfyJZ4N7kuTk9RuntaZzBBv4df17iaWjbdxmjr7kvymP6sGZBQ9wq2IU2PYIO+HwKvX777YWg4pQdeVdgc0Vt143olU09rBSrRCMwpBVMBWOF628rxeAAQGgQrSKuqNE2pSd9x2eC0PXEFJk47F4nc7dM98UAD9c6eEwMX830X7Z50fKqGVVU8IA8ndIOcr+PyunV3MSIPz17hv57FZYnv9Z2QA7qDAN/1y9KQDAqZu3h9cXXRk9iNrhEpdFWSq/Ku9YMZL2v+LM3o2hGv+usugQaFdNrLqGUI651V3dg8ocMBhwruzFSK22+02lG06kbhCRfiqQ3L42JX5T1dlShanHMX0dHb05Sa6AEJj9oBiH8APAT7IY/1swTZD0PJtLfxH/TRNWhkxoAwwI2DAMefd5W1gY4QCtZ2KcjxACA0CFbgT/fqVWmPM2JV9VIX7W5VenySShN0uNuJ9L0hLzlBgB6HpdSVTw+iaA3sqF+clpcSGsJflH81vYQ9665apua7aY4e8LHwt933nmuz/6h0+5PFa2WTe1mtgSLXSuvC9dKslmeA00GAWb+Utjt6EE2Vr3qtrDYpXmpqF8sSu06GlK+6V+pn2tPDzrmo01Um1ibW8daDqj3vVJ0ooEPtV+wASbcnUPOsv919saMHitTznSKNfmMvKDVLTDUdRTf0zuqC1Gl0nelO83BS22SDbvdhXsa3hzVui0lKYrc7UkGlT69d3r6UXVZQoYJGa1yU5LYmetBHNd+/SBoLRl2kblh+ozUOjlXVSwWVblFXuwDfdhtDsh8Crp8jwH4YWldlj9OL1nJ7XJv4Yul9oI4r67hN18FA0o2DxPYdumMB/99T7sefHk/F7AeTopfTHuxTv7gqLTn36uct2PEAICwYwT4PY2EE+9QR6D14jjjvjDZvXqbwHoVej1/yvgmAkunuiF+atF6ejaQbwT5ifS673sAMFZRZI+ebl6nSz8+XHrfl9G6fHtHUn/sQjWAfSHyEZg+6zv7libIkes3q2ji5fYE9Yvd4u1vSXC420s3T4j0/R5AR7O1l9R6JP1uZ1tdZrvYDF+NdLzt5sk3zpPaDroevB2J057Fk3JY6cPAeeT3tPDWVT/fG5N5euvF53aKBi1VPVrfU3tXH7Hnmsh8muC5q09Fd3Cb2HBVo/YLuB8XJm/3x4Kyb/2843XfqwQ/1YIme9LLqrpPNS09pfzup29OR/fE3sO+6dfVAz33olT+P7ZLH8QBg+FGygrROXrQb16/r0D2CJf47dOqL8Y4dHoGKdkG2xfOZJEtMOmMtsq7NI1DRLu5WeU6r7zavNT244zF7PJePrnj+++VH93jWZncekDDfDMt6sqvJarezM6Y+Z9IsajsdPKfy6XFbfAIV7VDLEWm3hkFWf5T7Xg9PoKJZvTt9Ia1mPBCbqd+9+4r8MeNFYgB6nn9nN87WFzEDrkl3p5pvSvehiXTpjDP+y8D4JekM/tgq+erUY04cSNoe+mLatJ041GvSksWuSkvCvkvlN/K6nqduZ6L3fUL9/svO/k/dtnq8Ct24fssBvQ8S56svAvXy+gUqQ70fAq1f0P0wDA79k8eyOsdQpkBFM8e+93684ps/9+Pvmrz3z/o3k7iseqyepqyD1izlcTwAGH6UrORhLJSsAKky3+EcEW6/UZqX2wP15VQCFHpm/4h/SYb+TM19U6w74cO+/qN2Pwy/eImQ7lQgNGOCDPX5Y4QdDwBSULICYEwK89gqeTHtP9I3Tv4yNAMLjtr9EAKdv+uzG91Hb8yi6+hRaoQdDwBSEawAGINCPKZHgVijyd+e2oOabvBef5/TBqNwjZiDGf37YXhdla26mpWa0l1HDwyGOTVYj2gj2Mg4HgB4IVgBMOaEd2yVAoj1SYt1C1n3tjQlZbT2xh/cKGt0A2zdBuFXWbRhGESjej+ExYdfeLQ/G0NG0PEAwBttVvJAmxWMTaOkzcooZ/fQNVGmTzYD7BlOr0d6zBDOXhh6w3P+4HgARi6ClTwQrAAAAACDh2pgAAAAAEKJYAUAAABAKBGs5IEqYAAAAMDgIVgBAAAAEEoEKwAAAABCiWAFAAAAQCgRrAAAAAAIJYIVAAAAAKHEoJB5qtnYIA2LzAvple7zl6Xlxd/IobMmCQAAAEAglKwU1BQpnz5LGn56v9SYFAAAAADBULJSSDMrpf6RlbJmeq+0PrVLdlG6AgAAAARGyUohne2Q3x7pNS8AAAAA5INgpcA6uy+bKQAAAAD5IFgpsGj5ZDMFAAAAIB8EK4PisnxCexUAAAAgLwQrAAAAAEKJYGVQzJKG55ZKzUzzEgAAAEDO6Lq44EqkZuO9UrtoipSblO59u+WxPT3mFQAAAIBsULIySJxABQAAAEAwlKwUWvX90rx+lsj5M9L04nty6CwlKgAAAEAQlKwUmN11ca+0vvgbAhUAAAAgDwQrg4KuiwEAAIB8EawMislyMz2BAQAAAHkhWAEAAAAQSgQrBdbZfdlMAQAAAMgHwUqB2Q3sAQAAAOSLYKWQZlZK3aop5gUAAACAfDDOSp5qNjZIwyLzwnH+iGx5/LCMtbH7AQAAgEKiZKWgeqX76BFpepFABQAAAMgXJSsAAAAAQomSFQAAAAChRLACAAAAIJQIVgAAAACEEsEKAAAAgFAiWAEAAAAQSgQrAAAAAEKJYAUAAABAKBGsAAAAAAglghUAAAAAoUSwAgAAACCUCFYAAAAAhBLBCgAAAIBQIlgBAAAAEEoEKwAAAABCiWAFAAAAQCgRrAAAAAAIJYIVAAAAAKFEsAIAAAAglAhWAAAAAIQSwQoAAACAUCJYAQAAABBKBCsAAAAAQolgBQAAAEAoEawAAAAACCWCFQAAAAChRLACAAAAIJQIVgAAAACEEsEKAAAAgFAiWAEAAAAQSgQrAAAAAEKJYAUAAABAKBGsAAAAAAglghUAAAAAoUSwAgAAACCUCFYAAAAAhBLBCgAAAIAQEvn/AQG45Ieks0LkAAAAAElFTkSuQmCC;" parent="1" vertex="1">
          <mxGeometry x="220" y="180" width="811" height="587" as="geometry" />
        </mxCell>
        <mxCell id="RHCFxmJjhwdRAFU584P4-2" value="" style="shape=image;verticalLabelPosition=bottom;labelBackgroundColor=default;verticalAlign=top;aspect=fixed;imageAspect=0;image=data:image/png,iVBORw0KGgoAAAANSUhEUgAABHEAAAJSCAYAAABEAFnjAAAAAXNSR0IArs4c6QAAAARnQU1BAACxjwv8YQUAAAAJcEhZcwAADsMAAA7DAcdvqGQAAK1ySURBVHhe7P1/kBRVnuh/fxA3uNDPukI1dtNK047adPO1+XlnZG1twMXZZ5aLTTDQARFPbOg6rNoxoV5jiUADQyaGZyTCvYZDTKAu42rs9w/6aRyiWy8zd0dWBGlHx+GHwgNNj7M2MMMP6QLG7xf6Go/Ic07myeqsqqyqzKyq7srq9ysCqiq7TmXmycyqOp8653PGzJw1+5oAAAAAAACgpF1nbgEAAAAAAFDCCOIAAAAAAABEAEEcAAAAAACACCCIAwAAAAAAEAEEcQAAAAAAACKAIA4AAAAAAEAEEMQBAAAAAACIAII4AAAAAAAAEUAQBwAAAAAAIAII4gAAAAAAAEQAQRwAAAAAAIAIIIgDAAAAAAAQAQRxAAAAAAAAIoAgDgAAAAAAQAQQxAEAAAAAAIgAgjgAAAAAAAARQBAHAAAAAAAgAgjiAAAAAAAARABBHAAAAAAAgAggiAMAAAAAABABBHEAAAAAAAAigCAOAAAAAABABBDEAQAAAAAAiIAxM2fNvmbul5mZsmL9cqmP75PXXt4l58zS3MKWi46qRT+Uh5srpa97g7x52CwskDvbfigP1FdKvG+HvNr5qVmKvFTNlIULWmS6qteYWRTv2yddneV5fpasYh6HplXyTGuDeTAk5zUatlzZq5aFjz0qd8d65a2NHXLELAUAAACirmx74lQtapF6GZAPdgRrYOUqpwMgz6zfICuazILIqZbGhkp1OyADX9hLCqZqsTSrBq4Wi90kVdY95EXV6SNrlsvdrsCBFqu/Rx5+bJXcaR6jyIp8HKoq7esmWa/05gjEhC0XRfZ7r9+6vkkq9YGKD8h5ewEAAABQFsZWVVdvMPfLh2pw/b+WNciEvv8l/+dvA4Rwcparlm9/r0WmThiQ4+//Vvovm8WR8i35r//PRonFD8iv3/tPKeguXL4if/l//FerfvoOvicf9//f5g8Ip1oW/v1ymT5B9/jYIdte/v/I/9r7nryv/vVdrJb/x5X35D3qeBgU/zhc7v+t9Xr2v14Zq6+jwV7Z97vs12jYctFj3nv97ltVk9w7r1Ym/PF38r/+v3n3kwIAAABKRln2xLlzwT0Sk155K+BwntzlnF93e+VYVNsFVTfZPQniXxRhKM5Zee/lDfKTjT+TN3efNcsQWtWdMl0fLDM0zX28zh3uoI6Hy7AfB+d9Jug1GrZcFATbt6oZDdb7XN8xhnQCAACgvJRfEKdplTxQr77r97wXLA+Cn3JFDYAMk5vs4SDx84UeS4VCoyFaGob9ODTNEPVWFHx9YctFQcB9mzy5SENGAQAAgBFWZomNTTJLCZqU2Gc5k0Q03vOKvBrk1/eqarlzwQorX4wVBNLivfLBvvfkvcPZXkeVa0supxOp9uzZJUdu0ttSKR9s/Zm8l7bBmcudn1HApMYZkqpK1qTQpq7jO+Qne8RKFKvzjFj1saND3hM7eWzSsgD7F7ZespdTh1Dt67J7VGM+cQAHpK9nr7y/O7lnRn5myorHWqQ+5pXnxM07WavOGfJwswztQ5V6veWu11P1+ZaqzyOpGxzo/CzE8Qsr/PELJuRxsPLm3COxPlU3nr35TN3lSLabdhx9ClvOP9exV/tX1bRY7r3nHlVP9l/j6nj3eJ1fCUGOn99joKXWZ2o9q/UuWijNzXYwTtPD4rpSelUBAAAAUVBePXGaFqov7iJ9+4IlM/ZbzkkiGh/wH8DRjf9H1jxqzdjkNCAssQa5u/VReWRRtVmQQjcI16eX04lUH1jzQ1nRqIMnAzKQusFZy62Se62kxoVJfOqdVFXVT++RLPVohkXIDFlhEsVaVH1MX6DrKnnZ3Qtm2vcdRaqXjOWsxuQGebjVHcDRKqW+ebk8/NjiwiVw1j29fDVavSV6H6h90A36Z1RdJjWC9fan7F/w8zPP4xdW2OMeRtjjkLOXmzMkKHuyXfdxDCJsOd/MsLK42o+FbT9U18RQAEeLqeOtj8VCrwsi6PELcgzS6tNVz856XQEcLVa/XJZleu8FAAAASlgZ9cRRje2iTinu71f0JK6eKsm//FarRvZCeVg1LHTDJf2Xc7NN+q7arrd27Er8um31CNEBBf0gbZvDlisQs79Ze/noRpXuraDvqzp5TdeJq57SliX1asi/XhK//AcqZ3rdHFXb5fxRTze9fLkd/CvKdM5m3b6PlTk/dW+yfZVW0Mk65/Y421wtdzaJHHH3rHHVu+/zM6/jF9ZIntf+j4PdEyZLLzen7rLWiVlf4HoLWy4A93HW10T3m/K+Op+sOrF6fan16wORtg35Hj//x8Bi6lkHcSRWKbGkHmi6N5AOJqm7xawrAAAAoEjKpidOsaYUH+LvV/QhquFhGjy6UZecEFU1fHZ3yGs9qpEhlTJ9RvIvwne2mQaPbmSoRovT4NF0ItVXu3vtBym5efyUi+sHRcrpY/fMGcieh8L0VrAabE6dfDFgtsu1zHD3asi3XnSg4tXOzOVSexDZ5VQDcKtO1Ky2y/3Hc5/Kezv2WdsdqyzCL/qB8y85PWQaVKNYBxJesc+5ROGzyQGcsOdnHscvrLDHvSACHIeceVj85KMy6wtcb2HLBZDoeaePs05e7gRwNHU9vGmuB4ndlNQ7Le/jF/BacHIYWT15el5R63QP8VLXwR6znQAAAEAElUcQp2qxLGtWX9j79gbLBRGkXNCGhBUcUk9XjYhMvTTOHbWDKrHJN9kLNLVNzVZBu0GcTVKST5/litfQq5ZGPVQrnn3mLqchmDR0zTRu3cvShq4VoF50T5NskofJzZQGXU70EJEN8sx6j39Oj5Ri8NPgd3POT9VwjXfbDexswp6foY9fWGGPe6H4Pg7VJsib+fy/0xoylKNOnPUFrbew5QJwglQZA97nvkgPjhTi+DnnV6Ckxur5OjiZJXdZMQNeAAAAQLGURRCneFOKu/huzNmcBs/xo8EaVc6vyNnyytgN5ORf/P2XU88pSkPP6amUPcjl1VvBbtwmL7OfN5S7p/j1ktKDwsyGM1KcOvF9/jjnZ5agjFvY8zPs8Qsr9PErEN/HwZmGPOP5b4I8ObbTXl/wegtbzj/X9me7wFMU4vh5nV+ZOduZuS4S21TEgBcAAABQLNEP4jQVcUpxl2ABEJ8NHo/AUO7GtenxkvLa/ssVqaHnawpgp3eLe9u96so8zzV0rfj1klzOOd761/yfbMz+L9BMZb4EbzD7DjZYwp6f4Y9fWGGPX2EEOA45g7xOkDNbTzWzvsD1FrZcEGb7+45mfr/06K2Y//ELcAwsuYe9OttUjKAfAAAAUGwRD+JUy8J7VONVD5UJ1JAOXs7+4l/IAIjZBiXYL8K5Gynewpbzx1dvCKeRl9QQ9GgcBhy6Zgu5f4keFN7lipLvJqeg+xK0oeuHx/lZ1OMXVjHPa/+vnSvIW+X07MpaJ876gtZb2HIBmO3P1hPR7tmoToVAw9py1bH5e7bgkVvOc68Y1woAAAAwfCIdxKlatCLUlOLBywXtWXBWBqzkEA3S0GQtSONsgw4kvZ8WGKqUSleanCF6ZhWTJNSzkRK2XP4Sv25ne3Gv3gpejcOMvRrC10tq8miLNcOUyWuTUu7cgE7qKxJruDPjFOJVTdWFm17cLXAQxH+wwRby/Mz7+IU1Qud1gOOQrXeHNWuVSSKdtU58BEo8hS0XQM6eiKZno3egO4/j5xwDn5yhUpkDSUGvFQAAAKC0RDiIM1PutZIS7/CVA2RIiHIhehYcOWbPuFLf+kNZoRr7CTpw0GZPRawbfalJQs+ft4MH9a2r5E5XhKCqabGseMxMjaukNtjClisM59ftBmleNLSvVU0zk7fFoyHod1nY/XOOQ6z5UXlkkd6eaqkyx+CRNfYU4Vpao+/wUenTt7F75OHHFiev0zmGrY/KvRmCIPnI3RBNMUznZz7HL6yRPK8DHweplLsXzBwK7Km6XPHYBnva8T57P/zUiQ4cJvZVna93uo9PFmHL+WEHqfRx2GBdR0OHQgdifpiYeryvuyOpx0zBjl99iyx07Y99Darr0jx25Bwq5QS8suToAQAAAErZmJmzZl8z9yPF+nW7WeSDrT8LNCNVqHJNqxKNlGx0/hR3YOjOtg2JRko61UD23AbV8Ftvfp1OFe+Vt3or5QHP7Q9brjDserUbem7uOrHrI3m/7WVq+zY6jb9qWagad3fH3Mu08PuX6TjE+/ZJz/mGzPWS47jrKcv1jFeFrk6vesrKbKdOahwkP0/Q8zO/4xfWyJ3XgY5DxnPFLn9shp/3nQz7qmd2ejlbr8Gw5fwyx1TtS1wqJWYCn6m8z798j59zPpmHKZLfc3Ofe877VOp7NQAAABAV0eyJUzUMU4q7OD0Lskv/9fdI5wZ5rbtX4u55d+MD0tezQ17bmKnR8qm8uXWHfGB+ubfoMt2vqAZZhxkC4DVsKWy5wji3+015y71utS69n0NDxbxyUZhlSUMbMg13CL9/9nHYZ/WGiOsyffvkra2qwdl5RCqzJVU93CE/UevsU2XcdPDnra0bVPnCB3C86ym7sD1fgp2f+R6/sEbqvA54HNS54nX+O/Xoa7ihta/qPHUdj3i8Vz7Yl6vXSNhyfjnHdK+8+vIr1n4mnTLO9eAZQMz3+J2V99Q6k8orev/0OpMDMbnPvZw9dQAAAIASF8meOOm//vsTthzKleklULAeC0AZqlosj6y5RyRgTy8AAAAAhRe9njgmgWaxpxRH+ata1GIN8yA/BpCZkxuoEDmOAAAAAOQnYkGc6mGbUhxlQPcgWP9DWZGUiFVJSt7bKz2cE0BGDEECAAAASkekgjjDN6U4ykel1Dcvl4fXb5BnnH96Vqp6u2H6wVaG1gGZBc/RBAAAAKB4Ijs7FeCPngJ5hTTXV9rTcGs6sWrvXnl/dzESEwPlhLxRAAAAQCkhiAMAAAAAABAB0ZxiHAAAAAAAYJQhiAMAAAAAABABBHEAAAAAAAAigCAOAAAAAABABBDEAQAAAAAAiACCOAAAAAAAABFAEAcAAAAAACACCOIAAAAAAABEwJiZs2ZfM/cBo1JaVn5bls29VWqmmEXyuWx58Fey1zwCAAAAAADDK5JBnMpl18vtt5sHGV2TP/3bVTn1hXkI31qeaJf2OeZBAkEcAAAAAABGEsOpkKJSbq627+3f2imrHtxi/hHAAQAAAABgJJXBcKoxMvUfxsrNk+h5UxiVsvr5NmmVA7Lu6Q+l3ywFAAAAAAAji544AAAAAAAAETBqeuLYeXSuyWf//I2MX3ad3Hz7GLX0mlz45VXpO6peI22ZVSzZTep5d18nk9TzxptFgxfU8z/8Rk4dzVyNE2aMlTvmqzKTzAIPgx9dlU/eT3mNDOv70/+8KgNF7HFk5cSppicOAAAAAAClZNT1xLlZB3ysYI02RibNv06mLktZ9ndjpdI8sukgz1iZ//f285yAijZ+0hi5WT2/foZZkKJSlZv5d9kDOF4m3Jt5fbf//fUy615ne4tkykSpNXcBAAAAAMDIG1tVXb3B3I+oMfJXc66TG8aL/F+fXJMvL5vFKSY0XCeTJo2Rvxhv99g5+s41GaOW3aCW3WB68SSWjR8jcukbiZ83hWeMlRl3jbF6wZzY/o30vfON/PED/e+a/O+xY2TSLWNk/B1j5H+rx1dMEYsqN1OVs2bK+uU3crTbLnfhksgN6vl/oZZ/9s9XpU8tO3fSLmJR5eYtsstd+Ogb+X3HN/K5tT5dVm2vKjterXPMZ5n3Nx/T5n9bvj3lknzc9ZmcMMsAAAAAAMDIGnU9cQY/+sYMubom8d/bw5fcywYvWIuSHb0qn/7b1/LJv+phTO4hT9dk4P2r8tln9qPxN9m3jgkx+1YPz3IPt7py9Bv55Jf68RiZlNaDZ4xMnW/3srGGdb2fHBi6orYlUXZ6oXvjVErdyu/JMj29+JmL4o4rAQAAAACAkTX6gjhxdxDG5l52xePv2hUnB81NY6RyxnVSv2yszPqHsTL/n3SuHf2HMTI+eQyWL+NjKYEY9fqT9NCrC9/IH73y8mhHvxEda9K9fybYS/Izbb68+Ea7dLzRJpuW3Co1Zz6X7lfIhwMAAAAAQClhdiqfJujAzT9cb+Wpuf3vTLLhSdl7wlyJ27dWjh13L52bxkj939ll04JKlSYHzqTrZOY/qfV5/hsrAVPsBHJa/fuTfRcAAAAAAJQIgjh+6Nw2OnBj9ZDReWquymf/podYXZUP//nrxHCqNEedoVZ2MuJEEObvTRDms6uZe9sMpxMfylMPbpFVD3bKlp0XpWbKrdL+6HypM38GAAAAAAAjjyBOTk6vGZ2c+Kp8+K92nhqdG+dKUn6cTOznDFr/O+xA0KddKYmQtYFr9nM/swNEWf/96zfp5fMyIHu3b5MtB9VdZqcCAAAAAKCkEMTx68I1ibuSEw8xw5+8zBhr5cv5k06KnBSASU9YnPDFNbmgE97cfp1MTUmUDAAAAAAARi+COH5Nuk7uuNedSFjdn2EnN77ZSmyczp6daoyMDzSL1DU59aEOFo2Rm/9+rNTrdSYFc8ZI5b1qvf80VkLkUQYAAAAAABE1Zuas2X7GBJWUymXOjFDZXJM//dtVM3X4UJkLv/xa+kwemgn3jpWZd43xvczThWvy2e9Fbk8pY7npOpn199dl7qmjDOocOx9+kzQFuZZ1nZoq96f/ObR/hVMpq59vk1Y5IOueZoYqAAAAAABKBT1xfLjy/lX59JfXZFAPc3LoIIrJkTNgZqFK84V6zmfZY2R6hqub/26s1M8wCwy9zg//7apVPimfjg766Hw6ar2FD+AAAAAAAIBSFcmeONEwRqbqoVbyjXyaMQHxGKlcZufNGfzoqnzyfikcCnriAAAAAABQiuiJUyw3jbGmJB/8fYYExhb1t3iJxtCmzJWVzWTdAQAAAACgVNATp1gS+XCuyYVffiN/PJoczJlw0xiJ3X2d3Hy7PX35Z/98VQbsP424upWrZdOSieaR43PZ8uCvZK95BAAAAAAAhhdBnCLylYC5aAmK81O38nvy+NxbpWaKWUAQBwAAAACAEUUQp8gmzLhObpk/xkpg7J6lypmVKp7SQwcAAAAAAMALQRwAAAAAAIAIILExAAAAAABABEQuiFNbW2fuAQAAAAAAjB70xAEAAAAAAIgAgjgAAAAAAAARQBAHAAAAAAAgAgjiAAAAAAAARABBHAAAAAAAgAggiAMAAAAAABABBHEAAAAAAAAigCAOAAAAAABABIyZOWv2NXM/Empr6+TkyX7zCCOvUlpWfluWLblVaswSOXNR9h/YL9u390m2I1XXPF9W/re5Mm+KWSCq3M7ilQMAAAAAIMoI4iC8afNl7aPuYEqqi9L93DbZdsI8dKlbuVo2LZloHqU4c0DWPf2hZ0AmbDkAAAAAAKKOIE65cgVYTu/slKe2D5g/FEqlrH6+TVqnmF4wv+2TfidYM61erXuxHdw5uEtW/bTPXu5Q2/bij+ZKjdWD5h3ZrrbNOqLFKgcAAAAAQBkYW1VdvcHcj4S/+qsb5c9/vmQelaNqeXLuf5dXv7VAZvzvvfKrK2ZxgvP3O+W/XPhYPvz/mcUpWh58QFrvsO//ZX2N/MXBI3Lkz/bjwrgiRz77XL5477ey7YO4XHK/9p/j8sFnY+XuRVPkL+WS/O4//qj+H6K37T4ruPS2PLd9YOhvutx//FluXfYtqZkyMW2bw5YDAAAAAKAckNi45JyVlw50yR51b0F9uzxZYS91NNYul4fGi/Sf2iEvXTYLR8qJAdnrMVTKcsvEoRw5Serlrjn69nPp8uwd1Cfbd15UtxPlllvsJbaw5QAAAAAAKA8EcUrSYXm877i6jclD0++TRnuhSMV9smlqTGSwR9adPGsWetvbdUD2n7Hvn975jmdemmKom6YTHX9PXlxzq3p0UbpfSclRM22S6FFPcvAPstdaYKszt1r/abuPzZSaSuvWErYcAAAAAABlgiBOqTrfKevj6nZ8s2yqrVZ3quXJ6c1SJ3F5/fi7csx6UhYnPpQXnt4iqx7cUoR8OCl0rpo32qVD/dv0ozZpX3KjlZtm3YMeSY1ND53Tpy/Yj6Ve1upy6t+LK03w5Y8X5bS6qamZZD/WwpYDAAAAAKBMEMQpYW/32sOq6qYul80N9jCqPX1bRn4YVU4Tpab6NvnrZh89Yppvk3nmbqDgS9hyAAAAAABEFEGcknZYHj/UI/0SkwWxmEi8Sx4/b/5USk58KE89aPf6Wfdcp2zZ+bmclluldU3bUC+ZFInAS8/H0m0N+7oo+3+Xe1apsOUAAAAAAIg6gjglrjHWMJT3ZcLkofw4JapfJzve/it56ulOK8hSs+R+WT3N/FEzQ56GDMg2a9jXNnmhxyxKGzqlhC0HAAAAAECZIIhTyia3SYdOZBzvkvWn4q78OFEwIL85YM8W9e3vuHrjnLggVgeaObdJi7UgXV3NjdbtmdOuXD5hywEAAAAAUCYI4pSsJtlcP13dHpf1vYfl7ZM75PVBnR9njWyebD8jq2nzZe3zdrLhTEOa8lMpq5+YnzQ7VLJK+eu5E617yUGVPvnooL69VZZ5ble9rFyiy30uHzk9bCxhywEAAAAAUB4I4pSopQ3LZIG63dPXKW9bS87KS8d1fhyRBfVtstRallnLsrkyz5qT22NIUwHUrbxfWufMlU1vrJa1zZVJwZy6afWy+vk2abXWnx5U0dOfW7NILdE5c+qHyqpya59fbCcsTplKXAtbDgAAAACAcjBm5qzZ18z9SKitrZOTJ3Uoo4xNbpNPdC+ceJfM6j1sFtoaa9sTQ6xS/+bW8kS7tM8xD+SidD/nMd13nupWfk8eX3KrlYfG20XZv9WVs8albuVq2WT1nPFw5oCse/pDK2CVKmw5AAAAAACibmxVdfUGcz8S/uqvbpQ///mSeVSGKu6T7v9jjtyoh1Ed3C2p8y4N/Plj+VPFArkv1iDfG9MnHX/+v81fkp04O1ZubZgiNX8pcnrn2/I/Prhi/lI4l45+Jv9+8M/yFzdOlBumjBe1KtuZi3L6sx75f7+yR36ZIc506egR+d35sTKx5r+obRxvll6U/Tt7ZPPmTzIGYsKWAwAAAAAg6uiJAwAAAAAAEAHkxAEAAAAAAIgAgjgAAAAAAAARQBAHAAAAAAAgAgjiAAAAAAAARABBHAAAAAAAgAggiAMAAAAAABABBHEAAAAAAAAigCAOAAAAAABABBDEAQAAAAAAiACCOAAAAAAAABFAEAcAAAAAACACCOIAAAAAAABEAEEcAAAAAACACCCIAwAAAAAAEAEEcQAAAAAAACJgzMxZs6+Z+5FQW1snJ0/2m0cYWfWy9o3FMs888nTmgKx7+kPxOmJ1zfNl5X+bK/OmmAVyUfbv3C/bt/d5Ph8AAAAAgNGMnjgYEXUrV8umNe4AjjZR5i1ZLJueny91ZgkAAAAAALDRE6dcTZsvax+1gySnd3bKU9sHzB8KyfTEydLbxpPathd/NFdqrJ4378h2tW1W2Wnq9R5Vr6cDOwd3yaqf9umlAAAAAABAoSdOiVna8Kx80vysbJ5sFniqlifn6ue1yVKzJFXLsqFeLjVL7pfV0+z7BTVtklirOHsh0PAnvW016vb0znfkBSeAo53okxee3iX79f0584qzzQAAAAAARBRBnBLz9qkeK6ixYOp90mgvSlcxQxaNV7fxY/K2vSRC6uWuOfr2c+ny7B3UJ9t3XlS3E+WWW+wlAAAAAACAIE7pufyu/Dyubsc3y2MZeuMsndosdRKX108dNkvS7e06IPvP2Pd1j5dtJ+z7BXXLRLtHzWmRlidWS8cb7ebfannxifnS4tWTxum9c/APstdaYHPnwOk/fcm6nVJTad0CAAAAAACCOCUp0Rsn1mQvSNIk98fUzWCv/Ptle4mnEx/KC09vkVUPbilSPpwhNUsWS/ucieaRNlFq5syV9h+1y9pms8iRCPxcsB9beXXaZZP69+JKE7T540U5rW5qaibZjwEAAAAAAEGcknT5qOweVLexe+XJCntRwuRGWaBu+geOyjF7ycjp+Vi6D34u3Vs7Zd2DdsDI+vfcrkQvoHlrvict9l1vzbclpignaAMAAAAAQGYEcUrSWXnp1HF1G5NFsWp7kaVanpw6Xd0el5+fPGsvGlEDsu2nv5JtPa7kxJqVoLhTuq1Azq1yV2pvHCURsNGBIOt5F2X/75iNCgAAAACATAjilKrze+X1QZG6qS1DM1BFKqHxgPzmgE5QnJLbxgyVGjIg26xhX9vkhR6zKG3IFQAAAAAAIIhTss7Kvw/oDMfT5X6T4Lgx1pAzoXHJO3FBrI43c27LOMyqruZG6/bM6eLm8gEAAAAAIEoI4pSwYyfflz3q1p5uvFr+tjKWO6GxY9p8Wfu8PVtUImFwQVXK6pX1SbNKJauXlUvsZMfJwZg++eigvr1Vlnlul1Puc/nI6ZkDAAAAAAAI4pS2w/LyqbjI+Ab521p7KJXfhMYty+bKPGsubz171P2y2mu67zzUrbxfWpcslk3Pf09WN1cmBXPqmnUAabGdsPjMAdmeEozR059bs08taZMX3YGgafVD5VKmIAcAAAAAYLQbM3PW7GvmfiTU1tbJyZNJaXTLXJNsbl5mzUilExqv7+n0lQ+n5Yl2aZ9jHshF6X5um2w7YR4WSN3K1bLJ9LbxdOZz2fL0rzyDMVnLnjkg657+MDlZMgAAAAAAo9zYqurqDeZ+JPzVX90of/7zJfNoNPhCrq9YIPdNUHfj++S/D3xhL87hxNmxcmvDFKn5S5HTO9+W//HBFfOXwrl09Ii8efDP8hc3TpQbpowXtSrbmYuyv+Nt2fz6p/KJWZRKl/3d+bEysea/qG3U2Zo1VW5nj2ze/AkBHAAAAAAAUtATJwKWNjwrG2Nxef3QFnnJTz4cAAAAAABQdsiJU+oq7pMfxNSt34TGAAAAAACgLBHEKWGNk++T7tnNVuLfPafe9ZXQGAAAAAAAlCeGU5WaiqHAjaM/3iWtvYfNIwAAAAAAMBrRE6fUTHBN1z0Ylz19WwngAAAAAAAAeuIAAAAAAABEAT1xAAAAAAAAIoAgDgAAAAAAQAQQxAEAAAAAAIgAgjgAAAAAAAARQBAHAAAAAAAgAgjiAAAAAAAARABBHAAAAAAAgAggiAMAAAAAABABBHHKWrU8OfdZ+aT5WemubTLLgnJeo12erDCL8lLo1wMAAAAAYHQgiFPOKmbIovH23bqpjbLUvlsEJjAz9z5pNEsAAAAAAEBhEcQpZ5ePyu5B+27/qWPytn0XIdRNq5fVT6yWjjfapeOJerM0u7rm+bL2efV8Xcb6t1rWrqyXOvP3TMKWAwAAAACUN4I4Ze2svHTgxzKr58fSevKwWYYgWp6wAymbfrRYWudMNEtzq1u5WjatmSvzppgFlokyb8li2fT8/IwBmbDlAAAAAADljyAOCmCyfMsM2xo204Z6q7y4stIsLLyTXbtky1bzb+dFszQHtW2PL9EBn4uyf2enrHtwi6zS/57bJfvPqMVT5somr948YcsBAAAAAEaFMTNnzb5m7kdCbW2dnDzZbx6Vl6UNz8rGmMievh/L4+fNQq2i2so1c+zyWfuxYT8/Lq8f2iIvXdZ5adbIQxmCKf2ntkrryeTyydQ6JrfIpqnTpc68Rn+8R35+6l2Rqe712H+TyW3S7XpuVvEumdXr9ARytnNou5c2LJcfxGKJXiZ6vet635Vj5rEX3UOmfY55IBel+7ltsu2EeVgszd+TjjW3ihzcJat+2mcWpnO27fTOTnlq+4BZ6qiXtW8slnke2xy2HAAAAABgdKAnTgn57Ercup02vtq6tVXLk9PXSMfsNdJdm7z8tgnqZrBX/t0JrIRmB1Y66pODMnWxZtk4u11+oNfjwVcAJ5sJTbJZrXejK4Cj6fV2RDZJcr3cZQWXPpeutECM1ifbrR49E+WWW+wltrDlAAAAAACjBUGcEnJs0G68102YbN1a3DNMeS2/ct70WBnKf+P+t+qUHRjKZmmD04MnLnv6tg6VPdQlewZj3sGa852u9ajn6WWDPbIqscz1L9ELxy0mD9UvkwW6R457nX3H7T+Pb5bHXLubam/XAXuIkXJ65zul0zNl2iSx0tkc/IPstRbY3EGq/tOXrNspNa5hYGHLAQAAAABGDYI4peT8MTsYMmHyUC+UCZWqIX9c9uhYTNpy1bC/4h53FULFffKDmL5jD296/PzQkKtjlw/L4we2yutmhquCGzwu63u2yEvudZ7vlPUm7pTcIynFiQ/lhaftnDHpQ49G0C0TpUbdnD59wX5sDYNql03u3D1/vCin1U1NzST7sRa2HAAAAABg1CCIU1LOy3/qgMn4SrndXiBLY9NFBgfkHT3UanyD/G2FvbxRPUc7MZgtz40PJhgk8feH8t0Mi7i8frzTc9pzZ1hZWWi+TeaZu4GCL2HLAQAAAADKFkGcknJW/nBF306X+62hRCbvzZXz8rY11Com3zL5aW6foLvPHJd38uyI4wSD8u7RgySJwEvPx9JtDfu6KPt/lzkZsiNsOQAAAABA+SOIU2KSkxvbU3dbAZYrA6Ln5LKXN8n9OoYzOCCfqRuUEDPkaciAbLOGfW2TF3rMorShU0rYcgAAAACAUYMgTok5Fu+1gjVWEuPJjbJA3beGTF0+KrsH1fLKGdJYMVmm6ScnkhrnLylpcliuYWCj1okLYnWgmXObtFgL0tXV3GjdnjntyuUTthwAAAAAYNQgiFNqLp8Xa6KlCZNlqTXUyRkyZYZa6UBJoZIaK07QSGKNstRakqLC7g3kT6XcZnL2FN20+bL2+XbpcCf+LQl98tFBfXurLPPcrnpZuWSiuv1cPnJ62FjClgMAAAAAjBYEcUrOUHLj+3XeG9eQqbfjevpttdzMJrU7nmdSY8308NF5eDbObZOlriBM4+Q26Z69zOoNlN1heccaBRaTh6bfl/QaUlEtSydnmWUqpJZlc2WeNSe3SM2S+2W11TWpNOjpz61ZpJa0yYsr64emCZ9WL2ufX2wnLE6ZSlwLWw4AAAAAMDqMmTlr9jVzPxJqa+vk5Emr70jZWtrwrGy0AjVKvEtm9R6271fcJ92zm03jXk/P7T27k1tjbbt0TI1J/6mt0noyQ9An6XVTDB6XPVemy4KYPQV5xhmssr1G0rZWy5Nz18hD4zO/np9tbnmiXdrnmAdyUbqf2ybbrC5MhZO8jiwO7pJVP01OPly3crVssnrOeDhzQNY9/aHdAypF2HIAAAAAgPJHT5wSZPe4se2JmwCO5gy10gqZ1Pjyu9J6qEtej7un9o7LnlNdsupAp7zsZ8pv8xp7BpOf2z94XF7v25sz2BSU7rWy30oiI3J65zsFD+Dkq3/7Nlm3VW/jRbNEuyj7d+7KGogJWw4AAAAAUP7oiQMAAAAAABAB9MQBAAAAAACIAII4AAAAAAAAEUAQBwAAAAAAIAII4gAAAAAAAEQAQRwAAAAAAIAIIIgDAAAAAAAQAQRxAAAAAAAAIoAgDgAAAAAAQAQQxAEAAAAAAIgAgjgAAAAAAAARQBAHAAAAAAAgAgjiAAAAAAAARABBHAAAAAAAgAggiFNyquXJuc/KJ83t8mSFWTTsnG14Vrprm8yyQimF/QMAAAAAIHoI4iBdxQxZNN6+Wze1UZbad0uICQTNvU8azRIAAAAAAModQRyku3xUdg/ad/tPHZO37bsIoW5avax+YrV0vNEuHU/Um6XZ1TXPl7XPq+frMta/1bJ2Zb3Umb9nErYcAAAAACAaCOLAw1l56cCPZVbPj6X15GGzDEG0PGEHUjb9aLG0zploluZWt3K1bFozV+ZNMQssE2XeksWy6fn5GQMyYcsBAAAAAKKDIA4iaLJ8ywz3CmzaUG+VF1dWmoWFd7Jrl2zZav7tvGiW5qC27fElOuBzUfbv7JR1D26RVfrfc7tk/xm1eMpc2eTVmydsOQAAAABApIyZOWv2NXM/Empr6+TkyX7zqBzpfC9r5KHxcXn90BZ56XK1LG1YLj+IxRK9KfrjPbKu9105Zh6nqWiSJ6feK4vcZQaPy8+Pd8rbl82CBGd95mGK/lNbpfXkWfPIW+PkNtk0dbrUZQmsDL1OyP1T6+jOsY6EeJfM6vXuQaR7yLTPMQ/konQ/t022nTAPi6X5e9Kx5laRg7tk1U/7zMJ0zrad3tkpT20fMEsd9bL2jcUyz2Obw5YDAAAAAEQLPXFK2YQm2Tx3jWx0BTi0ulizdGRI6ttY2y6fzF4mD6WWGT9dNs7Ws01VmyWFsbShXTrqfQZXUgXcv1DriIx6ucsKLn0uXWmBGK1Ptls9eibKLbfYS2xhywEAAAAAooYgTsmKyUP1y2SB7rHSt9XKT6P/reo7bv95fLM8Ntm+mzC5TTqmxtSduOw51SWrTBmnnO6/VDd1ecrU3kP5b9z/Vp2Km79nodanAzB6fcnb2GOtS+S4rDfL0nvzBNy/852J58zq6ZI9etlgT9I+Jv5l6IWj7e06YA8xUk7vfKd0eqZMmyRWOpuDf5C91gKbO7jVf/qSdTulxjUMLGw5AAAAAEDkEMQpZYM6CLJFXjo/FAA5dr5T1pv4yrTx7l411fLk1OnWvT19W+Txk4eThiPpcq1WgCQmi2KF6Y3TON4OCuj1JW/ju2Zd0+X+1ECTW6D9K5ATH8oLT9s5Y9KHHo2gWyZKjbo5ffqC/dgaBtUum9y5e/54UU6rm5qaSfZjLWw5AAAAAEDkEMQpWXF5XeewMY/cPrvi0UumYoYs0sONBnvk5fP2ojTnj1k9WOoqZ3gOxSqGzIGYgPs32jTfJvPM3UDBl7DlAAAAAAAljyBOuZhQaQ+hGd8sHc3Pyiee/5bJAuvJhXFs0O7JsqC+TZa6h2hVNMnmertX0InB1GFUyCYReOn5WLqtYV8XZf/vMidDdoQtBwAAAACIDoI4CC8x9MlOmpwIFs02waJ4V+ZeQUhmhjwNGZBt1rCvbfJCj1mUNnRKCVsOAAAAABA5BHHKxZUBO5mwnl7bK9mv+9+BLNOTB2YPfUqe9N0kVu5NzstTcOMr5XZzN/JOXBCrA82c26TFWpCuruZG6/bMaVcun7DlAAAAAACRQxCnXFw+KrsH1W3s3pTZp4rImp1K5PVDP5bWpEBRemLl4qiU24Lu67T5svb5dulwJ/4tCX3y0UF9e6ss89yuelm5ZKK6/Vw+cnrYWMKWAwAAAABEDUGcsnFWXjplzz710Ox22VzbJI1JAY5qWVrbJt3NbbLULMmXPTtVTL5VoNmu/Dss71gdgNS+Tr8vJR+P2s/JmbenZdlcmWfNyS1Ss+R+WT3Nvl8K9PTn1ixSS9rkxZX1Q9OET6uXtc8vthMWp0wlroUtBwAAAACIljEzZ82+Zu5HQm1tnZw8mTx4p7xUy5Nz18hD4+Py+qEt8tJls9ilsbZdOqbGpP/UVmk9mZw42PlbRoPHrVmhvF7XLds6Eiruk+7ZzUNBAw/9an27T+11TSOe3/4lZF23nrrce+arlifapX2OeSAXpfu5bbLthHlYIMnryOLgLln10+Tkw3UrV8smq+eMhzMHZN3TH6YMXbOFLQcAAAAAiA564pSZYye3yKxDXfJ6PJ7caB80eWoO5A7g+Hb5qPxcrSebuvHT5aH6NbJ5sllQKJfflVa1n3vUfrnpoNHrfXs9Azia7rWy30oiI3J65zsFD+Dkq3/7Nlm3VW/jRbNEuyj7d+7KGogJWw4AAAAAEB30xEFIpkeN9MiqjImSq2Vpwxorb07WXjUAAAAAACAneuIgnIoZsmi8SP/A0SwJjM/KZ1ey99QBAAAAAAD+EMRBXuqmLpfNk6ul0Tx2NFY0yZMNTn6e4/JzeuEAAAAAAJAXhlMhtKUNz1pDpbLymUgZAAAAAABkRxAHeWmcfJ88NrVBpo2PJc0U5cxK9e/nz2YZbgUAAAAAAPwiiAMAAAAAABAB5MQBAAAAAACIAII4AAAAAAAAEUAQBwAAAAAAIAII4gAAAAAAAEQAQRwAAAAAAIAIIIgDAAAAAAAQAQRxAAAAAAAAIoAgDgAAAAAAQASMmTlr9jVzPxJqa+vk5Ml+82g0mykr1i+X+vg+ee3lXXLOLM0tbLnycmfbD+WB+kqJ9+2QVzs/NUt9qpopCxe0yHRVPmYWxfv2SVdnFOuzWhY+9qjcHeuVtzZ2yBGzNBKKeRyaVskzrQ3mwZC+7g3y5mHzwEvYcmUvwudZSYpmfeb1vgsAAAALPXEiqmpRi9TLgHywI1iDNVe5qqbFsuKxH8oz6zfY/9T9FU3V5q9lomqxNKuGhBaL3SRV1j2fVNlH1iyXu12BAy1Wf488/NgqudM8HklVi/Tx87stN0ml3pH4gJy3F0RDkY9DVaV9fiTrld4cgZiw5aIoKudZsO0cOWV/3ebzvgsAAIAEgjhRpL4ML2tWX4b79sp7gSI42cvpRsTDrfdIfczVEFX361sflWceW1w+X7rPHZHjcX1nQPp6jwQIglXLwuX3WEED/Uvyaxs3yE/Mv9e6e9VrvVcCv4hXS2ODOn5+G3dVN9lBkPgXEepFVPzjcG73zxKv+ZONr8gH+nzxUadhy0VPVM6zgNs5YkbBdRv6fRcAAABuBHEi6M4FugHbK28F7I6etZwT4NFfsLtfGWqIbt1hN0Rj98jDbTOtp0bfWXnvZb1/P5M3d581y3youlOm65aTGQrgboScO9wR7LWKxvmF3l/jrmpGg9UY7DsWoaENw34cgtXpkLDloiAq51lUjsEouG7Dvu8CAAAgCUGcqGlaJQ/Uq+/6PQF7G+Qo5zQK4j1vypuHXV+wz31qffF+q2efvLUnSg2GwotEw6lphqjD7HsbJ0+2A3cDX9iPo2DYj0PAOk0IWy4KonKeReUYjILrFgAAAIVBYuNIMcksJWhS4tzlrKFUzZUBE7Ca143vkJ90fmrl07n3Hj0cy/5rPN4rPTs65EiWDa1qWiXL7lGNclPG6gnUs1fe353cwyJVVdVMafSb1DZDslnJmdx5pqx4rCV5eJknd3JRUye5Eo5aOV3ukVifXXfh+d1GLXWbUre1Wu5ctFCam+0giaaHK3Wl9HZxC3v8gglzHJScdezvWNnXhsgHW38WaPhi2HL+5Xv9qePdtsLKU+K+hnr27JIjN+lrptK17SN7nvmXz3YaVWr7FiTXi6i6/GDfe/KeO8Cdl1Fw3YZ633Wd03vESlyu815Z9a/O5fdUvaUtS3uhIOe1W9hyw1SfAAAABj1xoqRpofriLtK3L0gAR/FR7tzAgHVbf0+A3DdmWEtcbpKFbU4+HfM3JRZrkAfW/FAWer6gbsRsUGXcX3y1SqlvXi4PZ8zBo79oq3VlSmq7Pn193slmdRsgR14GnXfCVyPL7awc69V1WSmVGStSNVSsnC6qEeYZXAggyDam5dtwhnCo5Trgsf5RecDVENRi9ctl2SKvxNZhj18IoY6DcpN9fsTPZ+qu4Np/e4GnRK+HgK2xsOV8y+f6c463xzWky6xo1I1v17aP2HkWUF7bqYqrxvgja9LrRVRd3t36qDxSiG3URsF1G+591+ybzJAV5j3eoup/+gJ9bJKX3b0gZYhv0PPakbXcqszlhvN9EAAAwKAnTmSoL4tFnVLc+XVX3fX7q3PSL606l86b8r4qY62jSq13uVqvfr20nhBmm3QZ/Wvl0U/lnLNhetpoVc4KOqX1CnJtY+r6dHDH+TU6176a7Q7W6yhA/ZvXj/e8Iq965X7I9ffQAp4juuGy5h6rMagTWMfUcX8r0XNDB8t0o0bdLdjxKwT/+5izd5nZ/+y9ocz6sj7HS9hyAeR9/SmqHt/asSvRW8fqUaBe07rEMtax/2NgCX2e5SvgdrrqM7knS7U6lxaqc8luyBe+Z9Vw1adz3EfiulVM/WZ9feea1PfV9r+mj4H7PE9dlrSPYc/roXKJnjeByo1QfQIAgFGLnjgRUawpxYfopJOvyFt9umFg/+r8jJ6qOcvPiIlfWvWXW52sMhFQUc59Km/u2CfWZCQp08ne2aa/+KqGh2oMvam7m7s3TOfgMeVilcm/JFctWmEHcLzWp7b/yO4OeXXrDuvLe7Z9tbd7IFg+Cf3Lub71k3j08FHpUzexyTfZj5OoL/668aH2oavQyT2DbKPi5JaxegT0vCI/edlpCGqqPveY45ci7PEriAD7mDNvSM6eOopZX9bneAlbLoD8rj9FN4BVo3TomKtih9U11N1rP8hUx8N0nuUt0Haa61LRje7khNmqXtV7y2s9dg+76TMKfF4PU32O6HWr+HrfNdekdU47x+CLAXt/3MsM9/UV9rx2yunA3audmcul9iAa6foEAACjF0GcKKgqzpTi6VQDoPNn1oxUfda3T3s4xoom+6+pnEZyxgDRuS88GhMzpcH6pq1fe4M8s97jn/NLbJKZcq81e5b60pzt12r15dn9JTydM5VvrxwLUpd+GvwJX8iAVX/JjWfNDqqpQxJ0SJwfZhuDJUdVz9eN1iwBpeR9Dnv8CsT3cag2Q04yH+c7rSES6ikDWYJpzvqyPcdL2HIBhLr+1HtCs9VitRvE2WQ8j4blPCuAANvpXJe6d1ymXhPnjvbajXLP4GwehqU+R/i69fm+6wQmk94fnfpxLXOel7i+wp7XrnK651U2ydfySNcnAAAYzQjiREBRphTPRv+K//IGea1bN1oqpb7VK6+GaSTrX1azfClPY2ZhCcz5tbrvaHoi0kCcfBL+fvV22A3+ATl+1E+j/KwJ4jRIo7veEkG1HUXpXu9so78eRs7x65XeDNvi/OKf1HgJe/wKxPdxcKYhz3icXedvlvqy15e5jjIJW86/cNdf4phmyUuSq8fEsJxnBRBkO52AmL/ru7CGpT5H+Lr1+77rHAd3XXjVj/28oToIe16Hvh5GvD4BAMBoRhCn1DUVZ0pxP3RX8q6MQwjMl/JsQRWPYQKJX1q7N8hPNmb/l/Qrs9OzId9f6wNO5WsL3mA+ckx3wa+UysSP9gVMZuwp6Da6kqPaC9J4NahCH7+CCLCPOc8XZ/+z9Qww68tSR97Clgsi3PWXO1hhekxkrOPhOc/yF2Q7fT63UO9BSYanPkf2ulV8ve86vVvcdeFVP+Z5rjoIe16HLTfi9QkAAEY1gjglTTX872lQX1aD5k8JWy6dM2tV2hAC86U8W4PG7gnk/cV9pPIEeP6qmlPuhlMak8chsZ9mhrB8gmrZ+WjUu+XMw5G9cTkyx8//cXAaWZl6d1Q5v6Rn7RngrC9774F0YcsFkOf1l1muOh7e8yy8gNuZk3lPVQrbY2h467Ok33edfUuqC4/6yVkHXnKd1xkkevR5lyPfDQAAGAkEcUqYk8g3aP4U/+X0bE8b5Jks06AmGsMpjcVcjWSnJ1Bqt/9EUKjhzszrbKpO/5sTFGleKHfaS9JVzcz4mo7Er9SBKjREo+HcETmuNtjez8IF1TJyttEnZxhB5ga+d6Mn9PErhADHIVvvDmvWKpPENmuvCh+BEk9hywUQ9vqzuXuIuemZjUxy2Ex1PEznWd4CbacZ/igN0pAh/5c7qfr7GYYxhTIarlvF1/uuV08nr2spY4+osOd1hmTV1gxTdiA0tdxI1ycAABjdCOKULJPIN3D+lCDlnNwt98jD1kxU7i+y+ouvPUWz/vKd2t3c/lIuUt+6QR5Z5A6e2OWcKWH7ujuSf2E2MzfZ61ycNPtVlf7SrNfZ+qjcm9qYMkERK5Fk6raq+9Y61yyXZYuy/TLq/ErdIM2u51U1zcw+C1fOhpMXp24rpTFkMC6U+hZZqBoPDrtOVT2bx45sQQ6L03hKzRUR9vgVQPDjUCl3L3Cdm2r7Vjy2wZ52XM/CpvjpVaEbaon91Oeaq36zCVvOj7DX3/nz9n7XtybPPFfVtFjVjZmaWskZgCr2eVYoPrfTHv6o60UncncdJ+ecNu+DQWcH9K2Mr1u/77tegUm/y8Ke185xjzU/al1H+nPFqY9H1OeJFbhT0t5zRrQ+AQDAaDdm5qzZ18z9SKitrZOTJ/vNo/Jl9RZoFvlg688CzUgVppxu9D1Qb38xTjegGoJ6+mLz0KJ78Dwqd6u/6cTHMfNFN5We6cUzH0DTqkQj04ue6lXPFJK2+VWL1Rdr88uoh3ifnmEkeyPLrp/0fdW5DTIFve5s26DqRzXgQh0Lsy61Tz8pSi4chzkmGSonef+c5/bKWxtTgmyGs+2e9RL2+OUp0HHIuI12+WMz/FwnM2XFevMLvlt8n7yWbYa00OX8yuf6y7BtWlydD72V8kDWehnG8ywvQbbTZp9f5kGa4Ne/P8NYnyN03Wp+3ne9rm97mXt/M9VB+PM603HXnyc95xsyXw8jWJ8AAGB0oydOKUrMYlTsKcVtelrx17r3SV/c/jXTphqI6kvsW+rLa3rjyumyv1deffkVeavPHurksMtlSeh4uMNMY+5en6tcpi++53bJqxvT16e/pH/QrRqsOQI42rndb1rlhwxIX8+OLEMkwufscKYk1kNaipPM2O2svKeOxQdJ+6aqRjdgVJ0mH8PcQ1iy/uIf9vjlJeBxUNvodZxf22g3xhL7l/W1PpU3t+rrwjxUdH1+sC9Xr5Gw5fzK5/rT27Yj+TxRx7FPXT+vvdxhzods9TKM51legmyn7UinmZEvqTKTz5vCK/fr1pb7fdfr+jbLkvY3Ux2EP6/t466uV1U2rstY9aE/T45IZbYk3yNYnwAAYHSjJ04JSv/10Z+w5QIzPWIkU08b2KgnFAPnFTAMTO+egvWgAwAAKAx64pSappGbUtwvJzeJn3wio1aVagDooV/FTGaMUYnrDyi+qkUt3vmFAAAARhhBnJJSPeJTivtRvCEQEeZKtKyTaeqkmPWqjoqWCBWjFtcfUAC6R9v6H8qKpMTgipOY2Mrh0ys9BOEBAECJIYhTQoo/pXghhM8RU76qZeHyR+WZ9Rusfw+32smXdULo4uTRwOjF9QcUTqXUNy+Xh817t/VPz0plJfrXSZaLPDQZAAAgBHLiICDyBKRzZkyxH+mkpD071Jd/KgcFx/UHFI6ekn+FNNdXDs16qJMb9+6V93eTmBgAAJQmgjgAAAAAAAARwHAqAAAAAACACCCIAwAAAAAAEAEEcQAAAAAAACKAIA4AAAAAAEAEEMQBAAAAAACIAII4AAAAAAAAEUAQBwAAAAAAIAII4gAAAAAAEEBV02J55LFVcqd5DAyXMTNnzb5m7kdCbW2dnDzZbx4B5a3ujgpZOWeczLtxrFkicvrSV/LxwSuy7fdfmyWprpfVbROl9Ub13ENfylO//cosd4lVyIvfnyA15mHCpSuyrvOyROcKGydr//EGmRd4u4e73HCLynZGX913Jsmm2WPVtXZRXWuZrsmgOH5AupmyYv1yqY/vk9de3iXnzNLcwpYrsKZV8kxrg3kwpK97g7x52DwoVVUzZeGCFpleXykxsyjet0+6OkewPktQ1aIfysPNldE4psOoXOvF2S9R7y1v7dglR4pwMdzZ9kN5QF138b4d8mrnp2bp8Ir+8atW9bhCms+/Ka/uPmuWRR89cYCC00GUydLxj+pfW4XUmaVyxw32MvVv7R1mWTbq+ZsWTUgK4Gg1N46T1luTlyWJjZNv32jfrZk9Tlrsu+XpjnEyT92c7v8qWEO34OVcxzzp3yR5se0GWX3H9eZ5w8Tv/ulgntnWF79T7G00deS+JuAt6/FzzrVJstppTSFBB77Xtk1KugbXfmecj3OO8zNZgT7HCqhqUYvUy4B8oBpLQdpKYcsVWlWlauyl6ZXeYWgU6UbYM+tD9haoWiyPrFkud7sCOFqs/h55mB4ILtXS2KCP8YAMfGEvgVZ69ZLX9WDc2bbBCmzo4IoODhcjgKOvvWZ13Wmx2E1SZd0bbuVwXuvAjXr/an5UVjTZS8oBQRygmC597dEIuyp/vGDuZjRO1i4aZ93TvWnW/ct5WeX8+8VF2bL/qvU3T/Gv5ONL9t3Th76SvfbdZPHL8pT7Nf/lS9lv/hQlLbfqOroqH/8hWA+I4Ss31g66LZo4rI1Dv9tZd9u4RG+smjo/DV0Mh7Dn52jX8t1JHoHvsTJv9g2yqe2G8g5oF1Poz7ECUo2ZZfoX77698l6gCE7IckVwbvfP5CcbN5h/r8gHcbUwPiDn7T8XkWmEhVpXtSxcfo8VvLEaq4nt3yCvdfdKX+97csR+IuQmqbQqqleOjfC5VlpKrV7yuR5sOoDzQL16iZ5XrN4xRdutc0fkuH6fkAF1rR0ZoSB0eZzXRzrt99z61vIJPBPEAUpR7HqZom8vXZHNv035NT7+texV/zL7WrZ12sEZz6FUZWOc3KWjDv2XZZv1IedXMct9JVvcwTEdcDv0lZzWf7pxgmpIDkcgx+/+XS9/Xacau+oc6z50VW3fOPlr98+sGCFhz8/RTQ9ra9fns1yV/YcuDgW+f/Gl7NdBbXV+t9PLJrLuXKADCb3yVsDhBGHLFZ/TMPpiGBpmeayr6k6ZrsuaoRzu8ucOd8ibZTQ0IW9VN9k9lYblmEZIydVLftee7sWTCOAU/fw/K++9rIOmPxu5a61szmtVl/t61W2DNC+qthdFHEEcjC7T5sva59ul4412eXGl7h5YDF/Ln0xPmCQXrtqNeVjDeNaarvphh/HUfafCGnKy//NggaphLacDbr/9Up76xZVEIGdltiEIw1kvZtidHrKz7Q860DRWvn1bMYdUjZVbzDA/ZBb2/BzdxsnK2Xbvm/27L8gLv3X1HIl/JS90mp6GWa8/zs9kJfQ51rTKNJoC9voIW244NM0QtWnSd2wYgkt5rKtqRoPVgBuW7Yy6m+zhZvHzjKVKUmr1ks+15/Tsi++TrtESwCyn8/rwe1ZvnFjDnSM0NK2wSGxcsqplaW2L/KByutSNN4skLv3x92XdqcNy7LJZ5KFx8n3y2NRmWZBarleVM0sSKu6T7tnNUjfYI6sOvJv+d7UdT85dIw+Nj8vrh7bISynrbaxtl46pMvS3iiZ5cuq9sigWS/zi2R/v8l637tI4uUU2Ta1U+2jFeZUs2+rwWsfgcfn58U55O0u9aC1PtEv7HPNALkr3c9tk2wnzsIBavjtZ2tXGJSU7TSQT1r01vkwb5lT3nRvk8dlDw1sy6v9SVv3aaeDpvAV2EmMv/pOthkikGhsnq+dVyLfrxia2WSdd7voPtW85ehA49WO7Kt2/uBCw14Gz3951mVmxyuV+XScBbrbk0cNaLzq3xaJxqtF7Xl74vb/jb++DDG2X1zmgzs/N6vy0XkOt48U56pz20zg257VTB/Z2mb9pseut670/pRea/fz0urKTguuhNWaBqs/T/ZeHts1D4P1TciU21kN8rB4iqty6LOu2+Tl+znPCnB9K2Os2Q7lsSdaD16fZN3HOw+tV/d0gy5Kef0U9P+UcNedy1sTsznPMeeYsC3p+5id5/3R9rPybiqHhX5euyv6DX6rzPrU+Q9aLS53a18dz7GvqORzmc6zwqmXhY4/K3RI0KXHYcrmY143vkJ90fmrNTHPvPfdIvfkKE4/3Ss+Ojpz5MfSv+Q83i3yw9Wc+h3mZxJwpiYV79uySIzfphMmVrteaKSsea1Hb5OeHql55a6PaXvPIf9nUckaV2s4Fyduph2F8sO89ee9w5kZvWn1Uqe1Y7toO9RpvJerVdQz2iJVwWefrsdajnvOe2oe0Zb7q2I/Mx+H8jOzJX6uaVsmyexpEfXU1BqSvZ6+8v9trOE7+51k+67P2c9FCaW62g3iaHk7XldIba8jI1Iu/7cznekhmD6MayHLdmu2Lpb6O2s6mm9TtF3Ik6TowSdfVNlv7o+rCK/m5Dhplfx8boePn+3rPs14M+zpocB3LAbWd6lrQ74OZKydJ8Pfe0kVPnJLUJJvnrpGNU90BHC0mdbFl0jG7XTbXenUF0wGXZ6Wj3h3A0Uy55nZ5ssIsKgId0Plk9jJ5yBVc0fT99OCRvY8d9XofE5e+kn1bM65j/HTZOPtZ6fasl+F3Un0Z185cdH0ZV43PM/pW/e2ktSDV9Ykv5KVON846vn+DtLoaEZrO/9L+/WFIkqsaP1by5v4MOX8yGe5yLv1WbxdFNdhqrSVFEGA77bwrX8lHVqBE3erWX4AhVRnPAfXP3ZD01UB2ca6dKRPd55BqxP7NRNn0/Ykp59b1crN+/UtfyW8SAQjd4J1scqOYRRa1nXU3yCafCYH97l82+jX8B3CUApxn2YS7blV9fjdzOZ3vyU+C20D1qa8RVRdr2yZa9Zf0/Lr0YYl15lzJmsjb6UFSl5zsPej5WRBq/1bq/D2qPpLy96j783T+rO/qa9NDwHpx2LmCfAarXMJ9jhVY00L1xV+kb1/AQEzYcrmY4UVxuUkWtqnGQOtQw1qLxRrkgTU/lIU5fuadPFk3QgZkwM/G6cTC6x9VjUdXQ0nRiYX1ulY06kaf67X08AdfDVYlNS9IkLIpdGP8kTXp2ymqTu5ufVQeyTKEwV0fupH1zBrVgHNvh37BRF2Z4TAyQ1aYhMsWtZ7pC/Q2JC+7e8FM+36+sh6HVXKvlfzVK1G1DiJsUOeKO1ChVUp983J5+LHF6b0C8jrP8lif7m3h7KcrAKDF6pfLMq9jOBL1EmQ787ke3NT6mq0uPCHya6n3owdal8sD9yT3ALGTrg/1CvJOfq42K1c+nBE4fvlc7wk+68Wi1mdfB+46Uut23gebfKxPOTcwoP6vlEodO4q4Ire0EEZj7b12EGbwuKxP6l3i9FyZLtPMErfG2uXykBW8icuevh3y+HkT1dQ9V6YvU3+LyUOz2+QPPeo17b8USEy+NbVNOvS7sLXNe9U2OxFVtc0V7uiq1iSbZy+TBfquev7rp/bKS862qudbPZDUPn5rgnro7lkzWa1jqn6rUPt36n15+eRQb51G9bdNOiA0dbk8GU/vMeTY23VA7qqeK/OmqC/8O98pSi8crd/60uv6cm65Kn+8JKKHSnjp/+0FWfVb88D5tTNnzxg7/80288ihG0xWr49iuEM1hK3X1rknLst2V84e69de3ViYfYOs/kPmXgJ791+Ru260G9k6cXPQ3gR2Qt6r0r0/2C/jw10uiZVweoK03ni93GyfxmmGr16cvCtDwYK9n3+lGobjrCFV27LmXBort8xT54BqROrgyZb/uOLK0XS91MVcZX//paxK9Kbx19vHuXZqrMateS0nuKF4Lu8fGj6je7TZPdPU+bnb1atBPXf13+i/jZVW1Xj+U8ZeBAH2L4vENaj3108ARynIeZZJ2Ov2DnXOqrqwe+sk10WLqut29ZrzFt0gLepYF64+dVDJTu7crY6h09NHb6cORtjDoi4nemrVWudESrAhlVqnDj7UqHUmrr8Q52dhjJN56vrTvWe69l82PaCG6lPqbpC1d6T0RLMEqxeL+puTKyi5TIU65tl71IT5HCss1cjTv0rH98n7Hr/gZxa2nA9maIGohsPdusdA9ytqHWftBpbVe8QOPujAwXuuX5CTzZQGq4VyNOMv/kPUa66xEwunTmNs9WBQ+1mvX8vd+Dy3S17duMs8UOWDTK8etqzVwLJ7ECT/4l+tGmQL5WHdoGxeIQuPev36XW1ylKh90K/TbM/407VHvYb1XP1rvQzVlZOjo17tu3rea3pdqpzuwRBTy3T+HveywvBxHJx9sBcbpg71uaJ7lxx19knR07ar8+Xu2D1yb9Ou5F4Ooc+z/NYXb1ghj6j6j1k9n95T+6i/m+teGrqxrj5GJ+uWr/s7/cjUS6DtzOd6cLGHFg7IB+q8DKZaFt7jdR46CZaH3qes5Oe77fsWcw7HB9x17mG4j5/6W/jr3eG/Xoaeq6+FN9U54eyDWl/TQns7W9X6vvDRu+aLAevjP1apgz456rXE0ROnhPUP6GCIeWA5K8fOd0rrgR9L68mUE6/iPtlkAhx6aFMigKNdPiwvHdgqrw/qB9PlB0XorbIgNl36T22VWQd00Mm9bWqbUwIqVpBK37GGcHW6AjjaWXn7pNrHQ1vVPphFlmp5cup0696ePrV/rgCOZtVL33F1LyaLYln278SH8sLTW2TVg1vkqe06GltMGWbvuOQ100dUXC+r59i/Etu5J5Ibp/2qUfTUbt0AzZFfJa4aGonky1kaXp5M/ouk3hd+DHe5TFSjdpK5m2q46sVMYZ2Ud+X3X1l5Q/zMUjVPPUcPsVjVqYfguLdTndv51pHZDrnRHj5lmaR7Hajl+mRLW64aw6bHgA5+Pq7rQDdYf6HOT/ewlPhXsq3zonRbeT7GybIsvcXy3b+kAI7vgEChzzO3PK5b9bd1v1Dno0dd7P3tBdlivZAJjGQQqj5VPWz5lwtJQ7X0dtrrc/fUMr2xMr3fJtjBh1JhDVH6tRPA0ez6XKeTjCvzrJ5yHnzXi83ppaSPe3KZy+aYj5O7svakGrnPsVKcUjzxS7luBOpko07DWjv3qby5Y58dn882HbAJQvjJMXFnm27oKqqh9BPV6HQPGdCJhV/t1ok6lUxJR52AR5ikpL7LqoagadDpIRfJCZBV/ezukNd67F+/p8/w+n7m9KxpUI0xPWzDzPiTeJGzyUMtnACHPgbOukzDLGmZMVTPekjHBnlmfe5/qdMQ+zkO9vqT68oupxrUW3ViWvc+Kep8ec+cL3aDckjY8yzf9Vk9VnpeUfuoh2o5da7qf49ZX4qRqpeg25kQ+npwAgshZmiyeskMSF+fugbUdk82ixO9Z7L0srH3N/fU3sN7/PK93o0w9aLqXwczh6j16e3c+Ip1LkV9eFRQBHFK0DF1kuovR7pXyebaJmn0MwRqQqXdsIm/n6EXyll56ZQOcqjXrZwhjda9Aop3pQeWPFXL39o/ucjrx71y8BhJgSClYoYssnon9cjLyeH8IeePyR51U5T9C0p9qV6lv2gnvWuaWaPyzqswgpyeD6pxuj3tV2IjQDAgFBOAyDp0wstwlxtuAbYzeSiVI8CQqn7V6A8cZPLLNLb10BF7gb29l67KRzpY49o+p4Ga6IFhgjqZZ3ZS1+BB+/rLen7msX9DARzV2A7So6OY51me120i0BK7XlruqJC1350kL7ZNshJw2zmcsgQmtcD1eVW6dY4e88jNGeITbZmnjx8adukKViYUp15SAz8JI/k5VlWaU4o7w34yBojOfZG9Eak5v5rn+nXdGb5hAhPZZEzSatYVKomrs505gk3O0Ac9W49XzhPt3FG7MWj3BEjhNKxVQy7ebQcssnEarElD5Zz9dC1znpeznnPxeRzS68r0uBI99Mk7WPSM0wsiRbjzLN/1qfrTAbQsCXuT9m/E6iXgdrqFvh7Cz2hlzZCn2nW9KW0Xe+a8ATl+NNN++A8cDefxy/t6N4LVy1kZsF7wHlnWNlOq0iLkZ5MCUKMFQZxSdPldaT3UI3sGY7Jgqs6B86x80qz+zdW5cLyDOo3j7Qu4/0qmCIdyZcBuHKjn3m4tKJys600yWb5lDfkakD9kGPLkyQlSjW+WDl0Xnv/MEC0Uj9NIvnGCbFINON2IS/93g9UYLRY7AJG5EZTJcJfLLFePgXD8b6cZSqVu21OOndMgzzVLVaLnS1E4s+I4PQScvDdfy14zvMMJGNjDaIaCUYncKNm2z8mN4goSpQq7f9awFh3AsQTLGVL488wlz+tWD72xZk37/kRp17mG6tTrmSFMfgzP+ZIjkKT/bvXYiYgs52cQ9pAosYe8uVtFsXGyVg/BUrIOQxshYacGD1vOHzPsR31/8ZXLJoM7rRw2XjlCkjkzQ+XzS729rty/5HtxymZuZNqcgEOu52XkBIuyNArdnPW598lrP+3nuevZma459z/3dvg/Duo57oCRmQUpuJDnWd7r03XlfQwTdeDav5Grl2Db6Rb6egjQey6ZHbDSdZTcSnKGVGYLNvsNHA3v8cv7ercEr5cjna/IW30DVm6fh63g3w9lxaKZmXs8jgIEcUrV5Xfl8QM/llmHtsr6U8dlz2Bc+scPBXW6G5pGvrcJMOycXC6ZelpkMtzlPDi9IXSjM9/XShNgO02Pj2yK1ovKp+Tkxnbj2woEmACMvdzss1o+LAlWc9FJk3Wj+NIV2aKHxOiASaYEtWkKeJ4VmpVvxSSJvvSV7D/0pWz5xUVZp/7pYX/OMJ6R5J0MO0Xsepli3SnG9VfCEkOt7OTViaCdTqqsF/d/mbl31khpKtUpxU2jqi9LLpucwzVMgystR0i63I0l80t9xsZ+yGCAxW9Zn8/L0qvHb7DI5vTicK/PaxvM83zUcy7+j0NyYM5pAOshJ16BIve/5N4T4c6zvNeXpa68AmcjVi8Bt3NIPteDLVNwaIjpMWLYvVZ6pUfth51Q1/AzzbnvqdCH8/iFvd4LUS9n5Ujnz+QnW1+Rt3p0Tx+TANsK5mQZtpXK2bacx7L0EcQpdZftHDGPH9girT06qNMlewZVeyG2TDZ55Lapm5AYVZjO6c0yOCCfWQtGUqXcFmSmLKcXUbxLZul6yPbPc6p0FITTi0F98dcNuKz/ipActO47FVbDIymXiw/DXc6LnbRW6S/8zENBttPp8dH9C49j9i8mZ0yAWaoC89HDwBlSYvX2MEEnq7eAlRzaBJmcRrlHbo6svUScXikFDv5Y6zQ5cBK5YqwEtfbfsynkeeYp9HXr9NbQSXHtnDY6n47Oa5M61ftIcnqbZAs++r7+CtQDJrSinJ92kMs6BxJ0gmufs6YNK5PAMr5PupIacLmELReAaWBk+zXe7gmUreHlNLiCD8tIl6vxZv6eLRiQUe6GoX9DCUzTG04BG9ZO8CJpnzz2M2cwrZCy11VqXpec8jzPwq4vZ+AxcPCjOPUSfjvzuB5Mwz8YEwRJWl+lVFYNvVdlS7xuB7uSAy+eRuj4ZZbtetfyqxc5d1aO7NZ5cDbIT7bukL64DuasyDkjoMMOGicHFqOKIE4JapycpZfN5cPyuJPbxhWwcfLoSOzeDNOIDyUG7h84OhTkuHxerAmaMgyxGprxqlAOyztWNDYmD02/L/N+VqiL3Ny1XD4qu3Vi5oz759O0+bL2+XbpeKNdXlyp3yCRJFcDxjSipa7C1zTNGcXM8Ix/DDId+fXy19YsK6m5XHIZ7nIeEgl3czTUi14vTu+VTMlzv5bf9OsGX+4hVeFlT4JriZtpjG+8Xlqs3hXOvpmhM/o8NY1d91CdRD6RjOfnUILfgueeSUlivPfXX1o5ZuYtyjWleQHPs0zyvW71+eJOEp2gjqW5N6ISybD17EzWkhQmabSSO1Dm4/xMFeK69R76VYTz05qdSqyg7VNJAbv0BNeloGrRilBTg4ctF4TX0IIkpidQ1gaCjwZ6skxT4eoZZ0xS0kyNNyeQEYbvIIjzC3uDNKQkA3Y4x8a7cRawoejVo8erTrP0/Akn+HFwehjEGpKnT3araqpO+1vY8yzf9eUOPHodo+Gvl3DbqeRzPSTNaORT00J13nvMZnVT7oTGWqL3TPYLcJiPX77XuxK4XmbKCp0HxzxKopN879PJ3TPtR6rC9dArBQRxSo2eZap+mXQ0t9tDpiqS3zAaK5pkc70Jxrjz0Fx+V37uBEdmt8vmya5yeorxuWtMMOa4/DwpAfF5+U8za9VG9xAttd4nG9rNlN6F9fapHvuLo85vM7dNnnRvq3rj0NOFd89eIx1J7xBOYmazf2m5gfTU5Kpcc5ssNUu8tCyzpxfXapbcL6u95moflZyZW/SsPa5fs2PjkvMoqEa0nRhWT9M8Sdbq5yb93Z4m98V/vEFazBIvLfPM8AylRk9r7Oc0c4YjBe3JMtzl3HQiWF0ferp4/bhfT3lt/cVT0evFR/LcRC+Ygg+p+spOnKzPnb+pSMnPoRPmuhu/Q8mN77J6uAz1StBToevz7K5b9aOUHDLxy9LlrEOfn+7XVPW0um2imX78K+kqcGLm9Dr9Sl4wMz7p/c1Yl4U4z3LK87q9cYI87n5fUM/X+X9e1PVZ2JMkpK9kuzOr0yK9f66kwKp+17aZoUPZEjsHOj+TBb9u9bTs5jiYJcU6P+08UWPllqIFZQtpptxrJSXe4Ss3ypCw5YKxG1Ui9a0b5JGkXAy6wfPDxHTWfd0dOX/p1w3YO50XqFLlVaM11fnzdmO3vnXV0HOVqqbFsuIxe8pgLWegor5FFrpev0pP4dy2WO40j704+TIyNwyHHDlmz5BV3/pDWeHeD2s9P7SmDNeNUc8kvQF7zHgFOPwuCyv0cTh8VPr0beweefgxVd/usk7dtD4q96Y0hkOfZ3mtL0uPDydIltK4Hpl6Cb6daUJcD2E06B4fHkmJK9VynbdLDyXKzOk90yDNrqFCVU0zk+pLG+7jl9f1rgStF2volc6D85i9vqTdV+tcYXr9+GLqopjB/uE0Zuas2dfM/Uiora2TkyczNT/KQ+Pk++Sxqc2yIFsPGGt67tRhQ9WuYI0Xe/rxtNmrJrfJJyYwlEpPG/7zCWtkY8y7bGOtHejRz/M3O5VRcZ90z27O0kjMvr6MBo/L68c7M8zQpb5sP9Eu7XPMA7ko3c9tk21WV6QSE6uwG/4pv+775cyQY01j67MxkJhVJ5UegpEyE0nG5zoufWXNopIpv0fLd50kupo9HXSuXCD2OvUvyrmf6zY85a53NcC8ne6/Ipt/nf1YFrtenNffv/t8lmCSavRaSW7T1+8c9yDnVRLnvDYPk+mpk4dm3kmqC/c5mPQayWVsuY5F5noNs3+5yjh/97qOtCDHz5b7XLOl101iWzLxuG6zllHP18PG2meP8zynctVNOmffwh2jlu9OUudMlm3VU5ybh54CnJ9u/q/boWN3+pJIjecx9CqfR71k3SfbaVU3Hx+8kjQF+UioWqQbACIfBJwqNmy5YKploWrY3K0aJzoXQyzD1xCdnDfb7DDWr8rrzS/cbvF98trLqQ2LDM/VVCPord5KeSDrfpttzrCtOidJpqDXnW0bVCNONcR81qn9fPMgTZbXaVplBSVy15vNa7vsZao+NjpBDWe/3cvykcdxMPuXSbxvh3R1uqdozvM8C7u+LHVlX1966vfU82UE6iXUdjrCXw9Dx8XrOk3mvhaSXtO9z2r/fpIj+bqzP6mSt3Nkjl+Y6z2feslUFwmqnJ5hK9txSeyv53ttNNETpwQdO28nNV7Vp2eoSv621q+DFH1bPQI42ll5KVHOLLLEpT/eJat6PAI42vlOVea4em3zWFPrWX/ox1Zg5rMrnt9G86Nn4OqxkzYnrTfHth47ucXKC/R6XD3PLLOoetpzSpU7kDmAo+3tOiD7rXEa6ovrzndKM4AzQvp/e0HWHTLDURy6Uff50HAVh37uql98Kd39JteG45LJs6AaS96NGNve/Vdkv9XzRx0H9fxsz7WZ4RBqe7yHAWUy3OVSqfpRr6ETwT6VI4CjFbdezFAq1RjNPmxnqEdCwYdUxS/LU+q82e8aAqXpOurefSWpgWz3uLElDYFxhlppnnlD7CmQ16nXc+rSpo5Fvzo306ZMLq7+36rrRG+HlR8ntT4LdZ75E+a6td4Xdqv3BXddWsfLzpGz96JZVgL2/tpjW53jniuAowU4P92CX7dX5eP/0Odo8rbqQO8W38E8n+JfSZc1RDKzmhvHSeuiib7yNxVN2KnBw5YLzBmSsFdefdmeJcV9mOJ9++StramJWL18Km9u3Sd9rsJx1WD6YJ9X7wH93B3ygVpXQnxANYBeUY2QDjMcINtwCz0b0yvJ5RW9Pr2t2Rqsdi+A3EM5HEc6N8hr3b3qtc0CTW9rj2pcbfRoxBvBesx4bZdZljQ8IuAQrZzyOA6HO0zejpRj4JwvaQ3PPM+z0OvLXFeZe3qMRL2E2U5H2OtBc6a4bpDGlJ4wmWUeVumnh9u53W9ax3+IfT0lD1EameMX9nq3Ba+Xc7t1QmN7W5NW6WxvzgCODgTZU6OXSy8cjZ44AErfHTdIx6Jxnr++ZzXc5YZbVLYT3jh+RZPoQZShB9TIyN2jprDM+iRbj87rpeW7E62eRCN5Hqb3pvAnbLnAqhbLI2vuEfHZYwQIhfOsdJljE/PRiwYlxuntU2bHjp44AEqeM6NSUv4TH4a73HCLynbCG8evePp/e9lOdlx3g7z43ULnd4oIk28pe5LkrxNTtI8Y9QVbd7MvvSnFhzg5YgqRYwXIhPOshJ3bJT06mY/OqeO7Nw5GWpUTwNHDqMos+EYQB0CJM8OA+i8H/OV6uMsNt6hsJ7xx/IrLTixtJ+m+QTb9oz17VMc/5potrPzoZMt6KJ8+3dzqdDLl7zo5jwqf7Nuf6pBTg4ctF07uoRpA/jjPStuRPftE5yq6e82qgidCRuFZuXScAE6Z5MFxI4gDoKTVfadC9MwyuacGTjbc5YZbVLYT3jh+w+D3X1o5bnQOoFHJNVvbvEUTXYEs+9+m798grToRtM75o+opZ86gIijlKcWHBM8RAwTHeVbyzu2SV61cMAPqTcgsQwnSCZ83WMmQdZLscgzgaOTEAQAAKLrhzoljq7ujQlbOGSdTbhybNEuVMyvVb37/dc6k66Nb+c1qglLEeQYUStWiVXLvwHvy5uHyHZpIEAcAAAAAACACGE4FAAAAAAAQAQRxAAAAAAAAIiByQRyGUgEAAAAAgNGInjgAAAAAAAARQBAHAAAAAAAgAgjiAAAAAAAARABBHAAAAAAAgAggiAMAAAAAABABY2bOmn3N3I+MlifapX2OeSAX5fSZS9L1yq9k7wmzCAAAAAAAoMyUQU+ciVIz5VZp/9H3pMUsAQAAAAAAKDeR7ImTZFq9rH50sbROuSjdz22TbfTGAQAAAAAAZSj6PXFO9MlvDlw0DwAAAAAAAMpTWSQ27j99ydwDAAAAAAAoT2URxKmrudHcAwAAAAAAKE9lNMX4JfkT+XAAAAAAAECZKqMgDgAAAAAAQPkqoyDOrdL+/HxpmWYeAgAAAAAAlJHoTzFuqZSWJ+6XZXMmSo1Zcnpnpzy1fcA8AgAAAAAAiLayGk7lBHAAAAAAAADKTXn0xGn+nnSsuVXkzOey5ZWPZe8JeuAAAAAAAIDyUkZTjF+U7ld+RQAHAAAAAACUJaYYBwAAAAAAiIAyCuLcKDczMxUAAAAAAChTZZXYGAAAAAAAoFyVRRCn//Qlcw8AAAAAAKA8lVFiYwAAAAAAgPIV/SDOtHpZuWSieQAAAAAAAFCexsycNfuauR8ZLU+0S/sc88Bx5oCse/pD6TcPAQAAAAAAykkZDKe6KKcPHpAtrxDAAQAAAAAA5SuSPXEAAAAAAABGG6YYBwAAAAAAiACCOAAAAAAAABFAEAcAAAAAACACCOIAAAAAAABEAEEcAAAAAACACCCIAwAAAAAAEAEEcQAAAAAAACKAIA4AAAAAAEAEEMQBAAAAAACIAII4AAAAAAAAEUAQBwAAAAAAIAII4gAAAAAAAEQAQRwAAAAAAIAIIIgDAAAAAAAQAQRxAAAAAAAAIoAgDgAAAAAAQAQQxAEAAAAAAIgAgjgAAAAAAAARQBAHAAAAAAAgAgjiAAAAAAAARABBHAAAAAAAgAggiAMAAAAAABABBHEAAAAAAAAigCAOAAAAAABABBDEAQAAAAAAiACCOAAAAAAAABFAEAcAAAAAACACCOIAAAAAAABEAEEcAAAAAACACCCIAwAAAAAAEAEEcQAAAAAAACKAIA4AAAAAAEAEEMQBAAAAAACIAII4AAAAAAAAEUAQBwAAAAAAIAII4gAAAAAAAEQAQRwAAAAAAIAIIIgDAAAAAAAQAQRxAAAAAAAAIoAgDgAAAAAAQASMmTlr9jVzHzAqpWXlt2XZ3FulZopZJJ/Llgd/JXvNIwAAAAAAMLwiGcSpXHa93H67eZDRNfnTv12VU1+Yh/Ct5Yl2aZ9jHiQQxAEAAAAAYCQxnAopKuXmavve/q2dsurBLeYfARwAAAAAAEZSGQynGiNT/2Gs3DyJnjeFUSmrn2+TVjkg657+UPrNUgAAAAAAMLLoiQMAAAAAABABo6Ynjp1H55p89s/fyPhl18nNt49RS6/JhV9elb6j6jXSllnFkt2knnf3dTJJPW+8WTR4QT3/w2/k1NHM1Thhxli5Y74qM8ks8DD40VX55P2U18iwvj/9z6syUMQeR1ZOnGp64gAAAAAAUEpGXU+cm3XAxwrWaGNk0vzrZOqylGV/N1YqzSObDvKMlfl/bz/PCaho4yeNkZvV8+tnmAUpKlW5mX+XPYDjZcK9mdd3+99fL7Pudba3SKZMlFpzFwAAAAAAjLyxVdXVG8z9iBojfzXnOrlhvMj/9ck1+fKyWZxiQsN1MmnSGPmL8XaPnaPvXJMxatkNatkNphdPYtn4MSKXvpH4eVN4xliZcdcYqxfMie3fSN8738gfP9D/rsn/HjtGJt0yRsbfMUb+t3p8xRSxqHIzVTlrpqxffiNHu+1yFy6J3KCe/xdq+Wf/fFX61LJzJ+0iFlVu3iK73IWPvpHfd3wjn1vr02XV9qqy49U6x3yWeX/zMW3+t+XbUy7Jx12fyQmzDAAAAAAAjKxR1xNn8KNvzJCraxL/vT18yb1s8IK1KNnRq/Lpv30tn/yrHsbkHvJ0TQbevyqffWY/Gn+TfeuYELNv9fAs93CrK0e/kU9+qR+PkUlpPXjGyNT5di8ba1jX+8mBoStqWxJlpxe6N06l1K38nizT04ufuSjuuBIAAAAAABhZoy+IE3cHYWzuZVc8/q5dcXLQ3DRGKmdcJ/XLxsqsfxgr8/9J59rRfxgj45PHYPkyPpYSiFGvP0kPvbrwjfzRKy+PdvQb0bEm3ftngr0kP9Pmy4tvtEvHG22yacmtUnPmc+l+hXw4AAAAAACUEman8mmCDtz8w/VWnprb/84kG56UvSfMlbh9a+XYcffSuWmM1P+dXTYtqFRpcuBMuk5m/pNan+e/sRIwxU4gp9W/P9l3AQAAAABAiSCI44fObaMDN1YPGZ2n5qp89m96iNVV+fCfv04Mp0pz1BlqZScjTgRh/t4EYT67mrm3zXA68aE89eAWWfVgp2zZeVFqptwq7Y/OlzrzZwAAAAAAMPII4uTk9JrRyYmvyof/auep0blxriTlx8nEfs6g9b/DDgR92pWSCFkbuGY/9zM7QJT1379+k14+LwOyd/s22XJQ3WV2KgAAAAAASgpBHL8uXJO4KznxEDP8ycuMsVa+nD/ppMhJAZj0hMUJX1yTCzrhze3XydSURMkAAAAAAGD0Iojj16Tr5I573YmE1f0ZdnLjm63Exuns2anGyPhAs0hdk1Mf6mDRGLn578dKvV5nUjBnjFTeq9b7T2MlRB5lAAAAAAAQUWNmzprtZ0xQSalc5swIlc01+dO/XTVThw+VufDLr6XP5KGZcO9YmXnXGN/LPF24Jp/9XuT2lDKWm66TWX9/XeaeOsqgzrHz4TdJU5BrWdepqXJ/+p9D+1c4lbL6+TZplQOy7mlmqAIAAAAAoFTQE8eHK+9flU9/eU0G9TAnhw6imBw5A2YWqjRfqOd8lj1Gpme4uvnvxkr9DLPA0Ov88N+uWuWT8unooI/Op6PWW/gADgAAAAAAKFWR7IkTDWNkqh5qJd/IpxkTEI+RymV23pzBj67KJ++XwqGgJw4AAAAAAKWInjjFctMYa0rywd9nSGBsUX+Ll2gMbcpcWdlM1h0AAAAAAEoFPXGKJZEP55pc+OU38sejycGcCTeNkdjd18nNt9vTl3/2z1dlwP7TiKtbuVo2LZloHjk+ly0P/kr2mkcAAAAAAGB4EcQpIl8JmIuWoDg/dSu/J4/PvVVqppgFBHEAAAAAABhRBHGKbMKM6+SW+WOsBMbuWaqcWaniKT10AAAAAAAAvBDEAQAAAAAAiAASGwMAAAAAAERA5II4tbV15h4AAAAAAMDoQU8cAAAAAACACCCIAwAAAAAAEAEEcQAAAAAAACKAIA4AAAAAAEAEEMQBAAAAAACIAII4AAAAAAAAEUAQBwAAAAAAIAII4gAAAAAAAETAmJmzZl8z9yOhtrZOTp7sN49Qeipl9fNt0jpF3T24S1b9tM9enKRe1r6xWOaZR57OHJB1T38oXke6rnm+rPxvc2WeXoflouzfuV+2b+/zfD4AAAAAAOWAnjgoqJYnTACnSOpWrpZNa9wBHG2izFuyWDY9P1/qzBIAAAAAAMoNPXHK1bT5svZRO9hxemenPLV9wPyheKwAy5KJan0H5MwSte5cPXGy9LbxpPbpxR/NlRqr5807sl3tk1V2mnq9R9XrZe39AwAAAABAtNETp+RUy5Nzn5VPmp+VzZPNoiTO39vlyQqzyEPLsqHeKjVL7pfV0+z7RdP8PSuAo4MoT/1WJGtnnGmT7L+fvRBo+JPepxp1e3rnO/KCE8DRTvTJC0/vkv36/px5xd9XAAAAAABGAEGcknNWXjrQJXvUvQX16YGaxtrl8tB4kf5TO+Sly2bhSNM9ZNbcqu58LluK1gumXu6ao28/ly7PXkV9sn3nRXU7UW65xV4CAAAAAEA5IYhTkg7L433H1W1MHpp+nzTaC0Uq7pNNU2Migz2y7uRZs9Db3q4Dsv+MfV/3XNl2wr5fePWy1hri9LlsefBXstcszeqWiXaPmtM6h85q6Xij3fxbLS8+MV9avHrSOL13Dv4haR3uHDj9py9Zt1NqKq1bAAAAAADKCUGcUnW+U9bH1e34ZtlUW63uVMuT05ulTuLy+vF35Zj1pCxOfCgvPL1FVj24pYj5cPRMVHqWqYvS/ZzPAI5LzZLF0j5nonmkTZSaOXOl/UftsrbZLHIkAj8X7MdWXp122aT+vbjSBG3+eFFOq5uamkn2YwAAAAAAyghBnBL2dq89rKpu6nLZ3GAPo9rTt6VkhlE5M1Ht37otWE+fno+l++Dn0r21U9Y9aAearH/P7Ur0Hpq35nvSYt/11nxbYopygjYAAAAAgNGAIE5JOyyPH+qRfonJglhMJN4lj583fxpheiaq9jl6qFanvNBjFvo2INt++ivZ1uNKTqxZCYo7pdsK5Nwqd6X2xlESARsdCLKed1H2/47ZqAAAAAAA5Y8gTolrjDUM5X2ZMHkoP86IqpeVeiYqpWZJmyunjfln5chR5iw2y3L0qkkyIL85oBMUp+S2MUOlhgzINmu42LahIFLakCsAAAAAAMoHQZxSNrlNOnQi43iXrD8Vd+XHGYVOXBCr482c2zIGhOpqbrRuz5wuVg4gAAAAAABGzpiZs2ZfM/cjoba2Tk6eTBqEU6aaZHPzMlkgx2V9T6e8rRMbz11j8uL8OPewqmnzZe2jc2XeFHvIU/GSG3vQU47r3jgHd8mqtCnHK2X1yknym+19yUOpEnTCYp0sWefa2ZI0VKvlifbEEK70/XHKBZglCwAAAACACKEnTola2qADODpgowM42ll56bjOjyOyoL5NllrLMmtZZgdwtJol98tqr2m7R0Ddyvuldcli2fT892R1c2XSFOF1zfNlrTXblXLmgGxPybWjp023Zp9a0iYvrqwfKjutfqhcyhTkAAAAAACUC3rilKLJbfJJ/XRrGNWs3sNmoa2xtj0xxCr1b25OrxWbngI84AxS+cjaE8dOirzJ5NTxdOZz2fK0d2+arGXPHJB1T3+YoYcPAAAAAADRRk+cUlNxn3TrAI4eRuURpDl2cousj6s7sWXSnSU/ju614kzXfXrnO8MXwPGhf/s2azrx7oMpyYrPXJT9etrxDAEcTZddt1Xvm5382KbK7dxFAAcAAAAAUNboiQMAAAAAABAB9MQBAAAAAACIAII4AAAAAAAAEUAQBwAAAAAAIAII4gAAAAAAAEQAQRwAAAAAAIAIIIgDAAAAAAAQAQRxAAAAAAAAIoAgDgAAAAAAQAQQxAEAAAAAAIgAgjgAAAAAAAARQBAHAAAAAAAgAgjiAAAAAAAARABBHAAAAAAAgAggiAMAAAAAABABBHEAAAAAAAAiYMzMWbOvmfuRUFtbJydP9ptHGFn1svaNxTLPPPJ05oCse/pD8Tpidc3zZeV/myvzppgFclH279wv27f3eT4fAAAAAIDRjJ44GBF1K1fLpjXuAI42UeYtWSybnp8vdWYJAAAAAACw0ROnXE2bL2sftYMkp3d2ylPbB8wfCsn0xMnS28aT2rYXfzRXaqyeN+/IdrVtVtlp6vUeVa+nAzsHd8mqn/bppQAAAAAAQKEnTolZ2vCsfNL8rGyebBZ4qpYn5+rntclSsyRVy7KhXi41S+6X1dPs+wU1bZJYqzh7IdDwJ71tNer29M535AUngKOd6JMXnt4l+/X9OfOKs80AAAAAAEQUQZwS8/apHiuosWDqfdJoL0pXMUMWjVe38WPytr0kQurlrjn69nPp8uwd1Cfbd15UtxPlllvsJQAAAAAAgCBO6bn8rvw8rm7HN8tjGXrjLJ3aLHUSl9dPHTZL0u3tOiD7z9j3dY+XbSfs+wV1y0S7R81pkZYnVkvHG+3m32p58Yn50uLVk8bpvXPwD7LXWmBz58DpP33Jup1SU2ndAgAAAAAAgjglKdEbJ9ZkL0jSJPfH1M1gr/z7ZXuJpxMfygtPb5FVD24pUj6cITVLFkv7nInmkTZRaubMlfYftcvaZrPIkQj8XLAfW3l12mWT+vfiShO0+eNFOa1uamom2Y8BAAAAAABBnJJ0+ajsHlS3sXvlyQp7UcLkRlmgbvoHjsoxe8nI6flYug9+Lt1bO2Xdg3bAyPr33K5EL6B5a74nLfZdb823JaYoJ2gDAAAAAEBmBHFK0ll56dRxdRuTRbFqe5GlWp6cOl3dHpefnzxrLxpRA7Ltp7+SbT2u5MSalaC4U7qtQM6tcldqbxwlEbDRgSDreRdl/++YjQoAAAAAgEwI4pSq83vl9UGRuqktQzNQRSqh8YD85oBOUJyS28YMlRoyINusYV/b5IUesyhtyBUAAAAAACCIU7LOyr8P6AzH0+V+k+C4MdaQM6FxyTtxQayON3NuyzjMqq7mRuv2zOni5vIBAAAAACBKCOKUsGMn35c96taebrxa/rYyljuhsWPafFn7vD1bVCJhcEFVyuqV9UmzSiWrl5VL7GTHycGYPvnooL69VZZ5bpdT7nP5yOmZAwAAAAAACOKUtsPy8qm4yPgG+dtaeyiV34TGLcvmyjxrLm89e9T9stpruu881K28X1qXLJZNz39PVjdXJgVz6pp1AGmxnbD4zAHZnhKM0dOfW7NPLWmTF92BoGn1Q+VSpiAHAAAAAGC0GzNz1uxr5n4k1NbWycmTSWl0y1yTbG5eZs1IpRMar+/p9JUPp+WJdmmfYx7IRel+bptsO2EeFkjdytWyyfS28XTmc9ny9K88gzFZy545IOue/jA5WTIAAAAAAKPc2Krq6g3mfiT81V/dKH/+8yXzaDT4Qq6vWCD3TVB34/vkvw98YS/O4cTZsXJrwxSp+UuR0zvflv/xwRXzl8K5dPSIvHnwz/IXN06UG6aMF7Uq25mLsr/jbdn8+qfyiVmUSpf93fmxMrHmv6ht1NmaNVVuZ49s3vwJARwAAAAAAFLQEycCljY8KxtjcXn90BZ5yU8+HAAAAAAAUHbIiVPqKu6TH8TUrd+ExgAAAAAAoCwRxClhjZPvk+7ZzVbi3z2n3vWV0BgAAAAAAJQnhlOVmoqhwI2jP94lrb2HzSMAAAAAADAa0ROn1ExwTdc9GJc9fVsJ4AAAAAAAAHriAAAAAAAARAE9cQAAAAAAACKAIA4AAAAAAEAEEMQBAAAAAACIAII4AAAAAAAAEUAQBwAAAAAAIAII4gAAAAAAAEQAQRwAAAAAAIAIIIgDAAAAAAAQAQRxylq1PDn3Wfmk+Vnprm0yy4JyXqNdnqwwi/JS6NcDAAAAAGB0IIhTzipmyKLx9t26qY2y1L5bBCYwM/c+aTRLAAAAAABAYRHEKWeXj8ruQftu/6lj8rZ9FyHUTauX1U+slo432qXjiXqzNLu65vmy9nn1fF3G+rda1q6slzrz90zClgMAAAAAlDeCOGXtrLx04Mcyq+fH0nrysFmGIFqesAMpm360WFrnTDRLc6tbuVo2rZkr86aYBZaJMm/JYtn0/PyMAZmw5QAAAAAA5Y8gDgpgsnzLDNsaNtOGequ8uLLSLCy8k127ZMtW82/nRbM0B7Vtjy/RAZ+Lsn9np6x7cIus0v+e2yX7z6jFU+bKJq/ePGHLAQAAAABGhTEzZ82+Zu5HQm1tnZw82W8elZelDc/KxpjInr4fy+PnzUKtotrKNXPs8ln7sWE/Py6vH9oiL13WeWnWyEMZgin9p7ZK68nk8snUOia3yKap06XOvEZ/vEd+fupdkanu9dh/k8lt0u16blbxLpnV6/QEcrZzaLuXNiyXH8RiiV4mer3ret+VY+axF91Dpn2OeSAXpfu5bbLthHlYLM3fk441t4oc3CWrftpnFqZztu30zk55avuAWeqol7VvLJZ5HtscthwAAAAAYHSgJ04J+exK3LqdNr7aurVVy5PT10jH7DXSXZu8/LYJ6mawV/7dCayEZgdWOuqTgzJ1sWbZOLtdfqDX48FXACebCU2yWa13oyuAo+n1dkQ2SXK93GUFlz6XrrRAjNYn260ePRPlllvsJbaw5QAAAAAAowVBnBJybNBuvNdNmGzdWtwzTHktv3Le9FgZyn/j/rfqlB0YymZpg9ODJy57+rYOlT3UJXsGY97BmvOdrvWo5+llgz2yKrHM9S/RC8ctJg/VL5MFukeOe519x+0/j2+Wx1y7m2pv1wF7iJFyeuc7pdMzZdoksdLZHPyD7LUW2NxBqv7Tl6zbKTWuYWBhywEAAAAARg2COKXk/DE7GDJh8lAvlAmVqiF/XPboWEzactWwv+IedxVCxX3yg5i+Yw9vevz80JCrY5cPy+MHtsrrZoarghs8Lut7tshL7nWe75T1Ju6U3CMpxYkP5YWn7Zwx6UOPRtAtE6VG3Zw+fcF+bA2DapdN7tw9f7wop9VNTc0k+7EWthwAAAAAYNQgiFNSzst/6oDJ+Eq53V4gS2PTRQYH5B091Gp8g/xthb28UT1HOzGYLc+NDyYYJPH3h/LdDIu4vH6803Pac2dYWVlovk3mmbuBgi9hywEAAAAAyhZBnJJyVv5wRd9Ol/utoUQm782V8/K2NdQqJt8y+Wlun6C7zxyXd/LsiOMEg/Lu0YMkicBLz8fSbQ37uij7f5c5GbIjbDkAAAAAQPkjiFNikpMb21N3WwGWKwOi5+SylzfJ/TqGMzggn6kblBAz5GnIgGyzhn1tkxd6zKK0oVNK2HIAAAAAgFGDIE6JORbvtYI1VhLjyY2yQN23hkxdPiq7B9XyyhnSWDFZpuknJ5Ia5y8paXJYrmFgo9aJC2J1oJlzm7RYC9LV1dxo3Z457crlE7YcAAAAAGDUIIhTai6fF2uipQmTZak11MkZMmWGWulASaGSGitO0EhijbLUWpKiwu4N5E+l3GZy9hTdtPmy9vl26XAn/i0JffLRQX17qyzz3K56Wblkorr9XD5yethYwpYDAAAAAIwWBHFKzlBy4/t13hvXkKm343r6bbXczCa1O55nUmPN9PDReXg2zm2Tpa4gTOPkNumevczqDZTdYXnHGgUWk4em35f0GlJRLUsnZ5llKqSWZXNlnjUnt0jNkvtltdU1qTTo6c+tWaSWtMmLK+uHpgmfVi9rn19sJyxOmUpcC1sOAAAAADA6jJk5a/Y1cz8Samvr5ORJq+9I2Vra8KxstAI1SrxLZvUetu9X3Cfds5tN415Pz+09u5NbY227dEyNSf+prdJ6MkPQJ+l1Uwwelz1XpsuCmD0FecYZrLK9RtK2VsuTc9fIQ+Mzv56fbW55ol3a55gHclG6n9sm26wuTIWTvI4sDu6SVT9NTj5ct3K1bLJ6zng4c0DWPf2h3QMqRdhyAAAAAIDyR0+cEmT3uLHtiZsAjuYMtdIKmdT48rvSeqhLXo+7p/aOy55TXbLqQKe87GfKb/MaewaTn9s/eFxe79ubM9gUlO61st9KIiNyeuc7BQ/g5Kt/+zZZt1Vv40WzRLso+3fuyhqICVsOAAAAAFD+6IkDAAAAAAAQAfTEAQAAAAAAiACCOAAAAAAAABFAEAcAAAAAACACCOIAAAAAAABEAEEcAAAAAACACCCIAwAAAAAAEAEEcQAAAAAAACKAIA4AAAAAAEAEEMQBAAAAAACIAII4AAAAAAAAEUAQBwAAAAAAIAII4gAAAAAAAEQAQRwAAAAAAIAIIIhTcqrlybnPyifN7fJkhVk07JxteFa6a5vMskIphf0DAAAAACB6COIgXcUMWTTevls3tVGW2ndLiAkEzb1PGs0SAAAAAADKHUEcpLt8VHYP2nf7Tx2Tt+27CKFuWr2sfmK1dLzRLh1P1Jul2dU1z5e1z6vn6zLWv9WydmW91Jm/ZxK2HAAAAAAgGgjiwMNZeenAj2VWz4+l9eRhswxBtDxhB1I2/WixtM6ZaJbmVrdytWxaM1fmTTELLBNl3pLFsun5+RkDMmHLAQAAAACigyAOImiyfMsM9wps2lBvlRdXVpqFhXeya5ds2Wr+7bxoluagtu3xJTrgc1H27+yUdQ9ukVX633O7ZP8ZtXjKXNnk1ZsnbDkAAAAAQKSMmTlr9jVzPxJqa+vk5Ml+86gc6Xwva+Sh8XF5/dAWeelytSxtWC4/iMUSvSn64z2yrvddOWYep6lokien3iuL3GUGj8vPj3fK25fNggRnfeZhiv5TW6X15FnzyFvj5DbZNHW61GUJrAy9Tsj9U+vozrGOhHiXzOr17kGke8i0zzEP5KJ0P7dNtp0wD4ul+XvSseZWkYO7ZNVP+8zCdM62nd7ZKU9tHzBLHfWy9o3FMs9jm8OWAwAAAABECz1xStmEJtk8d41sdAU4tLpYs3RkSOrbWNsun8xeJg+llhk/XTbO1rNNVZslhbG0oV066n0GV1IF3L9Q64iMernLCi59Ll1pgRitT7ZbPXomyi232EtsYcsBAAAAAKKGIE7JislD9ctkge6x0rfVyk+j/63qO27/eXyzPDbZvpswuU06psbUnbjsOdUlq0wZp5zuv1Q3dXnK1N5D+W/c/1adipu/Z6HWpwMwen3J29hjrUvkuKw3y9J78wTcv/OdiefM6umSPXrZYE/SPib+ZeiFo+3tOmAPMVJO73yndHqmTJskVjqbg3+QvdYCmzu41X/6knU7pcY1DCxsOQAAAABA5BDEKWWDOgiyRV46PxQAOXa+U9ab+Mq08e5eNdXy5NTp1r09fVvk8ZOHk4Yj6XKtVoAkJotihemN0zjeDgro9SVv47tmXdPl/tRAk1ug/SuQEx/KC0/bOWPShx6NoFsmSo26OX36gv3YGgbVLpvcuXv+eFFOq5uamkn2Yy1sOQAAAABA5BDEKVlxeV3nsDGP3D674tFLpmKGLNLDjQZ75OXz9qI0549ZPVjqKmd4DsUqhsyBmID7N9o03ybzzN1AwZew5QAAAAAAJY8gTrmYUGkPoRnfLB3Nz8onnv+WyQLryYVxbNDuybKgvk2WuodoVTTJ5nq7V9CJwdRhVMgmEXjp+Vi6rWFfF2X/7zInQ3aELQcAAAAAiA6COAgvMfTJTpqcCBbNNsGieFfmXkFIZoY8DRmQbdawr23yQo9ZlDZ0SglbDgAAAAAQOQRxysWVATuZsJ5e2yvZr/vfgSzTkwdmD31KnvTdJFbuTc7LU3DjK+V2czfyTlwQqwPNnNukxVqQrq7mRuv2zGlXLp+w5QAAAAAAkUMQp1xcPiq7B9Vt7N6U2aeKyJqdSuT1Qz+W1qRAUXpi5eKolNuC7uu0+bL2+XbpcCf+LQl98tFBfXurLPPcrnpZuWSiuv1cPnJ62FjClgMAAAAARA1BnLJxVl46Zc8+9dDsdtlc2ySNSQGOalla2ybdzW2y1CzJlz07VUy+VaDZrvw7LO9YHYDUvk6/LyUfj9rPyZm3p2XZXJlnzcktUrPkflk9zb5fCvT059YsUkva5MWV9UPThE+rl7XPL7YTFqdMJa6FLQcAAAAAiJYxM2fNvmbuR0JtbZ2cPJk8eKe8VMuTc9fIQ+Pj8vqhLfLSZbPYpbG2XTqmxqT/1FZpPZmcONj5W0aDx61Zobxe1y3bOhIq7pPu2c1DQQMP/Wp9u0/tdU0jnt/+JWRdt5663Hvmq5Yn2qV9jnkgF6X7uW2y7YR5WCDJ68ji4C5Z9dPk5MN1K1fLJqvnjIczB2Td0x+mDF2zhS0HAAAAAIgOeuKUmWMnt8isQ13yejye3GgfNHlqDuQO4Ph2+aj8XK0nm7rx0+Wh+jWyebJZUCiX35VWtZ971H656aDR6317PQM4mu61st9KIiNyeuc7BQ/g5Kt/+zZZt1Vv40WzRLso+3fuyhqICVsOAAAAABAd9MRBSKZHjfTIqoyJkqtlacMaK29O1l41AAAAAAAgJ3riIJyKGbJovEj/wNEsCYzPymdXsvfUAQAAAAAA/hDEQV7qpi6XzZOrpdE8djRWNMmTDU5+nuPyc3rhAAAAAACQF4ZTIbSlDc9aQ6Wy8plIGQAAAAAAZEcQB3lpnHyfPDa1QaaNjyXNFOXMSvXv589mGW4FAAAAAAD8IogDAAAAAAAQAeTEAQAAAAAAiACCOAAAAAAAABFAEAcAAAAAACACCOIAAAAAAABEAEEcAAAAAACACCCIAwAAAAAAEAEEcQAAAAAAACKAIA4AAAAAAEAEjJk5a/Y1cz8Samvr5OTJfvNoNJspK9Yvl/r4Pnnt5V1yzizNLWy58nJn2w/lgfpKifftkFc7PzVLfaqaKQsXtMh0VT5mFsX79klXZxTrs1oWPvao3B3rlbc2dsgRszQSinkcmlbJM60N5sGQvu4N8uZh88BL2HKREeHzpaiol8KKZn3m9bkCAADgEz1xIqpqUYvUy4B8sCNYgzVXuaqmxbLisR/KM+s32P/U/RVN1eavZaJqsTSrL9paLHaTVFn3fFJlH1mzXO52BQ60WP098vBjq+RO83gkVS3Sx8/vttwklXpH4gNy3l4QDUU+DlWV9vmRrFd6cwRiwpaLjoieLyFE5ToKtp0jp+zfl/L5XAEAAAiAIE4UqS+Ly5rVl8W+vfJeoAhO9nL6S/bDrfdIfczVEFX361sflWceW1w+X0rPHZHjcX1nQPp6jwQIglXLwuX3WEED/Uvraxs3yE/Mv9e6e9VrvVcCvxhXS2ODOn5+Gz9VN9lBkPgXEepFVPzjcG73zxKv+ZONr8gH+nzxUadhy0VGJM+XMKJyHQXczhEzCt6XQn+uAAAABEMQJ4LuXKAbsL3yVsDu2lnLOQEe/QW0+5WhhujWHXZDNHaPPNw203pq9J2V917W+/czeXP3WbPMh6o7ZbpuWZiu8u4v6ecOdwR7raJxfsH21/ipmtFgNZb6jkWo6/+wH4dgdTokbLnSFcnzJZSoXEdROcdGwftS2M8VAACAgAjiRE3TKnmgXn0X7gnY2yBHOedLc7znTXnzsOsL6LlPrS+mb/Xsk7f2lHvDLbtINCyaZog6zL63cfJkO3A38IX9OAqG/TgErNOEsOVKWBTPl1Cich1F5RwbBe9LAAAAw4XExpFikj1K0KTEuctZQ6maKwMmYDWvG98hP+n81Mqnc+89ejiW/dd4vFd6dnTIkSwbWtW0SpbdoxrlpozVE6hnr7y/O7mHRaqqqpnS6DepbYZks5IzufNMWfFYS/LwMk/u5JumTnIl5LRyutwjsT677sLzu41a6jalbmu13LlooTQ320ESTQ9X6krp7eIW9vgFE+Y4KDnr2N+xsq8NkQ+2/izQ8MWw5XLLtN3q+DXdpG6/kCPuQKyTzNyjHoIdv+T1ng9xvQdj1hf6/UXVR9sKK0/J0Pm8T3r27JIjN+n3hErXsRnZ68i/fLbTqFLbtyC5XkTV5Qf73pP3ks6bfIyC96VQnyuuc3qPWInZdV4vq/7Vufyeqre0ZWkvFOS8dgtbbpjqEwAA+EZPnChpWqi+2Ir07QsSwFF8lDs3MGDd1t8TIPeNGdYSl5tkYZuTT8f8TYnFGuSBNT+UhZ4vqL/kb1Bl3F8MtUqpb14uD2fMwaO/iKp1ZUpquz59fd7JZvV35Bx5C3ReBl+NELezcqxX12WlVGasSPVF3srpohopnsGFAIJsY1o+CmeIg1quAx7rH5UHXA0lLVa/XJYt8kpsHfb4hRDqOCg32edH/Hymn/Nd+28v8JToFRCwtRK2XGjqOn+gdbk8cM+dSXVvJzNP7QUR5viZ+uobkEqrbJDrPYR83l+c89njPUKXWdGoG9+uYzNi11FAeW2nKq4a44+sSa8XUXV5d+uj8kghtlEbBe9L4T5XzL7JDFlhPsMsqv6nL9DHJnnZ3QtShjAHPa8dWcutylxuON/nAQCAb/TEiQz1ZaqoU4o7v36qu35/lU36JXJA+rrflPdVGWsdVWq9y9V69eul9QAw26TL6F/zjn4q55wN09NGq3JW0CmtV5BrG1PXp4M7zq+1ufbVbHewXkcB6t+8frznFXnVKzdCrr+HFvAc0V/s19xjNZZ0AuuYOu5vJXo26GCZ/tKv7hbs+BWC/33M2bvM7H/23lBmfVmf4yVsOT9Seyq4l6m7SXVjlif1wgt5/Jz6sh4Eud5Dyvv9RVF18daOXYneOlaPAvWa1j5kPIdM+aJfR/kKuJ2u+kzuyVKtrpWF6lqxG/KF7zk2XPXpHPeReF9STP1mfX33NaS2/zV9DNzneeqypH0Me14PlUv0vAlUboTqEwAAZERPnIgo1pTiQ3RSxlfkrT79xdn+VfYZPVVzlp/ZEr9E6i9/OpljIqCinPtU3tyxT6zJOlKmW72zTX8xVF/MVWPhTd0d271hOgePKRerTP6ltWrRiqFGaur61PYf2d0hr27dYX25zbav9nYPBMu3oH9Z1rd+EnMePip96iY2WQ9tSaW+GOsv52ofugqd/DLINipObhnrF/OeV+QnLzsNJU3V5x5z/FKEPX4FEWAfc+bVyNlTRzHry/ocL2HLhWX1WlGNLev6rZTJZnGiN4urd0Do68+cL0Gv97Dye39RdANYNUqHzmlV7LB6j+jutR9kOoeG6TrKW6DtNO87im50JycEV/Wq3jtf61HnjlTK9BkFvm6HqT5H9H1J8fW5Yt5zrHPaOQZfDNj7415muN8/wp7XTjkduHu1M3O51B5EI12fAAAgM4I4UVBVnCnF06kvyJ0/s2ak6rO+ndnDFVY02X9N5TSSMwaIzn3h8WV7pjRY30T1a2+QZ9Z7/Ev82u82U+61Zs9SXyqz/Zqrvly6v6Smc6a67ZVjQerST4M/4QsZsOovvTGbGNoSdEicH2YbgyUPVc/XjbosAaXkfQ57/ArE93GoNkMyMh/nO60hBOopA1mCac76sj3HS9hyIVkzz6l97U0ZP2PPSDcgx4862xH++IW73sMLtT71ntdstVjtBnE2Ga+TYbmOCiDAdjrvO7r3X6ZeE+eO9tqNcs/gcx6GpT5H+H3J5+eKE5hMev936se1zHle4v0j7HntKqd7XmWT/F410vUJAACyIYgTAUWZUjwb/Sv3yxvktW79pb5S6lu98k6YRrL+5THLl9Y0ZpaSwJxfc/uOpifqDMTJt+DvV2GH3eB3N4azOWuCOA3S6K63RFBtR8aGVD6cbfTXw8g5fqrhn2FbnF/Ek77chz1+BeL7ODjTkGc8zq7zN0t92evLXEeZhC0Xjt3g0r+kJ8dwTEPMHcQNffxCXu+hhVtf4pzNkpckV4+JYbmOCiDIdjoBMX/vX4U1LPU5wu9Lfj9XnOPgrguv+rGfN1QHYc/r0NfDiNcnAADIhiBOqWsqzpTifuiu1l0Zu9ibL63Zgioe3egTv0R2b5CfbMz+L+lXWKdnQ76/Zpsvp35/FbYFb1AeOaa7qFdKZeJH7WopWDJjT0G30ZU81F6QxqvBEfr4FUSAfcx5vjj7n+2Xc7O+LHXkLWw5v0yQ0LB7WfRKj6pvJ0G5xeNcD3/8wl3v4YVbX+5ghekxkfEcGp7rKH9BttPncwv1HptkeOpzZN+XFF+fK07vFnddeNWPeZ6rDsKe12HLjXh9AgCArAjilDTV8L+nQX2ZC5o/JWy5dE6jMK2LvfnSmu0Lv90TyPuL7UiNo7e/nCY3AHLL3bBIY/IcJPbTzBCWT1AtOx+NXrecDe7sja+ROX7+j4PTCMnU+6HK+aU5a8DBWV/QoETYcmGYRljScdczow29B7zv0aMh8PEz50vY6z2wPN9fMst1Dg3vdRRewO3MyZwvSmF7DA1vfZb054qzb0l14VE/OevAS67zOoNEj0XvciNVnwAAIDuCOCXMSeQbNH+K/3Lqi/tjG+SZLNOEJhrDKY2pXI1kpydQarf4RFCoIXkaZLeqpur0vzlBkeaFcqe9JF3VzIyv6Uj8ihuoQkN8qT53RI6rDbb3s3BBtYycbfTJ6WafuQHs3SgIffwKIcBxyNb7oUrPWmWSvGbtdeAjkOApbLkwrODggHywJ+U43pSe0FgLe/yc8yUTPcuN1/UeVtj3F5u7B5ybntnIJIfNdA4N03WUt0Db6fTcapCGDPnN3EnjvYJ+oY2G9yXF1+eKV08nr/eKjD2iwp7XGZJVWzNM2YHQ1HIjXZ8AACA7gjglyyTyDZw/JUg5J3fLPfKwNROV+4ue/mJoT9Gsv5ymdse2v7SK1LdukEcWuYMndjlnytS+7o7kX2DNzE32OhcnzX5Vpb9U6nW2Pir3pjY2TFDESrSYuq3qvrXONctl2aJsvxw6v+I2SLPreVVNM7PPwpWzYeHFqdtKaQwZjAulvkUWqi/XDrtOVT2bx45sQQ6L07hIzaUQ9vgVQPDjUCl3L3Cdm2r7Vjy2wZ52XM/ipPjpdaAbMon91Oeaq36zCVsuiAadT8NjSFilWq6H7ukhVklCHj/neo81P+p5vTtBsbTrPaSw7y/nz9vHtb41eWa9qqbF6tibqamVnAG2Yl9HheJzO+3hnbpedKJ613noHHPzPh909kPfyvh9ye/nildg0u+ysOe1c9yd61Z/bjr18Yj6vLQCd0rae+qI1icAAMhlzMxZs6+Z+5FQW1snJ0/2m0fly+ot0CzywdafBZqRKkw53Sh6oN7+4phuQDWU9PS+5qFF9+B5VO5Wf9OJj2Pmi2AqPROK53j5plWJRpgXPRWqnkkjbfOrFqsvnuaXQw/xPj0DR/ZGiF0/6fuqx/5nCnrd2bZB1Y9q4IQ6FmZdap9+UpRcOA5zTDJUTvL+Oc/tlbc2eje6nW33rJewxy9PgY5Dxm20yx+b4ec6mSkr1ptfuN3i++S1bDOkhS7nn10X9v2kY+Te70znXODj51zvvaph1yD1nueYfp94U22Hx/UeWD7vLxnqXour8723Uh7IetyH8TrKS5DttLnPmXTB39/8Gcb6HKH3Jc3P54rX+5e9zL2/meog/Hmd6bjrz8ue8w2Zr4cRrE8AAJAdPXFKUWIWo2JPKW7T04q/1r1P+uL2r3021YBSX/LeUl/u0hsfTpf2vfLqy6/IW332UCeHXS5LwsPDHWYac/f6XOUyfTE8t0te3Zi+Pv0l9oNu1aDLEcDRzu1+0yo/RDU+e3ZkGUIQPqeFM2WvHvJRnGTGbmflPXUsPkjaN1U1+gu+qtPkY5h7iEfWX8TDHr+8BDwOahu9jvNrG+3GSmL/sr7Wp/LmVn1dmIeKrs8P9uXqVRG2XBiZhy9l7LEU+PjZ50u89z15M+16d79PFCKAo+Xz/qLrfkfydaD2s0+9P7z2coc537Md92G8jvISZDttRzrNjINJlZl8XRReub8v2XJ/rni9f5llSfubqQ7Cn9f2cVfvR6psXJex6kN/Xh6RymxJvkewPgEAQHb0xClB6b/O+RO2XGCmR4xk6mkDG/UEBMd1AwwD07ungD0EAQDA8KAnTqlpGrkpxf1ycpP4yScyalWpL8h66FcxkxkDZYj3F6D4qha1eOcXAgAAJY8gTkmpHvEpxf0o3hCBCHMlWtbJJnXSyHpVR0VLFAqUKd5fgALQPdrW/1BWJCUGV5zExFYOH4/k5wAAoOQRxCkhxZ9SvBDC54gpX9WycPmj8sz6Dda/h1vt5Ms6IXRx8kwA5Yr3F6BwKqW+ebk8bD6brH96ViprIgOdZLnIQ68BAEBRkBMHATGOPp0zo4j9SCft7NmhvhxTOUBAvL8AhaOn5F8hzfWVQ7M66uTGvXvl/d0kJgYAIKoI4gAAAAAAAEQAw6kAAAAAAAAigCAOAAAAAABABBDEAQAAAAAAiACCOAAAAAAAABFAEAcAAAAAACACCOIAAAAAAABEAEEcAAAAAACACCCIAwAAAAAAEAFjZs6afc3cj4Ta2jo5ebLfPALKxfWyum2itN54Vbp/cUG2xc1iFMk4WfuPN8i8S1dkXedl8f+OErZcxMUq5MXvT5Aa8zBhtNUD8uC8x4mcPvSlPPXbr8zyIIb7fXKUXu8lJ9NxCHk+lM37WZDzsxDXX7njegcQHfTEAQpOf1maLB3/qP61VUidWSp33GAvU//W3mGWFZRZr3udvoQtF2F3jJN56uZ0/1fBvqiFLQdkNEquv9g4+bZqQGo1s8dJi323tHG9KyVwfnIcvAWplyhef8Mta3063+smyeqYWYSEujsqZG3bpMR3XF1Pa78zzsd7xij8/pmVc56l1EnR2w+IIoI4QDFd+trjy8BV+eMFcxcjouXWcer/q/LxH762F/gUtlzkxS/LU/9yXlYl/n0p+82fAF/iX8nHl+y7pw99JXvtuyVt1F7vJabgx6FM3s8C1UsEr7/hxvUeTst3J8mmRRNk3o1jzRJtrMybfYNsaruBgGFYtB+QA0EcAKPMOLlL/7zRfzngcIyw5QCIfC3bOu1GczSGcnC9lwaOg7eg9RK162+4cZ6FUfedSdJep4M3V2X/oYuyzgmM/uJL2a+DhjeOk3Z62QBFQRAHo8u0+bL2+XbpeKNdXlxZaRYW2tfyJ/OLV5ILV+W0uVscY+UW0106mLDlRkBMd9m1u5S++J3rzcJg6r5TYXWZ3v95sC+yYcsB2UXo+htFuN4dI3t+chy8US+FRX2GMU5WzrZ73+zffUFe+K2r50j8K3mh0/Rwu3GCrMw4BIjPv2Qj1X5AFJHYuGRVy9LaFvlB5XSpG28WSVz64+/LulOH5dhls8hD4+T75LGpzbIgtVyvKmeWJFTcJ92zm6VusEdWHXg3/e9qO56cu0YeGh+X1w9tkZdS1ttY2y4dU2XobxVN8uTUe2VRLJaIvPfHu7zXrV67cXKLbJpaqfbRGWScZVsdXusYPC4/P94pb2epF63liXZpn2MeyEXpfm6bbDthHhZQy3cnS7vauNOHLspT6oPNkkim+JVs+ZcvU7oz63Gw7gSN16vXuEGW1Y1NJF883X9FNv86JdneHTfIi3PGSY2fD8H+L2XVr80XlLDlnO0UO/GfHme/8m/Ulx+nG+2lq7L/4Jfywu8zdUdW+/WdCWq/3OtWH079l2Xz/q/UsTeLMnDq1RYmualTz17HIJvM5Zxt2r/7vNpvs1CLXW+dn/3x5Lqwn39Vfnd6rPxXdXCHq1xhE8GGSACpzpXV8yrk2+5z+tJX0vUfqj6zbVeGch8fvCLbMpxn+tfBTbNlaJ+9XkOd15vVeW1ve/J53a/PUz/XX4Kq+zsmyOOua0o/v2v/ZTl5W8q2aKGvv/zVqXW7t9NL4n3Lec/KeJxT37fM4sRy8zBF0vuip8z1KfNynM9hz7MkAd4nQpyf+vXDvQ/m8f4ZpF7yPj/ze58fkus4JJ9/v9GNykCfR47g72c6B8jKOXoIiVng7F/iPcVboOsvI7/1Yh6myPT69meFfs0rcrN6/2tV54reL6uB/nv1mmnLrGLJQl0PedTLsF3vyeda4M/SsNsZoj6H7fNPHbOOReOyJwR3nuN+n8j7/SWo5P3T9eHvfSJkvbiEOa+d75RJy7O2HzBa0ROnJDXJ5rlrZONUdwBHi0ldbJl0zG6XzbXVZpmbDrg8Kx317gCOZso1t8uTFWZREeiAziezl8lDruCKpu+nB4/sfeyo1/vozhKXfVszrmP8dNk4+1np9qyX4XdSfShoZy66PhRU4/qMvlV/O2ktyGCS+kKpPjh0F1Xng0KrqZsgmzy6pfr6IPQQtpxFffit1OOgv6+++LrHQav78xZNlI7v6rHlqcx+zU79QFP7WXeDei2dCC9c7xrf1Ie3ldyxP2BOgCzlnGM9ZaJ729WH/99MVPs0MaXH0PVys34d9SWs54vhLfeboF86C0h/qexQ54puACSd07qr9fcz9apS+6TOsUzlWtV55ifBX8Z1q39pX7zU+VurjnWQ68/aTvX8TeqLqvu81s9vV+f04+kFLHldfyHZuQt8fnkeMdnrc1mWbQ93nnnw9T4R9vwM+z4Y/v0zTL2EP0cK+D4f4P36lnlBP4/C0ufnZJMDxCyymP3Lkvi2YNdf2M8xX66XZer46XPFpupwToU611OWLUrNdRL+/TpsvQzv9R5euX7+1ZnvIFkTazs9SOqSk2nnfQ2EofYv+PdWJWC9OMKe13m1HzCq0BOnBNm9W9S3gMHjsj6pd4nTc2W6yMBWaT151iy3JcpJXPb07ZDHz5u/654r05fJQ1ZgR71mj3pN6w9KQXrixGRP/LgsiKntsrZ5r9pmZ9vUNlecTek51CSbm5fJAn1XPf/1U3vlJWdb1fOtHkhqH0/0/Vjtg1msTW6TT+rVOvT+nXpfXj451FunUf1tkw4Iqb95bWeCHk716FyZN0V98OzslKe2D5g/FJj59SG5t4TdOBmK6ruZvyXe7K9K9+4vE7+06Gi+/jDQ0npgJKgPmVDTYwYpl7ydzq/j9i9J+tfXG9SXd/vDMXU79ZeJTfpvl76SLUm/Pg396i79OX6B1MOp/sb+8pz718p09jak9IrwIWs5r1+aEr+aKF7L9bLPxw1vOWdZQQQ4Z5z60b/eHros23879IXP+pVK/a1Gn++pdWvK2b9WXlHni3Os3eeZ969Szrm2X325nKe+PNrnXPJr1MW+dvUICH/9Ob+a2b9OD/2aV6fqfqU5V63Xy3jOhb1uA3Idh+R9q1DHQJ87HnXpnD8Zt82pt2z7N8Q5Ltmu3cz1qX891V++7b9lOl+sckHOMw++3idCnp9OHQR9HwxbLv96CXZ+ht5OD7mPQ/jPo2T+9zGxf7o+XeenDgSsVuenvS0e15LrOPi+/jLIXS/enG3PdP25rz37td31m74sqU5DXg+h6yXv83qIv/oM9l6XEHY7TblS/vxzzhdf11bGYzEcn39h3yfC1YvFddwDX++mrOe2eLYfMFrRE6eE9Q/oYIh5YDkrx853SuuBH6cFcHQwZpMJ4OggRiKAo10+LC8d2CqvD+oH0+UHReitogM4/ae2yqwDOujk3rbUAI4O/NxrAjg6cNTpCuBoZ+Xtk2ofD21NDuDoYJIOXil7+tT+uQI4mlUvfcfVvZgsimXZvxMfygtPb5FVD24pXgAnIUMW+UteGedd9Afuv6gPO/Omr/X//kvZYgol98AYOdYXwV87H4Ta17L3txdk3SH7V4R51kwP6fQH6FAZTdWH2r+nOnXCxaF99hS/LC8kkjPmeG4aM35b1W+wXik5yv3+KzPuW30xshYok/SvNWq5PmZpy1Ud6F9ahrvciFBfPHSjTbHHzA99gdWs475bB5fGyrdvSzmv1d/W/UId5071RSfx5VOzzzP7erhebs7wq7emv8Dq83SVx2tkHNIR5PqLVcgyq7LtL6iJBp3Sb52rJrljCXB+NdXHIXnfLptjME7u8vHLblFlrU+dY+GidHvWZx7nWRqf7xN5np9h3weDlStkvQST1/u8Jdj7ddjPo0DU+fm41dhLPz91DpBtifNznCxL6V1RuOsv7OeYf6cPqUan9dpfy2/67fpzL/PM2RHyeghXLyNwvYdSzp9/ppdvpu+5CervJfIZqIV+n/BdL7b8r/eQ7QeMKgRxStCxeK91kdZNXS6ba5uk0c8QqAmVdsMt/n6GXihn5aVTOsihXrdyhjRa9woo3pUeWPJULX9baYJNx716/hhJgSClYoYs0j2JBnvk5aTgjsv5Y7JH3RRl/4JSb+6r9Bt+0gelmR0ia48I9eVQ/3ppHrk5XSxLQ+ZpOPv/8JXdfdYdTFCc5TWzb5C13xkndVm+fBTFHeNEJy7M2vXXS85y5kuK7nJrL7CnKlXH6yN9zG4cJ39t9tX5YLe7yQ53uRHgdFO/dEW2Z/qlzgSlatQXTvf5oiW+aMaul5Y7KmTtdyfJi22TrMTW9i/GY+WWSdYzvPWrL8mBgn0Brz8TJMs8o4k6VuZeFIx4gDhnfWaQ53mWJMD7RJjzM+z7YKhyhawXnwr2Ph/o/Tr451EoOc9P9Rl/0P58D1Ofvq6/sJ9jAXh9XriXZfoukvf7dQZp9TJC13tg5f75Fzlh3yeKUy8Zr/fQ7QeMNgRxStHld6X1UI/sGYzJgqk6B86z8kmz+jdX58LxDuo0jrdnWuq/kinCoVwZsD+k1HNvtxYUTtb1Jpks37KGdQ3IHzINefLiBKnGN0uHrgvPf2aIFkqDK8hgiV+Wp35xRfZfGivz1Bf8Td+3Z5nqUF9KhiOoYwU6snyIZ5K7nPPLpPPLivmF6tLXstf64jv0RatW1YnuAv2R9YVuuMuNAKfRc+ME2aSPtec/3dXam+56bM1G9v2J0q5zUOjx6NY++VPsHkhOkGzkejr5128aYVYuC/e1phoaa02X8BEL9hmh6zPP88wtyPtEqPMz7PtgmHIFrBffCvQ+H/b9OiN1XJI+j0LwdX46OUBS1leo66/g9VJAYa6HUPUyQtd7YGX9+ed8D8kVmFN/199PoqIA7xNaFD5vEX0EcUrV5Xfl8QM/llmHtsr6U8dlz2Bc+scPBXW6G5pGvrcJEJQ1xOS8rPrFRdly6Cv1RV994VUfms6X/Re/m/5rVGGMk7v0Cwf9hd9nOefXGPuXFftLi/UFynyht5eb11LLncR0w10uUqzx5ianzCV1rhz6Urao82ad+qeH0zndmOFTouu3nUwz0YjQSR714v4vM/9aPGoEeJ/I5/wM+z44Yu+fAeW9nQGOQ1QU5Por4XoJez2M6PtSGdbnMEr+HpJB7HqZYt35Wv5ULteyH3zeYhgQxCl1l+0cMY8f2CKtPTqo0yV7BkX0DE6bPHLb1E2YbO55cHqzDA7IZ9aCkVQptwWZKcvpRRTvklm6HrL980zQPIqE/SUhbLlUzq9P2YIHcT0O+Uv1Rf+CPKW+kKz6hZ07RM/u8bjfGSUCqPtOhfXBuf/zYF1R/ZZLDCFQdeh0z7Z+ZYl/JR9b+6V/gTZfZlxjmoe73LBzfpVWX1j0F8+s/5KS9Tm/Vl2V7t32mH6dT0CP60+dQr0UBPl1NKNCXX9Z2V+6rWOSoBNufinrfl284RlBBa7P0OdZMv/vEwU6P8O+D/otV6B6sYQ5P0PuX9j3a09+Po8Cynp+Zl1fftdfQeuloPK9HgLWy7Bf7yGV+eef09sk25C1utt04malP8fMX8Py+ZdFEd4nAp/XQEAEcUpQ4+QsvWwuH5bHndw2roCNk0dHYvdmmEZ8KDFw/8DRoSDH5fNyQt9mGGLVWLvczGpVKIflHSsaH5OHpt+XeT8rqpP/dvmo7NaJmTPun096dqrn26XjjXZ5caU9BK38ZE92l1mwct5daIcS+aWOMa+7I8uvr/Gv5AUnl0C2L8gx0734Hyf7nz5UbdNf1+nXDDqsKEA59cXKmv7xxuulxfpVKmXok/6CYr4kJHVxHu5yqULVp0uuL14mqCR1FRmn3c3q0lfyG1dSwCHqXDX3RlJiHL36Eps83a4RC9KVPMR1G+T43XGDlUehWyfLTGpApCfcTEicZ97Hue47zmw8hRG6PvM9zywh3idCnJ9h3wdDlStIvTj8nZ/5v8+Heb9W50XAzyNPOd7Phs7PTPWZZX1hrr8kYT/HhlGY9+tQ70sjdL0Hle92lvjnn5PPRw8XW+mZpNckjVZyB8qK/PlnFOR9wo+8r3cgN4I4pUbPMlW/TDqa2+0hUxXJvW0aK5pkszXNtvpC4c5Dc/ld+bkTHJndLpsnu8rpKcatacL1g+Py86QExOflP82sVRvdQ7TUep9scKYsL6y3T/XYb2Djm6Vjbps86d5WPSX55Dbpnr1GOtT2DHESM5v9S8sNpKcmV+Wa22SpWeKlZZk9vbhWs+R+WT3Nvl8e1JcRq2LHSuvfVKSMw9WJ8TJ9yIUpN1bmLTI5DswSPdZ3aDrGr6TLnVBPz+qx6AbZ9I+T7K706nXd9PTBzjjhbEGHlnmme7GiE2f6+mKkXttKLpjrl6BUgcoNJRu+SzdOXL/m7LW+vFwvd92qH6WOvR/ucslC1afFrF99SVuWcg4knT/iJPpU59b3vXJiqPPrOzfIi/94g3ejXX05fNz9+ur5elrPF/V5NrRw5Dhf0lU9tLclj323ttPpOp1V2Os22PGz83moxm6gWYiGjnO7ewiM2q7V33WmWi6g0PWZ53mmhXmfCHp+hn0fDP3+WYB6CXJ+FuJ9PsxxUOYt0g0517FQr5Px8yiNz/ez+GXpcupC12fSvmdfX7jrzyVkvQyrEO/X4eplhK73wMr880+d59udWZ2s74OupMCqfteq93Dr/TpbYudh+vyzBfzemoe8r3fAhzEzZ82+Zu5HQm1tnZw8aV3xZatx8n3y2NRmWZCtB4w1PXfqsKFqV7DGiz39eNrsVZPb5BMTGEqlpw3/+YQ1sjHmXbax1g706Of5m53KqLhPumc3uz6cUmVfX0aDx+X1450ZZuhSb/pPtEv7HPNALkr3c9tkm9UVaaSpRpH1QXLVmrrUa3x23XfsRpM1RWKmDxr1JfrF70+wu4Wm+Uq2/It3hn3/5Zzt1F/C1Qen+QBN5r0POknfyjlDH7qe1If9uizdn1u+68zKoGWuKze73vQvIrmf6xa0XNK26e7TziwCSXWbfgyGu5xbmPp0OOdjGve2GBmf67j0lTX7g3vdWcuo5+vx5u2zx8n+3eflhZQviE7ZrNdKkjyuv2zXjtrO/ZfGyby6HHXr+/pLFuj4ZV2H7bTa3o8PXkmaElX/othhGt6pdF103ThRbUOQazGP97Ac9RnmPHPYZf1f71nXleX8DPs+mM/7Zz71Yglwfub7Ph/sOAxdt6cvjQ30eZQqYx2lvZ8NfQZ6y7C+sNefEfT89OLsY6brz3k/cZ+zThm/yzxluR7yqZes69SynNd22SD1meu4O9Lfr8NsZ+j6VJyyw/L5p7R8d5I6b7Jsq57i3Dz0FOD9xc3/59/QsQv2vTWPesnzegf8oCdOCTp23k5qvKpPz1CV/K7Rr4MUfVs9AjjaWXkpUc4sssSlP94lq3o8Ajja+U5V5rh6bfNYU+tZf+jHVmDmsyue74r50TNw9dhJm5PWm2Nbj53cYuUFej2unmeWWVQ97Tmlyh3IHMDR9nYdkP3W+AD1BrrznRIJ4BRQXM8MovMOJP/KqT8sundfyfxBGrjcVfn4P87Lut1fWR+KjtP9V2RLhg+7/t/byS7XqdfzXs/FrAEcbe9+Xda+f/pQlkZHgunOq17/N4FO4+Dl7B4wtqSuw86QFE3td+p46+Eu5xa8Pof0//aCrDtkhhc49HH8PP0Xdv1cnQ+ju9/kCHCo7bPGh6sveanrtl4/5fyyXt/kCNh70Swbaeba0fs2xNmvK/LHnF/6lZDXbaDjF/9KupK2MV3NjeOkddFEWevuGv97tR8ex2GL7iauvrTmM8Wqp6z1+aVsz7K+MOeZLfj1Hvb8DPs+mM/7Z/h6MQKcn/m9z4d8v1bP32yt0//nUSrrePp6P/vamurX3j+zyKLqtl/VZdrUwEbY688S9nNs+IR+v86jXobzes9HmO0MXZ8jYO+vPbbVuR70tpolGQ3H558l+PfW0PK63gF/6IkDIIDcv0yUFNOLwP8vUkbYckCSUrlezHZItp5u10vL/7+9O3at6o7iAH7EwaFQkuKSdEiyOKrBoYLwprYgDnbp0D+gpbwl0KmdxKlDd8l/oOhSh+LuYlGIezv0ZejLUnhZHAoF6zU3SjQ+yMt7L/ecfD7TvRfecl/O/T2+Off8vmy6apofxKfs7169d0PZ7+GY9ee+TPe5pN5n5k0H0SEduSdn3uuw9Zb50IkDlNVba14DGT8X5jCTfg46qZ3/MH5o4wy6apJQ791Q9ns4Zv25L9N9Lqn32Rk8fbE37Hj14725WK+vnjLWW+ZEiAMUdS4+a35BDF4c8T8vk34Ouq0Z/tgMY333h3UzcPbtoOLpDXfMQb13Q/3vYbL6c1+m+1xS77P1b/zSvK706mh5tRlyvrd71L3vPplsh67ErLfMmtepgCOYd1vq5Pbbeg8b/DfOpJ+D93WnXg4OgfyAZgbBuAG3Ban3bqj+PUxaf+7LK1N8Lqn3OWmCiisfxc03A49Pcg2c/zpsvWUehDjAEeQJceDkdate9nYOOhdLC2cP7JrRDJBsdsl48ud/Y9q/geNQf4dzX5itk1mH/V0za0IcAAAAgATMxAEAAABIQIgDAAAAkEC6EMerVAAAAMBppBMHAAAAIAEhDgAAAEACQhwAAACABIQ4AAAAAAkIcQAAAAASOHPx0uWX7XEavY1+9NfbkxjFcGc3ft18FI+320sAAAAAxRToxFmM5aW16N++Hr32CgAAAEA1KTtxDli5EN98/3ncXBrFw1t3465uHAAAAKCg/J0423/Ek61RewIAAABQU4nBxoPhbnsEAAAAUFOJEGd1eaE9AgAAAKip0Bbju/G3eTgAAABAUYVCHAAAAIC6CoU4a9H/+Wr0VtpTAAAAgELybzH+2vnobXwRX60vxnJ7Zfjb/fjhwT/tGQAAAEBupV6n2g9wAAAAAKqp0Ylz7Xrc+3YtYuevuLP5LB5v68ABAAAAaim0xfgoHm4+EuAAAAAAJdliHAAAACCBQiHOQnxqZyoAAACgqFKDjQEAAACqKhHiDIa77REAAABATYUGGwMAAADUlT/EWbkQX99YbE8AAAAAajpz8dLll+1xGr2NfvTX25N9O1vx40+/x6A9BQAAAKikwOtUoxg+34o7mwIcAAAAoK6UnTgAAAAAp40txgEAAAASEOIAAAAAJCDEAQAAAEhAiAMAAACQgBAHAAAAIAEhDgAAAEACQhwAAACABIQ4AAAAAAkIcQAAAAASEOIAAAAAJCDEAQAAAEhAiAMAAACQgBAHAAAAIAEhDgAAAEACQhwAAACABIQ4AAAAAAkIcQAAAAASEOIAAAAAJCDEAQAAAEhAiAMAAACQgBAHAAAAoPMi/gf1z3SM29SaBQAAAABJRU5ErkJggg==;" parent="1" vertex="1">
          <mxGeometry x="1180" y="176.5" width="1137" height="594" as="geometry" />
        </mxCell>
        <mxCell id="okEYSekoPsIIKbUzh02p-1" value="" style="shape=image;verticalLabelPosition=bottom;labelBackgroundColor=default;verticalAlign=top;aspect=fixed;imageAspect=0;image=data:image/png,iVBORw0KGgoAAAANSUhEUgAABHIAAAINCAYAAABS71jCAAAAAXNSR0IArs4c6QAAAARnQU1BAACxjwv8YQUAAAAJcEhZcwAADsMAAA7DAcdvqGQAAP+lSURBVHhe7N0JfFTV+TfwX0LYQQgEkglgcMO6ICYBoQY3RFACCv+WxaqICyDUCtVa0SoUbBVerUVrQcQqWK0KbUFZLErdCgpCiIgbqEAUsiAQVlmTvOe599zJncnc2SeZJL8vn0vm7uskc555zjkJ6aefXQEiIoqJBP3TW7C/eJ3Wr7Uq9JknBHlm1vLenNZ3Wr42CnSJAp1qNB+eSB/YOnRbKEai+bzWRbF8DwX7+zhI9eLtrv/W8FcbUSRC/93jXiPKv7diJ3bHyUAOEVEMOf36DvYXb235MxU0BnKCF+gSBTrVaD48kT6wdei2UIxE83mti2L5HmIgJ3wBAzp8sImixXg31ZoAjiV2x5uofxIREREREVGwpFCpBimqWQMRRY/7vaXfa1SJGTlERDHk9Ccn2F+8de5PFjNyghfoEgU61Wg+PJE+sHXotlCMRPN5rYti+R6KcuGIb3cbXgyi0NS5YE3szqdKICdlWDu0HdpejwVv89DP9SsiIrJEWq6tc2UbBnKCF+gSBTrVaD48kT6wdei2UIxE83mti2L5HmIgJ4b4YBPVb7H7HeBRtSrcIA4REREREREREcWeO5CTMrw9gzhERBRj8s0Ev6EMCr/WJiIiIiIf3IGco+eV4ejBo0hOaoVfnzoGz5/7Z8w/7ylMP/NBnNfiJ8YybRsm46HT78a8c580Bnkt04Jx2803Yee3X7mHP0x5yJj+wpxZxrgvsozM69mju57i26r/rjC2HyzZ7pJ/vqbHKn2Wt8Y4nnhkXSf7EIh9Wet6Owlme9VJ7qkcUzzeD3lOIj027/sZzrbs6/t6nomIiIiIiKjucQdyjiUdQVFxMfo1vwynNu6Ih7f9GXd89VuUHP8Bo1zD0TrpFFzV5jJ0auTCjIKnMeqLCXisYBYOlh3SW3AmQYRpk3+HDmf8xD1063q+nmvyVZC9/NLe+lX1OD+7F24ZO16PVSXHGEqBO5gAk8yX5fyR+WedeYbH9fu/ETcaBXin7cs1l2WsZW8ZeYOeU3tMnvZHv/cjUk4BvUDkOXlr5Tt6LHSyT+/72aN7lsexSLDIKYAp0+Xey/Wx1t+9Z0/AgGewQn3OiYiIiIiIqPp4tJHTtGFTnN48Ax8WfYwPv1mPfQf3453S/6FFg2ZIbdQO6Y3T8O3R7/DNkW3G8kfLjuJ4+QnjtT8SRJDCpt2gnw/Xr4AN+RuNgqydVSgt3bfP+FlfSYH662++Re8r+7uzVOTng/fda1xTCZD58uDUh7F23XrjtfyU6xitgj6FTwJvp52WYdxPOwkOZWV2C+oe/Wn6H40gzt/m/11PUe+xsePd95sobtmrCrHaEBERERFRWDwCOc0aNEFK07b44cgeHPnxMHbuLERB8U4klgPtGrZFi6TmOHzyME6Un9RrBCZZDxKo8UeyCfbt2++RXSKBivc+WKXHTJKxYFUlkcEXCXJINoPFvnyg7BhZ11rGvi8rQ6Ff3z7GINOkwC3TrGW8MztkW6d1zjACLXI8Mt++jKwzd9ZfjPmynIz7qv4kAS4ppMu80tJ9RvBGAjtyzYRc20DnJZJbtw66oC/HK/uzzk3O1Qoi2a+t/fyt5SyynDVdlrOfu/3ael83X+T8ZP/WevJa9mXfvsU6ThmcjlW2I+cnAUYJnsg06xraj9u6H/JT1pF5sv1I9L74p9i2rUCPedq2vQCDBlxj7Efu179ffanK/uS8W7du5RHEsfN1rPZ7ab8mvq6VXCfv51xYy8lgv2eyDevaWteLiIiI6ifG6ImIqodHIMeXY0eOGL+UD+w7iIpyc1qorKCDPxK0GTxooB6DkbUgWSV2ksVjVSWRqi32AryQAqYEOyS7QUjh1KpeJMOv7/qlMT0QKdQnJ7d2ryeBFBlknzLINCFBFmsZe4aRkIwLKZhL5oQcj8yXbcq25ThfePFljB7/K2O+LCfb8D5fKURLgEtINbM/zHjMeL2zsMj4KeTanta5sx7zzShsq/2FQvYnxyTnKwGFF158yRiX47EK7HJNrPOX7UvwTcj5SbDCmmfPtpJ7JsdszRPBBKIk2LVx02fGOkYg45mnjddyfyXoYJHrbm1bjkGOVa6j972Say3HLIEwmSaBEblOf37qr+7lBl+bq7cKI+Bz2x13VsmkCYfT+0GeXSHPi2RQybn52p/1TDixH6tcW+teyrD4jWXu942va+X9nEvwT95Hcq2sZeU5tr/3rGpi3s8vERER1Q9SVmAQxxsb9ieqv2LfuYdHIOfHsqPYfWQP2jVtq6cApzRqafwsPFCEHw7+gBNHT6DsRJkxLVgpbSu350QKgRK8kUK3FBLXrd+g51SSeVZWgL3wLm4ZeaPx0wqoyLJWVoO1jozL9ECkUC+BA3vmgTcru8XKegjGPZN+564KFWqhV4IX1j47pLs8gjnbtm/Xr6qS85YgjH1/1vWQwSmIIscqVn34kRFosjJAJBtI9m+xtmNvg0fuoxV0EhI8sEih38r2kEGCDpKlEogcg3UOEnSwtinXxF5tTM7Hvm0R7L2yMqis9eV5sa6PBHys7fjjlP0SDAmQBEOeBX/sxyrX1sr4kkHuk9wD4etaebOuq/35kefJ2oaQcaKA+AmfiKhO4q93IqLq5xHIOXLiCLYeLEDP9tn4SfJZaN6wGa47bQD2Ht+Pbw9sx/aD3+G85LPRfH8T/FC4B00TmqBRYkO9tm9Llr/pWEj0JsGbO26/1cieeOa55/VUkxQoJShjZQVIxoCdFG4lgGAnBXxreWsIpjAuZFnJAJFCrnfmj0UyJ6QQK8v4C/qES47VKrTbq54ZGRA6mCJBEV/VbOR6yXHJeXjPt18PX+sGS7ZvZTx5Z/z4u872RnplkCyQaJDrI1lX1nbtVfqCvVf245Ih1OsjAQ9rXSszzE4CY/YMJTsJuAQK8FnX1XoWgmFl11iDlanjdK2CYWUPUR1QHV+j8lM+EREREdUL1ZON5xHIqVD/nvviJWzZ9y1mX/L/sCJ3AXqnXYR/bV2CPUdL8eKWBfhk92f46yUzsKzvS5h+xgPocNSF47uP6y1UJQVPKSR6Zyf4KkxL8EYCE5Jx4SsQYG/42LswLFViJBBkZV1Y60fSbocUqiXoYGUfSBaMd3aRFPQlmGEFkeQ8rUK2FHbt1Z6sRmqtKlbisy++9JthYVV5sbJ5JBAhr62sFtmeL1LNyWleNFnX2d7DmASd7MEvexUlyeixsqdiwV7tyDuA6H2vJJPJngUjWT9OQbtokWOQY/TODpLnxh6clGXOP/ccPeZJspHkWbBnl8lx28ctEjjyzl6zOF0r+3Pu630k90+CnFQH2AMssQq2VDCKQ0QUtxJY/YeIqDaq0kbOD0f3YNLah3HFG0Mw6M2b8N2hHbg8PQfNkprh0InDePDjR415l75+rTH/vwXv4/tFvhtvtUh1JwmySODBGhYvWarnVrKCPk7zpOBprS8BDm+S2SHBE5kvhVppJ0Sqkljr2AvPUnC1pstgJ0EWa7oUmK1qRlZ2kUwfdVPldiVTSAJJ3qSwK/uXQrrsW45NCvJWUEb2YxWUZTu+gk5y7WQbkqlkZU/IOtZrp4wRCVDYqwnJEO0ghdwra9v2DA3J+LBXn7JXk7Oyb6x5MvgKQIRDroUExaztWlkmVnaSDPZ7Jctb1Y7kXngfd6hVo4Il+7GeU2uQalz2LDQJeMn981UdzAow2qsNCutZspNzlACRfV/ynDldK2F/zuXaSWaR/X0kxxYoc4iIiIjimARwGMQhIoqy6vu9mpB++tnG16UNH2lmTPB2RqvOKK+owPYD3xkZO97K/3sCZWqg2JIMJu8MEynMOwVy4okVQAqlCpUEMKQqVLyeXzjn5I8EVyRYIiRAR3WH06/zYPNUYvrnwPsgYrEzIyPHYcOB9ucvm8epAFLXMoD8XaNApxrN+xnsZXXaZx27LRQD0Xxe66JovoeiHMDh29sJH2qi+qV63/MBAzn+MIhDgUhGh2SOhBp0kkCOZMtINkm0giXRIpk6kkETj8dG8SfScm1M/yR4H0QsdhZOICeYYAwDOYEfomjez2Avq+M91T+JnETzea2LovkeYiCnmvChJqo/qv/97g7kEEWLZKvY22UxuiZnVRyqpyIt18b0z4L3QcRiZ/5O1Nf+gg3EMJAT+CGK5v0M9rI67bOO3RaKgWg+r3VRNN9DUQzk8K3tDx9qovqhZt7rDOQQEcVQpOXamP5p8D6IWOzM34n62h8DOZ783ZNApxrN+xnsZXXaZx27LRQD0Xxe66JovoeiFMjh29ofPtBE9UfNvN+rNHZMRERERETkhEEcIqKaxUAOERHFBj/pExHVOfzVTkRU8xjIISKiWkJSV62BAmJpi4i8RbmhYyIiCkb0P5QlXH5FH37UIyIiIiIiIiKqBZiRQ0RERERERERUSzCQQ0RERERERERUSzCQQ0RERERERERUSzCQQ0RERERERERUSzCQQ0RERERERERUSzCQQ0RERERERERUSzCQQ0RERERERERUSzTofNppv9evg5CN2/58L26+uj+u1kNW0ib878dL8MC0n6HVZ6uw5aAsczM6GK/1alFTdf8ddq9AfpGe7WY7hlMG2I5Nz45Q91ufwKh0dd5f2zaYfStmXpOI/+zKjPr+QhPsNfLSwX6d/N3DaNzfqsdoPEf26+lTNPYdffI8/DZzN/4T8CIHUvPnZ5zLyMr7Etr98SU25yTHeU2i/bn2sZ+I35Px8Lw5HUMwxxYPx09ERERERNEWRkbOLqx8/G5M/LU5PLKsENi5HI/8ejqW7tSLxJTn/v+Wpyc78Tg2KdhMwsAOxpywrd/4GdqnuvSYqXu387FpozqYar0WTmzX6PGVSL3xVnTXcxxV+3Hb7+PLKOn7G8y8NVvPq0U6DEC/1M+wKfWqiJ+reLD++cp7ssl2j4z3eRyR92DXbrbnpUMqUtEeF1yYrieoSWntsaukKE7ek0RERERERNHBqlXhKC7Grq7dbMGRbHTr+hkkjhN3dpagRBVw0+I6yJCHvz2+0uua1g4dLrwA+PQ/+M+n8AgiUIzJezA1FdZjLfehZOVKwB1gTUem3JpP4isARUREREREFKkoBXL8ZLpIlZ0/P4GZxhBEZki4bPt5IDdVTxTWscnPG9AV7dH3N2q5SLI/dn6CT3edD3dCQHY3dN20EevNEc9r4eP8pVrIbe7d+1g+mpkpxrG97ZCRZB/3nmfjeG2jyPua+ntu0uzHYwVP/J2b4nEOA5zPNSSVwYKdnxiRHHdgwb3/3Fv1OdiP1XwGrOlVn8V0DLzf/owoUk3o/gG4MHdS5Xr2df1dr2jx2IfX8fmb52ael/9lgiTPCy5ApnHBzftQ8kkJStzBQBdS2+9CcZXn3v998XxOvJ51h3Os1vezE49j83X/9XFl28+PgUciIiIiotoojECODoTowoD/wpgqPPzmAnxqVaF5CegXceHBvn+rwCL76YuSl8z9zFcFvK7GdLs8/M1eXeT5SNJnCpH/6S6kppnn4q5WVYXv8/eoFpLdDam7KrM5jAwPqQ4SEds1uhF4KaJzDebaRpu/50adWz9gvkx/fCXQd2QQAZkYnUOHC9WWPkW+BAs8AgsWdaypG/U5fIb2fa92F7A9qjB19a6WVYilb3lWHTKesbeW45Nl0yvXw2f63vq7XtHieQ3NKnu24IjjPJvsq9G35GV9/EFUi/SrEMUl7dV7UF67kGrchzxs3KSzzzyCq96c7ou/58T5HKv1/eweJChtCfb+h/PeISIiIiKieBNxGzl+C2O63YrKoML5VdqWCZ19/8+bBTXZz66V+I8+lp3L3laF3NiqzMBIR5oquZUU6xl2TudvqxbSvVt7fPpW5baiUx3Edo0eL0Y/e4ZAqKr12urr6Pe5Uef24nIYiRY7l+MtVXA3C/N+xOgczGpVn5jHYgT3VNm4vz2yqY51hd5p3ka1T1sVN8mwqVIgt5Hl3dkl2eiWWnn8ovutN0iErvL5j/r7zIuxD1v1Qfu19zfPzqiSeEPUMkHcARQJ2pSUGPehqMQMorjbx/HJ4b74e078nWN1vp/dgwTytKDvfxjvHSIiIiIiijvV0EbOZ3jJXgCJKDskjlgZGNm2rAyffJy/O3tDCuhq3TwZT4PLnuERLUaVpVpQYJNzd1eFEcE8NxJE0y+rXTau7tse7aWRZiMg8wTuVeMIpp0fqQYjmVLGuT2Olbv0dA95+M/K9kZmRYfcq5DqDhgp2bfiRrzsFUStBe+zndLosGS6jDSuV0RVq4QOoHRPa+/OiDMCrKkXVm/7ONX5fnYU6v2vyfcOERERERFFIraBHKOh3fNjUM3Di+ynfV9crQuGUvCNffUfnYFxY19bVoYXx/M3171gpFVAl/H26NY/zXlb4dIBEjNjqAgl9qCOZDLol46q5dpa1VZ0honf58bWM5FxblaWhJ9zi8U5yPZ3rcRj9sKzEZSxtfPjJC0N7XcVqyNWjHMwplZhZn1djas9ghLqWnlXl/N7vaJE78N9bh0GoJ/VwLe/eT7sXDYdj62srJoYNiOA0hfyFnRnxMmxdO2Lvh5BwSD5e078nmM1vp990ccW+P47vXeIiIiIiKg2iXFGjtkbEWxZC5F3MW2rQqAGs5qG2s9Ln6Hrjea0m1XxznfVGbMNDWP9KDRAKgXtXeqf8zf/zudvFNJVAd5aV8ZTu7b3s61Q2K6R0XaG1fWybntFX6eZ3eBwneyCvbahst/Hq1DyuL2anr/nZhdKUs2Mjpn24I/fc4v+OUibNbuqFNKlAL/Lo20bn/L+g5Xoi3vlOEemocRnRo4i1V9KzkfXEquxarNKVVdVaL9R1pXh/gHo4Pd6RYu5j1Tr+hrPlXXt/c2zcVcnk+ylXXgr4i7NzeutboQt60Xe4+qHY/s4/vh7TvyfY2zfz4EEe/+d3jtERERERFSbJFx+RZ8K/ZqofpCqTb9Jw1tWG0txTHpE6rYx0oaBibJxmxEwtYK6RERERERUW4UUyJFvcn2RaiXVoab3b3E6DlHdx+Itno/N4u8YRayPU4IjN6auxGOP6oZfw1At5yABp5HA/AiOM1Tx8h4LJND1t4u3Yw9FMOcZ3PkxkENEREREVFcwI4fqgXQMvP83kLaITdIwbDxn41jHK70VseBN0cBADhERERFRXcFADhERERERERFRLVEN3Y8TEREREREREVE0JGRld2dGDhERERERERFRLcCqVQ4OHDiAU045RY8REdWMDz9ag4t/2kuPERERERFRfcdAjgMGcoiqR0HBdv0qNjIyOutXtRMDOUREREREZMc2coiIiIiIiIiIagkGcoiIiIiIiIiIagkGcojI0emnn65fUW1UUVG/a85mXnAefnpRluMg85s2baqXJqJIxfpvBv8mERERmdhGjgO2kUNkfmjeunWrHosNtpHjX7ht5JSVlaFLp6P4ekdTJCZGHrNv3Lgxjh07psdqBwnWTH34ET1W1ZSHHkBSUhLW52/CkSNH9FQiCles/2ZUx98kIiKi2oAZOUQUlhMnTgQ1xCtfx2ofarOTJ0+ib9Y+PDr2B5zf+XDEmTmStdIhvUO1B7fbtGmDjFNPxalqaNMmWU+NrtFj7kD3zK7MzCGqBoF+F9X3LEIiIqJgMSPHATNyqK6b8f8ew32/vVeP+eb07acEOh7/058CfuhOSEjAb+65Bw0bNtRTqvKXkVNeXq5fmazMEqfpvvjKyLGO359Ax11dQs3IkUycrDMP4P6b9+ONDxrg2TeS0bx5c+NeRKJt27Y4pdUp+GHXLhw6dFhPjR0J3DRq1Ai7d+8xxlNSUnD8+DHs3VtqjAcjUEbOn//0/7Bv3z7j9YmTJ7F+w6fGayKqKpK/GUJ+b7dr3x67SkrQoEEDPbWS/O5qn5pq/I5x+p3OjBwiIiITM3JClo3b/vwEZrqHSRjYQc8KRYcBeCDcdYkiJB/IT548YfwMh6wrwZDjx4/7HWQZWTZUEiBq1aoV7rzzV3hmzrP466zZuOOOcUZBQAZ5LdNk3q9+dRfatWsX0je55vGfxE033IBRI0d6DDJN5oVz3N7k/IMdokGuzdmdDuG+mw7g3fWJ+Ou/mhuZJpEGccSePXtw6OAhda3bo1mzZnpq7LRo0dII4kh2kQy7d+82pkWLXJO7f3OfEeiRoWFSkp4TqnQMvN/2N+H+ATB/reu/FbdmG2PeOuROCuLvh2wjlL8TDsvz7w1FKNK/GfL7WYI0v/713ejatavxnraTII5Ml/myHDNziIiI/GMgJyy7sPLxuzFRfeB4bCXQd6T1wT0EO5fjkV9Px9KdejwkoX64J6pkfSAX4X4wb9AgCc//7W9GsEYVic2JHhKM4MSL8+cjMbHqN6+BtG7VClOmTsPmzZsx4Vd3YuKEu7B9+3bjw70M27ZtM6bJvM1ffYX7f/cgWoWYQSexjbYpbeFKT/cYZJp33COcQIusI1k/wQ6RBnMkiNOp3SE8NKoUG79OwGMvN8cpp7Ty+c13uCSYIm3JtG+farSZE0tJ6hmzF/bktUyLBgniSJM45T8eiSzIZQRIfoPUt8y/B8bwIpDpjt3swq7Uq3z8rs7G1X3b69fVIODfmygFjKrg36q6IBp/M8R3BQWY88xsDB8xAt26Xeh+f0sQ55xzzzGmP//cc8ZyRERE5B8DORHauextbGp/ATL5QZVqAfsHcks4H8ylgdjPPvsMj/zhDyjcucOjMCyvS4qL8Ogjj+CTT/JDrp4kAYlf3HAjli1ZguXLluLI0aM4qoYlS96Qr3WNYenSJcY0mbdULbN86VJc/4sbjHWjTQIsf3riiZADLXJdfWX93HzTTR7j0cgAkuBWm5aH8ftb92F7USIemtMEzZpHN4gjZD8lJSU4fuwY0tJc6t420nNqF3lG//XvH/Ddv/4TQSAnHQNH9kXJS3fjb3l6kti5HEtt4+py4YIL0/WYlt0NXTd9hk16lCheRetvhrzPmjRpgi+//BJz5z6LYcOHGcEc+TLgnHPPxQ3qd/68F17Ap5s2GsuF/74kIiKqHxjIiSrz28fbbpWU+VvRXSYZ39hWpt3f5v6m1uubSo/l9LoGz7T927JlvRvQFe3R9zdqmpG2772MuSaRtzG334bxd9xRZZDpoZD2C6TdlWPqQ/iMGTPw/nvvq6kJxofvjz78EI8++iiOHPlRLdPCb/s1vkgw5rzzz8eHH65GUsOGmDx5Cv7+0st4+R+vYP7fXzIGeS3THnposhEoWr16Fc7v2jXkQM7JEyeNAI19kGkWGT965IjHz1BIWcSe9SPtQ/T86U+Nn/4ygEIhwZVWzY7hj2NKUXqwHJOebozGTZONYFssyP6KS4pRVnYSLldaxPs5/bTTfQ7WvGiTZ3T//nIsWbIbO95dh7LS0vAKjR0uxAXtP8NGexDHh5IVb6Ok79Wev9P7tcfKFRv1uKn7rZW/w31Xx5Lf/bZ5jn8zfLH/vYn0b4r38lcayz6Qq4NV2bfq6mW+tku1TbT+Zgj5WyDVMr/68it3MGfQoEG44YYbjCDOpk2fqvnNQ/6bQUREVB/xr2WEOuReha67PkW+O2W9PVJLXsTEXz+P9fJB9jfmN7ZGyv3jK5F6o680c1nuAnyqq2tNfAnoZ3wolg/Tv8EFnz7uTtv/W14e/vbrl7HJqt71vCpFZF+NviUv25Yxt0rkLblNG8chVFL4leo10ij4woWvuYMRL730Elq0aKHmhfetqgQKhHyYl9eSfi8BGl+DzJNlrA/+1rrBkEX/8te/VqniJNNkngR0JBPHHK8wfsp4uCQIdGWfKzFu3Dj069c/5KCQP9Z1kOvdpGnTmAVxatrWbZE3cirPymsLduHo0XIcapiMXaoAGXbBcVcxivRLZ3nYuOl8dLPiGBIAgv1vhmn98/r3v/x+7+pdHUv+Ftyg3lz6d77j34wgVPl7EerfFO/l/4ulj76sg1XquG5Uh/nocuysshz/MNVGvv5WWEM45L0mwZwvPv8CK99+G70vuQQfvP8+PvnkEwZxiIiIQsC/mGHR3zD++Qnc23eX/tBq2YVPPyk0X3ZIRSps39juXI63NrVHapoetxjLVW5z5o3no32qy/zA3/4zvLVMb89JcTF2db2h8htRIgeSDu80hEuq78gHcwkiyNC8ebOIAgmyDam21bv3Jcb41N9PwfBhQzFs6M+Nn/bX06b+3lhGlv1s06aQA0cjb7zRo5qTDDLNcusto9zj8lPGwyFBp379+uGq/v2MoEufK/vgmmsGGG1DREPpoYaY+OdGaNUceHjMASRUHNVzok+ucVpamtFOUlFRsXE+0bKzcCcKiwL8vouAHPuuXSewYoXZE9bhJu2w+9//xvHCQrhcYfz+bJ8G9Zs6oPUrViK1n9mWWvf+fVHylv1vhiaZLEYGjGSxeLpgpBnQdwdUnP5mBCOYvxch/03Jw99eAm5Ux46X5EsMqit8/a2whnBJ0Ll79+64sm9f/HflSlxy6aW4+KcXG78niYiIKDgM5ISlsrFjM/MmGj7DS/rbT2MI5dtLoyHLuzEfI40P9axaRU4kHV7aN/AewkmTD0Q+lEvWiTUE+yFdvpF99ZV/4OprrsHAgYOMHkxcLhdGjLjeyPSRQV7LNJkny/S/+mq8+uorIX2bKzEff40dJzVMgjTqK+OyXfkp4+F64/XXcfttt2G0Gm6/7Vb8+9//0nMiI8EJ6ab70LFk/PbphujU/iR+d/NelJdFP5gj+0pV17xRo8aqrF+k7qs0dh1doWRVhUru4z/+UaKOW7KXgKanNEXFyZMoee45dO9xkV4qSDs/wae7bJk2/siyuACZ2QPQL3Ul/uP9612qSUkmi/H7/3Gs3KWnG6RR5F0+AjVh/s0I5u8F/6aQFu2/GWbDxufihhtvxPx587Bw4UI8N3cuho0Y7tEAMhEREfnHQE4s7SxBCewp9epDfFcfbSro5aqkxuuCQrAp8zuXTcdjqgSQmhbGN8tUL0g6vLRvYCfj4abJO5GgzWWXXWZUVXrs8ceNn32v7BtUMEcK29I70v2T7sOpp56KR2f8Pzzy6HQjcCPry5Cenm5Mk3myjCwr3WOHEsgJVlJSQ4xT10h+hkOqaEnhRao8tW3bFint2qmfKUa34HIu9jZ5wiUBFqnmVlTaGvf/tRHO7XwCdw/fqwpF0Q20SNfjcty7dpXg2LFjemr0SGaXDLEg1+i774/h3ff2oVGjBEyc2AkX/cS89qVvvom0igqcc845xnhwCrH0rc/Q9UavQIf6PT+wSuBDlt2Fvjf2BT79pGo2Tloa2lvVtIxMTGOqtgufvjgdL8GWIeP0NyMEwfy98FxG2rxx6oFKV6n69cvAjYHa66HaJJp/M+T3ndmwcWWbOG3Udr76qrLNnG7dukUtU5GIiKgua9D5tNPMugnkQQopvrvXTUfW1Wfg8IersOWgnuTmPa8I+Z81wDV3jMPPru6Pqy9ugY8e/wveM+bZlzWXu+TGG83lZOiwG//J34Itq3ajy/g7cLOe3mH3CuQXFaFBh//D4CF6ucRrMPO3Nxnzc07fhkV/+UAVG4h8k4L4vxYuRO7AgQE/kCcnJ6O0tFSPOZMP6Af278d5552Ht95aYVStkupRBw8cwE9U4Xjxvxdh+ZvLjPeUFKjt9u/fp19VkoCMvAelweNF//4XXn99MfLy1hvblfU/+ugjLFr0byxetAjrPv7Y2L9Tda7WrVvrV5XkG+V+/ftj+bJlxr5kfWs4fuy4kQ0k5yENKVtVx0LtAUr2cVW//uo65xr7kqpVvoZrBgxQ+63A23p/3r7fsQOdOnXUY87kusg12FXaAF9uPYGRuSfQstkJ5H3VJCoBLglCtTylBX74YRcOH/5RT42cPGOWpk2aGoNd6b7Az5+TTh1cuKLPlcZruX9//Wsh9iYU4vQJb+OqzLPQvPgQ9r//vtFgUoODh9BuwDX4UD1bQSvKx3/sv+NlOHMr/rXgaxz0/ntQVIKkrFOw8Xnr97Nt/mY175IbcdPPZP0fsfVwcxzeKOtVLvPeB5vQ6ue/wfhLGmDTqg/wvs+/GVDL/xQ/vVhPU0NW0ib87+uWlfvqcquPvxfB/E3x/JtVufxJJF39M5zx0Yt47est2JXUH+N+foo6RrkGXtvND9yiEMWfaPzNkEw7aeR9zNixeOG5v6m/D5uMNnHkfSm/t4rU55rCHTtx08iRxt+OHw8frvK3QgT7N4mIiKiuS7j8ij6xy2OvxQ6oAqg04ho78u1mN2yMWtUsotCU7t0b8FvV008/HVu3Bm5gVgIgBw8eRP/+/fG+KhhLwEamHTp0yMiYKSgoQMuWLX0GFAoKtutXsZGR0Vm/qiQ9aj3+pyeMQoR3YUEKHPKN8G/uuVsVYMLPDpF9PPb4E2p7gbOQEhISce9vfO/vw4/W4OKf9tJjgcl1//HHH9E3ax/uvuEkpjzXBl9819JnoShYUpBzpbmwe89u43djNAXqmSqSBo5/elEWpj78iHHu3249hj/+602svnQSfjhh1l3q1uQ8XJefiksW7EKjwyfR5Pe/x9yV/0X+J58Y84moUiR/M+T36tGjR9GqdSvs3bPXCI7b/x5Yv7fatG2D/fv2O3ZBHuzfJCIiorqOgRwHMQ/kSMOW/YrxmEdDyUTxJZQPzfJB/Nixo0ZvVdYHdPnwLm0eWJk0vtREIEfa7Ckt3Yuyk75T+BskNUBychufGTLBCrQPO3/7CzWQI+ReHD58GGekH8b2kpZGgCiSQI6Q4FwsqlPFkhXIkYDdQ6uewRxMxvHyqtXNTmnQEtccvBD9tnXGKWdeh+kzZug5RBQKf38z5O+B/G6Svw++fh8Fmi8YyCEiIjIxkOMgZoEcadTyN33R3mgweTqWMopDcaw6PjTXRCCnNgknkCOszCJfWUf1ReYF5xrf7A+6djBS07y7C/QkBchDh340MoD+8pen9VQiCkWs/2YwkENERGRiIMdB7KtWEZFgIMe/cAM5RERERERUN0W/ixciIiIiIiIiIooJBnKIiIiIiIiIiGqJhKzs7qxa5YBVq4ioprFqFRERERER2bGNHAfSRo70tkNEVJO+2rwFF198sR6jmrR3z279ioiIiIio5rBqFRERERERERFRLcGMHAfRysjJzdyLCblFOKWJdAcsXdyqn0hA8b7G+OXznVCyv5FekoioKmbkxA9m5BARERFRPGBGTozd1mcXWjaWIE4iKtBADXLJk5Daqgx/uaUQzRuXmQsSEREREREREQXAjBwH0crIWT3tcyQkSPAmEWXlkosjwZwEIzMnIUG9rkhQ8xKMnzJdlpPMncLSJMz/oCXe/rSZbIaI6ilm5MQPZuQQERERUTxgIMeBUyCne3Y21ufl6bHAPnz4KyMbp1yCODpwYwRsGjRFkw790Ti1F1B+Qi2p9lV2HKhQg4xXnMD+fftw6e1rzQ05yZmAF8cAc25+Eqv1pKpyMHH+aGTpMbHh2VGY6bxCDZJjHYTCyZOwoEBPqkKW6Y51fs85fDkT52Fsph6xKVo2Bfc5H1QIrPtRjKV+z7OGGM+UXID8AM8VVQcGcuIHAzlEREREFA9YtSpEWdlZRjAnWM2yn0GLi1/BKTkvoeVP/4ZTes1Gq55PoVX2NDRudyFwYg9wcq/6qYaT+4GyQ0D5YTX8iFYt/N2eDAybPg8v9gA26Cn+SdBgFEberIZn85E1ZgJy9JzQSBBiOoZl6NEaF/3jWT1TX6eb56prW3ndQgviBDouCZLEOogT5rVZ/aQ+dyIiIiIiIoo3DOSEIZRgTgKOA8e+V8MONewEjheqoUgNu4CTB4CG7YA2VwGtLwWSLwfaDgAauYBynZ3jqAALJo3CyJnr9XgIVq9XhXQXOsRNMIaIiIiIiIiIgsFATpiCDuaUHzGDMsZwzOvncVS07oPZo37E5vXtsTmvPWbfdgIVbQfq+Uf1RqIspzuyivKw1soGyRiKGfPn4UVjsGfq6KwfPW9ijlUlKA0Dp6lpE80lpSqStYw1zZ0NMmyCe94Me2qIbZ8zhg11zhxxPDbh+3h8r6OPJ6dyniyeMWy6Xs7r+Hypsl3z+rjXkypJ04eqqQ7H5Si0Y/N9vYO7V/6uzcSJsj/va0xERERERETxhIGcWNMBG2OokLZv9OvGLsA1CuVlFfjmo8N4rP/XavhGvT6E8pPlqOj0a6BJgMBCSHSBXgrwPdZj5KSFMOM4qhA/LRt57mpXwLVG0EACA1ORvWGKrmYkbeqsxkx7dSPdyI5HVaTMQbaAjNpnutqXsd18uHIHVwYOpuWi6FlzvVnIhr39nkpOx2bxdTz+1lHHMwiYpY8na8w8jMdsH8fni6/tAgsmzUWRsZ6aL20VGdfV93XyL/hj83m9cwZjYPFcPd3pXvm/Nq5C2R/bxKHgpaZ2RZ/h4zF58mRMHt5VT/UvtWsfDB+vlpd1jGE8hvfpilQ9n4iIiIiI/GMgJ0wb8jYE1+ix0XCxBHEkgHNMN2ispjU7F7Nv3I7fnv05Ts1OwWPfDzSGU7Pa4bc/2YJnbioETumpNxICxwwWXaCfvAxFmd0rp2ekw2UP8ozJhCu9o5p+EbJd+XgjmEZcJBPF2J9kgNipfS7SYQF7dS7ZZ9EyWLMKFixR83xwOjZ//K6jjme2DmAZx1OMPCstKVB1M8ftrsbMZ4Gx6tzxbCRBkBCOzdf13lGo7uto/1lFAa6Ne39EAXQdbgZhxo4dgt5np+ipgaX2GY+xQ3rDc5UUnN17CMaO78NgDhERERFREKolkHPixIkqgyXceTUp6CCOsDJwjOpUOqhjBHQOoc/Ytjj4w0mMnJONOSPW4Nnr1+CmZ7JwcPdJ9Lmjtdn4cagKFuI+nZXhM7tCzZ+1zOWV2SIN71rrqCGU7qwkcGT0miXrTsHSIj09asI5tgjOx69YbTcETtdb3/dZGGcEaZxrc8XBOVCtt+u9RVi0SA+rguzJKbUPftZbIji7sXnVHMyZNg3TZJizCJtlEym9MTbIrB4iIiIiovos5oEcCb48/qc/4bHHH3cPMm4FZsKZV5NCCuIIe7Uq67UxXqZmVvb8npAg/5mvTWpeRdXuz6NBMmCKcseZVXIKClGETK/AjlLwMfKKfEz31lGyawqxQ14bWTzGVP9kn65cDNHBhoxhg3xXrXI6Nn/CWScYjtvVVapunguE3RNYCAJc74IFk/DQsmK4fKUWxeraUL1TUrIJmzbp4Yc9eqp/XS/vDSOMs+pfeO2dEpSYk9XGNuG1WYuwWV6ffQn6MC2HiIiIiMivmAZyKioqcOzYMRw/ftxjsAI14cw7ebJmAzkhBXGU/ftKzcBNmWTk2IbERnhn9m60TEnCi2PzMPofPTH65Z74u3rdsl0S3plTisPHm+qtRNtqLFoGDBwnDfOuxszJaiR3qq6uowYjnUN6xZL2Xyqnm1keq7EuX1fPkQmrF2MpcvGwLDMuHUVBZeRIdSSzHRjZ7njk+a5a5Xhsdl7HE9Q64fC13UEYNn00XMsWq7lyTV0YazR2bC7veVxR4nS93dWt5uHh3CJdJa66rg1RIF1x7tnyczP+9447hGOzCe8ZmT0paNfenEJERERERL4lXH5Fn8q0kCiSIE55eTkO7N+PJ//yF2PckpiYiHvuvhsnjh8PcV4D3Pube9CsWTM9JXYOHDiAkycjz4i56vwjGHnZEbRvJRk2CeqKJ6KiPAEN22ahxfm/RnlZIh7sXoQDJZKhA5zSvgEezuugTrYCz835K55//TNjep0m1YWmpeONetPQbg4mzu+OdXF9vrXhGOuHrzZvwcUXX6zH4lDX4Zg85Gxg8yJMe22TnugltQ/Gj+2NFK9lJPnGHdbR29m9ag5m+Qz21Ly9e4KsRkZEREREFEMxz8gpryh3v7YHZcKbV7lMbfH2Z01x01/boP8jbdH/UfnZGldPb4Ur7/0WvQb8Cht3JCLl/Ca4do7LGOT1pztUMTp3fP0I4ig5Q3IrqwvVG5kY69Tlek0zsnu8G64mikD7dma1qh92mePoiuHSWLIaxlt1qXb9ACMnhyk5RERERER+xb6xYx17SUhIMAbrtbDiM8HNq1ymrpAA1V//+lecekspdpRtMoZTby01ptkDW3WPdG2uq/aoYWxmvu62u75YjZlGY8OTEEynYNVu9ZO6MWRm41CMdD0XRk0rhYEbIiIiIqLQxLRqVVlZGQ4dOoT9+/ahrNysOpSYkIjGTRqjdetkox2c0OY1Qdu2bdGoUSNjWixFq2oVEVEk6kTVqirLpKLP+LHonbJbTZoFc5Lv6lfxhFWriIiIiCgexDwjp2HDhmjVuhXaJLdBmzZtkKwGCdTI9FDnJSeb84iIqBbR1aYqleCdWdL9uA7iiCrVr4iIiIiIyJeYZuTIcPToUfx55kxbVaEEJCYmGA0aS8ZOqPPu/c1vqiWYw4wcIooHdSIjx2gTZwjOxmYsmvYafC2V2mc8xvZOUZuZVhnciTPMyCEiIiKieBCzjByrbZvy8jIjIFI5SPfiJ1FWdjKsedIFeW2Sm7kXbz34Odb84XN89PDnWD31c6ya+gX++etvkdrquF6KiKgu24QvNsvPs3GJ1bixh664vLfk42zGF3EaxCEiIiIiihcxC+RIJo10P37i+AnjtX1Qc9W8ijDm1T639dmFlo3leiSqM2ugBrnkSUhtVYa/3FKI5o3NNoCIiOqyTe+tMnul6j0W4/t0NboeN6R2xfDxkq2jbP7CZ7YOERERERFVinljx/v378Nfnv6rEdQRkqWTmJiIu3/9axw/fizkeVK1qlmzZsa0WIpW1arV0z5Xxy7Bm0SUlVcgwQjmSKaSnJN6XWH2yCU/ZbosJzGrwtIkzP+gJd7+NPbnSkTxK96qVnUdPhlSkyogH1WtrOpTPu1ehTmz3kGJHo1HrFpFRERERPEg5o0dQ4eJrKpW1mthJdkEN692dj9uBmsaoKxMziBJvZZATSISkpqjyanXofVFj6B1998jucfv0CbrN2iTeSfaXjgWXS8fiYfuukJvxRfPLrxfnD8dwzL0LJ+s5ScgR0+JD/bziLdj85QzMdhrTUS+lLwzC3MWrcLm3faAyG5sXrUo7oM4RERERETxIuYZOYcPH/boRlyCMY0bm12MHz9+PKR5TRo3QZta1v34J8snIqFRsrogalsylJ/Qr48BZYfNwT1PzlUN7vGT6DbiI3NDVeRg2LAdWLCgwHg9cf5oZCEfc25+EqvNBbxIwGQqBrr8LVMT9HFhGR6atBByNjGTMwEvjsnEhmdHYWaYFyBj2HQ8nAssnTwJxqUnirG4b+y4HmFGDhERERHFg5hm5EhVqKZNm6JtSlu0a9ce7dvLkIo2bdoaAZuQ51VTEMeX7tnZGDNmtM9B5jlJwHHg2Pdq2KGGncDxQjUUqWEXcPIA0LAd0OYqoPWlQPLlQNsBQCMXUK7Wq/DXGPJqHcQxX6/Ll58udGCmiKOcHpn6FREREREREVHtFLOMHCFZOceOHcMTf/6z8dqSkJiI39x9t9H+Tajz7r3nnhrrflwCNlnZWXrMtCFvA9bn5emxqjYuvUVdCMmysTJt7D/LUJE2Cs/cuB19xrVTS1fgnWd2444XOyLhu8fU6HF0u+Fzc0N+BZNt47VMxlDMmJYLV1ExilxpcBnLFGNDPpCVmWaMIX8uRkrqirWsORUoqsyeMTNU9PKaO+PFz3qVvDJyonJcVoaSppafg9EYa4/jBNqG93Sd7bSDGTlUzZiREz+YkUNERERE8SDmvVYd+fFHo5qUfTihf4Y+T7ogr7nuxyVgI4EbS6AgjkEya6yhQqpV6deNXYBrFMrLKvDNR4fxWP+v1fCNen0I5SfLUdHp10CTYNJrrACNxCAWh1FlKg+zbh6Fh5YVq9dpyMISjLx5CpYWqdHMQWZbMAULcZ9aZqQMz+ar487FeJmRM8EI4hQtm2LMm2NkBVlyMFECIRIwkfUmL0ORWu/hicG2ghP+ceVMlCBOMZZO1vNmrsbqmZXHJ4EmI4gT1DFa24mn6mhERERERERUX8W0apURzKkwe52S1/bsmvDmVS5TU6xgTlBBHGG0iSNBHAngSLs4OqDT7FzMvnE7fnv25zg1OwWPfT/QGE7Naoff/mQLnrmpEDilp96IE8k8MYM4Epy4z0oRkWySYBtBLi70yJApKtyh/i/ATomf2FnbHFOZ1mJVVSraaW5hR6FtpZzuZkZM5mjzODyyW4IQwXGZx5GGgdPmYYa/kw/mGIvysJaZN0RERERERBQnqq3XKl9ssZsq/M2raRLACSqII6wMHAniWEEdI6BzCH3GtsXBH05i5JxszBmxBs9evwY3PZOFg7tPos8drYGT+/VGfJFMHLP6UJXGe+2ZKjdHXgXI6K1pWi4gmTeS+RKEjA5mSMTK1nEPHgcaGafjKlgwyT3uyp2KF6cPVVerquo4RiIiIiIiIqJoin0gR5Nep8zuw21djRv/hz6vVrFXq7JeG+NlamZltEqfoo2aJ23pOMkZbGTiSFsvsY07ZKCD0TRNMfLWFriDH8LKwHEZLSxnoGdWZVs5BWvzILWgXLmD4a6olDM0it12Ox+XYfWTGHnzXFRWhPPKGFJif4xERERERERE0RXzQE5Sw4a4ddQojLp5pDHcMmokRt9+O5KSkkKeN0bPq0327ys1AzdlkpFjGxIb4Z3Zu9EyJQkvjs3D6H/0xOiXe+Lv6nXLdkl4Z04pDh9vqrdSlTtwYVULMoYA1ajCUoAFSyS7xayqNN7W1rNkvsxRs4ysl/lTkQ1boESygqTNGWRirHV8Y5x79wqd83EZmTrGPnVbObPNBpYLFiwxAjtZY9Q8aQcn5sdIREREREREFF0x67XKatumrKzM/drKrmnQoIGxTDjzpEvz6uCr16pwXHX+EYy87Ajat5IMmwR1xRNRUZ6Ahm2z0OL8X6O8LBEPdi/CgRLJ0AFOad8AD+d1ABIr8Nycv+L51z8zptcGVg9WVap6+eXVa5WeGq/Mc2SvVVR92GtV/GCvVUREREQUD2IWFbGCL5JBI92FN2rUyPgp45HMq23e/qwpbvprG/R/pC36Pyo/W+Pq6a1w5b3foteAX2HjjkSknN8E185xGYO8/nQHkJM7vlYFcdQRY4h0Q160DIvCqeolvUXNn1BZxSkOSaaPd1frRERERERERNUpZhk5tV20MnIC6dq1K66+ur+xP3HKKafgP/9ZgU2bNhnj8U16zTIbXDYU1Y6sGqLahBk58YMZOUREREQUDxjIcVBdgRwiIn8YyIkfDOQQERERUTxgIMeBBHJ+OO0neoyIqGaULP03AzlxgoEcIiIiIooH1db9OIWnV7tWuDwt2XGQ+c11A9FEREREQcvohScevQaX6lEiIiIKX+eh1+OJCV30WGwxI8dBvGTkSLDmhhtH6rGqXn7pRSQ2SMLa4r04XGb2fEVEdQczcuJHyBk5nS5Bi4GD0fgCF5L0pJOfvoH9s1+FU8XdJuP+hFZq+ZOfzsae2f/TU6tX0uA/oW1/F47O+wX2r9UT64F6d9451+CJ0achvWgbZj3zJj5gA3dERFQrpOD6R4fhOhdQuGwl7l64RU+PDgnGTM9NVtteoLYd2mc/a13kr8SIJ6N7XN4YyHFQmwI5Awbk4j8rVjCYQ1QHMZATP0IK5HQagbYPXOsO4HgoycP+3/8JR/Wom32dkjew5/fOAZ/Y6YwWv38EzVOLcPiRe3Doez25Hmgy7h9odUE9OW/JxJmahXRsw6xRb+IDPdmXzjm9MHTgach2qQ+mhlLkLcvDQvXBebue4pv+oI0NmHT/mgDLUrRdOmE8xmfqES+FRaUoWvo2Fq7eXfW+5FyDV0efpkecORVwQnperOewyPkZcSpQ+Tu/SqV4fcoreMUWpKze61JZ2PRUqva1D+uWrsMral+xUvVeqOPL34DFi9c4Bm5Dun+2a5I3dxYeq9JrbRfcO68vsuWlV6HWXdj1we990EL7vVR5HI7PrVPBPaz7Hs7+bNcqSL6uuc97XrQNi2MUrA/tPkSR+2+YCPx3LFSOz0OQIl0/WKxaVcu1aN4cy5cvQ3nZSWS2bamnEhHFXmpqV/QZPh6TJ0/G5OFd9dTAwl2v9uiMFreZARkjs2bcL1Cihz3z8nD0k39VDeKI79fgWIm8KFLLrKmBII7ohAap6kfJOhytR0EcuWdJct4oxMk6f96qcHmHfACWQq7/D7+XTlAfRkdneRQKgGRk5/bF9BhWyZLCwb2PXo9X543Xg5mq3lnPj7ZzOp2Lp/peiY1DBuvhSrzeqyPO0fOjoyOecm/fYeh7bpT36Vu6up/Zo4epe9grqte0pp6XaInVdakqWe3rNFyn9vVqTPal3uM+74U6x8wsjJ96Pe7N0RNsIrl/2d19VCXJOSOkwIQl0H2I5DjTc3tU63NYnfszgge+7rl61sZPHR/136E1+n4v+AbrisyXhcu+jWoQJxq2L3wFs/Ll/l+F6zP0xBgIKyPnwpsexdBzv8DC+/+OT+BCv7vvwmXtfsD7Tz2Bt9RFNea3ew9PP7FCfRz14uqPiXddjt2v3Y+XPtHT4lBtycixk+yc94pL9VggHXD3H+7HLWl6tHgFRjy4BJ+jB55+7mZclj8fXf+6Ts+sdN7/PYRXBwAvTH0YTzh+2JVtXI2tfpexc1i+0yAsmXIh3g16O0R1Tzxm5HQdPhlDztYjls2LMO21TXrEt3DXixdBZ+RYmTWfzkZJDVWPClttPvZI1KPzDvabQms58xvWt7FQLWt8w5rRBffe0Vd9eFev/WRShJeR45TBoEW9GlgrTOx7BW5x+h7sYBEeXLcWS/br8YhIIKc7LtNjPh3cghErv8CXejQSVuZJ1W/tU9A550zcpQpg8m12lefAykDwe2+rCut5iSAjx5P13FTNwPFWvdfFOi6vjIGMFFx6UQ8Mzj3NzCgI8Vr7Z38PqXsx157ZovY7VO/XMUMmhPvnka1SNSvCI/vJYX9V76v/+xDe7yXPbBdfz5Lj8YR13yPYn4fgn+vKe2He88dsmV5m1owEXILYTpDCuw+1R3D3JxD9HMTwOoSVkVOy6wf1fzu0N35JpKJ9O/mpxo1vsy7E+ecCP3z+adUgDkXV8eNAxTH1X6gkQPLc/Th96Z3oerse5gD9e+n5KMF219W4u5MedeuBcQOMm1w9vl+CQbcHChg95OM4nQS7fKjbJapfdr23CIsW6WFV8H/gwl2vtknK7mFk4xzdUAsDAukdzEyionoWPa83590FQ+XDt/pg+ZTfD6d6OSVv7it4zPqQLgq24LH7VyJPXruyMNTHN/umNuhofE4M3qUTdAG0aBten7sAI0bN0sMCzFpWqvan5kWxesCgXjqIc7AIL6x/F90WLdbDu3hw80FA5kUliGMjwRr3fryGKAVx/FP3cvUa3D13mzGWnt7G+BmZaDwvNS0W18VBwW58sPBN3D1lAwplPJrXJaeHDuJswyxVaJcCfWUB0tqvem95tN0R2f3Ly5drdhp6eszrgp4SxFHzjHWDpu+DvjbpWWfaskgifM70sVRblkw17u/S7mZArXCZZxBHyPV87P4FmBSlIE7deL9Xhy1YaPzdit11CCuQU/Tp5/jBCtxc2BXnqLEffgDO6XqhOthUpKjJu0skjCPZOo/ij4+aw41qtjdX/7vd8/94k7mAZPS4p93d3/i7rSaq8btx403W8jep19ZyN8FcM/D+6oqEhAR8+NEB/PDhBuN18Drg7rH9UfDcnbhzjZ4kvl+CJ2zjBer2XdGjgx7Tel2Iy/I34n09SkT1U0nJJmzapIcf9uipgYW7Xvy7BK1+/yekzv6HMUiDuaLJKHO8crgHTYw5Ws97vObr4fcjzHZyHEk7Nmq5cZe4x5sMvgdtbdtoq+Y5b0MtP+5PXsuPQJNOQJLLrHF+sqjyo3/4PI8zqecIdZ1s+/y9uh5+A+bOx2leuz+hhcP6SdLQtI91na6J//PW5yHbGOwrMT3c44zg/NT8trZrKcu2Guzvnmu6qkPhhm9shTsfrCoRRRuwsEq7F0J9WNcFXo8qFTnX4IlHrepQ+htp9SF2uruKlG3w7tVDrWt+e68KoPe/6dV2iBRAX8GIaLaD0Kkn/mC8VYvw4Mq1mPm9PWKzH0u++C+6LVqLJXpKxFqdAiPD/tCBagjWBGFHqRlESGujnsQIhfu8xKNoXpdACtbgKSnoKdkDo1HFKgXXDzQL9Hlz/WSuFXgFcUO5fz6O01VYahTcPX8XmNvMU/PCUrDXTAhwJeNUY4IS4XEC35oFa5yGwUOltBpr1b0/f3Zje7SC4OG+3yUDT373O1YnlAwk+ftwvVd1JGu67+GJoK6tZHrJ36foVNmVamXGNgKsv/3jbcbvk1j93guvjZyiEvU4mIGbC7ueC3zxDl77/AegXSpcqe3RDl/gs08kSHM9LmsnVbDux8Iv1PJ9dFDGcuFNuPPydvjytfvxO7XM7/7+iRHYGXquVNOSaa/hy3aXY7j+UCxZPym7XsHvXlMbw7nq9VPu1+dLDCnQ/uqQw4cr8PHHB7B709coP3RITw1CpyxckbYRK+1BHB+2vvEfFAwYgMF63AgADUzDC2941ocb/Munsek5Pfyyh55qJ9kttnlGNpC1zmjb9n2xZ8ZIVTBrvafxdC+ZdzMuQypumWJt33sZWc/ivXw/Y9kl/6eDVb1GY9MfBuG8Ksv5OiciIptOHZCUGvpfGyt44O1koPZxOvVC41SdPSJVgmY/glb9sz0K8UkXjFMFex8fL6zlbT1piaQLrkWrB+5B8wvlPPJwLBq9NlnHqX43G0GVUdeiiS2pMyk1W+3TIVjh9zj/hFZZ8jHSV3s2OjjywDg097FuW4fgSJJLzrsIZUYJzk6CdNL4M3B03gPYs9gr/BHucQa4D87nJ8fzD3Ut1f22XUv1CQhN+o9D2wBBQPNb21Ks+9hfNo66iumtjZ9+Az5WgTfzDI9vm9PD/OBlfaNsFECNV7E1qIN5oO+vj2KwphbpfJGu1lO8139QLwiRPC/xJprXJRhWQc8jYBGujDPRw3ist2GtzwK2b+5sjmDun8/j3IsdEnWx3VvzmSjFDrVSmL8Sqoj4ONPaAAvzqi8rpxr398F6M3Bi7CeGbbKIWvd+l+pejw7D9NHqva2ei0rJSM/si+lVAkf+SbWr8ZlqO/krMenJAI06W235xOg6hNnY8Sf4TOIn7bri/HbAD7tKUFQigZzzcGVXYwKkvcZUo87VuRj6qLSpI8u3V8XjSq5UmW8GfSzmOj9glxGGLYHU4mrX3lrrB3zxqTHDYGT9lOxSU02B9ldXJCYmYtWqfThxvBxHG7TAvpUrjWlBKy7G1/qls3VYmd8Nfa1giASA1H1f4fWhcvFfrepZ8/F+pnd1LAms3Aw8p+Yb7e30wNNGmzd6neeA26xASiC9BuCWovnuqmB3rlmHO2Wf6hl5QbYn26+yjF7X4L38W3jiwfk6WKWO63bgIaONIB/bJSLy5/tXbQ0azzYbMpZep2yNHJuDZ09VJxff4zl/npGMjIDZMLoaEC78ldmui/SC9cgDejsPYP+nxlJIcnlHLC5BK1uvWPsfqdy3NMJ8EtlmoKVkZ3QaWtbHKcGJ5hfoQIh1ro+o62Q07OxC84FWZpEl0HG60ERtr+pxmj1uSXBEgjIe+5PrssJct/lt3sEOh4aOjWDLOHVNzG3tX+t9X8I9zsr1jO7ofd0Hp/Ws41kxG3ts68n1PGx88FLXuqe5dFUp6GC0i7cPOwN8M3tquvlht6jQT8DH+sYcrdHB+hC8+k1bdSidXl+0AZPc02yDV9UOoxqGVQBVH7ylsVb3N6ePXo97h0azoc6OuMooXRbhbbnnrTpiYi9bY8d9r8RT50a5seNTWhrHv/2AVOnyblj5XAxqZS4We9JOyjW4y6oasd5+H2ycMqnU4N1QbtjPS1yJ/nUJirvR1ihcl46qYCo/80Np/NX6vRDo/vk7zr34aIOZeWJWr0rBT7PUdSzaho92yHgY3FkfpfjOmBCN4xS6ukuoWTJh3/cw9xcq9btXGteV/UjDxq8+eg2uz4nN/qr//b4br9xf9W/IJJ3N5l8X3DvVarPHV5VdCaQmo2NHc+lA3G0Dyd+1QEEcw2793ojN770wAznq84URYTkX57TTwZVPNuFLtMM557bzah/HzJAxMm6MxpG9mdk0Fl/t70igKHiB9lf77dt3EhvyDxqvjzY6BQc++ggn9uxBmzZB1udNS8NZ+qU/i99YgYyBkqUCDL62PwqWSqDDi2SyGBkwksXi6Yqx9+OKDY9WBlQ6pSHDynSRdW7vhs4O30hXsbMY2zNvrsyg8SWYZTysw53PAQ+rY8dzc7FYTyUiCptk58jPMIIhZoaOr6wQT1Ymj5EFtOIBlEhX5t9bHye24+jSN3zuu8m4cWbVLmnQ9/evevRKdXLtn3QQQYlSIMedcWQEte4xAiHu7X7/P+z/mz7OVH3NtGCO0+B1nEmDf2Vkzvjcn1yXxWrdR2ar/Xp1664zh/Dpx5WBNgniGMEWszvyqkGc8I/TWs/o0Wy283remVnmehK0U8ez+H+eQSd1PQ/p65nkcgp36DZr3AUjJ1aBqRQ7/BbC9Lfw0STHZjSA2xfXyTeeFpfuCcW7OlakDh7EN63Oxet9uuMWl63F45YtcdnZ3fFqryA/3Yegs9ruH+z7Qkv1WagL/tBnMJ7ylZ0WoezR3gXPYRivG9ktzF/p1eBvOGrweYlA7K9LqIIvTDqxMiXCE+j+OZP2hLbrzBOjConODMpbGk4Dr7oKjG5EuWrWR/jHabGOtbrayqmu/X3wpAQ3rAwv3SvavGgHwWvX+73z0Gx3NbBJPqvsmm1GBfN+9wjihNx4ceTvb1/CDuSY7eQoP3yOTcaNMrNn7Fkzn/z9Kbz/g5khY7Rbo9vAsRSteMKsAjW8cr45rR0uu0umDcc5X7yGmSuCexIC7a8ukMyb99/fh7KTFUAC0LhZI6CsDPvefhtnnhXEB5zvN+DdYlumjT+yLC5E/16DcJtrBWZ7V8eSalKSyWJkwDyKF4r1dIPxadpHoGajXl4PwWa8GA0f34lJuNVHtSktmGWIiGIp7EZzO6OJVGsKottvsxqQQ1UfG49j6DTCyIoxghx+emUK79h9s6orHfYOnFi+9xEwCvI4hWdj0peguVENOw/7f++wP/H9/6peX697Ju3PpNqCOId8XY5wj9O23v4A63lmZl2CxrKe+kja6gF72zi2wcoOqo0y2ujqF6fhLqMXI2mo1fbN61xdOMnsG17WgzervRq11+l9VCFHeqd6p7LR4RHri8wP6a7u0QuufP8VXigyG1X2aOz4nfV43/xuDpd174lB5suYKlQFkVmq8HK3R1aUF6dMKjVUf5CjevC6RGIL1kpGSFobXGpUT9PZdVaWkIP0XAk2eAbUjCowap4E1MLvMcifMLJkIrrv1ZSVo2yXwIQ6pklzNyDPKD7rILgEdGKUoRO/dGYYSvH6M34CL95tRvlQGcSRNtxCC+JsL9ynX0Vf2IEcFK3ATMl6cXcxXoS3npAsGLMLcpM1TQ9//8S9ntX1+Cd/95rvME1NVON628ZrvQ2P7fnYXx3zww8nsOmzw0hqmIDrrk3BWR3LjemH8vKQXFGB09N13qGjnXhi6UZcdrtXoKPTINxdJfAhyxbjltv7Axs2VM3G6ZCGzlY1LaPtHWOqVoJ35zyMh2DLkPm+GAXoFnx1Kh8+//fDGLG8BBnqg7cTz2WkzRunHqh0larb5wO3B2qvh4gosCZG2yZFOJYXyp950QkNgqrWZFUDknZsfO/D6jXLHghwT/PT/o7/Bn9D5VBdKYDgj9Mrc8nKhLJn1QTJft5Jg6UtH+P7O3UvnINq4R5n2OfX8yIz+6da7JYEVyXQN4ih90oVkEsV+qTdgfs9G2rdvloVTmLRWG7LluhctB4jVnp2Mf7l92tx3Xrzw+xlHaL1Nep+zFxjNqrs0djx/h24a+W7eMEI5rhwVZSzcqSbbavAaVVFSC/eq65vtArINfi8RCD21yVUUcg0sQqMYTXUHHnGgNFOiysL46XAG1L1Lk+FugqM74BadDIb6mpWjsXsqUo931NW4vV8eb6TkT16WBQC4bXp/W4dQ+DqxP5IhpjZ1boIlNFavcIP5FC1k2ycd9/dh0ZtD8I1dC1Sf3IYSS1amDPLy3Fy1Wpc1u2CwL1YrZmLrlNXION2XcVJhrHACl8NIK9ZjheKN+Jv/96pJ9jIPPTHq8b6aSjwyMgxLf7ro3g3637dkPA63Kn2iwFq3NqvuzFhW5UrNVSpHuWuwvU0Xh1QrI9H2vGxNUrscxk7+/LS2PHNyFi+HIvV9NnL0/CwcYzey7GxYyIKVnjBC4MuqAfusjxwwMdXw73WNOcAk84IMgJE5pTI6OP0F1jxUQ0t+OP0usZhZ0JV7jPpmn8YPY5Jlaf9kgnsp72ZcI8z/PXMYNPRebZ2cRwGf1lawfpO9zTjSvfzDa47iyayD8kGd3sK2zDLqd0Bq/HMaPQmtP+A7sW8CA+u2eG7F6kDB83jaHFKdNvK8Wk/VhSaaTkZLWPXWI5VmERmdkiNewYS8fPiswHd6hOr6xIUdwPFUXgf+W2Q2IlVMA90/4I4ztXfmtdRcWxjyEvhMnubJeZwd5UqMCKKx2nwzJKJZdaEqbr3pxVswStPvuIOVkajd7Rq//tQk7KuMjLEJCNrllxDaSspxCq+kVV59I+BnFqksPAYCht8jW8v/wv+c+TfmLBlAv7YaiE2XtUWJ5sm4dhXX6Fj2Qn85NQgvs7R1ZDcVZyMhn6FNPb7MJ5wf4DciScetLcfY58v86z15+LOB63pPpaxtu+9X6NqlSxvm6aGQTpQ496OBJ/c8yuPx93YsmzH5zKe51O5vDR2bO3HzOKpvAZe2yUiCkqwWTVV+czC8MXKzHDcR7jBpPCP3Sd9nP4CK00GmlWBAgev7KJ8nO4qSy7jup1c8YBRVero4sVGAKrJNYG6gncS5nFa7fU4rOfc/k0wdJsFQRTyrEJGetaZjh/63b37BPrmPahCZXW3p3AQW3V1pvrFKkwm47o7otHdtSns5yWIBlGDalg1YrG5LsEI+n0UDHdDv6FV4XH3eBTM/fPbxtYWrFXXUaqohdJrVrCid5wmd5aMn+1FU3Xvz87dO1oURPXvQ7UIv6HhdPX3y2oT54OFr5gNSodVxTfyjDtfGMipJSQb551972D9ObOw/2Rl/u+249/h1Y6f4tFf7MLy61thR+HHuPi82H93REREXiJq6Fi+uwocfHFnZjgGP/wFEFxoYK7upXNlw71RCpBYx+lYTavnPWhlBFB8ZQCFcZyF5nhS/5+Z833pdEnVoIx1z1Rx8vAj9myW/+FwgKyc8K+nC42zfXz8VcfX4jbdzo3XeieLzI/gSRf2cgwsJfXs7DjPZH2jHcSHWuubdVcWhvr8wNoFQ3WqeeBv3oP5EG317GH1elOVVTDw2+Vt0KwMGOeqTOd0cBmFlO3q2fKZsSNanYun+pq9T71+rr9MmlaY6LcXrI4Yd7bZAHLBQVsdrxjYvvBtvG4E9JzubRjCfl6sAF4yelzkK/Bg9WYWm0KQXUyuSyAZvQL3khUS632kCqC5VzlnF0mvcPb2UkK5fwEaMJbC7t1S6NXjURXF4zTpAJ5sr7ueFFOx29+lEwK0gROgraKQhPt+twK3DsH9zkOvwnVmGk+U6HabAgVoM1Kc5+kgjvUsffCk2Rtj9uhguyy32umJTWYSAzlx7mhZGV5+6UVs3vwVrmqbhT+1/ROebPdkleHRttPxfx1Ho13XAThy/Lhem4iIqovV/kloGSbCyqLJRvPBlR8nknpegiZehUyrao5j5o6VCePVBsvJIuPjE5qMusdjm0k9R6CV0WW3OR5O1SRfzOOU/f0DbQfbAygS5PgTUnU7NEfneXXJHu5xfr8Gx4wOLrPVcrKu7WOZem3s84FxaGW7vgarStaKv1Rp1Pikn6yccI/z6Abj4y+S+j9iXBc5ziQJ4Kjja6uOz+h1S6nyDK3VVdRSr0Xb34/w3Ke1/qhH/ASdTOY32k6FZjsrQ8H8wHrvUNsHXVUIvPfRvu6eQBY6fvPu+SH6UvuHXvXB+VKvQof1bbW5P3svK9IttG5oUhXo130cncyML7/YjPfVz8u6e3c13gqDzr0SrxqBlYN4d6dzYGXQOV1wme6ASnqjmugQyznn3O64RXrB6tsTEzu18gjonNNJgkHdzZ4/D27B7Oi8Bf3YjVeW6vaGolDNwhTu81J5LNLorUdB1GO9bfgo5tUzYnFdHMjzP/QaPCENe8t4FHvJcgek5H03tep7yegRSnqFG20P9GzBY1YbVGG/36tD9I/T/Xsn0+wlK9Zisr+MXhicabaB88Sj16jftZ6/W+29gIXXk5i3cN/vVuD2NIyfYHsu1fFeP8H6HR9dHyzeoKsbZmF6lS7ZrffDMMfqUlW/OLCewSCz96yqfjHKTEq4/Io+Ffo12Rw4cAA/nPYTPUZEVDNKlv4bF198sR6reV2HT8aQs/WIP5sXYdprm/RI+OvFk717/Bcgm4z7hyrA++npyA+jkV2j1yVP0ibKfnfGSme0+L0qrKfmYb8quPtqe8bajud64hK0mq2zRLyVqO19ko5W/RHWsVeljxNFOAmzypIvRjWmKu25RHCc7i7DfTv5qfQU5dmjlfP1Mlnzqx5r+MdpPid6xEaO73BRD+fzk960rIaYfTDa9pn9Px8ZQHbqQ/Y89SFbfcAOpvtU+ZZ3vL0bcDuj9443/X84NboS14XVKtT6o7zW1wUO38uXIm/uK9HtGahTT7ze3cy8qeog3l//X9zl5/0wqNdg/MH9tj2IF975L2Y6xH3OcQeHHEjPWdLosh6N1KUTxqt7pwpuc331qqMKTo8OM779ljZKPHoGUvfgVV3o8yt/JUZ4NUYb7vNiHatvpXh9yit4xSuQ438dS9V1q/e6VG7PSWH+Bjz1ZDQK13aB9uv7vRTy/bOuiY9nwc1hGasXoCrXOQihP2f+f++5eyRSonPfI9ifB+s++n4PeFC/a++9IwvZfp+1lf57ZAtRWO93P9dTrsXi9GFqm0GcrxL0M+T375Cour9A23bfQ3/PvmIt5/v3TeQSPli12gjk3DzyJmMCmZKT2+DkSf8fh4iIYu2rzVsYyIkT/gM5gYMs/knWyK9UAd/6FFaEoysW4/Bie8FcBw+ky2uHLrb9BpMkc2PgYDS39lGi9vHmX3BYer8yAhaFYR67N32cn85GyezvjfOSfVoBFiNgsfRV527WIzpO8zra9yeBlcNv/guHfPTyFTj4ZgVsfNzXCI5TMneaZ/Uw2+UpWYdjS9cY1yPgM6T22eq2wWiSWvlpPeD19BL0h19NvrG8a+BpSHfvslQVCPJU4dOhUWJv8g3tHdmqgFH5gV96pVm3dJ2PBk0Vtfz1g7PRQxUQrA/esvziZ1ShIMAH+7C06oiJ55yNK1wt3QGd7QeL8Nw6z56sfJKqVT3MrJztm9/FdV8EWMHHvnDwIN7fvB6zvXuzipD/gIXiLlB5BdTCKrhWCvd5cVxvsVrPx32PTSBHiep1cQqoSDsy+9QzvS6mvWR1zumFoeqaVr735Jqq99LiNY7vJV/r5C3Lw8KFPu6fdU38FWYdlgn195C3kI4zYABbz1evqhxPWPc9gv15CCGQY5AMkx5e7yPr92dsnrVw3u9V1pGgj/79bj4XiG4gxyBZcD0wOCu4Yw287cr3dt7cBep3ia9lAj0HkWMgxwEDOUQUD+ItkFOfBcrIIU1nxsBnxg05Cxyoi45QCwcm64Ot30Ibkcbnhaj+4Pu9KjNoHNrf2VCxjRwiIiLyIFWKUmf/I8jhHo8qRlZbQY4NHZNPSYMHG9fRu32j6NuNV56RdgOkDY1rcKmeGojVtoP02PGEvX0DIh/4vBDVH3y/e5LAlmT+FS57O2ZBHMFATi2UkpKCYcOG4sILu6FBgwZ6KhERUXRYjRWHI2CDzPWVZCrN/hNaeTT+rFiNFRttJOXhcHVkMRWswd1zpTva0zBeGsfUk/0zG3mU25quPqxPnzcerxpDsL13UP3C54Wo/uD73WLPTgqn2mAoWLXKQTxXrTp27CjOOvNMXH755di++TMkbv0fVu1uhpNgUIeormHVqvjBqlXBiLStoDosQGPMEvxybqsnRqQRyDuSQ2t/Rrdhc527kcvYpo5TLcfnhaj+4PvdCOTclZ4X1YalnTCQ4yDe28g5duwYkhLKcWW/q9E58Qcs/fBz7D6aoOdWr5yJ8zBWNzhXtGwK7lvg9G7NwcT53bHu5icRg4a7ieokBnLiBwM5waiudl5qK1+NMRfh6CfeDVsTEREROWMgx0G8B3I6ntIAN/ZIxgsfFKDbFYPRskVLvP/++9i9Z49eoppkDMWwjguxwIjMSKBmEAonT4LvWA4DOUShYiAnfjCQQ0RERETxgG3kxFj37GyMGTPa5yDzwtGj6V7c3ScdzQ/vQHl5BZYtXYrly5eh4LsayFsrsII4YgcKi/RLIiIiIiIiIoo6BnJibH1eHjbkbdBjlWSazAtVj2b7MOLK87D/uy8xZ2MifihrgUOHDuP7HTvQvHkLvZR/UhXqxfl6mJhjTcXE+dMxLGcoZuh5M4ZZrVP5m2fXEemuIuwMKp5UdZtyKBnDpruPzb4P38esZNiPaai5TWs127wX509QeyQiIiIiIiKq3RjIqQbewZxwgjgJFRXo2fIg/q93F+zd/gXmfN4IO440MuYlt2mDlJR2xutgrJ45CiNvlmEuNmQOqgx8IA0DBwGzZN7kZUDuuCDnmXImjoZr2eIQqk3ZtvlsPrLGzMN4zDaPTY27cge7gy++jzkHE6flouhZc94sZCPLWFrIvGzkTdbrPQtc633ARERERERERLUMAznVxArmhBPESUQFerY+gmsyO2H39q+w8pvjKD5mBnHCkjNBZ6mMtgU+RDGWzl4II6GmYCHeyE9DekdjhuJvXgaGTZ+HawttDR0HlQ1j2+bq9digxvPW6vWNcRc6WLEXX8eckQ5X0TIs0pGjggVL1DqazJNA0TR9DGMy4ao8YCIiIiIiIqJaqVoCOWVlZVEZytVQm0kAJ5wgTo/Wx3HFOe2x5/tv8L/vyvDx0fZ6bhgkwDIGmGNkt0zBUsc2bTLQIU2/rMI+T4I444DZozx7qypYiPuMfcgQYePGQR+zt3y9jh5msollIiIiIiIiqt1iHsiRAMwD/y8/KsP9aqjtwZxQXdCqHJec0Qp7d2zFmsJy5B1tiwpE0M14R8liKcQOeZ1xEbJdxlQtDdk9dQqMMS8f69yxD4d5OYMxsHiJQy9VUeJ0zAWFKHLlYohO98kYNqgyW0fmIZPVqYiIiIiIiKhOqZZATjSVlZfrV/VD4bFEbP1mG/J2JSDvWArKIr1lqxdjKXLxsFQ3GpeOIo/slmIUpY8zqyIZbc/YM2l8z8vo4AIyR+tqT+bguyHkCDge82rM1G3ryH7HI6+yapXMM9rymVp5bPZGkomIiIiIiIhqoYQPVq2ukBc3j7zJmBBN5eXlOHr0KKY++YWeErk//KYbGjZsqMdiJzm5DU6ePKnHalZTnMBxNIg8iOOX9CI1CIWTJ/nIrvE3L45IFaxp6Xgj0qpcRHHkq81bcPHFF+sxqkl79+zWr4iIiIiIak7MM3IqKow4EUXgCBrGOIhTN+QMya2sgkVERERERERUBzE6QLWY2VuWVXVqbGY+5kzSvWARERERERER1UExr1p15MgRTHvqSz3FdO/tGUhICNxgr2TzPPacZ7G8PlatIqL6K56rVqWmdsV5l1+C3menAJsXYdprm/QcJ6noOvxnuEQtr9Yw7d6Nzf/7F17bVKInxC9WrSIiIiKieFAjgZxIMJBDRPVJPAZyug6fjCFn6xFLoEBOalcM/9kQSMzHp6ACQTWLgRwiIiIiigc1Esj57ZjTkBggI0cOSroaZ0YOEdVn8RjIkUyc9u31SLtLMKR3gIyc1D4YP7Y3UrAbm1f9D++9swlW/k1q1+H42ZCzjQydzYumIZ5jOQzkEBEREVE8iFkgR6pFycCMnJr364kT9KtKEmT7978X4fsdbBqYKJ7Ffa9VXYdjsqTnBMioSe0zHOd9/hre8VWDKsht1DQGcoiIiIgoHtRIY8eSkTNp7OmOg8yn6PrzzCc9hsTEROTmDkCnTp30EkREsVPyjkMQR+z6AQyREBEREREFp0YCOf/v2W2YPmer4yDzKXo+WrNGv/L0xpKlyB1wDYM5RFSz2rczqlbt/mGXOU5ERERERI5qpGqVvzZy5GBkPfWf8bO+t5HTPTsb6/Py9FhwgqlKZV9G5j351F/0mB85E/DimEw9ko85Nz+J1XqsZuVg4vzRyNJjomjZFNy39iLMmJaNvMmTsKBAlhmEQuO1XoioFqgrVaucpaLP+LHonbIZi6a9hjhuIodVq4iIiIgoLrCNHAfxEsgZM2Y0NuRtCCmYI0EaqT5lJ9PkXixb/ia+//57PdXka/kqMoZixrR0vGEFb9T4sI4LsSAuIjnBBGkYyKHaqa4HcqwesOK9oWPBQA4RERERxYMaqVp17+jORlaO03Dv7Rl6SRJZ2VlGZk6kIqpK1TEdrqJCuJtGLoiXIA4R1VapfcYbQZzdmxfFfRCHiIiIiChe1Egg57G52412cJwG7+pUFJ1gzvBhQ9G0aVP835DBekoIVq/HBlcuxg/zEWSTbJ358/CiHibm6OlGFsx0VK5iHzdfT5w4Xa0zQY2JDAyb7mM7Htu3lg2G9/5tfG7TYf9EFHUSxBmruy2fxSgOEREREVHQYhbISXBoA4dqhnePVaFbjZk3T0Fe1lSvIEcOJk7LRdGzozDyZjVMXgbXGIfgSRVpcBXOVutJdS0JokxF9oYp5nbUMNPI+JHtSzs3evvPAtf63HgaBk4LNgjjsM2cwRhYPNdr/0QUXanoOtwM4kgmTjx3N05EREREFI9qJCOHQhdqOzmxUYAFk0bpYI0OlmSkw4V8rLOCHgUL8UZ+GtI76nG/ipG3VmdfZVyEbFc+3vBuwMbYvi1IMyYTLp8bL8ZSKzATKAjjtM0dhSjKHI0ZwUWhiChkZsPGQ85Owe5Vc5iJQ0REREQUBgZyaoH4COLYFCzErGXFyOpRXXWPpIesyiDNyKikyvjYpjqv+9TrWRgXRFYPEYUktSuGG71T7cbmRXMw650SPYOIiIiIiELBQE6ci1UQp1evnkZvVfZuyP3KGWqrLpWBnllpKCrcARQUogiZcMd0Mobi2kwrQ2cHCots2Tk53T26CPdQ8DHyijKrVpvS2/ddnSpMAbZZsGASHlpWDFcHZuYQeZNepiZPtg3SWrE4e4jn9OFdzekitQ/Gjx2Cs1NkJEUtOtZzWdswvk+qsQoREREREfkWs+7HRXl5OY4fO4ajR4+ivMLYTViM1nYSEpCUlIRmzZqhQYMGxvRYipfux8MRqDvxoLobr0IaDh5dGYjJn1uZGSMNB0/LhcsYkSpOti6+cyYYVZcM+fnYkOnSXYDL9ry7A/fcx4ZndRUpj+0r9n0bfG1L2Kd7LeNrm+u6Vx6rkbGju1onqkHx1v241V14QPb2b6wuyoNgVLmK02wddj9ORERERPEgpoGciooKI5ijXiD8ME5lIEca6a2uRpQZyCGieBBvgZz6jIEcIiIiIooHMQ3kCAnmREt19oRV2wM5gTCQQ1Q7MJATPxjIISIiIqJ4EPNATm1VmwM5RFR3MJATPxjIISIiIqJ4wMaOiYiIiIiIiIhqCQZyiIiIiIiIiIhqCVatclDbq1ZdcWkOmjVrqseq+vHHI1i3YSMOHTqkpxBRPGLVqvjBqlVEREREFA8YyHFQ2wM5uVf3xdSHH9FjVU156AGjG/d33l/NYA5RHGMgJ34wkENERERE8YBVq+qxMWPHoc9lOWjRooWeQkRERERERETxjIGceqp169aYPetplJWV4ac9s/VUIiIiIiIiIopn1RfIufguzP3b8+7h4Z9n6BlaxlA8bE3Xy1rL/PRXap1f5RivKTp+fc9vjapXMjRq2FBP9ScHE+fPw4sTfd+HjGHT8eL86RjmdVs9qHs8I9AyMSPHX1P7JiIiIiIiIoqOas/I2fi3WzH6tlvx0D8L9BQfPnzKtkwOsi80J1NNK0ZR2iAfwZAcDMlN06/9KFiI+26ehAV+bj0REREREREROavhqlUZ+NkfdZbO5GvgDgXo7Jw7L5b5t6GbTLvwNmblxIGiYiC7p1ckJ6c7svLzsUGPEhEREREREVFsVHsgp9ttZuDmzouBU38+FlenFeM/027F6GlvolgvU6kA//rd37BRXn7yN4z+y2pjKkXXpZddjr8+/TSGDxumpzgrXLQERbmDURlSy8CwQS4sXbRej5tyJs7Di1IVy6M6lr16k349bIJ7uRlO9Z6MKlnWMkOrbiOncr7syqzmFWCbRERERERERLVQjVWtevpDoIMrDSjOxzpWtalRZ57VBcP+9w0uv/wyPcWf1ViXn4keVmwm4yJkIw9rve7h6pmjMPJmGeZiQ6av6lgiDQPT15vLPZsPl0eAyJKDidNyUfSsub1Zam9Zeo5JbWMQMEtvI2vMPIzH7ADbJCIiIqI6KaMXnnj0GlyqR4lqk85Dr8cTE7roMSJnNVq1aqfU00nLRA8p5HdwVVatoog1bdoUiYmJOHSiDMWHj6o73QBJSUk+B1lONGrUyPgZyOpFy+AaNBRy23KG5KJoyUJUicXlWJk2o70CL3bFWLpIZ1mtXo8NcKGDd8AnIx2uomWwFitYsMSrCpfaxmy9f2MbxcizokpO2yQionomBdc/Oh6vzrse18f134TacpzVwboW4/HEUBZqKEg51+CJqVlIl9f8/Ee1VHpmX7zKYA4FUGNVq6S9m+/+uQwbkYarJ6vx3DQfVavEauR9on6wjZyQXHr5FXj0/Xz0fnYx/u/lFcj4f383pneY/iK6//WfGPHq28bPae94VokKSsHHyEM2euYMxbVplUEWN6kKNQaYY2TkTMHSIj2diIh80AXWR3uhs54Sn2rLcVKdkHEmerjMl+m5Z8RhdkVdfz/UwvOTTJzRpyEd2zDr/jfxgY+M/0snmMFBX8MTj16Pe3NSfJ9vzjU+1/Eenhiaolfw1DmnF+5V269cVu1raBff+5LzkGX8XHvJ2vC1P3/nVzlUDRTHz3WR/V2DS+txEG77wlcwaVkpkNnX8boRieoL5OieqNyD0d7Najxtjf/uATykfho9VRUsNF5L9Svx0V/s61Aw0tJcmJ+/Gf+97Vp8PP5neqrpH8P74sOCYuPn83lf6amhKMCCJUUYOCYX2PBx1WycjpJFU4gd8lqqXukPYsGztaVTUIgiVy6G6BhexrBBfjJ8iKg6paZ2RZ/h4zF58mRMHt5VT/UnFV37DMd4Wd4axo/H8D5d1RwiIpuCb7BOfxFUuOxbfGC+JHKQguvvkEycUrw+5c2wnpd0VzKyRw/D9CgHry6dcD2mj85Sn4eT9RSh9pXbV+0r/quAxeq6SDCq6nWR/Z2G8VPHG9WLork/yzmdzsVTfa/ExiGD9XAlXu/VEefo+dHREU+5t+8w9D3XcZ8SzJmVL0Hsq5idSY5qtGoVxU5xcRFGZp6Ny+e+jlNnmNk4li4prVFWUWH8PFFWrqeGaPViLC3Kxxu++hKXecjFw1K1alw6iiLKyFmNmbrtG6mqNR557B2LqIZ1HW4GYcaOHYLeZwf5bVFqHwwfPxZDep+tPm7bpKTg7N5DMHbyePRhNIeI3HbjlftnYcSoWbh74RY9jci3zkOvwnUuCfq9jVd8fDT1ljfXfLYqhwWYNHcDCmWmKwt3OWVCFG3AJI/1PIe7F+7WC5okWDE+UwIVpchbpvZhLTtlJfLk87EELaIYIPngSfvxLMDrxmdwCW7Zp7/ieI2q67pIJs/0XH1d5i7wWFb2J9cmPTMbP41qEKMVJvYdjFe7d8FlLVvqaaIlOru649W+PTGolZ4UBz54Uj0jSMZ1d9SirDiqVgzk1FEfvPcuHrgsExt/NRTf3XeTnurfDz94/ZL1sBozb56EyrhNARZMelJNtdjnyzyzceKRapmZk6zp9mW8t+dn3uonzW2p4b4Fxp8Szd82hJ9tElHYdr23CIsW6WGVv98bllT0+VlvnJ2yG5tXLcKcOdMwbZoe5izCZmMTKeh9eTBZPXVRG3QMOXOxJtSW4ySqDnX9/VCbzq8LhkpQoGgDnvIOGARtN7avXoO7524zxtLT2xg/I6OPS8mb+woeU8e23RhTCrbgsfuloK64sjA0bluPiMV1AS7tfprxUwJvj632vGeyv8fuX4BJU5wDTuEY1OsK3CLxm4NFeGH9u+i2aLEe3sWDmw9KPAfYbywaPQe3YIR7P17Dyi/wpV7Mty1YKFWs4vr5oJqU8MGq1RXy4uaRwRX264vk5DY4efKkHqt9cq/ui6kPP2K8lgaNpW2cnZNGGuPetm3bis2bv8bzLzyPLVu+1lPjlVS7GoTCyQzKUP3w1eYtuPjii/VYHOo6HJOHnA1sXoRpr23SE31ITUVXlGBTiR63S+2D8WN7I2X3KsyZ9Y5aKj7t3eOvgJCCzjk9cNfA05CuCz+F+RuwePEafHfR9ZieC7xu/1AqDXLalvUrfyVGPBmtjIQUXDq0BwZn2fddqo41D08t3oLt3r9Xo3GcGV1w/eBs9MhMNhsgVQqLtmHd0nV4xesDvFE94tFhuA4bMOn+NarQo453wlUYbF9XXdennpR5vjjfBwwej/GZ8s20Q+EgpOM0GVUD7PfW1zbUdXlKXRfP443gOEPieT3l+IbekV1ZlaGoFHlLqxakLOGfn1o3pxeGDpRqE3qC9Zz5WNZ9nA7PWeGyBVW/0ffmcP8WP+O7rZRK1r1ore6Fvi5Ox1pb3rd2oVyXcM9P2nSRBoYlK8N433qz7q/3cx3Z8+mmjvvV0acF9ZxIWzDjM83Mk8d8tdjgdC56H0bmic9z9CGYdaxlQrqe1nszOcA5O133qqr1uijW/oJ6b0dDp57Y2F0e7CI8uGgtlphTY6fVuXi9Txd0LlqPbmuMxibCY133qP4+obqCGTl11I8//ogpDz1gDO+9+1/8b1gO1q1bi9/d/9sqw1Mzn1C/fO+vBUEcIqq1ShyCOKJ9O/VxszYzPyxPVx9m7QWg9MwsjJ96Pe5yaNgrqMJSVHXBveo4x+d6F9RUAS+zL6arY73XR9p8+MeprsuE6/Hq1L64zlaIFNIGwnWjh+Fep28ZVUHuVFWoM47Xe111XX231eD/Pgx27BozguO0kYKVz22owbNwE+5xRkBdz6HSToc6Po/2KNRrafsimN5RQju/8brtCz3JoNaT5ywGPXI5HpvV1oZTdRD9jJn3wnZd/BxrbXnfinCuS/WfnxLh82lmd5Ri3ceRBwQ6X6Sus7wo3ht0UMJJ5/TWxs/CDd84b2tHqVltKTMeG/SuFM3rIj5YrzN8cntUS8PGgzqYD/b766shiBNNVlthcf58UM1gRo6D2p6RQ0R1Q53JyPEhNTUV7c+7HJcY7ebsxqo5s/BOvKbjKE4ZOdY3i1KQyJtb+e1x54xeGHqHVZj1942oKqjNUwWYEL/RDJX1DS6KtmGWx7fxldkh2ODv29EQj9P6ltz49n+d2p+1XckuuEoVTKXApo5llL1hUjPIUZmZoa6buqZWRkxntU0pdAvvb46d74N8yy8FRHNelfsQ1nGarGual78N2ZnyrbRcW89tdM7Y7ZExEfZxhsXzelpZP+a9t5+f72/iwzk/93PmdX5GZog6P/NYfF9Pb9a2/H5rb2UEyP6W5WHhwsosGnle7pIgjc/rqZ9neanO63WPzCudAZN7GoqcMhTi/X0b9nWxhHB+ATNIrOfQe3+RPZ8maxvBPVPOmSeV91wCFlXmu6+nM6ffSc7HLqzn0HZt4iojJ/rXxVL5u1Cp8h6MJml4uDsus7JxWnXExHPOxi0u3U7OwYN4v3AzZn+xI0BVpxDoDKDtm9fjuVPOxh+sfeEgthcV4bkvv8CSIKtxmffaK6uXSEmc/NBDkCEjozMH20BERDEg1agmW40lS+PHbY0g0Jxp8R3EcaQ+cA/WhXL5kGWvArC9QOr56wYt40jhBimI6xGDtIHwJu6+30eDlJFQ25w0RW3T6AbYvt3d+ED3yAG0Rgenb2Ol4CqNctqvqdqmuR7gSrdlE/i9D9IWhdXopw+RHqciQQ4pUI3wsQ2Pai+RHGeEjALfk1YhWZjnZ3Rzq2R3d856COX87tJBHO/zkzZBXnGf32kY7JQlExJVUJVAhmK2QeJZFcp4ro22PZLR4yLP/XUemq2DOFJYftOrACnXRq07ZYHPAmhNCO19G/51qSnhP5+6LZ+iUnxnTghK9mjP7rFfnaezntQ8qS4Y+X1PQQcju64UO/zWrNmLHXH0NyL216WSNMw8adk23ZCymf3ot1v2SB08iG+MKk/dK4M4omVLXHZ2d7zaq6OeED2d1XYrgzhCGlbugj/0GYynOulJQUlGx+gfHtVyrFpVR11xaY7RTo7TIPNbtGihlyYiqikpSGl7Ls7rWku7rOqoqyzk5zl8U6Y+pOtXNW37x+YHZunO1PigXA3p7O5CfkYKLs3phXsnXI8nHr3eKCCY38Q6fTgtxeuSfaDH7L4rNAt2HgLeB//CP05NFXCCCoJFeJzhc652Yj0XSGvjXHiK2vntxitLdZWKrDMjL6xlnIkeRiF+AxY6FTBXf2s0KOu5vxT8NEsHnJ7xk23iEbSqGWG9b8O+LjUlwuczSgrV9Zo1RQJKftoikcCfrYcl+xAvQb9oi+V12S4BU7WM1VOV/K41umWXgE5OlIKMrU6B+bZxYbq0W3OwCA++U9no8Ij1RebvAFf3EIMrfnz/FV4oMhtV9mjs+J31eP+guchl3XtikPnSr+2F+/QrIk8M5NRRzZo1NRo7dhpkfp/LGMwhompW8g5m6R6r5syZg0WrNqui3dnoPWQsxtfC/sfdbSAU7jV+xrWCNbh7inxY1h+Up+pvXB/V34DGILAjDd7e+6jax9RhGC9tpkhbHR5tkURHpPch0uMMdr9x/byo8z1Vv/QW1fOz2gTxs7+gWYEjV5Yq+Onnucqgq095sHpk2oed1RpQC0M479uwr0sci8bzYiPVfaxAg5X1k1681yvjLBK7sbNYfgbKpIiv3sFif118M3uqUvudshKv58t+zfaRgmmfLGgtWxqND49YudajWtOX36/FdevNtKjLOkQr7WU/Zq5Zi5nf7/esrrV/B+5a+S5eMII5LlwVrcAR1UsM5NRjY8aOYzCHiGpMiTSA/M5rmDVrDqQX85TeP0MtjOXULkZ1L/mwvACzlm1ThUNVqFYFJKuA+MQEVTDUi0YsR9qz0W0EFal9LVtpfKs7SQ1SSLCqSNW42nKcVH9V5/u2Htq+MM/sBjwzO6oNcVvZgx7VQL1ltFHFeeEjqBjl4FWoYnVd/JIqmE/aqtQN9NWwfYj2H4B5aYvw4BqHdnAOHDSzclqcgnOMCbG0HysKzbScjJatjJ/+WAFyIm8M5NRTrVu3xuxZT6OsrAw/7VmrvpMhojqnBJ9/Jd/2peAn59XOSE56ehv9KgLV+aG9wGwD5LH7XzHS2uVbUElrl15w7grUdklQx9kF9+qGVl+fa7atIu10yLe622P4zW7o96G2HGcMWdkbIbYx4o/f84vm/qzsHumaV2cROA4+G4313/ZRUOLxfRvxdbGp4WBC4OdFtzET0XFuwUIjcJCM6+6IQuBAs6rE+Ku+5u4NKv/byqqkBXth5oc4P5+nppsZg0WFscyUic11CYa7Sl1UHMRWXZ2p9grU1hLVRwzk1FO/vue37mpWjRo21FOJiGIhFX2G91H/O0nFeT8xCyF7fqhdLR67P2w6dQ2aEUrafBQKlX50zvHzrb00tGu1XRIwyBDCcRZtw0cejchaUtBBv4qGiO9DbTnOCPiu3lHZKK7fLpKDVHl+Tt/gR3d/lV3zhpoxsAVrjUyrAAXUjJQgCq9x+L4N+7r4EsT5WYEHh2BK56FXuXumchL+82lVYYrsPmxf+LbZELcrC0OjVZ1Ht0PkvM0uGGr1yrXe3v6M1QCyU2PUXdBTN5oe68J9TK6LcumEAG3gWAG8qLAyYJyrMp3TwWW8z7YX7nTuuarVuXiq72BsHDIYr5/rL5OmFSae29FPZk9HjDvbbAC54GCgrqus9rz2xX81UKp2DOTUQw0aNEBSUpJ76HtVfzRr1kzPJSKKrtQ+P0Pvs3tj7OTxGN411SOgk5raFX3Gj0Vv4/PcZnwRWg/mNc8qMOE0jH/0GlxqK0hIF79PTA2mHQrPQqV9G2bju34+7AZLehMabTYgaVTDUNu1k66vzcwUf+2bhHGc6sP/XR49kEiXyeq6SJe4RkEkSiK9D7XlOMMm7U149QYj3YG7u37ehsXR6LGsYA0WW8/IVK+CWiz25248We+vSpsx0nWyuq7z1LXWUywfLN5gBp3UvZ+u7sX1Hs+vvv9Th2G6er/4Fs/v2/CvS6VQzs8KPKjn2l7NSy13vSqwm93R+xPZ8/nBevNcI+uBq7Ih7qhU5zFYGS3SG5Scny0wKPfuUf1+r9Iota1R8FxpJ8Z2Xh7rbcNHMS/cx+C6GL33mW3gPGH8HvR6ruW9p5/rvKUBMsaC9OUXm/G++nlZ9yvxlEeQpRUGnXslXjUCKwfx7k7nwMqgc7rgMt0BlfRGNdEhlnPOud1xi/SC1bcnJnZq5RHQOaeTBIOkK3Tl4BbM/t6Y7MxquNyesUWkJVx+RZ8K/ZpsDhw4gJMnT+qx6tc9OxtZ2Vl6zNOGvA1Yn2fE+B1Jz1SSbeMtMTERb//rJbz81CP4SWYPfJW/Drk3jUPhjxWYP/9FvRQRxYuvNm/BxRdfrMdqXtfhkzHkbD3iz+ZFmPZaZVQmtc9w/Kz32ar44GS3WmUWbKvEnb17HAoS6kPpE1OzfH97KG2uFJ+G7EyzO2bHnor8bUMVYmaN8t2DUyikQd+hA3VbME6k5xF/VS1COM7OQ/0U4NR1mbUBRre20rhmZa8mquBnFN6cr5e1XaO7YnvhLsz7EN5xmhyPxZ9oPC9Bs66nKuirgna6z3sfxrX2q3KfvgV/bsHu3+89FOq6Si9oVfbp93kWAY41zt+3YV8XSyjnpwrfr+rCtze5f4vTh2F8lec6suezUhfcK403B/r9pVw6weyJztf72eN4vJ85P+fnQaqzefXuJNkn4zP9/I6Rbv31qJ11rL75vi7+17FUXbfar4t6tu69w/9zLd2d++0pK1SdeuL17mbmTVUH8f76/+IuP4GVQb0G4w/u4z2IF975L2Y6xH3OcQeHHEjPWdLosh51Yr2Hfd8Xqu+YkROnJFAjARtvwQRx/JFAzqLn/4I7p83E+vffxl1//Av++68XjcBRmzb+0ulzMHH+dEycOB0vzp+gxpSMoZgxf54al0FPQwaGTbemzcNEKw3TY1nbdL3dYe5veuzjPvYZ1PatZb3YlpkxbGh4+yGisJRIo8ZzFmHV5t3wKI7tVuObF2HOnPgO4vhl9Cpj9bRhKTUazZ10/zrsSNOT/NHbkEZM7QqloDV3XcSFQWH1CmJ28+prPwsCFoJCOc7tC19R+9pmFNDc9H6kLZoPjHSIKPJ7H97EQl/dliu15TgjU4p1z8i99zzPwnzpVjhQITlUu/GK+znTkwylRsFs0qho78+8h1ZvNx63Sz2n1nX1uU+5F6PMBoQ97n+wxxrn79uwr4sllPNb/abP99GsKbOMgr/V8K9vkT6fOvPFyKyLTlZOem4PP9lKoflAGu/1vjbWMya/Y/QUbx88WfWauNeL+vvWnxhcF/VsPXa/enarnJ/5fAXs7jwc0jvVO+vxQpFu2FjbbnRH7j+II5Z8ucXddfj2zesdgzjiyy/+C+lq3HtfOCgBo3fNnrP0JGe66l2VjC0iEzNyHNR0Ro7FnpkTShDHV0aOVKl68c9T8Mbfn0NFebmeqh6CxET89Orr0P6ci/HEn/+sp3qTYMdouJZNwX0L5C+HjA9C4eRJMEcnYEaHxbhv52C82GM9Rs60/8Yx18Wzo2BMloDKtGzkGet6bcdju977lODKVGRvsMYtDsdSZZnKY8gYNh0P5wJLQ9oPUfWLt4yc+swxI8cv65vMYL5VJoq22v38hZcRRLVHNJ/P2vGsu7Ok8qtm7hDZmVlS/OxAzpiRE+eszJxIM3FEQkIClr38N0y8txMmTTbTIOWnjK9963V0OdupHrilGHlr9W+SjHS4kIaB03TWyphMuNI7AjsKUZQ5GjMqU2z0svlYZ8V2Chbijfw0yOKB2fd5EbJd+XjDO7jidCx2skzRMizSx1CwYAk8852C2A8RERFVG6tnHqLAduOVZ6TdI2kXyF/bPzWrskvvvuw2nhxJwE+quhUue5tBHHLEQE4tIAGcSIM4lpMny9C4sedtl/Gyk+VomJSkpwQrH3NuHoWR1iCpLgULcZ96PQvjqrlKko9jISKqY+TD3avzxgc5xG9hhkJT5++7NGyb49lDlDR4arb1UYp1H9fubBy+b6uJVAWTqjpWY+J6cnzZgseMY4TRbfx0932/Pgo9jFFdYM/aYiYi+RPXgRxpzyUtzYXGjRvrKRQN06dtMwbv1yEpKEQRMnGtPfPGpmDBJDy0rBgu6QtSL9vD1p7NtZlWhs4OFBbZsnNyusN3E89KwcfIK/KxT8djkSpTuh0cWcaViyH6GDKGDQp9P0RERBR1nS/KxnWjh9kKteMx3eqNKT+P30hT8Fa/ibun6B7J4vVjnHGM3u1kEVWSdpBY9Y4Cids2cowgjsuFJo0ao7yiDEVFxTh27JieG3vx0kZOuHy1kSNdjf9ftzR3tSoJ4Nhf/+75Zbjt9tHGeFVe7dAIo62bXLgbcM+fi5HruhtVm/QEzLn5SRjxGo9li3XbNMaI0aaNe538fGzIdNnayPHap27rxgrCbPBod8frWGbCc33bfoqWLUNRbnbo+yGqZmwjJ36wjRyqfWrJ8yfdWQ++yuiS2N1DkjTIu/RtPLaa30jXXfz9SEQUrrgM5NiDOJay8nIUFxdVWzCnrgZyhmV3wK/u6WhUp7ICOceOleOpP32Pe2Ytwh13jNNL13W+gjdE8YeBnPgRXiCHiIiIiCi64rJqlVSlatSwkR4zNUhMRGpqqh6jcFRUVGDgjbfjL3/a4a5OJT+fevx79Op3HTZv3mxMIyIiIiIiIqL4FFcZOZKJ06rVKSgt3YdmzZqhfftUJCYkGPPKKyQjpxhHjx41xmOttmfkXHHpxcY1tGvRogUuufQyuNI7GNfacvLESXy4Zg3mzZuvrn19qa/LjByqHZiREz+YkUNERERE8SBuAjkSWHC5XGjcqDEOHT6MH37YhSZNmiA1Nc2YX1JSjCNHjhivq0NtD+QQUd3AQE78YCCHiIiIiOJBXFStkiBOug7iiBbNmyMlJcUI3OzaVWK0jVOdQRwiIiIiIiIionhU44EcK4jTyNawsWjZoiXapqTgxx9/rLbqVERERERERERE8axGq1bZq1N5kzZxSkpKaiwTp75VrcrN3IsJuUU4pYk0iqyuf7n6iQQU72uMXz7fCSX7PRufJqLqwapV8YNVq4iIiIgoHtRYRk48B3Hqo9v67EJLdSsqKhJRgQZqkEcjCamtyvCXWwrRvHGZuSARERERERER1ZgaycipDUGc+paRs3ra50hIkOBNIsrKJRdHgjkJRmZOQoJ6XSG9hyUYP2W6LCeZO4WlSZj/QUu8/alnD1lEFB3MyIkfzMghIiIionhQ7YGc2pKJU98COR8+/JWRjVMuQRwduDECNg2aokmH/mic2kvdoBNqSXVNyo4DFWqQ8YoT2L9vHy69fa25IX9yJuDFHusxcuZqPYGIAmEgJ34wkENERERE8aBaAzm1qTpVfQvkfLJ8IhIaJQMV6pxlMII08voYUHbYHNzzpJqVGtzjJ9FtxEfmhhxlYNj0ccDsSVhQoCcRUUAM5MQPBnKIiIiIKB5UWyCntrWJU1sDOd2zs5GVnaXHPG3I24D1eXl6zNPG5eNhZNlUSIDGCtJ4/ZTgTbl9euXrbtf73q5bxlDMGFKI+5iNQxSSeA7kpKZ2xXmXX4LeZ6cAmxdh2mub9JxgpaLP+LHorVYPb/3qxUAOEREREcWDamnsmA0bVx8J1EjAxpu/II6hXF3/cqkuJcMx3z+NKlWSqSPTrEHmBe4ePqNnNorWMYhDVBd0HT4ZkydPxtixQ8wgTpi6DtdBHCIiIiIiClq1BHJSUto5BnGKi4sZxIky72BOwCCOcAdm1GAP1shr46eMSzWro+ZP96DH/crBkNwiMI5DVDfsem8RFi3Sw6rwslRS+4zHkLOB3atWYbOeRkREREREgcU8kJOQkIBmzZrosUpWJs7Ro4GzOSh0VjAnqCCOMNrEsQdsdBBHAjfGT/s8K4gjg0xTgz853eFathiM4xDVDSUlm7Bpkx5+2KOnhqDrcIyVVJzNizDrc6CtnkxERERERIHFPJDTuHFjJCY00GMmVqeqHhLACSqII6wMHCM4Y2XkqNdGRo78VINHNo68tgY17igDwwa5kLeWLRwTkZLaB+MlFQebsSjO28QhIiIiIopHMQ/kNGvWVL8ynTh5gtWp4pGVWWNVpXIPVtBG/bSCPRLUMabblnGScRGyi5ewpyoiUrpi+NjeSJEgzrTXwDAOEREREVHoYh7IadK0GX48cgR79u7FzsKd+P7771mdKg7t31dqBmU8qk05DF7LFO5yDsqxkWMiMkkPVUNwNnZj1RwGcYiIiIiIwhXzQE5RYSGKi4uwf/8+HDumCv4Ulx7+8zv49P1/o3jj62pYhuJNb6Po0/dQuGk1dm5ah+83bcCOzz/H9198jYLPt2L7FztQ8NUufPHJXjz29x/1VrzlYEhWHhYxjkNU71k9VG1eNAvvlOiJREREREQUsoTLr+hToV+TzYEDB3Dy5Ek9RkRUM77avAUXX3yxHotDXYdjsrR5s3kRpjm0eSM9VEnjxrtXzcEs7yiOtJkj1a38rB8v9u4Jr4cuIiIiIqJoYiDHAQM5RBQPan8gpyuGT5YqVcGK3/ZzGMghIiIiongQ86pVREREREREREQUHczIccCMHCKKB3WhapVfrFpFRERERBQSZuQQEREREREREdUSzMhxwIyc4ORm7sWE3CKc0gSoUE9Sebn6iQQU72uMXz7fCSX7G+kliSgc8ZaR03X4ZEgCTkDBZtgwI4eIiIiIKCTMyKGI3NZnF1o2liBOIirQQA3ySCUhtVUZ/nJLIZo3LjMXJCIiIiIiIqKIMSPHATNygrN62udISJDgTSLKyiUXR4I5CUZmTkKCel2RoOYlGD9luiwnmTuFpUmY/0FLvP1pM9kMETmI+zZy6hFm5BARERFRPIhuIKdFKk5v31yPmA7v2oqSQ3okEL3+8dId2FF6XE+sGQzkBOfDh78ysnHKJYijAzdGwKZBUzTp0B+NU3sB5SfUkupalql7WqEGGa84gf379uHS29eaG/KWMRQzpmUjb/IkLCjQ04jqIQZy4gcDOUREREQUD2ISyLGCNy1ST4fEdUIK5sQJBnKC88nyiUholAxUqGslgxGkkdfHgLLD5uCeJ9Ws1OAeP4luIz4yN0REPjGQEz8YyCEiIiKieBDTQI6agNTT26OhkWEDJHfsiGTd9q2xDGwZPId3YWtpQ3TsmIwTxvqNPJYXRqbOiWS1TkMcPgw0by4zj6N0xw5EO4GnvgVyumdnIys7S4952pC3Aevz8vSYp43Lx8PIsqmQAI0VpPH6KcGbcvv0ytfdrve9XSIyMZATPxjIISIiIqJ4EOPGjo/juCrjN2rUCI2S2yO50WHs2roVuyQI07o92rduLtEZ7FDTtnql7JjLS5BGzZMVPDRCw+O7sHVHqdpDIx3QoUhIoEYCNt78BXEM5UfUINWlZDjm+6dRpUoydWSaNci8o3ojvuRg4vzpGJZhe50zFDPmz8OLapiYA2QMm268lmGGuaAhZ6I5zRhkQYtU13IvP9S2fc95L86foPZoTMSw6dY0c59ERERERERENSnGgZxGaNQIOH78uBHMAZqj/elmdSs0SsCP+w5LxAYd1bTTU1sYa1iM5Y8fxmFV5pdokPyodByHZcbxE5DWVyg6vIM5AYM4wh2YUYM9WCOvjZ8yLtWsjpo/3YMeD1oaBg4CZt08CiOfzUfWmHkYj9kYqcdduYN18AVYPVNNk+k3z8WGzEGVwaBpuSh61pw3C9mozD+SedIej17vWeBaWSlnMAYWz9XbGoWZq/XiRERERERERDUkpoGcFqnt0dwKuhjMjJytxlCCQ4dKjNdGwk3z5rCHciT4g0bNYSTbSEaPOZlizArmBBXEEUabOPaAjbxW0yRwY/y0z7OCODLINDUErRhLZy+E0e7x6vXYoMbz1upWkI1xFzpY2TU5E3QWzejKYE1GOlxFy7BIB2MKFixR62gyTwJF03T2zZhMuNI7AjsKUZQ52iPbh4iIiIiIiKgmxbjXKgnclMCsNOXV5s3hUpQ2THaPG+3fHG5uayPHbF/H2Jpk5EiGjq2NHLNdHHsbPKEEBQJjY8fB2bhoMCrbvSm3vba1h+NuAFmmWa/N8W63lOgteZPqVINQaPRaZX/tPc9rHNLbVTreuPlJrDaqRo0DZuvp6uWsSToY5LhOVVKF6+HcNGx4llk5VP3YRk788G4jZ+mD9xg/c15bYfwkIiIKRvLXn+lXpgT3f958ToyI874Cqwih1Oixi+ifhk1CNe7Lx+Z97i/yg4j+ZmVl3zfQcbMh7C/YZ8Nzk7axEPYVjICbc1wgtAMJaumIz83cgPdmopuRozNsKgcriCN0ezfWvJJSj3EjEKPbyzGbyzmEEmvZfSfQyMrsMfZhNW5sLlPTXZXXa1ZmjVWVyj1I1o2uPuWubuWVjSOvo62jZN4UYoe8zrgI2S5jKlBQiCJXLobo+lcZwwZVZuvIPGSa1al8KFgwCQ8tK4bLnfJDREREREREVDNi3EZOBKy2c2QwesKKfs9UFLn9+0rNoIxHtSmHwWuZwl1H9FaiaPViLEUuHpYqUuPSUVSkp2M1Zuq2daT61HjkVVatknmTlwG5U3WVLDVIy8buKlrz8HBuEd4w03+IiIiIiIiIakx0q1bVIaxaFZyrzj+CkZcdQftW6jGqSFBPVCIqyhNQATWo8XI1OSGhgXqdiHI1ItNl/PARYO47iXjniwZ6S9VMeqnyU52KKF6walX8YNUqIiKKBlatiiZWrQqOrOz7BjpuNoT9sWqVHxGfm7kB780wkOOAgZy6TbooH5u2DA+528whik8M5MQPBnKIiCgaGMiJJgZygiMrM5Dj5rhAaAcS1NIRn5u5Ae/NxG/VKqKokoaPdbUpNYzNzMccBnGIiIiIiIiolmEgh+qJAiyYNAojb7YGVqkiIiIiH1J6YMYN/dBbjxIREcUbBnKIiIgoTG0w/IYxmH/nMAxP0ZOCEu56FN/CvK8SOLlT1vMabuiBznqRatOlH2aMyESavOazSUREcYqBHKpRV1xyMXKv7us4yPwWLVropYko7qRV4KJuejBKPhQ6XfitiUIr1SN8zgKSgFK/zkjDdsx9+S2s8mwWi/zoPcAWgHMcGLglIooWBnKoRjVr3gxTH37EcZD5fS5jMIcobhiBm3KM/UUZZj18ErN+WYZRPzeHa7r6aemum17e71CGi/TiRFSP7F6H+55+Fje7h3eQr2dVnzYY3l8ycfZh+atvYZWeWru1Qe8BwzyznW4Yhold2uj5RERUWzGQQ3FvzNjxDOYQxYvUcoz6eTm6ncMOD4mo7ujcqy8GJAPF61fitbqQiZNyJibe8HOMPr21WU3Mktwamf1+jvkDztQTomPVcnsg7p9YXipTJShmn76gblxbIqI4wEAOxbXWrVtj9qynUVZWjl49s/VUIqK6pA1cqgBJFFt8zpydicHdWwOl+Zi9Zq+eVotJFbERfZCZvA/569/BFHcg5VlMeWs7imWZ0/tgYhdjaSIiqoUSLr+iD79W9eHAgQM4efKkHqNYkXZwpApVMKY89ACW/WelHnOSg4nzB6Fw8iQsqOa+xTOGTcfDubbvvfLnYuRM9o1Fkflq8xZcfPHFeizeVGDsw2XopsdKPmiAqW8n6DFPHa8qwwOX6j83XzbA+H/4Xi6e7d3j+VXy0gfvMX7mvLZC/d8Gnbt0x7genZGmC8vFW/Ox5ON12HHmMEztDix/1fZttDSoalvWr63v4Obl3+iRKEg5E8MvykKW7Zv64tLt2LBuPV7b4lSIdT4/XDQGo0+Xb959fdse7noRcDi/JSt8tXki7cb83MjEyH/rWczcoie7WfP9HGdI+7Ozro1aL7m1nrZPXZ8NmK3u93Y9xWAUzDORVpqPKS+v85xncDjOaDxnIT0vnsexVgIk/bOQaZ1f6T7kr1uprnOgYMmZmHhnH2Q6nq8PYd8HRV2n+f06o3j9P3FfsIGccK4LzPORdYO7LuGuJxlG/dDzm7d8P7P6fKP+u8UtiPeNIu3qjD59O+Y+vR4dBvTFAHUt5T2Q/9YCdU5qG1WmGat5Cuk+VOqsroH995IvPp+HSJ4zm+SvP9OvTMZfRJ9/FqP/t9J5X4FVhFBq9NhF9E/DJqEa9+Vj8z73F/lBRH+zsrLvG+i42RD2F+yz4blJ21gI+wpGwM05LhDagQS1dMTnZm7AezPMyKG40fuF73Dm41twziNf4Pzfb0Tm79bjukc26LnxzQziFGGOu3vzUZiD0XhxYo5eQgJM0zEsQ48SUR1iFlqmSiOptkJB2umZGD1iGMadoSd4CapwHVVSMBqG+SP6GIUjqxAi0pI7Y0C/nzt8Q+///AY5nke464Wvcy/n8xs9Ygxm9PJuG2QvXnvZbI8ls1/VhlgDVbcJfX+aKgxKtRfz2uhCuUFt5/Q+mBrFRmHDf87CfV5MrouGYaqRFWI7P/U6FtV6wr4PWu8zpfnnfdjwjXPBv1IE1yU5GYPVuiFflzDW277GIYgj9paaWTlxoTUGSdBHXUtrPLNHD3WNvab18+4OPvz7IO0Gef9eCkakzxkRUTQ16Hzaab/Xr8nm2LFjKC8v12MUK13OPB1X9LnSeP3kv79F80M/otmhw8bw7/u64b3/FuDn/czox3vv/hdff7PVeO3sVPQacjYOvrsSn+/Xk2ItYygeGJuAf9z8JOz5N9+vyUfDwTfgvK/lWGrguKhO2L1nDzp16qTH4k/3PhXuD7SHCxLx/lbfXzucckYFLtGBzBK1yOW9yjF8YDly+5Sj+wUVaH00AZtlRhw7cuRH/cr0i0vNTKktGRdjRLq8km+Nl2LSm6uw+OM8fLI1Ea07nIazkpuoeUfx9Wef43NrE3u+NZYxh/3ofNFpcEn2wd+WYJ57uh6+DqZwGYQul+C33dOMb49feX0lnnrPPM7FH2/D7sR0ZKc3geuMttj98bf4Tq8ieg+4yeH89qvzO0edn8zzOj8l3PXC1qUfnrxEnka1v/Uf4pl/v+2+lp/sa4tzzlCFr/R0NN7qvb+9WKPmDzkjDWd1SMQnmwrVFpSUHri/32looe7LY29+a06zC3t/Z2LirapA3lS9VPdi+f9W4g/62pj3ohk6pKvtFuZhzR5zDTTrgKvOd6HF0WK8Zx2fh6Y4/4JzcVbTKD5nYT0v1nGoeeq5l+yrV1YsUet6rofk09B5n+38qmiDXnKsjudrE/Z9sLTBTy+SY1b7es/z2fcpouvSOsTrEu56AXQ8Hzep61L8bR5W7jiiJ0aTw/Po5dSzspGtzqtFU8nceRF/eG8bGp+l1kt2qcFrmroGifZzDPP3mTwvD6v15HlZrn4vWe+9T/YlqmdFvcekx7KnF+ApNc3j2kT8nHlquneXfmUy/vr5/BMY/b+LzvuKLo9dxHR/zMgJjvPKjnMiP40qPDdpG4vyvgJuznGB0A4kqKUjPjdzA96bYUYOxY3We/ahdekBpPQ5E8kXn4UHp61Hw/1RDKZlDMWM+fPwojFMgDtXZqI1TQ1eGTQTJ07Xy+qMmmET3MvOsNJrOqbDlb/eI4hjKsDO4jRk9xyk1h2NLFXcHTjNvg+L3nZO5fG5t+1vv8J2TjOGDTWXtc0mihfp7SpzblNTKtSgRxQZ7//zMkz5RQg52/Fi9zoMOl1emFUI7FUctqt5MyXbw2j0Mw5seQtTXn0W9xndKtsL7Xuxas0CzDXi5K3RwZ4JktLDz/l9o87PatTUS7jrha0NhvcwO9U2qmCs8ayatF2d+31vyZTWyDrTx7fmar5x/smZGGd8q662Z/VgtMKhKlOY++vcKwuZ8sKoNvSWV/UPuRdq3Vf/6bsaSXUK53mxMaqlLF9nq25irjdlvRmWyTwzGlk5Ed53g247qLQUO8wJ/tXQdYne9bSu2XYsqVKNTKq02Xq48jNEs32dyoy3vVj7rXk+9mk7ff2uCPM+dG5jZvnI82J/723fsk4/K53Rvcq5ReM5IyKKLgZyKG60O1GBVtdegMQuHbE7NR1l55+hPkQ30nMjlYOJ07KRN1lXfXoWuFZHPFbPtKpDzcWGzEG2QEgaXIWz1XQr0yYNA9PX6/Xz4codrLYKZHRwGXN92VEoycufYqZsG8VYKvv32W6O2vYgYJZse/IyIHecx3H42q95TrkoelaOfRRmIRtZxnSiOPRD4K8jUs8pw1irwZ3aYm+peocqWzc4VGPYiyL9Kh5st44xpQ16d+mBiQOGYcYNw4yC2Wgj8NIaLns5pE1ygPNzEO564Uo5A1lGYTwfi50CIFu2GlWo0s44QxXVqlq13Kxilda9r7ouZpUqo7Dn6/jD3l8b9DxDCpJOASLNo2Bac0J+Xtycqylt/2abWa0nOdnnfQhJFO57OKr/ukTvevaWKkvGs/1W3HSxXrS36rnZp+3Y6zsnK/z74J+rjddKNfScERH5w0AOxY3G15yL4106oHDrMWzetA9rGzTFse4d9NwIZaTDJQERyYiRDJYxmXCldzTn5VjZLpI1Y1eMvLX2FpOLsXSRDsKsXo8NaosdMoCCndEopqltz14IY28FC/FGfhqsw3Par3FORctgzSpYsETNI4pPH7/dAI98kICN/1Q/H0rCeGNogHlfegZ4up1Xu7JytusCRrGPgkg86iyFnRvGYP6In2N0v0xknt4anm20eLK+vQ71/MJdL2xW4Cg5E1NVIU4KclWHPmYmjKNvMPPVfPUbt7VxXaQhWMesmLD3Z/UctQ87qyPAFaFQn5eQJCfD/WcuXFG576GLy+sSxHrSxosEOIodn231HrD1cOVvqPGMMSWc+2D9zjba3PHIPjwTE/uZIZgqgaUaes6IiPyp8UCOtEMjvUOdOHHC+Ml2aeqvptmnoujbY9i6eT+Skspw4MRxfNFGGhGIlnyPxoiNzBipmjQGevoULA0nJrOjEEWZ3XWWjF0GembBKxgUjAx0MD4xENUtO95ugDkbE2zVFxLw8T8SscJeoG1XEXnhjnzr0g9TpbBjfLO83eiWeO6r/8QUNUjBzKyKUL91PvM0s8AmgsxwqLP4vPhWS6+LBHGmShfrW9/BfTHpqaqahXsftuhqlOrdPXqELRAjDUnLZHV9HLNuiIjiSI0GciRw06VLF4wf/0v88ZFHMP6Xv8SZZ53Fbr/rqecyTmD91YnYe1cydv0yBcXjXHj75+313AgVFKJI/Ym2qlO5Sfs2RYVmwTLjImQ715JyZmTQZGLs9KGo3HoGhk2fioHFSxy6Qddt39iqT2X31CPGceRjna8aWHZyTq5cDNERpIxhg1i1iuJWx7QgAzQ/2AM9tUeadyp+OKKRoeDI+rZ5H5a/pQo6L79ltPMgbUtsD6IaT7jnF5XrEgyrFx7pTlkV4vwOTt1ZS8FQF3TnSrsj7vZyfIh4f85tqMRcUM9ZZM+LX1Z2Q7Bt0vgTjfsu1R+lDZbael0CrtfG7KVJPduSiROb7sarW6T3QWdSGv9bpBHjdzDFu+t/EZXnjIgoumoskCPBmiv7XIlRt9yCDh07IiEhAR06dMStt95qTC8rK9NLEoXKVoXKaARYAiSrMdNoe2aqe7rR6PDqxViKXDws4+PSURRmLSlpZ+ehDdnmdoxhKga6bFWi1P7X5evjqtLYsShGUfo4c12j3RvPHrB8U+f0bD6yxpj7HI88Vq2iOFWB3F+W4YEJZbium73qVAUu+kU5+tsKtCU/6Be1hGRwGB/wTz8dnl3jailWVZpgVEPhvnQb1no0rmtpA18VWd3tb4R4fuGuF7bd32KDFMZPzwqz226rYLgdc1VBbtWalUZjzGndHbowDnt/32C9kQ3QGgP693DO+FHXx2Pe7lKzrSWHYIPVTXpwQnjOQnxeKjm1TVLZaGzxt98GLvAGCq5EfN+F1ZhudVwXaX9Fv/AQ+LqEt56af8PPMfr01rqx5LoQxLEJ5z506aeuB7BcGkr2CMJUbcTYLSrPGRFRdNVI9+NSfSo5uTVuvGmkEbCpqChXQ4UaZG4FzjjzLHzyST6OHDliBHhqArsfrx727scDCa778e+xZvFiLLINK63+vvd/gZX2eWu+l4n4fKUeX7kWa1au1N2Dy3as1yLQuNrS5ysrty1DfjJGTvstRg7phYb5K/GfFXq6sV/7+mbX5IWzJ+EP88xljEUMAfb7/Vr3/lYeOg9DrkjA+nlr1VJUV8RV9+Np5ZhyXxmG9zG7Dc+1dT0uWmTA6Er88l7mcGRtInaq6Rf9ogxXt1Mvmqni8rkVel1z/QtlulsC/vmcuU488tn9eLOmWHzcZXSNm31WW+wu+hbf6cU6qwLD/ddl4ixjzF83vHuRlGJ2wyvdX+8uKnRvw2jEs2NTfLcn0i6CdXfOTV04J3E/vtmxV38n3UYd5yW4/+qLkWl0FS4FQlsXvz8eRVvd9W9I5xfuemE7gs+P6S7Ezz8DnROPofioOkf3dtV17HUJfjn4DBz17o5YkQZgc5PNxo0XGOeutleUiJ+er+6try6MI9jfd6Xmdluoe3GFujaNj5Xic/f91ffjuosxKGW/R5fgGdb1VNM/UdON+6eej+GXD8KY86x2QaL1nIX5vLi7nQZcZ2Tjp/Z1U87E8CG5OuC0Ha/8+7Mq98HOOt8OXtvo3Wxv5XFHeN8t3yWY22h5dFuA7rgjvS5N1HXRxxnUdQl3PUXafFHzL03ep57rpfjDRl8Bj1gJpftxz2vVuuN5uCK9SYBp4d4H9ftH7fOK9NY4pO71mqC7Xo/Oc2bH7sejKaEa9+Vj8z73F/lBRH+zzis7zon8NKrw3KRtLMr7Crg5xwVCO5Cglo743MwNeG8m4fIr1CfpGDODNBVGUEZ+Nm3aFHv27EZKSgpGjLgeGZ2t750S8F3BdixcuFDN34PWrVvj8OHDSExMNIIqsn51BXYOHDjAKl7VIPfqvpj68CN6zL8pDz2AZf9ZqcfqEqlmNQiFkyc5VMMKjnSjPjZtGR6apBtNpjrhq81bcPHFF+uxGiaBnF+WI1WP+peAeQ81wMfyMq0CY4eXoZu/bzJ3q+VfU8t75rrHlb3q75bd0gfvMX7m/HcvZoyQrqp9kLYbSjsj8/R9Rjfcjj04pfRw3oYqpM19OvIeZtxtZPiijnPut8Do7p1Voc+rIVN/x+bv/MJdLwJ+z1Go/S5f8Zbn/rr0w3zJxvFR7cTeroivKilh7U/4vd/Cx3WxjtMHybZY0kYyL6L3nIX3vJgZIAOS96G4VBqe1ZM9BHfPHffv7z45cboPbmdiojRWa3QJ779qTGTXRd0ryfQK+rqEuV7A56uSkalTpRvy0PUeYPUU5Y/nsVrr2K+VdX2DneaT431Qgrg2xWr9DevWe3RPLiJ/ziolf/2ZfmUySjc+izjRL/c47ysw80v34HjsIvqnYcNATnBkZd830HGzIewv2GfDc5O2sRD2FYyAm3NcILQDCWrpiM/N3ID3ZmKekSMBmLO6dMHIkSOx7uOPkdymDX75yztx2eVXYOeOHZj3wgsoKSlB27ZtsXDBa/jHyy/jwgsvxJg77kCvXj/Fl19+gePHjuGuCRPVh+g9RoCnOoI5zMipHh1daVi96gMj2ybQ8OPhH7H9u7qYa2Jm5Bx81zPDJzBph+dJ3HfTYAwZMhjdXfmYc+fz2KTnUt0QVxk5LSpw+UUVaKFH/UvAJ+/q7JpDCchbmwj5QviU9qow0sxYwLQ7ARvXN8Dz/0jEl4f0tDjlMyNHeX7dB1i5dT8aN0vGWclNjGlSYMlf/yGeefNbtLoo8DfT+LHQ2EbnDslwNbW2YRYoPvjferwZcUaOOqIdn+OTfW1xTpvWaGG1Iy8Fj/+txB/e+wzfNTsDQ85oXeUbbOvYfJ/fOnzV9gxckY6q5xfuehGQc1ys99lS7dP9rJaq/X5u7ne1fV9SqLvuHLWcKvipArz3N+myvd2SxXL6afhpYtVsjZD3Z5Fr8/E27E5shg5NbfdDXZ/irR/isZf/V3W9Pd/6vH9zX1+A57ccQWIw1zOE50zOLfTnRWdiHP1SncMSvOe1fvHWfLyy4m28GURB19h/olo/Xa2vpxn7/+xbWwaTKez74LYXxYnq+p1xGs7xcZ/tIrouTffhg9dfxEuFwV6XMNfreD5uMrq5D+xQ4RcBspCCY2XX+Of5ezD8jJxw74Py41EcTUk3MtOctFDvybPOOBed93muG/lzVokZOdGUUI378rF5n/uL/CCiv1nnlR3nRH4aVXhu0jYW5X0F3JzjAqEdSFBLR3xu5ga8NxPzjBwJhvz442H0738NsrKzcEqrVmiY1FDNkQydRBQVFuLV117BZ59uQtduFxgZOi6Xy8jcEdKb1f79+7Fhwwa8tWIFmjVrVi2BHGbkEFE8iKuMnHrOMSPntRXGT98qMxSCyUIgopoSy/dquNvm74/o0tcT/jKv2hhVLY1u2qOUreQLM3KiiYGc4MjKzMhxc1wgtAMJaumIz83cgPdmYtrYsQRjJJDToEESXn99MYqKitAwKUlNN9vEKS8vQ5orDXff/Rs0adpU/bwHqampRrs5sl55eQWS1PIS7Hnj9dfRpEmTagniEBEREVF9shevrchHsTREPaKf70a6qXZLOQNZRgaQv4a292LHXrPFHSKieBbTjBwrkCNZNUePHMGk++9HalqaMd0ekJE2cMaOGYNn5swx5skgzGUSsKukGI8//ni1ZeMIZuQQUTxgRk78iIeMnIBtNHjYHpW2dapTXT8/qgW69MOMfp2RVirV7aL1fDEjJy6428fZh/y3VmLxlr0eAZ3OKWei50VZGHC6/A6K7e8XZuREEzNygiMrMyPHzXGB0A4kqKUjPjdzA96biWlGjgRdZJBATbPmzYwgjsUesBFWezT2aebrCqS5XGjZsqU5kfzKzdyLtx78HGv+8Dk+evhzrJ76OVZN/QL//PW3SG11XC9FRERERFVseQv3vSqZOQq7mq5bdq/DEt39f2a/n2PqnWMw3zZMHdHHDOJIWzuvMkhMRPEt5m3kSDWpY8eO4uyzf4Lbbr/dHbCxWIGe0bfdhmefe85x/ovz5+OLL75Aw4YNjfFYq60ZOf++5yu4WpepV4nSCpFRPQ1oYERJi/Y1wi2zO+HwsQbGskQU/5iREz/YRg4RhYcZOfGkc5ceGNzjNLiSW3v0XmX1VrXWK1MnFpiRE03MyAmOrOz7BjpuNoT9BftseG7SNhbCvoIRcHOOC4R2IEEtHfG5mRvw3kxMAzkSlLngggvwixtuMIIiEtSxZ9yIYAI5MkhbOdLWzj9efgkbN24MOpgz4/89hvt+e68eC15tDeSsnva5ul5ybRJRVi6hnAY6oCPXUgI68ghIN/BqMB6HROONV1iahPkftMTbn9q7kyGimsZATvwIL5BDRETkiYGcaGIgJziysu8b6LjZEPbHQI4fEZ+buQHvzcQ0kCOBm8OHD2P/vn3Izu6Ocb8cr26y5+6CDeQ8+8wc5G1Yj1NOaYWmTZsGHcj54yOPICmpYcjBnHgJ5HTPzsb6vDw9FtiHD3+lrnGikYljBW6MgE2DpmjSoT8ap/YCyk+oJdW5lR1X7zo1yHjFCeM+XXr7WnNDIcvBxPmjkaXHxIZnR2Hmaj3iJGMoZkzLRt7kSVhQINsYhELjtZ7v5jSv6n6Llk3BfdZCHts3JxHVJgzkxA8GcoiIKBq8AzlERKGKWSBHAjYSlJFgjjR2fFIN/+/xx9GggWe1nkCBHCHbemDSJCQ1bGhk5sg6wZJAjgg1mBMvgZwxY0ZjQ96GoIM5nyyfiIRGyeqiqWOXwQjSyOtjQNlhc3DPkypYanCPn0S3ER+ZGwqZV6DFCKCk442bn0SgWE6lcAM59uk6sJM/FyMDRpFC5e/4iGKDgZz44R3IKT3rfHQ7dggbG7fQU4iIqCYxQEJE9UXMGpuxAjQSeJF2bU6WncTmr74KKQgjZPmv1HrlFWZX5KGubzl58oRRzao2ysrOMjJzgpGA48Cx79WwQw07geOFaihSwy51EQ4A5cdgZuFY2Thq3Bj0eAhyJk7HsAw94q2gEEVwoYPT/JhZjZmTl6Eoszty9JT4loFh0yfUkmMlIiIiIiKimhbTVoMl6GIFdKR9m02ffqrnhCIBX3z2WURBHMuY22/Tr2qfoIM55UfMoIwx6ACN90+jSpVk6sg0a5B5R/VGAsiZgBfnz0OPdX4yU3K6Iyt/iS1Lxh70sY97z7ORrB61H9nXjGHpemIQCj5GXlEmehjRkar7mjhxutqmDp7Y9uGeZpAAizV9HibmyLpShSsNA6epaRP1kh7ry3LmZM993YeJaluV8xS5htOHqr0UYMGk9egh63ssQERERERERFRVTAM5dm3aJKPfNdfgxx9/DDogI8vJ8lf174/WrVpVaV8nFOPvuAPJbdrosTrMHZhRgz1YI6+NnzJ+DCg7av50D3rcHyto0WM9Rt7sq/0bHeSQZcYAcyKq2pSDidNyUfTsKGNfs5Dt0Q5O+NLgKpyttilVvmQf0n6OuY+RzwLXGhEfCeJMRfaGKeZ041xXY+bNc7EBxVgqyxvn5nmMIycvg2uMPShl7WsGZi7JR5YZWTLk9MjEhiULYcbBZNtq/XXdvYJBRERERERERJ6qJZAj7d5MmPhrLF+yFL+99zdYv25dwGCOzF+/fj0m3Xcvli9bhl/+6lc+288JRl0I4gTdTo7RJo49YKODOBK4MX7a51lBHBlkmhr8yBmSC5cEMhY5BWh0kMMIahTiWqdMm2BkpMNVtAzWrgoWLMEG82WQilG4Q7/0UIy8tTqNSPbhEXzKhCu9o5p+EbJd+XgjUEM4xvr5WGddjoKFeCM/DbIJk21fq9djg7u6Vw56pFWem9vqxVhaBGSNYVUrIiIiIiIi8i2mgRzJoJHh+PFjeHLmn/Hxx2vRMKkhnp0zB7OefhqHDh3SS1aSAI5Mn/3XWfjb3LnG8h999BGeenKm0XByqOpVEEdYGThGcMbKyFGvjYwc+akGj2wceW0NatyP1TMlSDMbGCeBjwDBBqN6kz2oUY2MQEwRdgaIw5jyMUdn3RhD1BtItqzGomUuI+MnY9gguDZ8rLNxhFWNaxwwW44jlAaiiYiIiIiIqD6JeRs5onHjJjhy5ChatW6NZs2bG4GVL7/6Eg/cP8kI2Hzw/vtokNQA77/3njH+0O9+h6+/2YK2KSnG8qeccgoOH/7RaDQ5VPUqiCOszBqrKpV7sII26qcV7JGgjjHdtkxA0qaLBBukXRc/GTdGMMXKitmBQntQR9rP0S8dSWPJrlwM0dEiCX4EV7XKqu4URDDEaJA5U1enstFt7FSZ7k2v764xlTEU12baMnS8FKxV9zFrMIaoE3Fn6hhBHCuAw96wiIiIiIiIyL+YV62SYI40VNyoUSOj63HrdcuWp6Bp02bYvGUz/vnPf6KZev3PhQvx9Tdfo3mLFsZ8WdZaJxqNHddGIQVxlP37Ss2gjEe1KYfBa5nCXUf0VoIh7bp4Bx5s1ZSMtmes+QVYIG3EjNHzeiCIalJq+89WrjMeeX7Wse3X6B7cV/s9vpg9XCF3ql5XDUYDNRKsmosi23Sz3ZrVWJdvb+zYXN9lnZdxzn4CSFL1qjgTWcVWI9BC9sUADhGRszYYfsMYzL9zDGb0OlNPIyIiIqq/Ei6/ok/4LQiHyapyZQ3Sq5W0fyOBGvtQkw4cOICTJ0/qsdrjqvOPYORlR9C+lbqtFeoaJiSiojwBFVCDGi9XkxMSGqjXcs3V9VfTZfzwEWDuO4l454sGeksUCzkTpbevYANNRMBXm7fg4osv1mNxKK0CF6Xq1yUJ+LhYv66D9u7ZrV+ZSs86H92OHcLGxi30FIqJlB6YMSITacbIdsx9+i2sMl4TEXlK/voz/YqIqG6rkUCOkACOk3jIvKmtgRyKY9Lr1zhg1iSrtyqiwOIukGMEbiqQeV4Fup3j+Xu85IMGmPp2oN/fav2rynHNuRVITdGTkICSLxPxt3cSsCOOA0EM5NQUycj5OQYkA8Xr38F9a77R04mIPDGQQ0T1RbV1P+7NO/vGPhDVLboxY6l6NZtBHKrlUssx6uflVYI4QUkrx5SHyzDqUnsQR6jxc8rwwC/LMLZbjXy3QHFtL157+Vnc/PSzDOIQERERKTUWyCGqP6wGotkWDtVnFRj7y3JYtbB8kyAOg/lERERERP7UWNWqeMeqVUQUD+K7jZwKjH24DN30mL+qVRf94iRGnaNHFFn2b2pZo2O7tApc16ccF/6QGETVrJpTH6tW9R4wBqNPl3Zp1qPDgL4YcHprNXUf8t9agJlb2mB4lWnGap5SzsTwi7KQpZYz27kBiku3Y8O69Xhty149xVJZjcqX4vX/xH1rvNcRej3kY8rL67BdjfdWxzbIvs+t+Zi9XOZFWxt07tId43qofSXLtRD71P42qP1947U/z+OUazO4fxYyrfVK1XVct1JdR4frEvJ6kencaximdgeWv7oAr8nj7+tebn3Hx3kqDvd9yYq3sMrzrWSj7luv7hh0Rmd1LfUk61p+rPbhuJ461i49MLhHpromeoLjPVCsdpdKrefFm/Uc7qs8d5uIrktIz4tNWNczXNYxVt4Hef8s+Xgddpzpde42NXJdvLBqFRHVFw06n3ba7/Vrsjl27JjRADMRUU3avWcPOnXqpMfiT/c+Fe4P6IcLEvH+Vl+BmAoMHFa5nBXwOaDHcSgBmzc5rRs/jhz5Ub8yHW3bHmllx1GS1EhPqXtOPSsb2aog1+GsLGSmN9FTm8DVJhGNO12JAafbpp3RFrs//hbf6SlGYXjAIPz2knNwVnIT2MNdLZq2xllnnIvO+/KwZo+eaGiK8y84F2c11aNeDhV+gZU7fPWwqNdLPoZv1HP0f0NykauO12OfyS5ccVYiPtlUqIqHUaIKqhPVvq4/v7U6J+taCLXv5NNwxUVnoPHWz/G5+9GpPM7WKdm4Xl0bl3099dqlrsuQlP1Y/LU9KBPuepFp3fE8XJEOfP3Z5zh8wTA82c/HvSzdhnle+5QCvc9l1X3PPj8bP03c5uM+qmt5g7pvZ8i11JMM+lqefwY6JxZhTZX1JOhyE8ac71LXRE8yON0DpVkHXKWWb3G0GO/5fB6s5/Coce4e6yrhXpfQnxdTeNczXGYQa4xxjHqSIu+fbHUPzlHTZHo8XBdfmu7dpV8REdVtzMhxUFszcnIz92JCbhFOUX8HpT1piUVJz1TF+xrjl893Qsn+ulvgIKqL6kRGTrcyzPq59acmAfMeaoBCNe02Nc2saqUbO/6HztCJU/U3I0deWZkJVqaC72n5bz1bmZXTpR/m9+usswbWY9Vuq/AmWRd9Mbq7fOseXC9U5jf9rQNn5NiyMZa/tdKd8dNZHctUdSzC4xgjogqfd/ZBprxU57jcI8NIZ5Z074wij/15HqeV5WBmVNivi/dxhrteZKzrnr91OzJPV9dPnedcr3vZOWWvZ6aMvu9yD/LXb8DiNZXZFHIfxql5ae5nR89QrH2Z+7BnmVRmh+DbqvffvZ7sT91zd1ZSypkY3r+PvmZez1lUMnJCvC5hPS9KmNczXPb3vP16dlbXbHB/K+MpDq6LA2bkEFF9wTZy6pjb+uxCy8YSxElURawGapBbnITUVmX4yy2FaN64zFyQiKiadGyvX4jdCXD9ogwPuIM4Qjd2/HAZLtJTKL4Ur1+pC217sfZbM3/BPm1nqTHJ05a3MOXVZ3Hfy1IotwpmYi9WrVmAuVvldWt08Gj4Ogqk8Pi0KmS6C4OqGK+Oxdwf4GrTxnwRoc69snThU4IBb3nszzzHt3Dfq/90LHwaQanlVjBGmNdlynrz+maeeabx01u460VCCuWy35t93EvPQnkbDJeAi2JUtbMFHYTch/vekimtkXWm7/tQ/K0U/PWIQe1D1ntZGru271tJ6YFxOogjgQWPqmW7v8FrL/8Ty41nszMG9YrOfbcL/rqE+7xEfj1Doq7nIFvg1n49t+9eh5kvv4N8X+91L7G/LkRExEBOHSMBGwneyFBm1AxLMl6XVyQirXUFlk/6Hu9PKcB7k7/Du5O/V8NOvPPQTrx0ZwmuuiCInFUiokiklKO/Y49XFRj1CyaJxqOivfbClck+bcde35WV3IW2lDbo3aUHJg4Yhhk3DMP8O61v/VvDFdXytSqASjaHHrNzOsbwtEHPM3QAYYWfdnc8CrF2+7DhG9/ztn+zDUYv/MnJMIvwduGuF6Gt0u2707nYpJyBLMnYUIXyxU4F7y1bka9+pJ1xhsdxWsef1r0vJvY6E52DCfC1STarbG7d4JCNshevrTPvjvf+oiLY6xLu8xLB9QxLENezSL/yK9bXhYiIYhDIufAm/PHRRz2GGy/U83wxlr8b/Vx6nDx0z87Wr4KTkNAAFRUNUFYmlRWSzMwcNSQkNUeTU69D64seQevuv0dyj9+hTdZv0CbzTrS9cCy6Xj4SD911hd5KBHIm4MX589zDjGEZeoYvOZg4fzr8LhKSaG8vCBlDMaO690lU6yVgxT8bYPxDSWpogHlf6sninHJm5dQh0gDtxBvGYP6In2N0v0xkSqOn7oZMa7M2cOkqJjt9FnijIDkZHfXLkIS7nh/FPgJ5PlmBgORMTL1T3Xefg65G8//bux/4qOo73//vgP9bhGBCSEQSWpYUNKtJQClBxBRlKVigFmJ2a+veu4jm9oqXXR6Fn1tY6O1C133wU29v2sjeu/TPXf5kfURakdtK81OEFYUQLYqEYgmKCYEhUaz1X4Df+Z7znWQmmZlMJpNkJrye+zidc75zvjNnzplxOZ98vp9vR759+u7mWtW2DFP+xGKtvsfu/1cLwwZ2coZ736WIx9fc0hbg6rfzEuv3pSfnMwZRnc8o9Pp5AQD0QiDHenPLCj2yYoUqDzn/Li/pIpiDsAoKC7oVzLmq8Cf6/JRNurroFxry5f+lqyf/WENveUJDC9fo8nTnInx2Rmp1/h/sZ87S+r507o/S+Q+d5U8a+vkefh1MEOf+TD2z0ky1bZZVqilYHRDM6YdAS9x1+AzHK/VdphUHuuW1fx+sba/5a+mk6JXqQWqyWxhA3Lo0tqZGS71q91drw+Z/1ypn+faPnmwb6gS0cYfvPKlvO9+RDfud70zLezqZ2h7Y+eFXx8Y/qwYAgCTU60OrXv35Fpk/tqZlmJSbTN25NHSmzoRSf/u9Ms2ZM5e2Z+pkztTDbfsHv4ZZHp45sNN5uhPMSdGn0ifvOMsJZ3lX+rTBWRqd5ZTUelY6/4l0wdnnvLO4j862u9jtbih6ODAok62Fd+XrwJOBQY3j2vrj7dLseSqyLYiWcz7XLeG8YUA4cTClPVDjG6Ttr9l1DGBj9bAt0Prsb7xaGaa+h6mXUT+ghkn0Qo0ffxZGS0v3in/H2i+e/Nkvf6h2g3URl5BFhi3nO2Jqozz2f7bqu2bfzV5tlpFfKNaDIWrdjIxU9ygRzkubbn5f4nU+uyni+ewVvfA7AoABrg9q5DTp1GkpfUSGMmeW6rb0Q6r0Z+oUz5QXgkmXr9pk8JigzwRNjxCY8V7jtF54wtl/i/MiF4mogznnP/KCMu5iAzQdH885y4XP2gM6bc99bF+kC3b41KR9AUGb7JtVmFmrfXvstt/xV1TTmKlrs00myyIVOP+cmrNmo372cECIYpQZnhRiKJY7bMk/TMsf1PAyYh5+eF1AWxSCXmujAt/eC5p0fq7o4fY273hDfYYOGTph38fut7B96Fn7Zw31/se1dfl+TTJt7S8CJKeTKXrVnzafdl7/+S8vtA9xGHlBc0vOtxc+9qWowa5iAGg5ppeDipf6Dde1di2hpNmhYN+5Xz+MWBz3qPbbYs1fnTkpfJZI2vCwz4WuDdRe3PbkW2+FvDGPtV+f8L2lA6YY7hcKVNLNG/OccRGybXxH9Zi/1k1AkKGtLlDY9wtzXnwtXq2XMMOtcibPCJgBLR5i/L704HwGifJ73X4+v6CpbksHzvF5Q6Hipee/IwC4WPVBICdDI9Kl06ealGFWNEEL1q7VggnOavoI+4/303KedrQHfcJxX+P0Gzpo/j9w0ymnJ4K0BWacJTBYY9bdR7P9iXTuY++xbbHbkfiDFJP2u0OnHusYtGlsCPPXrpHKGrVHj317gw44/0Rwh161dR6pOXdJ5WYo1pO1ymzL3inSw2sKVeMfpvWk9LW2wMdIZTb82Gl/XB0PITTzWrPV+KR9rZXblXm/P/higiirVXhglfdcwOfa85jd3xx3/l3O/uE+g1+k9zGcz5rlnbugz1o0T3NObrDvFXhezfs5bfsmdggKAf1k5Hmt+n6rytuW9qnHjYxpzvNLzrUt7bVuUrTt+fZpyb0Zquxr/Jdzmhlwg/La84MSegpydFNqvh409U3sprmxNlMm/9BM7ewWO04sU2/2T6/sfN0nzoh487z7lVrvptfUL/mrO1UyLvAG2X7Oe76h1V8NNYvUMOXfaWu/2BZ3uuy2Kcbr9auQxWJj7ddX/MWFnRvze0LVtjHTSTvn5Tt3KihQYGafurNYq7+z0Bs+5dy4B8pxPqOX4dWh/opvn37lDwSY9wu8BhHPS7Ma7WxWiwKHaznvW/JV/3Tm8RXb9yXG89lB1N9rf+DInBfnGKcG7OcdX/zq8fj17HcEABevXg/k3HRvicbrtA79zl/n3svIMfVzHlnxc73qtqXLjd1k/rkm2KBPkIwRzh6eJjfSc73yTNJOQPtAd6DmgPbX1NitCM7b4E1bwMYGcUzgxn0MfM4fxDGLaXOWCIrmz1amCWJUdQxgWJlZYQoJnlRD2Dsz5/V+XCk3sWfPfh1w3uFaE/jIznLWbOaLCR7dn++8vP/VT6rm5W4UpXFfKyBb6HilfllrgkvOus0k+mWoIjdthZtNFk4UIr2PK+DcBX7WEw1qzF8UvjD0nqf1jPPzKbifoVZIdBeUkeZfbJPfa4P1j7vagzmhNO0arAqGXQ0QR/W0nQ57pKlv0laY1bkhc27IRzo31qYGSlKzxXm9m9AcffXOb9jPGPg539Ozrxx1d+/opL+or7+Pc5PsBR2cPptDz7xlxNqvz5hp591r317bJvC8LJronJcWBQ+lcc7lj3/jFTo2w6dWOzfu7X3ud7ZtAKGlVj/uEKja/ax/inET5AroF/G8tM9mJfN+bX1MgHGYO3V23Gs4xfp9ieV8xsw5L79uP8ZFAe/lHp+pdZUo5wUALnK9FsgxBY5N/ZoFE0zgZr1+49yIvvrzJ/TCaS8jx61vc297kRx3/4emK/30887/E2lU46+r9abSddtDTntxelvmTbj2gSzqII7hz8BxgzP+jBxn3c3IMY/OEpSNY9b9i7MdgZeh8mPpQRPc6BBUcIdQ5WtSx0iDGyhp1LvdiLu0q1WFzVJxl04ZML3IZB/dL/v+q9xASq9xCybfp3I92CHzxj/k6kHpx+Y4os1AAhLTiecGq+x/Dtav3wyomeNo8qVoo9O++rnIgR4kl/q9W7XqN/U66d5kW86NoL9mzu7+TBwJw2QHmFosxsn9O8NMwRzA3IT+yCvMG/Q5nRvPk3+o1qofbQ3zGu/pwK+f7HR+Tv6hVhs2h+tjxNqvb5lrb+raPPsH5zzYNlfLe27R61XO9e94rPVHvELHq9yATvBU8Sft92ZVyDowzdrS1s82ubq4BiZAEuL7uWHzk+7U2fGdrt6K8fsSy/kM1K3vtRtY8d6rnf999qvRZvbEVcy/IwC4eKVMv734gl1PPmbq8pJ0vfCEFyiKp7Nnz6q1tdVu9R9TFyfqII7jtae+Kl0wx31OOu8sZr1tMYEd23be7GMeA9qc5cb/HO0/XEzNl7vUsDKgTo47a5UJfvgDDmafRcrcvkrfdXfq2CfSdse+fh37BAr3nPdaetIOWzJBmjVZ+qV7nO1Dq4Lex3yWuxr0veWVOu7ub4Z5+Y8r8jGHfp9I/cy2J3vhOpXpx86xyDkuE8AJfh4Xn8N1RzRlyhS7hf7UfCb4TqLlz27QjZ/8Ua9d/nnbAnRluB3uY7JEunNzGms/IJ4S/3uY+vvX7RoADGx9UCMnzuwMVm5GT8kEvbkl/kGcRNKdII7x/nstcjNygoZNhVk67NNw6iP7KtEw9Vs6BBn2PO7WslnsDkfyhiSZoEZ7gGSP9tWGKHYckvP6K82MV6vta0XTxwgYjuUs3nAl77Uy77ftblDGH2wyRYU3qDHgfdy3McOZNFvfN20PZqmx7TsW6TNEep8I2oZwbdT3ZzfaYV7muAjiAAAAAACCJXdGTi9KlIyc7rrjho/0rds+0oihzmW9kOJc4UG6cD5FF+QszvZ5pzklZbCzPkjnnQ3TbrY//EjaUD1I1YcG21cCkAjIyEkcZOSg58jIQTIjIwcAEkXyZeQgoudev1L3/s/hmvmP12jmWvM4TH+xbqhmrbtaX/3hEM35pyGa/cOrnMcr9LV/vlJz/9l5fPRSlf7oUoI4AAAAAAAkOAI5AAAAAAAASYKhVWEk69AqAAMLQ6sSB0OrACCxMbQKwMWCjBwAAAAAAIAkQUZOGGTkAEgEZOQkjlAZObHgL8YAAADoCQI5YfR3IGd2frOWzG7U1VdIF5wrdP6886gUnXzvcv2X/32dmt6/zO4JYCAjkJM4COQAAAAgETC0KkH95+JTGnK5CeIM0gUNdhZzqS5RxtBz+h9/3aDPXX7O2xEAAAAAAFw0yMgJo78zcvaseUMpKSZ4M0jnzptcHBPMSXEzc1JSnPULKc5zKe6jaTf7mcydhpZL9NNdQ/Tc764yLwMgyZGRkzjIyAEAAEAiICOnj0wsLLRr0fGCNYN17pwJ11ziZeY4S8oln9MVo+dq2M3/qGET/0Gpkx7R8IK/0/D87+iamxYrb/q39L2HbrevEkm2Fq7bqJ/91C7rFjgtRpEeNtsPF7lbHWUvXOfsv04LvZ3DMK/R1T7hxOP9Q4n2mHpy7AAAAAAA9C4COX2koLCgW8Gcqwp/os9P2aSri36hIV/+X7p68o819JYnNLRwjS5Pv0n67IzU2iINvlq6ZqaUNke6fKR0/iMN/XwXlzV7gX7409XK+tV9+ta37fJj6Za22MlJNY68K0Qwo0jzZzvv0ev6+/0BAAAAAEhMBHL6UHeCOSn6VPrkHWc54SzvSp82OEujs5ySWs9Kl2dJ6fN08soJeqbldT3d/JpOXHWDlPkt6cov2FcJJVsLH5ytxifv02N7bJNxvFJbA7YbT0qFt3SIpBRNVEFtrQ7Yzd7U3+8PAN2RM3mhfvjVsXYLAAAA6D0EcvpY1MGc8x85y6d2+aR9/fJRUvrXpaFTVH7wWT19+iWd+PiUTn7SrGd8+/Uvf/itlPZV+yIhZN+swsxa7QsM4oTQUPUrNc6ep/YBTtlaeFemnqnab7c9RQ8HDM8KORyqw1ApNxvI32dJwOsHi/b9g19vo4IOIeC5Hy7Mso1Gx+FTEYZThTze4GFpYUaBAbjIjPxCsX5KMAcAAAC9jEBOomoL4jjLhc+kK66T0ufr5BW5eqb5VT19eq+2731OVdu26cS778r3/mntOfi8nq592uncRf3qxgadsKvh7dG+2nxN8gcpTABINXr5uN229jzmH561QQfyOw6HMgGPRdKTzvNu+k+RHl7jvMpK2+dJ6WshoydGNO9vXs/LLnJfb+V2Zd7vD8gEP1fu9C5w+3RHmOMtmqc5Jzd4bc4SlNkEXGxGXtDNN9rlIh75WL93q1btf0/6QrF+OHm4bQUAAADij0BOHztQc0D7a2rsVgTnP5MumCCOCeZ8Ig2dqvKDz+jp0/9hM3DO6K7ZszU2d4x+tX27Dvx+rz5p/ZOuHjLEzFluXySMzCyNsquR7Knarsy7vCLIRfNnq/FXleoQx3GeWGIzUxZ1CpQUPrhahQdWtQc6srOUqZGas8Zms9yf7xxK+CPp8v3d1wvILjpeqV/WjpT7kua5xu2qss8d3/qr7g/JCne8JxrUmL9IPwwbhAIGMDdwc16L//Kcyr/fqvL/ck73fcNbZuWF/m/PqDvsvlEt53Sz7ZdsTDBnwx+cUzRxhkrSbCMAAAAQZwkZyDl//nzbMpBEHcQx3ACODeKYoI4uqOKpjZ0ycI43/97d3QRwhlx9tbs4Hdy2kI6/oprGgEyXSMy+KtQtRQv0tZHtQZE2ZtjR/VKFm5mySs802naX+dP8yRCBmlq7v10ipbN09f59IsTxHq/Ud531cj3I0CpcfDLO675vnNeN47sIGF+kdj9b7fxXY5i+OnOScmwbAAAAEE8JFcg5d+6cUlJSdMMNN6ioqEgTCyfqiiuusM8mt24FcYzAYVXuoxecOdnU1DkDxzHEeTTrN438krPvObcttOPa+qtaFdzfuZ7Mwk4BCbNvo+bcP9v5AK90zsYZZbJe7DAtt/aO22qdVM2Pl6tCAZkrxxvUqPwIw6k66uL97eu1D79aoK/l2wwd81zmbM23z2UvvCsgY+iEGhpt5o5hiijb1SBdHO/xrcv1ve0nlXktmTlA3Lw5SK/Y1eR0VE+bIVap+Zo3zjYBAAAAcZQwgZzPPvtMX578Za1ctUp/+Vd/pa/OnqNrR43SBx98YPdIbt0K4jjef6/FC+CcMxk5ztIhyyYwA2d0ZqbGpX9RD439hh4c9RX5Dv0vu1cYex639WTskCGzPCi9HCrjZc/TeqaxVr/c2imM4j2n2fq+2z9LjUEZOZ49j61STcFq/WydGSK1R48576vZzrb/fbtKZ4n0/vb12j6HW8/mcafVPvekF7Ayz5WpJmBoVXswy+03SWGGXYU53rbhZBv1/dmNYY4NGKBeG6yy711il8F6zTZHcuK5wD4dln9PsXs5fIP0j/8WsJ2k6o8e00nnMX8shY8BAAAQfynTby/u9/z41tZWFRcX644773SzcozdL76orVu3aujQoRo8eLDb1pfOnj3rHld/ueOGj/St2z7SiKHO5bmQouG3b9aiTf+oV9854j4/bU6hLrnkEo39/Gj9p/Q7dL71T/rj0ad05tjL2lCdoupDfX/OAMTf4bojmjJlit1KNBe0+PvndKPdato1WKuf604gJrB/ijZ+b3BCZ+M0n/HZNU/Ln91g1zoarpK/+oa+mlqvDT/6jXbbVr/U379u1wAAAIDu6/eMHFMHJy09XV+ZMUOtred04cIF7X3pJf3bv/0fd7jQoEHth2ieu1g89/qVuvd/DtfMf7xGM9cO14P/z/9Wae53tKTo75Q1IlPXXf0F3T5orr548lZ9Z9UvVDTvEd35tzUq/dElBHEAJIWb/7I9CPTavyd2EKd7mvXyW+85j8N0LUWPAQAAEGf9GsgxgRmT9VKQX6Dz502Qxiwpqq6u1pAhV7uZOKZmjmEydcb+2dgBVwA5Wvv379fyFSu0+5m9+s71yzSh4cuq+pdn3Tbz3MUU5AIwANx4TveNt+u+QdoezRitpDNMmcxEDgAAgDjr94wcUxsnK8tUyb3gBiNM3ObmW25xAziBQZzc3Fzdd99f68orr7xogxbmc9fUHND/88jf65G//3sdOHCAAA6AJHRBc6e3/7frtecHeUXTB5D6ZpORAwAAAMRfvwVyTADCLOdMHRobsPEHbmbOnKnpt013gzxmGZc7Tt+89153/88+/dTdBwCQpEZe0E1tQ45SVDsgs3EAAACA3tHvQ6vM/7119Gj7tgnunDun2XfN0Te/+U19/e67de+933afb2lp0R8//NBdBwAkp1F5F5Rh1+VLUYNdHUhyhg+zawAAAEB89fvQqgsXpPT0dLvl8Qdzrr/hBk2cONHZPu/uZ2ayMsWP/Zk7AIBkc0GFEwKGhJ5OGXDDqtq9p8ZmuwoAAADESb8GclpbP9O3v32fCgoLbYsXxPE/msLG/uLG77x9XDufe86dchsAkLxGBszk1HTargwow3XLF01Gznt6N3jGcgAAAKDH+i2QY2rflJb+pQoKC9ygjVkCCxz7mbjOf/zHf+jRR/9JV1x5pTuTFQCgH4w8r1Xfb1V529I+fbiRMc15fsm5tuVm2x5k5AWNtKvGyVMDMMMy7YsqSHUe//AH7fZaAAAAgLjpl0DOZ599qnvuKdWNN93kZtz4gzinT5/W8uXf1WOP/b/6t1/8Qv/y5Ab93dL/pp//9Ke66qrP6dJLL2VYFQAkrAvKSPMvtqmjjID6OANUztgxbrCq1tZ/AwAAAOKpTwM5JmDz8ccf6+tf/4b+/MYbg4I4Pt8Zrf/nf9bHH32s4/X1evnll3Xo0Bu67PLLlD5ihK644gq3Pg4AYKBI0ckmuzpgjNW8icOkllo9fcQ2AQAAAHGUMv324oCqk73HBGw++eQTLSwpUUFBobPdMYjzqM6dP6fLLrvc3d+0+xf/dl86e/asWs3U6ADQjw7XHdGUKVPsFvpT85nggjctf3aDXWs39av3a9EX3tOzm7dqS5j6OKm/f92uAQAAAN3XJyku0QVxzuuKK7waOGbxz04VGMwBACBR5UxeqEVfkE7u3xk2iAMAAAD0VK8HckzA5tNPownieEOnAoM3BHAAAMnABHFWmyFVf6jWd/cy5zgAAAB6T68GckzAxsxONXv2nBBBHJ/++Z9+GBTEAQAgWZ38Q7W+/SwFjgEAANC7ei16YgI2ZjHFjW++5ZbOQZxH/8nUuSSIAwBIevV7t+q7BHEAAADQB3o9I+fcuXOqP3bM3Q4K4jguv5wgDgAAAAAAQLQG54wZ8w92Pe78gZz9+/fpwnnp6NHf62c/+6kbvEn0II4pzmymRweA/uQ7c0bXXXed3UJ/+uijP9k1z8fXjLBr3XNl8ym7BgAAAHRfr04/bgIhZgpvExT55JOPNWjQYH3uc5/TpZdemvCZOEw/DiARMP144ug4/TgAAADQH3o1mmKGUl1yySW68sorNWxYqrMM02WXXcZwKgAAAAAAgBj0eiDHLIMHD3YX/zYAAAAAAAC6r9dTY/zBG4I4AAAAAAAAPcMYJwAAAAAAgCRBIAcAAAAAACBJEMgBAAAAAABIEgRyAAAAAAAAkgSBHAAAAAAAgCSRMv324gt2PTaZM/XwQ9OVbjel03rhifX6TaPd7MpN9+oHJRN0+vkn9Nivo+1kuq3VAm3RIz9/1bbE19mzZ9Xa2mq3AKB/HK47oilTptitxJKRkafrp9+qqblpUl2V1mw5aJ8JLyOvWNNv/ZJy05w+Lp98dYf14vPVOthkmxJU8xmfXQMAAAD6T9wyct7cskKPrNiiN5Wu22bcZFuj8OrPnX4ruhXEkW7SDRPsKgCgT+WVrNTKlSu1ePF8L4gTpbySMi2ePzUgiGOkKS13quYvLlNxhm0CAAAAENbgnDFj/sGux2bIWE2+JUd/euO3+t3JkfrzGTco/fQbqh50h36wpFRfmTHDWbLU/NvfaeS9a/VfS822s9x4id586S390WT0PPI3GnvG9M/UnUsf0X/6mrdPlttmkn6WasXffM3rl3VBl8z4miZ+znnv9Buc7TPB72W2Tace+uSTT3T+/Hm7BQD9w3fmjK677jq7lRhSfM16553DOnzYWc6ka/zoq6Qzh/XCG6fsHiFkFOsbM7+kq+RTXdXPVV75rF544QVnOazmkTkan5am0UOaI79GP/vooz/ZNQAAAKD/xC0jZ3zJWv1gbYnGn35ePwoY7mSGTD2y4udqmrlUCyaYYVc2cyd9ukpmZtq9PJkzS3Vb+iFVrlihykPOaxbPVOZN9+o709Ntxo+z/Lxav1lvMn8ch8zQqibdWTzBvJF+5D7fO0OtAACepqaDOnjQLqfP2NYujEiXycPx7X5KW4LGUDXp4JantNuMWsqdoDyvEQAAAEAYcR5a5Szrf63AQVK+Jm8rw/lHvKmfc8rdbNKp01L6iOA8em+fCVqwdq0WmKFT6SM0PsO0HdLrYeMzjfpN9SFn3+n6jtPvB/d2Y1gXACABNCnaeBAAAABwseuzWauaTORG6RrhJuFkmD/O6vSpUJUtvYwcNyi04ude5o0m6IZI8RlbZ8dk8WhCngjlAECCOfi8m3WTNnW68jrVwsnThFznwXdaiTuwCgAAAEgMfRbIafz1elUeStdtD9khWIe2dCpw/OrPn9ALp72MnB/Y7Bqvn3/olj/j5lW97gZtSpztYt251HvOZPGcfn6n8ywAILE0qbq8QlV112j+4pUqKylWXkaG5CzFZfNl4jh1L1Y7ewEAAACIpOfTj/eUO/14evemLO8DTD8OIBEk8vTjrrwSrZyfG9304xl5Krl7vjpPdGUKIHesnZN4mH4cAAAAiaDPMnJCMbNR/aBkgnSoOqGCOACAODMBn8Um86ZOuysqtGZNhSqqdqvO5wVHrpkwQsw+DgAAAHSt59OP98Af33pJ1b/9bVymC483ph8HkAgScfrxIBk36LbxaV1MP56nkgemKs23WxXlz+j1Dz902j7Uh6eO6Y19+/TC4Y81pHC+vj5ppJr3vZGwdXKYfhwAAACJoF8zcgAAF4G8CW4NHN/hN0LXwGk6qOqndsuXlqv5JUxADgAAAERCIAcA0CfS0kfYtRBGpKtT6RwAAAAAnRDIAQD0roOHVGcec+errCTPTFQVIEMZecUqMwWTHb7TTEAOAAAARNL/s1YlKGatApAIEm3WqrySlbIxl8g6zmKVV+IGayJm3bg1dBJ3CnJmrQIAAEAiICMHAND7Dm5ReUWFqnbXyU5U1cbnq9PuqoqEDuIAAAAAiYKMnDDIyAGQCBItI+diRkYOAAAAEgEZOQAAAAAAAEmCQA4AAAAAAECSIJADAAAAAACQJAjkAAAAAAAAJAkCOQAAAAAAAEmCQA4AAAAAAECSIJADAAAAAACQJAjkAAAAAAAAJIl+DeScP39e586dU2trqz777DN3MeumzTwHAAAAAACAdinTby++YNf7jAnSXLhwQdffcIOuv/56XTdqlIamprrPvd/SondOnNAbb7yhN15/XSkpKRo0qO/jTWfPnnWDSgDQnw7XHdGUKVPsFvpT8xmfXQMAAAD6T58HckxwZPyE8brrrq8pNXW4Llw4r/Pn2w8hJcUsXvDmTHOznvnVL/XmoTd1ySWX2D36BoEcAImAQE7iIJADAACARNCnqS4mMDLzL/5C3/rWfRo6dGjbMCoTzPEv3nCr8+5zw5x9vv3t+/QXfzGLoAoAAAAAALjo9Vkgx9S/uXPmTN12221uUMargdOeifPee+/pnbff1scff+xum6FXJlOntfWcbpt+m2bO/AuCOQAAAOhd2ZO1fu0sTbObAAAkmj4ZWmWCNmPHjtV9f/3XNgPHe0szhOqto0f1r//6rzpx4h0NSvHiSlOn3qq/uvebuvzyy91ts9/gwYOd/f63jv7+aJ/UzGFoFYBEwNCqxMHQqlDSVLp2oeZmtmjbqk3adNw2dynWfgnC3OivLlCW3WzTeEDLV+xVvd0cuOJ8/RLpfBbN0vpFY5TVeEzlP9mhXcn23QQAXBR6PSJigjYmIDLnrrvcIVOBQZwzZ87o8cce09n339e1WdfqS1/6koZcfbX27X9F/+cXv3D3M0wf03fOnLtsJg8AAAOFuSku0+a1k5VjWwD0AxNQMkEcHVP5CoI43TFtifPfsI1dLaUqzbYdAAA90uuBHBN4MQGa4cOHO1vByT97XnxRKYMGKevaLK3+/vf1yPe+p/lf/7quuOIKvfbqq84eKW2BH9M3LS1NXxo/nmAOACSAjIw8FZeUaeXKlVpZkmdbI8lQnrN/mdnfLmVlJSrOy7DPA0ni+F4tva9c97QtO1Vjn0IMEuJ8pqn0AZMVZLKMdmiXbU1uaZq2pFTrA4Mpa0u1rCjNPg8ASFa9GsgxQRhTG2f8hAnuentQxnPDn/+5SktLtWDBQl166WVuPZwxOWOUYoZYpZj+XsDG39csE5zXMsOzAAD9I6/EC8IsXjxfU3OjvCHIKFbZysWa7+wf2CMtLVdT5y9WWVSBIADoHTkL7tDcTKlh+3PJN9QvlOxxWrZ2ocryU4OHrGWmqnDRQm1eMs42xMeuxwMDcVu1rdG0mqBYYHsSDqMEgATV64Gc1tbPlD16tG0JZurmTCkq0tg/+zM3aGMybf7v/92hwYMHKfdLX+pUC8e83ujrriMjBwD60annq1RVZZfd0dSNyVDx3VPdAI6vrkoVFWu0Zo23VFRUqc55ibTc+Sorvlgzc4ZrlHMDCaC/jNOC2aluTZ4nKgdALSy35tAMFWa2qGb7Ti1vC6SUa/mGY2ow++TP0LIid28AQBLqtWLHJuhiAi4ffHBWa9f90B0uZdr8TI2cQOa5DRVP6s3Db2rYsGF66OGHleo8BvcZpE8//VQrv/f3uvLKK21r76DYMYBEkPDFjvNKtHJ+rlRXpTVbDtrGDrrcJ08lK+crV3WqWrNFYV6l30UudpymnKJJemjOGGXZoExD7QE9/fRevX1zqdbNVnBRWFNQNWDfiGp36p7Hj9iNOMgep9J5hZoU8Jf6hsZj2vfMPm3aE+4zhv98mlemsvxwRW9j7Rer7l0HU9ejLP+Yyu/bp2uX3KG5zjkxWQQ1Gzbp0T1pKu3U5nYLYZyWbXRunHupOG88jjOnaLIWzClwbu5tg7NvQ22NnnC+W+GPt5vXz1+0OOx5iLZIcgznM8z3+uloChY7v8fNi8aoYftWLY02kNOt35H93PI+j+m74IFC51qYa+ZodK7bM8851y1e/UyG0Sx9+ZUdoc+x/bxx/29Lm+iuc1x+fzH998z8HmYFfa9DCfl96Mn3DADiqE9q5BiBARnDbPsX46nKf9frrx9UWto1+q8PLdHw1NROfZxeAQsAIJn4Tp+yax0d1PNuZk+uJiTlCCvvpmWdKZIacFOQlV+gstWleqjANnQQ6Qaid5gbo1JtXj3DvTny34QYWZljNHfRwjB/oY/8+eaNtA2dxNovVrFdB2mY5pmbTveG0UhV4ZzJzrnq0Laov6ejjvU4zXkpc85LYBDHcL4D+TO0LmwB2r6+frHLWRD+e122ukzrF0QeAjpt4hjnf1u075XwN/7tnPMS0+/IkZmqBU7fdW62jP+aOboa7hRDv/rKMEEc40SLl5WTEHrwvY7xOpi6QR2/19Ho6fcMAOKp14dWmZjL+++9Z1tCM9k5r75aq8uvuELz59+ta64ZHiKI4/FeKzibBwCQ+NLSR9i1jjI0It1buyY9+YZXTTM3HO4Ngfmr8db2IQyrDqim0fkHf+CNl9+eHW37tRV2NdkHbW0BS7z+Yl40yb0BMX89Ll/VfpymnkX59hZ3l1DBivCfzzlu9/O5u3USa79YxXQdXOY5kzngnQu3tkdmgXOuOrRpjG7p16EosR2nv/ZLx/Nyj3MdvP1TNXd1/K57nyuapXVmWJQ5zjDDiLJm3xFhtqQ0XesGpd7Tu9FkVMT4O/KMUaHpW3vA6du5X/jhTrH2C2OUc/2ch4aGZm+7X8X4+4v1OjjfF1M3yHxftgV+rzccsMEtkyHktQVl4/T4ewYA8dXrGTlmVqr6+vpOQ6n8vPYUZY26ViNGjGgL4oQO5KQ4r3VcgwYRyAGApHHwkOrMo1sHJ0+BoZqMvGKVlHlFkJNS9mTNyzcr5qbDpP63/8O//vhePbrC3PTahv62Z4dzE+7cnLjTKgdmHvi0q3KTymvN+jBdG3gjEvHzHXE+n/8mq4NY+8Wqh9ehvcCtTy8d8G4CA9vePek29btuH6dzXh6yN58dz4uc67Cp7TqM0bzAbIK+vn4xS1PpHJNNI7lDbyqDh4nVO9/5pc5NtgkWTLo53H9jbI2qxha97TVEFsvvKIA7XOfxvQHDcLx+y/3Bh4mhs3Ji7deZ/5wd09OdhpGZIW0BM1xFWLoVOOpCTL+/GK9DTtYw99F8XwKHXtXv2Wu/K6ECtvH4ngFAfPVqIMcEaS4ZPFivvmamEo/kgsrKvqOlf/u3GpkZ/k88JuZz8ODvNGjQYNsCAEh8/qFTzj+Hp87X4pXt048vnj9VuWk+1ZmKx8nI/mVbtTX2pqOjZp2wa4mg3n+M2WmaVjRZy5aUav3aUvfGrMy9cU/VqFHuHp4uP18YsfaLVQ+vQ2ND5+9fYNvbDd7NZX/r9nF2eV582vSMuQGVsgrGKsddc/T19YtV9lhNcoMwB1QZrn7RnrfcjLegz9dD3f4dtQk/fKv+FVuEeOTwEMcZa7/O/JlWNRt2JMwU67H+/mK/DpFlZnUIxvTT9wwAIun9QM6ll+r13x3UqVPhaiNIH374of7ub/+b7v+bv9HB3/3OtgYzr9XUdEqHDr2hwYMJ5ABAMmmqLldF1W7V+QL/we6zs1iVa8uhM7Ytufj/upsYQxS6ZgreLltbps2rF6rM1EzJd27Yww45iv3z9fV5Sbbr0FeiOi/+einO98A/x2jSnE9/wCmzQOtspkjnZYYK3Z3jp7u/o24JuA7dEkU/U+PFBDgaancqdOHuI3o0YMhQpCV84e++E8t1qG/wyj24w66Csg/HadkiL+umU2Cpn75nABBJrwVyTODFDeRccokbzKncutXdDqWluUWffvKpPve5z+ntt9+xrcFM36eeqtRll13eaVpyAEDiazpYrS3l5W1Tj69ZU67yLQfV1CTlTch19zlz2tlA7zA1HvwFbxuPuXUeTG2J5ba+hDcUAUBESfo7MkEct8ZL7U4t7ZWZqvpYrNdhzw77nFeguC0QYwpJm2bn/ITNugGABNLrERETdLn88st06I03tOPZZ0MGc64bfZ2+fd9fa86cObrjzjtsazvT59ntz+rokd/r0ksvta0AgIEhT14cx6ewE1sluKys4XatB2L9S3xU/H9tbvEKfK7Y4dZ5MLUl6oPqS4QW6+eLy3nphr5+v2QR8bz4sw1C1IhJ+PPpzyYy02jbTJGwS9hpzJt1wtT7ier317PfUUQRrkNEXfZLkztL02xTLLm3phvvaz29DrYOj/u/fraIcajp+OPyPQOA+Or1oVUmkHPppZfpqs99Ttu2bdOz27e77f6AjilqfP78BU2cNEkzZ81yAzX+Qsf+/Z599ln93x3Puq9BNg4ADCwZxbfKjePUvajqJEvIaatPkf/F0LPUZNtCqlEJXyA1bhqP6aXAgrdt0nStXQsU6+eL73npWl+/X1i9GozrvvbzUhh+inFbxLXhwNG2G9CYz+fxZrk1kMOch/YZtKLU1fk8flT7zBuG/XzR8BfT7cbvr5u/o0Cha7aEvg6BYuvnPL92oTtLk1cseSAEcQLEch3cWaskMyPW0qAgTOcixm3i8j0DgPjqk6iIl5VzuYYMGaJf/nKbHn/sMZ082RQQ0DHBnHPOct7d39/e1NSk//HEE24Q5+qhQ6mNAwBJKq9kpVaWlSgvI2DOqow8FZeUafFUU1jSp93PH/Tak4n/H/gmTX9tcM2FHOeGYb0/XT+iI3rZTfVP1dwHJneo22CKeMZxFpTMAj20YFxAMc407zidm725bnHQDmL9fHE5L93Q1+/Xic3qcN5/XuD5zR4XfD372vG9etr/3VpdqmWB3yXn2MxNvhdY6TCDUczns/08lC0JPA9pKrVZIdGJ9nz6izXbz2f2DXre+f0scI53o/MZbEsou/Z3c8ah7v6O2qSqcJE9TtsS8Tq0iaGf8/wy93lv+vigqbQHihiug1f/KVWjujW7VHy+ZwAQTynTby8ONc93XPmnEz937pw+++wzffTRn5zlI914400qKCjQmDFjlDrcS99tPtPsTld+oLZGrx983a2bYxYTDPKCPn3j7Nmzam1ttVsA0D8O1x3RlClT7Fb/MwGZ+V45m8jqqrRmiz8wk+H0uzvCFOM+Z/dyte2eoJrPhLkRyp7s3NgWeMMbOjK1G06OUWG+N41z2BmAIr2Gc5NWfl/PZ5hpq5ERinOc5QekstljnJu+DoVMY/188Tgv3RHD+01b4s1uE/iZ/eepq7aOwp7fOAxn6dlxelkZ4TNhwlyDWK+fcyO92RaN7chkhTydZTJEur7u3TmfYff1c4532092RHi/cVpmitU2HtDyLobGRHwv531C/47ar0FDo5QV8lqEOicx9ov435NgbqZOHII8/u9oZMHH2pPvdWzXwRHFuWlw+u97Zl/Q9ORGz79nABA/fZKR48+wMYWPL7vsMg0ZcrWGD79Gv//9Ef3sZz/V3//9I3rwgcUqe+ABrVr5Pf3iFz/TsT8cU1pampvF09dBHABAPDXp4Bb/rFW2yRUwa1USJuO0Ob5XS1ft1LbawClybb2FFft0YqRtisS+Rk1j8DS75oZi24Z9cZkmuL5yk5ZvOObeELZxX9+rMbHLHUsTQsTPt0OV4abmjrVfrOJxHXrAPb/b7ZAkP3N+9/f3zE8+bVpR7lz7A873yza5WtyaKcvvCxNQifX67dkR8ntWboayVPqinsq9O+fT7HuPPdbg/duPN/LN9RFVbneOy83wiJypEfPvyNWifT8x1yK4f0PtAef8RApsdbOfv27OABb7f8+O6umg73RnWZljNHfRQi0rsg1Wz79nABA/fZKRE8ifnWMWM5TKPAYyARt/4Ma/9AcycgAkgkTLyLmYhc3Iicj/F/WuMxDQm7gO6EpvfkdifW2+t/Flz6ciZV6Z4tAmayx+2UoA0Bv6vHKwP1BjFpOhY4obBy6mzf98fwVxAAAAcDHxadNPDqjBrYNCrZMBKXusJplhamEKSnuizxoDgP7U5xk5yYKMHACJgIycxJEIGTld1mgIEp/aOn2p9z5fYmQ2DPTrNyCYYrmLxijLDAczQ3Rsc8+QkZMQ2urjtKhmw3Oq3OMLCujkZI/Tl+cVam6++Y3y+wOQ2JjLGwAAADD27NDSVSYzx9GfM44h/o63z+JWuGih1m0s0+aAZd3qGV4Qx9TaWUUQB0BiIyMnDDJyACQCMnISBzVykhnXAf2JjJxEklM0WQvmjFFmZnBRaP9sVS91yNQBgEREICcMAjkAEgGBnMQRWyAHAAAAiC+GVgEAAAAAACQJAjkAAMRo9OgcuwYAAAD0jd4P5GTO1MNr1+rhmZm2wTQt1Q/WLtWd7U3BbJ9v3mS3AQAAAAAAQEYOAAAAAABAskiAQE6m7ly6Vj9Y6y2dsnBuutfN3nm4bZ97RaIOAAAAAAC4GPVZICd9+kNtwZrvTE+3rWYUValuSz+kyhUrVHlIGl88U51HXKXLV71Cj6zYojc1QdMDhmkBAAAAAABcLPoskHP6+Sf0yAoTjFmhHz1/2rZKGSNMUGeCFqxdqwUTnNX0Ecpwnwl0WqeazGOTTjld00d03gMAAAAAAGCgS5AaOV5Gjhfo+bleta3t0uXGbjL/XBPSpdNeVAcAAAAAAOCi0u+BnFd//oReOO1l5LhDr+4NXQFnfInz3EPTlX76eW35daNtBQAAAAAAuHikTL+9+IJdT0ym2HFJul54Yr1+04fxm7Nnz6q1tdVuAUD/OFx3RFOmTLFb6E/NZ3x2rd3o0Tl6++16uzUAZU/W+tUFymo8oOUr9irUJ81ZUKp1s1PVsH2rlla2n6NpS8pUlm83OmhobFHjM8+pco+v02tG6teuRdtWbdKm43YziQz0zwcAAHpfggytAgAkjwzllTg3oytXaqV/KStTSV7X9csy8opVUhbQb6XTrzgvRG00DGRZmakqXLRQ69ZOVo5t619pmrakVOs3lmmzf1lbqmVFafZ5AACAxJH4GTn9hIwcAIkg4TJyMvJUcvd85Ya7v62r0potB+1GsIziMi2eGqajb7cqyquVyBXQyMiJLSOnZkO5Ht1jG11pyikaq4cWOa/rbHXsFyxNpWsXam5mL2aoZI/TsgdmqDDchJi1O3XP40fsRrz1wecDAAADDhk5AIDoZBSrbLEJ4vhUt7tKFWvWaI1dKqrq5N6K585XSZ67dzCn791uEMf0rWjvW1GlOtMxbaoWh+yIgcen+j17tXTDMXcrK2u4+9gv3ECVCeK0qGb7Ti2/r1z32GW5c3wNZp/8GVpW5O4NAACQEAjkAACi01Stp3bXaXdFubZUHwzKnmk6uEXlVXXueu6EzgGZvOlT5YZxdj/l9G1q79t0UFvKq+T2zL1VxYyxunicaPECJSOH99/wquN79cT2Y242zKOVR4Iyjur37GgLNhVOHOc+9heT3bR54yxNMxk8S0rt8C8z9Ms8G6othOxx7n6Bw8fWr52l0i6Gj+UUzXL2a+8Talm/IMRrhHm/adn2eQAAEDMCOQCAqDVVb1F1uPFPp057WTmd5GlCrnms04shOx/U87vdtBylj/BaMPDl3DzGHVqlk80hh2z1lfrKHeGHNPmDTQlhmOaZYVj5qXY7VYVzJqt0SYe2RSbgE8gGelbPcPdzz7mVlTlGcxctDBv8MXWD1i1yrlO4YWdhmOF24d6vbHWYwA8AAIgagRwAQHyMSPeybk6f8rb9MtJ1jXmsO6TA6jmByTdNp8+4j9ekk5Iz8KVp2oJZemi2F3yo2d9b9WfiYJQXiGhoaPa2+5VzLG4tHTP0a6u2mZk8Mws0N79Dm8bolsDATNEkN6DS0HhM5au2tg0dM/uXb29xd+kc/HEUzVKZGyByXn9De7/lGw7Y4JbzerYtqMaR08/UTDL9wg1Xy5p9h0rJzAEAIGYEcgAAcZCh4ltN2k2IrJtOAZ48laxcqcXOUuYfS2WzedJIyRlwChcFD8PZvHGhymZ72TgNtTs7FEJOJGkqnTPGeTympzsVYx6nZUGfKfwSz/o6Ddufs9lDPr10wAvCBLa9e9JtCrZnh5avKtfSFTu063jg5/BpV+Umldea9WG6tkNgJSdrmPtYs2GTNu1p79de36hDwMjlP2dev/DD1VI16WaycgAAiBWBHABAj+WVLJapZVxXtSUo6yakvAlyR1o5CNxcnBoaD7jZIUt7bTaonptmhixlmoDEDu2ybf2tsaFjQCm47e0GL7jTUb1/6Fh2mqYVTdYyU7tmrVdXx8wsZgIro0a5e3RLZlaHYEz2WE0yw7Cc61sZLkC35y3VOA9ZBWMTZOp5AACSD4EcAECPmGnF5+dKvroqhZl53NUWtDn4vNySOPKp7lCXYR8kOTP9eNvQGjuUJ+tkc4fskMRiaryYAEf4jKEjejRgyFCkJREyjnJM8MYULF69UGWLClRoatdk+uvqhFbf8J776A67CszWMdO1L/KybjoFluxQNDPka12HzKT2ZYYK3Z0BAECsCOQAAGJmgjiLvVQclYeL4nQqgtyk6nIz/Xh5e+AnXH0dJAbnpn+0Xe2J+soaNxtD+YUJWyPFBHHcGi+1OxM6YyhqpmaNCd64mTLH3Lo1Jhtqua2X4w2tCmHPDvucV6C4LRBjpms3zc75CZt1AwAAehWBHABADDKUV+IFcUwmzppIqThNp+WWMs6doM4Tk3sy0t1yyDpzOtyUWOgXx5vl1s8NUUPFb3SWl9kRathPZ0dU6WblpGruA5MTbGhNmjdL0+xUNxPnnoEQxDG1fNzsGVuweMUOt26NyYaqjyojytbhcf/XzxYxds5Pp9nG/LN8mfPXITOp07Jib7/OVgYAQDIjkAMA6KYMFZct1vzcNPl2V4TPxGlzUIfqzGOubvUXNw6Sp+kmq0d1YqRVomnWCTeSE6447Tjd4tZYadGJE25Dl+orn2ubcWlBHAsB90yaStcudGdpatie2LV7YtJ4TC8FFCxul6Zr7Von7qxVcmfEWhoUhOlcxLjN8aPaZ65tAmdcAQAwEBDIAQBELyNPJWWmsLFPdVUVKu84Q1UYB5/f7Q6vSpu6WGXFee1Tj7uvN98rftxhenIkAp82PWNmGTJTRi/UsqKAYI6plbLWDrMxgQJ/Qd0utb9m4ZwEyMpxP4cpbNyimg1bg6fSHigyC/TQgnEB5zpNOUWztN58bjcQ15k3a1WqRnVrdin/tU3V3NWlWmbeMyig4009v35jiOnOAQBA1FKm3158wa4jwNmzZ9Xa2mq3AKB/HK47oilTptitfpZRrLLFU51bsa65mTodgjxt9XRC8e1WRXm1EnlgVfOZzjf4o0fn6O23B/4AkWlL/LMbhdKibas22Smw2/n7mGLHnQv+ehkwZlYoNwMmIHgS+b38Qr9nt2VP1vrVBV6B3i50PM5YxfL5Qp1Lfy2faNtCajym8gNyp4PvdJ2iODcNTv99z+wLmp7ciPiehtNv20929Pz6AQBwkSIjBwAQHVuQOFZN1eWqqNqtOl/gTZ9PdburEj6Ic7Hb9Xi5lm845ty42wZXi1tLZnlMAZXATJ9J/Zed4Z9laQCrr9zU+dqZQIqtmbMruABOu+NH9XRt6OnM/bIyx2juIpOpZRss8573rNqpbU7/oJdvtPV1nPcliAMAQOzIyAmDjBwAiSChMnIuchdzRg4uNjZjSge0PGxRYlMc2tQVil+2EgAAiA4ZOQAAAGiXPVaTzLC3A0cjzCzl09sNkTN2AABA7yCQAwAAgE6yZt/hFrjuWJA6J3ucSu1U7dIxPU02DgAAfYqhVWEwtApAImBoVeJgaBUuJlEVZaZoMQAA/WJwzpgx/2DXEeCTTz7R+fPn7RYA9A/fmTO67rrr7Bb600cf/cmutRs6dJjef/89uwUMHMdf3qf9pwcrNesKaciVGmLbDTNbVfXm57TxX3+n3e/bRgAA0GfIyAmDjBwAiYCMnMRBRg4AAAASATVyAAAAAAAAkgSBHAAAAAAAgCRBIAcAAAAAACBJEMgBAAAAAABIEgRyAAAAAAAAkgSBHAAAAAAAgCRBIAcAAAAAACBJEMgBAAAAAABIEgRyAAAAAAAAkkTK9NuLL9h1BDh79qxaW1vtFgD0j8N1RzRlyhS7hf7UfMZn19qNHp2jt9+ut1sDTZpK1y7U3EypZkO5Ht1jmzvx79eibas2adNx21w0S5sXjbEb4TVs36qlle3ndtqSMpXl240OGhpb1PjMc6rc41O4s55TNFkL5oxRYWaqbTH9junpn+zQLv+xBYj0fu06fLYAnd+vRTXba1RZeSTEMY7Tso0zVOisdfzcfjkLSrVudmrY5wEAAMjIAQB0U4bySpyb35UrtdK/lJWpJC/DPh9ZRkaeip3+br+SPNuKxOPTSwda3LXMrDT3MaTssZqU6Tw2HtNLIQId8ZSVmarCRQu1bu1k5di2QG4QZFFBUBDHyMoco7LVZVq/ZFzIfrGatiTU+znHOHuGc4yzNM22hJI1e1LE53vD+KGj9PDkr+i1+fP02uRRtrV3jL9ugp6Y4byPeS93+YqemDBK4+3zAAAgdmTkhEFGDoBEkHAZORl5Krl7vnLD3dfXVWnNloN2I1heyUrNz7UbfhH2TzQXX0aOI3uy1q8uUFbjAS1fsTd0Fow/86Z2p+55/IhtdPjbI/UNwZ8h0zkLKE05RWP10CLneJytThkrbRlALU7f55y+7c95WTMm4BI+s8YTJrsoBH/mjJeB85wqnWNxP2P2OC17YIbzXs56p8/enpFjhMq66Y2MnLsmz9N/N8cTqHG/btx7wm7E1/gJX9Hm3CF2q4MPjuienYf0pt0EAADdR0YOACA6GcUqW2yCOD7V7a5SxZo1WmOXiqo6ubecufMVLsnm1PNVqqqyy+743KCilx0/qn2NzmPmGH0522vqaNpEb/hUzf6AIE6v8Kl+z14t3XDM3crKGu4++vmPo2F7cBDHMP0eXbFVy7sIzkRvnBa4QRwTcNqkR/1BHOP4Eee9dqrGrGcWaEGR2xqs9pj7fF9l5Rx9c7/+fr9d6j6wrb1k6AStc4M4H+iFuv9P91Q9rRvNUr1fL5i3HjJOm3s5GwgAgIGOQA4AIDpN1Xpqd512V5RrS/VBNdlmo+ngFpVX1bnruRNCR3Kamg7q4EG7nD5jW5HY/MOrUjXp5lBpWON0i1tf5pheDltDJ85OtKjBPI4c3s1hUj7Vx2voV9EXvayaxgOqDPm5j+hRG3AqnBNqGNhbqtxuzusYzVsQYdhanLz5/gn96h27fPBH29o77hrvDV+rr9uvhw6935554xzDQzv36wWznpmrh4e6rQAAIAYEcgAAUWuq3qLqwAhOoFOnvawcDCj1rxxzAydZBWM7ByT8AY3at7TLbeh9OTePcYdW6WRz0HCtXfttpo7JcgmTPRQvbdk/B46GHzLmDzhlpmq02xBg5HCpsqZPs3L6xijd4Q7hatS/HHrfbQl2Qj92M4KG6AtXey0AAKD7COQAAOJjRLpMboHv9ClvGwPD8WbnttwRIiCRkzXMfYw4rCqzQOs2lmlziGVZqGFHYaVp2oJZesg/pKnje+7ZofJas+IVNt68dpZKi3oj2yVN14701hobIoQu/cPSNEzXhgwsHenTrJw+MfRquR+18V39ym3wBBY4ftNmBGUPISUHAIBYEcgBAMRBhopvNZWM6/Ri2JQdJKcjetkGSG4JCryk6csFJqjSO8OqChd1DPwsVNlsLxunoXZnyOnQdz1eruXbvQwiU9dn7qKFTr9SLVsQ39mqPC060cNawfUDLSvn6iHesKqz/jo8o/TE/Hna7CzbJtjAjfOcyWLKcfYFAACxIZADAOixvJLFmppmJqHaouSYgwrd4R+2VDhxnPvo8k873tWwKjNz033luifEEioYE0mD81rlq7ZqaeDsWB3UV+7QUue1l284oBo3I8ZOB24COr2SodMTAzArJ9B11+o2u0rgBgCA+CGQAwDokYziMndacV9dlZJkJnF01563vFmY8r/Yljnir1XTW7NVmenH/QGf5W6wQ8o62axdx6OrxOTNVOX0X7VT22q9gs2FixZ2czhXJKkaFYfJlwZcVo6jLWjzzmH9q5uc84FeeLd3pjoHAOBiRCAHABAzE8RZ7KXiqJwozgDmH17VXu9ldJYZVtXz4UXR8Ac7lF+o0u4WMj5+RJse39QWDAo9i1R3+PTuSW8tMytCFo0/Y0nv6d2Is2UFZ+XUN7znNScjO2yq3ft6bKeZfvy3eugd29Rp+BUAAOguAjkAgBhkKK/EC+KYTJw1BHEGPG94lX8acjvteOMxvRSvKb0j8gc7UjX3gdgCMf7Zt+KhbYasUDN5WW2zazW26G23Jby2rJwIr5cU3j8r9+uQea3uchs6Gz/k8+7j8Q9CzWoFAACiQSAHANBNGSouW6z5uWny7a4gE+diYYdXucEGO+14xOm346y+8jltMzVvMgu0IMTwqGlLuqiBMyrVC6zEg3+oWZhjMYGuBf7ZtZ7ZG8U5soEq83oTbVMiGTpBT8yYp9cCixaHdELPeVOc6W9C7jdKD+aaYVeNes6foQMAALqNQA4AIHoZeSopM4WNfaqrqlA5M1RdROzwqsxULZhoph1v0b5XoqtXEx8+bXrGFl3uODwqe7Lm5Xs1cNavnaVp2cEBnZyiWVq/aIy7Hl1gpStH9OgGeyyLzKxYae3Hkz1Oy9bOcANdptBzZZQFnf1ZOYX53nEmkrvGj9NttuxNTu5EPRwhlvOrN494s1Ll3q5tE0a1Tz0+dJSemDHRK37cYXpyAADQPSnTby++YNcR4OzZs2ptbbVbANA/Dtcd0ZQpU+xWP8soVtniqYqQ89DGzdQJCPLklax0CyJ3KYGHaTWf6Ry0GD06R2+/3Vc5Kf0vZ0Gp1tlME3c2qhURgiJFs7TZBk8iqt2pewJmoZq2pExl+V6x486zWqWpdO1Czc2UGrZv1dLKgGuSPVnLHihQoVuXJjQzbXnHGa/87xdZi7at2qRNHYaRmSygsnx7PjpqPKbyFTs6zOg1Tss2zlBhmHMXeH47fb4Y3TV5nv57hHPSpnG/btwbuuBR8Gt8oH+t/q0eizAyavyEr2izm3kTwgdHdM/OQ3rTbgIAgO4jIwcAEJ0R6VEFcTBwBdaZ6cthVe3as3I6zfJ03MxStVXLNzjH6A7vaddggipdTFsei12miLI7zblXSNnToprtO7W8UxCna21FnROMybJ5wdYmrq/bHzGIY7x56Le6Z7/pE1jQ+AO94PQliAMAQM+RkRMGGTkAEkFCZeRc5MjIAQAAQCIgIwcAAAAAACBJEMgBAAAAAABIEgRyAAAAAAAAkgSBHAAAAAAAgCRBIAcAAAAAACBJEMgBAAAAAABIEgRyAAAAAAAAkgSBHAAAAAAAgCRBIAcAAAAAACBJEMgBAAAAAABIEgRyAAAAAAAAkgSBHAAAAAAAgCRBIAcAAAAAACBJpEy/vfiCXUeAs2fPqrW11W4BQP84XHdEU6ZMsVvoT81nfHat3ejROXr77Xq7BaD/pal07ULNzZQatu/U0sojtv0ikj1Z61cXKMtutmk8oOUr9or/YgFA8iOQEwaBHACJgEBO4rjYAzk5RZO1YM4YFWam2pYW1WyvUaVzo9zpDBTN0uZFY9zVmg3lenSPuxpgnJZtnKFCs1q7U/c8Hniz7b8Rb9G2VZu06bht7jXtN/4RdbgJnrakTGX5diOsUJ8hxs8XcE4jadi+VUsrO39XO18/Z9/GY3r6Jzu0K17nuEfXPU6CghjHVH6f8/nc9YsIgRwAGPAYWgUA6KYM5ZU4N7ErV2qlfykrU0lehn0+nFj7ob9NW1KqdYsKgoIAUqoKZ8/QurWzNM22hFI4cZxdC1D0Re9mHn0iZ0Go6ydlZY5R2eoyrV8yTjm2LV767bofP6p9jd5qw/a3Lr4gjnF8r5beV6572padqrFPAQAGBjJywiAjB0AiSLiMnIw8ldw9X7lpdrujuiqt2XLQbgSItV8CuVgzctwgwGwTADAZOM+pstLn/UU/e5yWPTBDhSaTpeNf+oOyRzpnRQRlsyRMRk5P3q87r9HDjJzuZlW0XQvn+m14To/uaf8ee1k6JsATp3Pdo+uO3mMzocjIAYABg4wcAEB0MopVttgEY3yq212lijVrtMYuFVV1cm8Pc+erJM/du12s/ZAAxmmBG8QxQ2U26VF/EMc4fkSPrrB/6c8s0IIitzVITe0x53/H6Jag58bpFnMz7zxHlkDvmzbRC6w0bA8O4hj1e/Y613Crlsc5YMZ1BwCgdxHIAQBEp6laT+2u0+6Kcm2pPqgm22w0Hdyi8qo6dz13QoeITKz90P/8Q2EaD6iyU70T44ge3WBu2kMPpclsaHFv2oOes69Z4zyHROBTfRyDOEaPrnv2OJUuKdX6jWXabJf1a2eptChUOp/Jbmrfr+OyfkG4FEDbb+1kO6QszR0+GPSeS/zPxVOacopmOZ8n+H2mZXuZb5s3lqrUWfczGUybN5qhi87xOsfn9SnVMjdAFqoNAHCxIJADAIhaU/UWVQdGYgKdOu1l14QQaz/0r5ysYe5jw4Gj4YdjnGhRg3nM/2KIWjnNOmHqlQQ8571mi044nbqqL4ye27XfC7RlzZ7kBgz6RizX3QYmVs/Q3PzUoEK9ppbP3EUL4x+syEzVaDNEcO1ClXV8z/wCrWsL9MSDCR4t1LpFY5zPY5sc5n3KVpfqoQLb0MkwzTND8Zzj86SqcM5k51x1aFsUuVYVAGBgIZADAIiPEenOrYrkO33K245WrP3Q60ZneTeKjQ0RQm3Hm+XVlh2mazsFCpr10gGTgeEfZpOmLxc4r9l4TC+dMNvotswCrbPZHB2XkIGOPTtUXmtWvMLGm8Nmt8RTDNe9aJIbmDAzaZWv2hpQqHeryrd7WTydgxU+bVoRWNTXW5bb/btmzomp89SibRva33O5zTILN2QwFtNM4MUN4JhaRQHvteqAahpTldWhEHU785ypYWT236pt5sfmHNfc/A5tnYayAQAGMgI5AIA4yFDxrbnOY51eDJt6E0qs/dD70nTtSPPYohMRgy42+yKErKzhqq+saR9mkz1Wk5yb2ZpnErHgaqrmmkBHiADJ5iUhZmBKIrseN8GNY17mlM1ucYfjLIj/bFVGTNd9zw4tX1WupSvMdOiBgUOfdlVussGoUMHCHjKBo/s2aVNA/aD6tuCXc7qy4hD0yp6seW6RZ6+odGCtovrjpk7RTtWE+Q0Zpr6RV8PIZwNkwW3vnnSbAAAXEQI5AIAeyytZrKnO/U5d1RZ1Z+6pWPshmRzRy+ameORwTbt5jLJ0TC+bejujgoeyIEpm5iGbzdFxeTRkHSNPfeUOd0rq5RtMBohpsdPHu/VVeiNDp/vXva1WT3aaphVN1jJTt2atVwfGm+0qVaNGuXvESYu2/SR4Zi2/t+NZw8n/mWtrwhSVblakWGmojLjAtrgeKwAgKRDIAQD0SEZxmebnSr66KnVnBvFY+6Gv+P/S39XN83CNCl30pI1bpyWzQGVmBqzat0LeOPc//1CVEMsAmibbm6nK+UyrdmpbrQkAmPoqvVB/xtHd626mQ19mCgGvXqiyRQUqNHVrwg45Sh5ttaYamt1HAAB6ikAOACBmJhiz2EupUXk3ojGx9kPf8v+lP+Lwkuzhtnjte3o33OxHe95qm3K6Zv/ACYokteNHtOnxTW31ZEwB3bgPs+rOdS+apXUmeGO+TI3HVLN9p1srZ7mtl+Mf6gQAAAjkAABikqG8Ei8YYzJq1kQdjIm1H/pDfcN77mNWwdiwN/k57rAZR8SMiyN6eXuLGhoPeMNrkDDqX7G1c3pFtNd9nJYtGuM8tnhFh1fs0KOVR9xaOfVB9XKSm6kdBABAPBDIAQB0U4aKyxZrfm6afLsrupFRE2s/9Bt/RkXY2XvGaYEZNuPoKuPCFKxdumJvgg6rGrimLemiBk4v1yrq1nU3s1oFFAJul6Zr7VpCybZDwTaWaf2C8Oe4LVgWcop+R3bXwxPjwky3blcBAMmNQA4AIHoZeSopMwWKfaqrqlB5tDNNxdoP/eyIKtumfjazHKW1Z+Zkj3NuYmeo0Kw3HlAlmTaJx50tyauBs37tLE3LDg425BTN0no3EyZBZhLLLNBDQTNpOd83c4xrF2quW+w4sUybZ4eCObJm36HScDNqHT+qfXaK8DL3OritLvfzmSnQ7Xbv8M8sN0bzAs+v8xsOPBYAQPJImX578QW7jgBnz55Va2ur3QKA/nG47oimTPba/XgAAAmASURBVJlit/pZRrHKFk91bq265mbc+IM1sfZLMM1nOmcKjB6do7ffTryJtOPNZHWU5YcpOmumbzZTRttNl3NzutkECGp3hi8UHHafNJWaG/cuMxTMtNGhZxzqHv/7eVNDh55VqLNpS/wzKUUS6jVj/Hz+89WVjufTZI080B5wCKXB6bM0HgWde3DdcxaUap3N7urEfMcOSGWzx6hmQ+TZuQz/azVs36qllaEzfLq65l2/RsfvQBffH+c6rF9dEDr7ydQEOjlGhfnBr+F//cDP7D+urto6Cnt+I10rAEDCIiMHABCdEelRBWM6ibUfEsYuUxR3wzE1uH/V92txAwDLOwZxkFiOm1mqtoa4fnK2j7kFheMSxOmh+soQ3zHn+Pw1c3b1XiGfmO162j+Vu3Mutz8XOQjoXIelbTOF+bW4RZ2Xr9inEyNtUy9xz+/2DvWQzPndz0xaAJCMyMgJg4wcAIkgoTJyLnIXc0ZOoLa/7POXfCBOYssKAwBcvMjIAQAAUauvrPEKIOfP0PolgfVMAAAA0BfIyAmDjBwAiYCMnMRBRk6AIq9IbnC9j/7LJghb/yOkeNXWAeKFjBwAQPeQkQMAALpnz44Q9T4AAADQF8jICYOMHACJgIycxEFGDoDeQUYOAKB7yMgBAAAA+o1Pm1aU6577COIAAKJDIAcAAAAAACBJEMgBAAAAAABIEgRyAACIEfVxAAAA0NcI5AAAAAAAACQJAjkAAAAAAABJgkAOAAAAAABAkiCQAwAAAAAAkCQI5AAA0EM5C0q1fsk4uwUAAAD0HgI5AADEQVb+DG0mmAMAAIBeRiAHAIAeqq/cpOXbW6T8GVq/IM22AgAAAPGXMv324gt2HQHOnj2r1tZWuwUA/eNw3RFNmTLFbiWKDOWV3K1bc9PUFrLw+VT34lPacrDJNoTi9Cuerlun5gb3O/yinq8+qEg9E0HzGZ9dC2/akjKV5bdo26pN2nTcNgIAAABxNDhnzJh/sOsI8Mknn+j8+fN2CwD6h+/MGV133XV2KwFk5Knk29/U1NFX6Srb5LrqKqWNn6jbRjbrhTdO2cYAGcVOv69r6pfSOvcbPV4Tb7tegw/v07EPbXsC+uijP9m18I6//L7GzLtet39psPb/9oTes+0AAABAvBDICYNADoBEkFCBnIxilS2eqdFX+VS3+9d6amOlnn3hBb3gLIebRypnfJquShuvkc0vKDiWk6Hib39dBWm23w6n37NevxcON2tkznilXXWVRg8JEwRKENEEcqQzarh0rGYUfEGpp/fpP96xzQAAAECcEMgJg0AOgESQUIGcD4/p7cEj9fGOjXrm9VMKTJ758NQb2tc8UreNT1PaoI4BmQ917O3Daq55XtWmX3BHvfH2YF0/cbSu0hkd3ncs6HUTSXSBHOm9Dz+vKbdnKnfQ+/r3l8/YVgAAACA+KHYMAIhaU/UWVYcrZnPqtMJWkWlqUtjyOSPS22vmDATHj2pfo/OY/0VN81oAAACAuCGQAwCIDxuQ8Z2ObnhURoYpflyisvm5zpZPu5+qTviCx9Hx6aUDLc7jMF2b7bUAAAAA8UIgBwAQBxkqvtUEZOr0YtiUHYeps7NypVY6y+LFizV/6jVOlypVrCkPn+mTtFI1apRdBQAAAOKEQA4AoMfyShZrapqJyWzRQdsWnTSlXTNB1+dl2O2Bob6B+aoAAADQOwjkAAB6JKO4TGZ0lK+uSlu6iuI0Vat8zRqtcZaKigpV7a6TT7maOn+xyooHVjAHAAAA6A0EcgAAMTNBnMVeKo7Ku4ziBGsyBZCrt6i8vEK7fVLa1Ls1UGI5OVnD7BoAAAAQXwRyAAAxyFBeiRfEMZk4a7oZxAnWpDcOm/mu0vSl6wdSVk6LTpywqwAAAECcEMgBAHRThorLFmt+bpp8uyuiyMRx9i8pdv43nAxd/yVvAvIzpwdCxeM0fbkg1Xl8T+8e91oAAACAeCGQAwCIXkaeSspMYWOf6qoqVB7FVFMZxXdrau5ULV5ZppK8jKCATobzeiYoZEZnmRmvDvUksSdRZI/VpEznsfYt7fJaAAAAgLhJmX578QW7jgBnz55Va2ur3QKA/nG47oimTJlit/qZmTp88VR5uTORuZk6AUGejOIS3T01N0JfExgq77pYcj9qPmOGf3UtZ0Gp1s1OVc2Gcj26xzYCAAAAcUJGDgAgOiPSowrihNJkihpXVGl3nU9B4RCfs11XpYqKxA7iRG+cFsxOlRoPqJIgDgAAAHoBGTlhkJEDIBEkVEbORS6ajJxpS8pUlt+ibas2aRP1cQAAANALyMgBACAOzJCqsnypYftzBHEAAADQawjkAADQQ/66OKrdqaWV0dXSAQAAAGJBIAcAgDhoqN2pex4/YrcAAACA3kEgBwCAHqqv3KSlBHEAAADQBwjkAAAAAAAAJAkCOQAAAAAAAEmCQA4AAAAAAECSIJADAAAAAACQJAjkAAAAAAAAJAkCOQAAAAAAAEmCQA4AAAAAAECSIJADAAAAAACQJAjkAAAAAAAAJAkCOQAAAAAAAEmCQA4AAAAAAECSSJl+e/EFu44AZ8+eVWtrq90CgP5xuO6IpkyZYrcSRYbySu7WrblpSrMt8vlU9+JT2nKwyTZEI0PFZYs11bxIXZXWbDnoNSeo5jM+uwYAAAD0HzJyAADRy8hTSdlizQ8M4hhpacqdv1grS/JsQ9fySmwQBwAAAEDUCOQAAKKTUayyxfOVm+ZT3e4qVaxZozV2qaiqk5uvkjtf0cRyMorLND9X8u3erTrbBgAAAKBrBHIAANFpqtZTu+u0u6JcW6oPKnAQVdPBLSqv8kIyuRO6iOTklWixScWpq1L5G9I1thkAAABA1wjkAACi1lS9RdXhyuCcOu1l5URisnpMKo7qVJXgNXEAAACAREQgBwAQHyPS3bo5vtOnvO1O8lSyeKqzT52q1mwRYRwAAACg+wjkAADiIEPFt3qZNi+GTNkxM1TNV6582l1BEAcAAACIFYEcAECP+WegqqsKHaRpf748/NAsAAAAAF0ikAMA6JG2GajqqhSq7E37DFUVIZ8HAAAAEL2U6bcXX7DrCHD27Fm1trbaLQDoH4frjmjKlCl2K/GYII1/Bqo1IaM0eSpZaYZURStx6+c0n+mylDMAAADQ68jIAQDEIEN5JV4Qx2TihA7iAAAAAIg3MnLCICMHQCJIzIwcU7jYq3ljhkuV96TojZmO3MxklQTBIDJyAAAA0P+k/x94QUIWVQZrrAAAAABJRU5ErkJggg==;" vertex="1" parent="1">
          <mxGeometry x="640" y="1090" width="1138" height="525" as="geometry" />
        </mxCell>
        <mxCell id="okEYSekoPsIIKbUzh02p-2" value="Resource files in the Qt Creator project" style="rounded=0;whiteSpace=wrap;html=1;fontSize=22;fillColor=#dae8fc;strokeColor=#6c8ebf;" vertex="1" parent="1">
          <mxGeometry x="640" y="1030" width="1140" height="60" as="geometry" />
        </mxCell>
      </root>
    </mxGraphModel>
  </diagram>
</mxfile>
